<svg xmlns="http://www.w3.org/2000/svg" width="34.413" height="41.348" viewBox="0 0 34.413 41.348">
  <g id="Group_162" data-name="Group 162" transform="translate(-1613.29 -2296.826)">
    <g id="united-kingdom-svgrepo-com" transform="translate(1611.81 2296.826)">
      <path id="Path_65" data-name="Path 65" d="M3.482,4.967c.077.051.14.077.215.129a.5.5,0,0,1,.073.323c0,.007,0,.019,0,.026-.033.36-.321.749-.035.971C5.324,7.659,7.075,8.579,5.226,11.13c-.805,1.112,1.458.463,1.582.866-.063,1.889-2.717,1.135-2.118,2.694.609,1.585,1.367-.154,2.076-.379a.744.744,0,0,1,.328.484c-.543,3.558,1.854.894,2.989,1.4-1.926,2.795-.96,3.558,2.121,3.153,3.253-.428,3.511,2.872,3.951,4.52.683,2.572-1.8,2.268-3.565,2.041-.594-.075-1.624.047-1.311.477.583.8-1.423,1.84.349,2.2,1.872.389,1.3,1.35.475,2.247-1.465,1.6-1.2,2.975.761,3.684.653.239,1.285.524,2.795,1.152-4.875-.206-5.395,4.152-8.765,5.376a4.728,4.728,0,0,0,3.169.012c3.146-.456,5.809-2.383,9.2-2.308a34.966,34.966,0,0,0,11.061-1.421c.7-.218,1.723-.66,1.713-1.61-.012-1.142-1.746-.051-2.011-1.205a4.465,4.465,0,0,1,.744-.845c1.435-.992,2.776-2.188,2.362-4.068-.431-1.971-2.259-1.952-3.8-1.807-1.072.091-.927-.314-1.065-1.091-.873-4.967-6.146-7.225-7.485-11.97a2.245,2.245,0,0,0-1.339-1.13c-2.092-.744-2.121-1.835-.845-3.431.658-.829,1-1.9,1.6-2.783,1.217-1.786.843-2.589-1.365-2.523-1.718.051-3.436.012-5.425.012.452-1.8,1.7-2.16,2.479-2.972.667-.69,1.159-2.125-.382-1.884C12.87.445,9.343-.685,8.076,3.034c-.105.3-.213.585-.325.847C6.939,5.7,5.778,6.4,3.7,5.1h0c-.044-.068-.047-.131-.129-.19-.019.007-.04.012-.059.019a.332.332,0,0,1-.026.042Z" transform="translate(2.683 0)" fill="#01006c" opacity="0.25"/>
      <path id="Path_66" data-name="Path 66" d="M1.484,11.1a1.216,1.216,0,0,0,.96,1.287,36.244,36.244,0,0,0,6.212.667c1,0,1.938-.878,2.015-2.422-.908-1.14-1.018-3.281-3.314-3.408C5.582,7.117,1.587,9.788,1.484,11.1Z" transform="translate(0 9.679)" fill="#ebebff"/>
      <path id="Path_67" data-name="Path 67" d="M6.809.316C4.6.906,3.322,2.081,3.479,4.456,1.765,4.625,2.608,5.4,3,6.015a10.11,10.11,0,0,1,.9-1.255c.335-.087.672-.178,1.006-.262C5.51,3.162,7.441,2.453,6.809.316Z" transform="translate(1.292 0.424)" fill="#01006c" opacity="0.25"/>
      <path id="Path_68" data-name="Path 68" d="M2.664,3.411c.356-.124.26-.372.077-.66A.93.93,0,0,0,2.664,3.411Z" transform="translate(1.546 3.689)" fill="#ebebff"/>
    </g>
    <path id="Intersection_16" data-name="Intersection 16" d="M-14335.639-16423.268a37.789,37.789,0,0,1-6-.668,1.213,1.213,0,0,1-.958-1.287c.1-1.309,4.095-3.979,5.869-3.877,2.295.129,2.406,2.271,3.314,3.41-.078,1.543-1.011,2.418-2.014,2.422Z" transform="translate(15955.891 18742.828)" fill="#01006c"/>
  </g>
</svg>
