<svg xmlns="http://www.w3.org/2000/svg" width="41.504" height="38.283" viewBox="0 0 41.504 38.283">
  <g id="Group_159" data-name="Group 159" transform="translate(-1336.498 -1087.359)">
    <g id="family-avatars-svgrepo-com" transform="translate(1343.932 931.676)">
      <g id="Group_45" data-name="Group 45" transform="translate(-1.001 168.075)">
        <path id="Path_29" data-name="Path 29" d="M65.859,193.756a6.469,6.469,0,0,0,2.4-.51,4.408,4.408,0,0,0,4.726,0,6.372,6.372,0,0,0,2.4.51.317.317,0,0,0,.292-.462,5.184,5.184,0,0,1-.534-2.4c0-1.911-.065-6.453-4.518-6.453s-4.518,4.542-4.518,6.453a5.208,5.208,0,0,1-.534,2.4A.317.317,0,0,0,65.859,193.756Z" transform="translate(-63.302 -183.884)" fill="none" stroke="#01006c" stroke-width="1.5"/>
        <path id="Path_30" data-name="Path 30" d="M1.193,501.185h9.771l.037-.218a4.653,4.653,0,0,1,2.621-3.43,4,4,0,0,1-.4-.357,4.2,4.2,0,0,1-1.238-2.989v-.034a6.019,6.019,0,0,0-3.638-1.217H6.286a6.038,6.038,0,0,0-5.95,5.011l-.32,1.843A1.193,1.193,0,0,0,1.193,501.185Z" transform="translate(0.001 -481.895)" fill="none" stroke="#01006c" stroke-width="1.5"/>
        <path id="Path_31" data-name="Path 31" d="M566.089,497.952a6.038,6.038,0,0,0-5.95-5.011h-2.057a6.022,6.022,0,0,0-3.842,1.38,4.229,4.229,0,0,1-1.646,3.216,4.73,4.73,0,0,1,1.04.663,4.66,4.66,0,0,1,1.588,2.771l.037.218h9.975a1.19,1.19,0,0,0,1.173-1.391Z" transform="translate(-537.788 -481.895)" fill="none" stroke="#01006c" stroke-width="1.5"/>
        <path id="Path_32" data-name="Path 32" d="M356.714,648.4l-.007-.044a3.635,3.635,0,0,0-3.58-3.019H351.89a3.6,3.6,0,0,0-1.227.214,3.635,3.635,0,0,0-2.356,2.8l-.007.044-.156.908a.848.848,0,0,0,.836.993h7.058a.848.848,0,0,0,.836-.993Z" transform="translate(-338.02 -629.113)" fill="#fff" stroke="#01006c" stroke-width="1.5"/>
        <path id="Path_33" data-name="Path 33" d="M383.007,397.955a3.2,3.2,0,0,0,2.5,1.2h.044a3.207,3.207,0,0,0,1.554-5.987,3.258,3.258,0,0,1-1.217-1.214,3.6,3.6,0,0,1-.286-.643.1.1,0,0,0-.2,0,3.712,3.712,0,0,1-.286.643,3.3,3.3,0,0,1-1.231,1.224,3.2,3.2,0,0,0-1.595,2.774,3.241,3.241,0,0,0,.272,1.3A3.489,3.489,0,0,0,383.007,397.955Z" transform="translate(-371.024 -383.653)" fill="#fff" stroke="#01006c" stroke-width="1.5"/>
        <path id="Path_34" data-name="Path 34" d="M613.868,178.042a4.473,4.473,0,0,0,4.474-4.474v-4.41a1.083,1.083,0,0,0-1.37-1.044l-5.45,1.5a2.9,2.9,0,0,0-2.128,2.795v1.156A4.474,4.474,0,0,0,613.868,178.042Z" transform="translate(-592.656 -168.075)" fill="none" stroke="#01006c" stroke-width="1.5"/>
      </g>
    </g>
    <path id="Union_3" data-name="Union 3" d="M-14339.61-16409.717c-2.427,0-4.392-1.623-4.392-3.629v-19.955l19.75-12.7,9.753,6.27v-5.627h5v8.84l5,3.217v19.955c0,2.006-1.965,3.629-4.392,3.629Z" transform="translate(15681.5 17534.359)" fill="none" stroke="#01006c" stroke-linecap="round" stroke-linejoin="round" stroke-width="2"/>
  </g>
</svg>
