<svg xmlns="http://www.w3.org/2000/svg" width="41.021" height="33.402" viewBox="0 0 41.021 33.402">
  <g id="family-avatars-svgrepo-com" transform="translate(1.005 -167.065)">
    <g id="Group_45" data-name="Group 45" transform="translate(-0.001 168.075)">
      <path id="Path_29" data-name="Path 29" d="M66.017,198.241a9.584,9.584,0,0,0,3.551-.756,6.531,6.531,0,0,0,7,0,9.44,9.44,0,0,0,3.551.756.469.469,0,0,0,.433-.685A7.681,7.681,0,0,1,79.762,194c0-2.831-.1-9.56-6.694-9.56s-6.694,6.729-6.694,9.56a7.716,7.716,0,0,1-.791,3.556A.469.469,0,0,0,66.017,198.241Z" transform="translate(-62.23 -183.616)" fill="none" stroke="#01006c" stroke-width="2"/>
      <path id="Path_30" data-name="Path 30" d="M1.767,505.154H16.243l.055-.322a6.893,6.893,0,0,1,3.883-5.082,5.931,5.931,0,0,1-.6-.529,6.218,6.218,0,0,1-1.833-4.427v-.05a8.917,8.917,0,0,0-5.389-1.8H9.312A8.945,8.945,0,0,0,.5,500.364l-.473,2.73A1.767,1.767,0,0,0,1.767,505.154Z" transform="translate(0.001 -476.577)" fill="none" stroke="#01006c" stroke-width="2"/>
      <path id="Path_31" data-name="Path 31" d="M572.586,500.364a8.945,8.945,0,0,0-8.814-7.424h-3.047a8.922,8.922,0,0,0-5.692,2.045,6.266,6.266,0,0,1-2.438,4.765,7.01,7.01,0,0,1,1.541.982,6.9,6.9,0,0,1,2.352,4.105l.055.322h14.778a1.763,1.763,0,0,0,1.738-2.06Z" transform="translate(-534.073 -476.577)" fill="none" stroke="#01006c" stroke-width="2"/>
      <path id="Path_32" data-name="Path 32" d="M360.847,649.877l-.01-.065a5.386,5.386,0,0,0-5.3-4.473H353.7a5.332,5.332,0,0,0-1.818.317,5.386,5.386,0,0,0-3.49,4.155l-.01.065-.232,1.345a1.256,1.256,0,0,0,1.239,1.471h10.456a1.256,1.256,0,0,0,1.239-1.471Z" transform="translate(-334.86 -621.3)" fill="#fff" stroke="#01006c" stroke-width="2"/>
      <path id="Path_33" data-name="Path 33" d="M383.349,401.188a4.745,4.745,0,0,0,3.707,1.778h.065a4.751,4.751,0,0,0,2.3-8.87,4.827,4.827,0,0,1-1.8-1.8,5.326,5.326,0,0,1-.423-.952.154.154,0,0,0-.292,0,5.49,5.49,0,0,1-.423.952,4.882,4.882,0,0,1-1.823,1.813,4.739,4.739,0,0,0-2.362,4.11,4.8,4.8,0,0,0,.4,1.924A5.163,5.163,0,0,0,383.349,401.188Z" transform="translate(-367.304 -380)" fill="#fff" stroke="#01006c" stroke-width="2"/>
      <path id="Path_34" data-name="Path 34" d="M616.023,182.841a6.627,6.627,0,0,0,6.628-6.628V169.68a1.6,1.6,0,0,0-2.03-1.546l-8.074,2.226a4.292,4.292,0,0,0-3.153,4.14v1.713A6.627,6.627,0,0,0,616.023,182.841Z" transform="translate(-588.012 -168.075)" fill="none" stroke="#01006c" stroke-width="2"/>
    </g>
  </g>
</svg>
