<svg xmlns="http://www.w3.org/2000/svg" width="21.172" height="28.841" viewBox="0 0 21.172 28.841">
  <path id="Icon_awesome-pound-sign" data-name="Icon awesome-pound-sign" d="M18.453,21.422H15.727a.719.719,0,0,0-.719.719v3.046H7.669v-7.6H12.7a.719.719,0,0,0,.719-.719v-2.4a.719.719,0,0,0-.719-.719H7.669V9.945a3.432,3.432,0,0,1,3.7-3.42,6.921,6.921,0,0,1,3.454,1.129.718.718,0,0,0,.94-.161l1.707-2.128a.719.719,0,0,0-.127-1.023A10.3,10.3,0,0,0,11.259,2.25C6.352,2.25,2.876,5.41,2.876,9.8v3.957H1.2a.719.719,0,0,0-.719.719v2.4a.719.719,0,0,0,.719.719H2.876v7.669H.719A.719.719,0,0,0,0,25.975v2.4a.719.719,0,0,0,.719.719H18.453a.719.719,0,0,0,.719-.719V22.141A.719.719,0,0,0,18.453,21.422Z" transform="translate(1 -1.25)" fill="none" stroke="#01006c" stroke-width="2"/>
</svg>
