<svg xmlns="http://www.w3.org/2000/svg" width="34.128" height="30.019" viewBox="0 0 34.128 30.019">
  <g id="Group_165" data-name="Group 165" transform="translate(-1341 -1355.708)">
    <path id="Path_89" data-name="Path 89" d="M73.059,65.592a1.618,1.618,0,0,0,.156.259c-.124-.167,1.195-1,1.333-1.078.574-.316,1.184-.56,1.773-.844A7.356,7.356,0,0,0,78.529,62.4a3.762,3.762,0,0,0,1.127-2.623,2.1,2.1,0,0,0-.323-1.078c.1.138-1.124.964-1.244,1.042-.535.34-1.1.627-1.659.925a8.581,8.581,0,0,0-2.655,1.914A3.125,3.125,0,0,0,73.059,65.592Z" transform="translate(1270.526 1298.008)" fill="none" stroke="#01006c" stroke-linejoin="round" stroke-width="2"/>
    <g id="Rectangle_193" data-name="Rectangle 193" transform="translate(1346.802 1366.355)" fill="#fff" stroke="#01006c" stroke-linejoin="round" stroke-width="2">
      <path d="M0,0H25.326a3,3,0,0,1,3,3V6.118a3,3,0,0,1-3,3H0a0,0,0,0,1,0,0V0A0,0,0,0,1,0,0Z" stroke="none"/>
      <path d="M2,1H25.326a2,2,0,0,1,2,2V6.118a2,2,0,0,1-2,2H2a1,1,0,0,1-1-1V2A1,1,0,0,1,2,1Z" fill="none"/>
    </g>
    <g id="Rectangle_194" data-name="Rectangle 194" transform="translate(1341 1366.355)" fill="#fff" stroke="#01006c" stroke-linejoin="round" stroke-width="2">
      <path d="M2,0H4.973a0,0,0,0,1,0,0V9.118a0,0,0,0,1,0,0H2a2,2,0,0,1-2-2V2A2,2,0,0,1,2,0Z" stroke="none"/>
      <rect x="1" y="1" width="2.973" height="7.118" rx="1" fill="none"/>
    </g>
    <line id="Line_44" data-name="Line 44" x1="26.524" y2="26.793" transform="translate(1345.974 1357.52)" fill="none" stroke="#01006c" stroke-linecap="round" stroke-width="2"/>
  </g>
</svg>
