<svg xmlns="http://www.w3.org/2000/svg" width="41.021" height="30.592" viewBox="0 0 41.021 30.592">
  <g id="family-avatars-svgrepo-com" transform="translate(1.005 -167.065)">
    <g id="Group_45" data-name="Group 45" transform="translate(-0.001 168.075)">
      <path id="Path_31" data-name="Path 31" d="M572.586,500.364a8.945,8.945,0,0,0-8.814-7.424h-3.047c-2.026,0-5.661,1.517-7.42,2.867.155-.125-.623-.355-.71-.283-.055,1.929,1.436,3.113,0,4.226a7.01,7.01,0,0,1,1.541.982,6.9,6.9,0,0,1,2.352,4.105l-3.184.322h18.017a1.763,1.763,0,0,0,1.738-2.06Z" transform="translate(-534.073 -476.577)" fill="none" stroke="#01006c" stroke-width="2"/>
      <path id="Path_34" data-name="Path 34" d="M616.023,182.841a6.627,6.627,0,0,0,6.628-6.628V169.68a1.6,1.6,0,0,0-2.03-1.546l-8.074,2.226a4.292,4.292,0,0,0-3.153,4.14v1.713A6.627,6.627,0,0,0,616.023,182.841Z" transform="translate(-588.012 -168.075)" fill="none" stroke="#01006c" stroke-width="2"/>
      <path id="Path_29" data-name="Path 29" d="M66.017,198.241a9.584,9.584,0,0,0,3.551-.756,6.531,6.531,0,0,0,7,0,9.44,9.44,0,0,0,3.551.756.469.469,0,0,0,.433-.685A7.681,7.681,0,0,1,79.762,194c0-2.831-.1-9.56-6.694-9.56s-6.694,6.729-6.694,9.56a7.716,7.716,0,0,1-.791,3.556A.469.469,0,0,0,66.017,198.241Z" transform="translate(-62.23 -183.616)" fill="none" stroke="#01006c" stroke-width="2"/>
      <path id="Union_1" data-name="Union 1" d="M-15675.587-17368.592h-4.145a1.767,1.767,0,0,1-1.744-2.059l.476-2.73a8.945,8.945,0,0,1,8.815-7.424h3.372a8.8,8.8,0,0,1,8.614,7.424l.467,2.73a1.756,1.756,0,0,1-1.705,2.059Z" transform="translate(15681.5 17397.166)" fill="#fff" stroke="#01006c" stroke-width="2"/>
    </g>
  </g>
</svg>
