<svg xmlns="http://www.w3.org/2000/svg" width="23.8" height="29.749" viewBox="0 0 23.8 29.749">
  <g id="family-avatars-svgrepo-com" transform="translate(1.004 -167.899)">
    <g id="Group_45" data-name="Group 45" transform="translate(-0.001 168.075)">
      <path id="Path_29" data-name="Path 29" d="M66.017,198.241a9.584,9.584,0,0,0,3.551-.756,6.531,6.531,0,0,0,7,0,9.44,9.44,0,0,0,3.551.756.469.469,0,0,0,.433-.685A7.681,7.681,0,0,1,79.762,194c0-2.831-.1-9.56-6.694-9.56s-6.694,6.729-6.694,9.56a7.716,7.716,0,0,1-.791,3.556A.469.469,0,0,0,66.017,198.241Z" transform="translate(-62.23 -183.616)" fill="none" stroke="rgb(1, 0, 108)" stroke-width="2"/>
      <path id="Union_1" data-name="Union 1" d="M-15675.587-17368.592h-4.145a1.767,1.767,0,0,1-1.744-2.059l.476-2.73a8.945,8.945,0,0,1,8.815-7.424h3.372a8.8,8.8,0,0,1,8.614,7.424l.467,2.73a1.756,1.756,0,0,1-1.705,2.059Z" transform="translate(15681.5 17397.166)" fill="none" stroke="rgb(1, 0, 108)" stroke-width="2"/>
    </g>
  </g>
</svg>
