<?xml version="1.0" standalone="no"?>
<!DOCTYPE svg PUBLIC "-//W3C//DTD SVG 1.1//EN" "http://www.w3.org/Graphics/SVG/1.1/DTD/svg11.dtd" >
<svg xmlns="http://www.w3.org/2000/svg" xmlns:xlink="http://www.w3.org/1999/xlink" version="1.1">
<metadata>
Created by FontForge 20201107 at Fri Mar 19 11:40:29 2021
 By 
Hanken Design Co. (c)2021 (hello@hanken.co)
</metadata>
<defs>
<font id="HansKendrick-Regular" horiz-adv-x="0" >
  <font-face 
    font-family="Hans Kendrick"
    font-weight="400"
    font-stretch="normal"
    units-per-em="1000"
    panose-1="0 0 0 0 0 0 0 0 0 0"
    ascent="800"
    descent="-200"
    x-height="470"
    cap-height="750"
    bbox="-52 -280 1146 953"
    underline-thickness="20"
    underline-position="-135"
    unicode-range="U+0020-FB02"
  />
<missing-glyph horiz-adv-x="631" 
d="M128 750h375v-750h-375v750zM440 63v625h-250v-625h250z" />
    <glyph glyph-name="fi" unicode="fi" horiz-adv-x="530" 
d="M102 405h-71v65h71v140q0 73 31.5 111.5t92.5 38.5q29 0 58 -10v-70q-31 12 -54 12q-30 0 -44 -22t-14 -70v-130h112v-65h-112v-405h-70v405zM374 470h70v-470h-70v470zM369.5 555.5q-15.5 15.5 -15.5 38.5t15.5 39t39.5 16q23 0 38.5 -16t15.5 -39t-15.5 -38.5
t-38.5 -15.5q-24 0 -39.5 15.5z" />
    <glyph glyph-name="fl" unicode="fl" horiz-adv-x="530" 
d="M102 405h-71v65h71v140q0 73 31.5 111.5t92.5 38.5q29 0 58 -10v-70q-31 12 -54 12q-30 0 -44 -22t-14 -70v-130h112v-65h-112v-405h-70v405zM374 750h70v-750h-70v750z" />
    <glyph glyph-name="f_f" unicode="ff" horiz-adv-x="536" 
d="M102 405h-71v65h71v140q0 73 31.5 111.5t92.5 38.5q29 0 58 -10v-70q-31 12 -54 12q-30 0 -44 -22t-14 -70v-130h178v140q0 73 31.5 111.5t92.5 38.5q29 0 58 -10v-70q-31 12 -54 12q-30 0 -44 -22t-14 -70v-130h112v-65h-112v-405h-70v405h-178v-405h-70v405z" />
    <glyph glyph-name="f_y.liga" unicode="fy" horiz-adv-x="731" 
d="M102 405h-71v65h71v140q0 73 31.5 111.5t92.5 38.5q29 0 58 -10v-70q-31 12 -54 12q-30 0 -44 -22t-14 -70v-130h161l162 -347l150 347h81l-309 -713h-81l119 274l-174 374h-109v-405h-70v405z" />
    <glyph glyph-name=".notdef" horiz-adv-x="631" 
d="M128 750h375v-750h-375v750zM440 63v625h-250v-625h250z" />
    <glyph glyph-name=".null" 
 />
    <glyph glyph-name="nonmarkingreturn" horiz-adv-x="333" 
 />
    <glyph glyph-name="space" unicode=" " horiz-adv-x="270" 
 />
    <glyph glyph-name="exclam" unicode="!" horiz-adv-x="311" 
d="M115 750h75v-553h-75v553zM110 91.5q17 17.5 42 17.5q24 0 42 -17.5t18 -42.5q0 -24 -18 -41.5t-42 -17.5q-25 0 -42 17t-17 42t17 42.5z" />
    <glyph glyph-name="quotedbl" unicode="&#x22;" horiz-adv-x="334" 
d="M200 750h94l-20 -338h-54zM134 750l-20 -338h-54l-20 338h94z" />
    <glyph glyph-name="numbersign" unicode="#" horiz-adv-x="665" 
d="M147 163h-107l9 66h108l32 228h-107l9 66h106l23 163h78l-23 -163h165l23 163h78l-23 -163h107l-9 -66h-108l-31 -228h106l-8 -66h-107l-23 -163h-78l23 163h-165l-23 -163h-78zM399 229l32 228h-165l-32 -228h165z" />
    <glyph glyph-name="dollar" unicode="$" horiz-adv-x="572" 
d="M261 -8q-68 7 -122 43.5t-77 98.5l75 33q15 -45 47.5 -70t76.5 -31v286q-79 36 -125 82.5t-46 128.5q0 80 46.5 132.5t124.5 62.5v82h62v-82q50 -6 91 -31.5t67 -74.5l-71 -33q-27 52 -87 65v-279q54 -22 91 -44.5t64.5 -63.5t27.5 -104q0 -85 -50 -138.5t-133 -62.5v-82
h-62v82zM186 491q22 -30 75 -58v251q-45 -10 -71 -44t-26 -80q0 -39 22 -69zM403.5 108q29.5 34 29.5 85q0 49 -27 77.5t-83 54.5v-259q51 8 80.5 42z" />
    <glyph glyph-name="percent" unicode="%" horiz-adv-x="686" 
d="M537 750h87l-475 -750h-88zM84 686q20 34 54 54t74 20t73.5 -20t53.5 -54t20 -74t-20 -74t-53.5 -54t-73.5 -20t-74 20t-54 54t-20 74t20 74zM153.5 553.5q24.5 -24.5 58.5 -24.5q35 0 59 24.5t24 58.5t-24.5 58.5t-58.5 24.5t-58.5 -24.5t-24.5 -58.5t24.5 -58.5z
M347 212q20 34 54 54t74 20q39 0 73.5 -20t54.5 -54t20 -74t-20 -74t-54.5 -54t-73.5 -20q-40 0 -74 20t-54 54t-20 74t20 74zM415.5 79.5q24.5 -24.5 59.5 -24.5q33 0 58 24.5t25 58.5q0 35 -24.5 59t-58.5 24q-35 0 -59.5 -24t-24.5 -59q0 -34 24.5 -58.5z" />
    <glyph glyph-name="ampersand" unicode="&#x26;" horiz-adv-x="755" 
d="M532 107l-49 -49q-34 -34 -78.5 -52.5t-93.5 -18.5q-68 0 -124 33.5t-88 89.5t-32 122q0 47 18 92.5t53 80.5l49 48q-24 25 -37 57t-13 65q0 49 23.5 89t63.5 63t87 23q46 0 85.5 -23t62.5 -61.5t23 -84.5q0 -71 -53 -134l-52 53q31 40 31 80t-28 67.5t-69 27.5
q-43 0 -71 -29.5t-28 -69.5t29 -71l291 -292l115 116l53 -53l-115 -116l126 -126l-53 -53zM164 146q22 -39 61 -61.5t86 -22.5q33 0 64.5 12.5t55.5 36.5l48 49l-239 241l-49 -49q-24 -24 -36.5 -55.5t-12.5 -64.5q0 -47 22 -86z" />
    <glyph glyph-name="quotesingle" unicode="'" horiz-adv-x="174" 
d="M40 750h94l-20 -338h-54z" />
    <glyph glyph-name="parenleft" unicode="(" horiz-adv-x="331" 
d="M156 -146q-57 88 -77.5 199t-20.5 207t20.5 207t77.5 199.5t157 97.5v-74q-72 -10 -113 -90.5t-56 -175.5t-15 -164t15 -164t56 -175t113 -90v-74q-100 9 -157 97z" />
    <glyph glyph-name="parenright" unicode=")" horiz-adv-x="331" 
d="M131 -79q41 80 56 175t15 164t-15 164t-56 175.5t-113 90.5v74q100 -9 157 -97.5t77.5 -199.5t20.5 -207t-20.5 -207t-77.5 -199t-157 -97v74q72 10 113 90z" />
    <glyph glyph-name="asterisk" unicode="*" horiz-adv-x="462" 
d="M131 542l75 97l-121 -15v59l121 -15l-75 97l53 30l47 -112l47 112l53 -30l-75 -97l121 15v-59l-121 15l75 -97l-53 -30l-47 112l-47 -112z" />
    <glyph glyph-name="plus" unicode="+" horiz-adv-x="638" 
d="M284 229h-230v70h230v229h70v-229h230v-70h-230v-229h-70v229z" />
    <glyph glyph-name="comma" unicode="," horiz-adv-x="245" 
d="M101 101h84l-87 -264h-58z" />
    <glyph glyph-name="hyphen" unicode="-" horiz-adv-x="520" 
d="M86 271h348v-65h-348v65z" />
    <glyph glyph-name="period" unicode="." horiz-adv-x="280" 
d="M98 7q-17 17 -17 42t17 42.5t42 17.5q24 0 42 -17.5t18 -42.5q0 -24 -18 -41.5t-42 -17.5q-25 0 -42 17z" />
    <glyph glyph-name="slash" unicode="/" horiz-adv-x="553" 
d="M494 760h74l-509 -1005h-74z" />
    <glyph glyph-name="zero" unicode="0" horiz-adv-x="560" 
d="M158.5 37.5q-51.5 47.5 -79 134.5t-27.5 203q0 117 27.5 204t79 134t121.5 47t121.5 -47t79 -134t27.5 -204q0 -116 -27.5 -203t-79 -134.5t-121.5 -47.5t-121.5 47.5zM146 208q19 -71 54 -109t80 -38t80 38t54 109t19 167q0 97 -19 168t-53.5 109t-80.5 38t-80.5 -38
t-53.5 -109t-19 -168q0 -96 19 -167z" />
    <glyph glyph-name="one" unicode="1" horiz-adv-x="560" 
d="M263 679h-120v71h195v-750h-75v679z" />
    <glyph glyph-name="two" unicode="2" horiz-adv-x="560" 
d="M403 451.5q25 41.5 25 90.5q0 65 -43 106t-108 41q-66 0 -105.5 -41t-46.5 -115h-76q10 106 70.5 166.5t155.5 60.5q63 0 115 -27t82.5 -77t30.5 -114q0 -45 -15 -83.5t-39.5 -72.5t-72.5 -90q-14 -18 -22 -27l-167 -198h315v-71h-472l291 344q57 66 82 107.5z" />
    <glyph glyph-name="three" unicode="3" horiz-adv-x="560" 
d="M119.5 43q-64.5 55 -81.5 153h72q15 -69 58.5 -103t102.5 -34q43 0 80 21.5t59 58.5t22 81q0 46 -22 81.5t-59 55.5t-80 20h-22v71h22q39 0 67.5 18t42.5 46t14 59q0 50 -35 84t-89 34q-50 0 -88.5 -32.5t-42.5 -87.5h-74q5 58 35 101.5t75.5 66.5t94.5 23q53 0 98.5 -25
t72.5 -68.5t27 -95.5q0 -87 -81 -155q59 -39 88 -89t29 -107q0 -61 -32 -114.5t-86 -85.5t-116 -32q-87 0 -151.5 55z" />
    <glyph glyph-name="four" unicode="4" horiz-adv-x="560" 
d="M389 147h-393l468 624v-552h96v-72h-96v-147h-75v147zM389 219v344l-254 -344h254z" />
    <glyph glyph-name="five" unicode="5" horiz-adv-x="560" 
d="M126 19.5q-56 31.5 -99 92.5l59 43q32 -46 74 -71t89 -25q46 0 86.5 22.5t65.5 63t25 91.5q0 49 -24 89.5t-65 63.5t-88 23q-34 0 -84 -15l-44 36l78 317h286v-71h-228l-50 -203q25 5 55 5q67 0 121.5 -33.5t86 -90t31.5 -123.5q0 -72 -33.5 -128t-91.5 -87t-130 -31
q-64 0 -120 31.5z" />
    <glyph glyph-name="six" unicode="6" horiz-adv-x="560" 
d="M154 20.5q-57 32.5 -90.5 89t-33.5 125.5q0 79 63 170l238 345h85l-193 -276q31 7 69 7q65 0 119.5 -33.5t86.5 -90t32 -122.5q0 -69 -34 -125.5t-91.5 -89t-124.5 -32.5q-69 0 -126 32.5zM128.5 146.5q23.5 -40.5 63.5 -64t88 -23.5t88 23.5t63.5 64t23.5 88.5t-23.5 88
t-63.5 63.5t-88 23.5t-88 -23.5t-63.5 -63.5t-23.5 -88t23.5 -88.5z" />
    <glyph glyph-name="seven" unicode="7" horiz-adv-x="560" 
d="M426 679h-392v71h523l-457 -750h-88z" />
    <glyph glyph-name="eight" unicode="8" horiz-adv-x="560" 
d="M164.5 21q-53.5 31 -86 84t-32.5 115q0 58 30 108t86 88q-80 67 -80 155q0 52 27 95.5t72.5 68.5t98.5 25t98.5 -25t72.5 -68.5t27 -95.5q0 -87 -81 -155q58 -37 87.5 -87t29.5 -109q0 -62 -32.5 -115t-86 -84t-115.5 -31t-115.5 31zM139.5 139.5q21.5 -36.5 59 -57.5
t81.5 -21t81.5 21t59 57.5t21.5 80.5t-21.5 80t-58.5 56.5t-82 20.5t-82 -20.5t-58.5 -56.5t-21.5 -80t21.5 -80.5zM191.5 484q36.5 -36 88.5 -36q34 0 62.5 16.5t45.5 45t17 61.5q0 50 -37 84.5t-88 34.5q-52 0 -88.5 -34.5t-36.5 -84.5q0 -51 36.5 -87z" />
    <glyph glyph-name="nine" unicode="9" horiz-adv-x="560" 
d="M337 276q-31 -7 -69 -7q-65 0 -119.5 33.5t-86.5 90t-32 122.5q0 68 34 124.5t91.5 88.5t124.5 32q69 0 126 -32t90.5 -88t33.5 -125q0 -79 -63 -170l-238 -345h-85zM128.5 427q23.5 -40 63.5 -63.5t88 -23.5t88 23.5t63.5 63.5t23.5 88t-23.5 88t-63.5 63t-88 23
t-88 -23t-63.5 -63t-23.5 -88t23.5 -88z" />
    <glyph glyph-name="colon" unicode=":" horiz-adv-x="315" 
d="M115 378q-17 17 -17 42t17 42.5t42 17.5q24 0 42 -17.5t18 -42.5q0 -24 -18 -41.5t-42 -17.5q-25 0 -42 17zM115 91.5q17 17.5 42 17.5q24 0 42 -17.5t18 -42.5q0 -24 -18 -41.5t-42 -17.5q-25 0 -42 17t-17 42t17 42.5z" />
    <glyph glyph-name="semicolon" unicode=";" horiz-adv-x="314" 
d="M133 101h84l-87 -264h-58zM126 462.5q17 17.5 42 17.5q24 0 42 -17.5t18 -42.5q0 -24 -18 -41.5t-42 -17.5q-25 0 -42 17t-17 42t17 42.5z" />
    <glyph glyph-name="less" unicode="&#x3c;" horiz-adv-x="561" 
d="M57 211v65l402 195l32 -64l-337 -165l338 -179l-34 -64z" />
    <glyph glyph-name="equal" unicode="=" horiz-adv-x="691" 
d="M128 385h435v-70h-435v70zM128 214h435v-70h-435v70z" />
    <glyph glyph-name="greater" unicode="&#x3e;" horiz-adv-x="560" 
d="M69 63l337 179l-336 165l32 64l401 -195v-65l-400 -212z" />
    <glyph glyph-name="question" unicode="?" horiz-adv-x="479" 
d="M211 346q12 28 29 47t46 45q39 35 58 62t19 68q0 52 -35 85.5t-88 33.5t-91 -33.5t-44 -97.5h-71q4 64 33 110.5t74.5 70t98.5 23.5q54 0 98.5 -24.5t70.5 -68.5t26 -99q0 -53 -22.5 -87t-66.5 -75q-38 -35 -56.5 -61.5t-18.5 -64.5v-83h-72v84q0 37 12 65zM193 91.5
q17 17.5 42 17.5q24 0 42 -17.5t18 -42.5q0 -24 -18 -41.5t-42 -17.5q-25 0 -42 17t-17 42t17 42.5z" />
    <glyph glyph-name="at" unicode="@" horiz-adv-x="809" 
d="M283.5 -12.5q-105.5 52.5 -159.5 143t-54 202.5q0 107 53.5 198.5t144.5 145.5t198 54q60 0 112.5 -20.5t85 -65.5t32.5 -116v-395h-43l-15 48q-60 -64 -148 -64q-53 0 -100 27.5t-75.5 74.5t-28.5 103q0 55 28 102t75 75t101 28q39 0 77.5 -17t61.5 -42v60
q0 55 -31.5 94t-131.5 39q-89 0 -165 -45t-121 -120.5t-45 -163.5q0 -93 45.5 -168.5t136 -120t219.5 -44.5h160v-65h-160q-147 0 -252.5 52.5zM371 255q17 -31 47.5 -49t67.5 -18q38 0 68.5 18t48 49t17.5 68t-18 68t-48.5 49t-67.5 18q-36 0 -66 -18.5t-48 -49.5t-18 -67
q0 -37 17 -68z" />
    <glyph glyph-name="A" unicode="A" horiz-adv-x="688" 
d="M344 780l330 -780h-80l-68 161h-364l-67 -161h-81zM496 234l-152 362l-151 -362h303z" />
    <glyph glyph-name="B" unicode="B" horiz-adv-x="637" 
d="M107 750h205q124 0 181 -53.5t57 -145.5q0 -52 -19.5 -96t-62.5 -72q50 -20 76 -68t26 -99q0 -95 -55 -155.5t-183 -60.5h-225v750zM329 73q99 0 132.5 39t33.5 104q0 132 -154 132h-159v-275h147zM341 416q75 0 104.5 34.5t29.5 100.5q0 62 -35.5 94t-130.5 32h-127
v-261h159z" />
    <glyph glyph-name="C" unicode="C" horiz-adv-x="741" 
d="M244 42q-89 52 -141.5 140t-52.5 193q0 104 52.5 192.5t141.5 140.5t193 52q79 0 150.5 -30.5t124.5 -84.5l-55 -51q-44 43 -100.5 67t-119.5 24q-84 0 -156 -42t-114 -113t-42 -155q0 -83 42 -154.5t113.5 -113.5t154.5 -42q63 0 120.5 24t101.5 67l56 -50
q-53 -55 -124.5 -85.5t-151.5 -30.5q-104 0 -193 52z" />
    <glyph glyph-name="D" unicode="D" horiz-adv-x="716" 
d="M107 750h169q116 0 203 -44.5t135 -128.5t48 -200t-48 -201t-135.5 -130.5t-202.5 -45.5h-169v750zM274 73q145 0 229 79.5t84 224.5q0 144 -83.5 222t-229.5 78h-92v-604h92z" />
    <glyph glyph-name="E" unicode="E" horiz-adv-x="535" 
d="M107 750h382v-73h-307v-265h268v-73h-268v-266h307v-73h-382v750z" />
    <glyph glyph-name="F" unicode="F" horiz-adv-x="519" 
d="M107 750h382v-73h-307v-265h278v-73h-278v-339h-75v750z" />
    <glyph glyph-name="G" unicode="G" horiz-adv-x="794" 
d="M244 42q-89 52 -141.5 140t-52.5 193q0 104 52.5 192.5t141.5 140.5t193 52q79 0 150.5 -30.5t124.5 -84.5l-55 -51q-44 43 -100.5 67t-119.5 24q-84 0 -156 -42t-114 -113t-42 -155q0 -83 42 -154.5t113.5 -113.5t154.5 -42q57 0 110 20t96 56v197h-214v74h286v-412h-72
v48q-92 -58 -204 -58q-104 0 -193 52z" />
    <glyph glyph-name="H" unicode="H" horiz-adv-x="751" 
d="M107 750h75v-338h387v338h75v-750h-75v339h-387v-339h-75v750z" />
    <glyph glyph-name="I" unicode="I" horiz-adv-x="289" 
d="M107 750h75v-750h-75v750z" />
    <glyph glyph-name="J" unicode="J" horiz-adv-x="339" 
d="M14 0v77q47 -14 82 -14q29 0 46 20t17 48v619h77v-619q0 -39 -19 -71t-51.5 -51t-69.5 -19q-43 0 -82 10z" />
    <glyph glyph-name="K" unicode="K" horiz-adv-x="622" 
d="M179 334v-334h-72v750h72v-334l331 334h101l-377 -375l377 -375h-101z" />
    <glyph glyph-name="L" unicode="L" horiz-adv-x="436" 
d="M107 750h75v-677h241v-73h-316v750z" />
    <glyph glyph-name="M" unicode="M" horiz-adv-x="906" 
d="M107 780l346 -484l346 484v-780h-75v549l-271 -376l-271 376v-549h-75v780z" />
    <glyph glyph-name="N" unicode="N" horiz-adv-x="774" 
d="M182 571v-571h-75v780l485 -601v571h75v-777z" />
    <glyph glyph-name="O" unicode="O" horiz-adv-x="874" 
d="M244 42q-89 52 -141.5 140t-52.5 193q0 104 52.5 192.5t141.5 140.5t193 52t193 -52t141.5 -140.5t52.5 -192.5q0 -105 -52.5 -193t-141.5 -140t-193 -52t-193 52zM167 220.5q42 -71.5 113.5 -113.5t154.5 -42q84 0 156 41.5t115 113t43 155.5t-42.5 155t-114 113
t-155.5 42t-156 -42t-114 -113t-42 -155q0 -83 42 -154.5z" />
    <glyph glyph-name="P" unicode="P" horiz-adv-x="576" 
d="M107 750h225q57 0 105 -28.5t76 -76.5t28 -105t-28 -105t-76 -76t-105 -28h-151v-331h-74v750zM332 405q37 0 68.5 18t50 49t18.5 68t-18.5 68.5t-50 50t-68.5 18.5h-151v-272h151z" />
    <glyph glyph-name="Q" unicode="Q" horiz-adv-x="886" 
d="M245 42q-89 52 -141.5 140t-52.5 193q0 104 52.5 192.5t141.5 140.5t193 52t193 -52t141.5 -140.5t52.5 -192.5q0 -71 -25 -136t-71 -117l81 -79l-52 -54l-83 82q-50 -39 -110.5 -60t-126.5 -21q-104 0 -193 52zM168 220.5q42 -71.5 113.5 -113.5t154.5 -42q101 0 184 59
l-97 95l52 54l100 -98q36 41 55.5 92.5t19.5 107.5q0 84 -42.5 155t-114 113t-155.5 42t-156 -42t-114 -113t-42 -155q0 -83 42 -154.5z" />
    <glyph glyph-name="R" unicode="R" horiz-adv-x="606" 
d="M107 750h225q57 0 105 -28.5t76 -76.5t28 -105q0 -69 -40 -123.5t-104 -75.5l171 -341h-85l-165 331h-137v-331h-74v750zM332 405q37 0 68.5 18t50 49t18.5 68t-18.5 68.5t-50 50t-68.5 18.5h-151v-272h151z" />
    <glyph glyph-name="S" unicode="S" horiz-adv-x="532" 
d="M131.5 27q-63.5 37 -89.5 107l75 33q18 -53 59.5 -78t95.5 -25q65 0 103 35.5t38 93.5q0 41 -19.5 67.5t-50 43.5t-90.5 43q-55 24 -93.5 49t-64 66.5t-25.5 100.5q0 58 25.5 103t72 69.5t105.5 24.5q58 0 108 -26t80 -82l-71 -33q-19 37 -51 52.5t-68 15.5
q-60 0 -93.5 -33.5t-33.5 -90.5q0 -47 30.5 -82t106.5 -67q5 -3 10.5 -4.5t9.5 -3.5q55 -23 92 -45t65 -63.5t28 -104.5q0 -62 -27.5 -108t-76 -70.5t-110.5 -24.5q-77 0 -140.5 37z" />
    <glyph glyph-name="T" unicode="T" horiz-adv-x="489" 
d="M207 678h-194v72h463v-72h-194v-678h-75v678z" />
    <glyph glyph-name="U" unicode="U" horiz-adv-x="674" 
d="M162.5 52.5q-67.5 62.5 -67.5 188.5v509h75v-509q0 -96 43 -137t123 -41q81 0 124 41t43 137v509h75v-509q0 -126 -67 -188.5t-175 -62.5q-106 0 -173.5 62.5z" />
    <glyph glyph-name="V" unicode="V" horiz-adv-x="690" 
d="M15 750h81l249 -603l250 603h80l-330 -777z" />
    <glyph glyph-name="W" unicode="W" horiz-adv-x="1064" 
d="M12 750h83l291 -609l106 224l-185 385h83l143 -299l141 299h83l-183 -384l107 -226l289 610h82l-371 -777l-148 306l-147 -306z" />
    <glyph glyph-name="X" unicode="X" horiz-adv-x="628" 
d="M269 379l-245 371h90l200 -303l200 303h90l-245 -371l250 -379h-90l-205 311l-205 -311h-90z" />
    <glyph glyph-name="Y" unicode="Y" horiz-adv-x="591" 
d="M258 369l-251 381h84l204 -310l205 310h84l-251 -380v-370h-75v369z" />
    <glyph glyph-name="Z" unicode="Z" horiz-adv-x="607" 
d="M445 677h-402v73h537l-424 -677h424v-73h-558z" />
    <glyph glyph-name="bracketleft" unicode="[" horiz-adv-x="307" 
d="M103 750h182v-74h-107v-847h107v-74h-182v995z" />
    <glyph glyph-name="backslash" unicode="\" horiz-adv-x="553" 
d="M-15 760h74l509 -1005h-74z" />
    <glyph glyph-name="bracketright" unicode="]" horiz-adv-x="308" 
d="M21 -171h109v847h-107v74h182v-995h-184v74z" />
    <glyph glyph-name="asciicircum" unicode="^" horiz-adv-x="525" 
d="M224 750h77l171 -361h-74l-136 290l-136 -290h-73z" />
    <glyph glyph-name="underscore" unicode="_" horiz-adv-x="730" 
d="M86 0h558v-65h-558v65z" />
    <glyph glyph-name="grave" unicode="`" horiz-adv-x="257" 
d="M19 717h100l104 -177h-62z" />
    <glyph glyph-name="a" unicode="a" horiz-adv-x="619" 
d="M165.5 23q-56.5 33 -89.5 89.5t-33 122.5t33 122.5t89.5 89.5t122.5 33q49 0 95.5 -19t79.5 -55v64h70v-470h-70v64q-33 -36 -79.5 -55t-95.5 -19q-66 0 -122.5 33zM136.5 147.5q23.5 -40.5 64 -64t87.5 -23.5t87.5 23.5t64 64t23.5 87.5t-23.5 87.5t-64 64t-87.5 23.5
t-87.5 -23.5t-64 -64t-23.5 -87.5t23.5 -87.5z" />
    <glyph glyph-name="b" unicode="b" horiz-adv-x="619" 
d="M235.5 9q-46.5 19 -79.5 55v-64h-70v750h70v-344q33 36 79.5 55t95.5 19q66 0 122.5 -33t89.5 -89.5t33 -122.5t-33 -122.5t-89.5 -89.5t-122.5 -33q-49 0 -95.5 19zM179.5 147.5q23.5 -40.5 64 -64t87.5 -23.5t87.5 23.5t64 64t23.5 87.5t-23.5 87.5t-64 64t-87.5 23.5
t-87.5 -23.5t-64 -64t-23.5 -87.5t23.5 -87.5z" />
    <glyph glyph-name="c" unicode="c" horiz-adv-x="549" 
d="M165.5 23q-56.5 33 -89.5 89.5t-33 122.5t33 122.5t89.5 89.5t122.5 33q73 0 134 -40.5t91 -107.5l-64 -27q-21 48 -65 76.5t-96 28.5q-47 0 -87.5 -23.5t-64 -64t-23.5 -87.5t23.5 -87.5t64 -64t87.5 -23.5q52 0 96 28.5t64 76.5l64 -29q-28 -66 -90 -106t-134 -40
q-66 0 -122.5 33z" />
    <glyph glyph-name="d" unicode="d" horiz-adv-x="619" 
d="M165.5 23q-56.5 33 -89.5 89.5t-33 122.5t33 122.5t89.5 89.5t122.5 33q49 0 95.5 -19t79.5 -55v344h70v-750h-70v64q-33 -36 -79.5 -55t-95.5 -19q-66 0 -122.5 33zM136.5 147.5q23.5 -40.5 64 -64t87.5 -23.5t87.5 23.5t64 64t23.5 87.5t-23.5 87.5t-64 64t-87.5 23.5
t-87.5 -23.5t-64 -64t-23.5 -87.5t23.5 -87.5z" />
    <glyph glyph-name="e" unicode="e" horiz-adv-x="570" 
d="M165.5 23q-56.5 33 -89.5 89.5t-33 122.5t33 122.5t89.5 89.5t122.5 33t122.5 -33t89.5 -89.5t33 -122.5h-417v-2q0 -45 19.5 -84.5t58.5 -64t94 -24.5q52 0 96 28.5t64 76.5l64 -29q-28 -66 -90 -106t-134 -40q-66 0 -122.5 33zM452 295q-21 52 -66 83.5t-98 31.5
q-62 0 -103.5 -32t-58.5 -83h326z" />
    <glyph glyph-name="f" unicode="f" horiz-adv-x="288" 
d="M102 405h-71v65h71v140q0 73 31.5 111.5t92.5 38.5q29 0 58 -10v-70q-31 12 -54 12q-30 0 -44 -22t-14 -70v-130h112v-65h-112v-405h-70v405z" />
    <glyph glyph-name="g" unicode="g" horiz-adv-x="619" 
d="M154 -205.5q-60 39.5 -90 106.5l64 29q21 -48 63.5 -76.5t96.5 -28.5q47 0 87.5 23.5t64 64t23.5 87.5v63q-34 -34 -79.5 -53.5t-95.5 -19.5q-66 0 -122.5 33t-89.5 89.5t-33 122.5t33 122.5t89.5 89.5t122.5 33q50 0 95.5 -19.5t79.5 -53.5v63h70v-470q0 -66 -33 -122.5
t-89.5 -89.5t-122.5 -33q-74 0 -134 39.5zM136.5 147.5q23.5 -40.5 64 -64t87.5 -23.5t87.5 23.5t64 64t23.5 87.5t-23.5 87.5t-64 64t-87.5 23.5t-87.5 -23.5t-64 -64t-23.5 -87.5t23.5 -87.5z" />
    <glyph glyph-name="h" unicode="h" horiz-adv-x="526" 
d="M86 750h70v-329q19 26 52 42.5t73 16.5q49 0 87.5 -24.5t60.5 -66t22 -91.5v-298h-70v298q0 49 -29.5 80.5t-77.5 31.5q-30 0 -57 -14.5t-44 -39.5t-17 -55v-301h-70v750z" />
    <glyph glyph-name="i" unicode="i" horiz-adv-x="242" 
d="M86 470h70v-470h-70v470zM81.5 555.5q-15.5 15.5 -15.5 38.5t15.5 39t39.5 16q23 0 38.5 -16t15.5 -39t-15.5 -38.5t-38.5 -15.5q-24 0 -39.5 15.5z" />
    <glyph glyph-name="j" unicode="j" horiz-adv-x="242" 
d="M86 470h70v-715h-70v715zM81.5 555.5q-15.5 15.5 -15.5 38.5t15.5 39t39.5 16q23 0 38.5 -16t15.5 -39t-15.5 -38.5t-38.5 -15.5q-24 0 -39.5 15.5z" />
    <glyph glyph-name="k" unicode="k" horiz-adv-x="465" 
d="M156 215v-215h-70v750h70v-471l193 191h98l-230 -222l253 -248h-98z" />
    <glyph glyph-name="l" unicode="l" horiz-adv-x="242" 
d="M86 750h70v-750h-70v750z" />
    <glyph glyph-name="m" unicode="m" horiz-adv-x="821" 
d="M86 470h70v-49q21 29 54.5 44t70.5 15q45 0 81 -20t58 -55q28 35 69.5 55t86.5 20q50 0 88.5 -24.5t60 -66t21.5 -91.5v-298h-70v298q0 46 -30.5 79t-75.5 33q-30 0 -57.5 -14.5t-44.5 -39.5t-17 -55v-301h-70v298q0 46 -30.5 79t-76.5 33q-30 0 -57 -14.5t-44 -39.5
t-17 -55v-301h-70v470z" />
    <glyph glyph-name="n" unicode="n" horiz-adv-x="526" 
d="M86 470h70v-49q21 29 54.5 44t70.5 15q50 0 88.5 -24.5t60 -66t21.5 -91.5v-298h-70v298q0 46 -30.5 79t-76.5 33q-30 0 -57 -14.5t-44 -39.5t-17 -55v-301h-70v470z" />
    <glyph glyph-name="o" unicode="o" horiz-adv-x="576" 
d="M165.5 23q-56.5 33 -89.5 89.5t-33 122.5t33 122.5t89.5 89.5t122.5 33t122.5 -33t89.5 -89.5t33 -122.5t-33 -122.5t-89.5 -89.5t-122.5 -33t-122.5 33zM136.5 147.5q23.5 -40.5 64 -64t87.5 -23.5t87.5 23.5t64 64t23.5 87.5t-23.5 87.5t-64 64t-87.5 23.5t-87.5 -23.5
t-64 -64t-23.5 -87.5t23.5 -87.5z" />
    <glyph glyph-name="p" unicode="p" horiz-adv-x="619" 
d="M235.5 9q-46.5 19 -79.5 55v-314h-70v720h70v-64q33 36 79.5 55t95.5 19q66 0 122.5 -33t89.5 -89.5t33 -122.5t-33 -122.5t-89.5 -89.5t-122.5 -33q-49 0 -95.5 19zM179.5 147.5q23.5 -40.5 64 -64t87.5 -23.5t87.5 23.5t64 64t23.5 87.5t-23.5 87.5t-64 64t-87.5 23.5
t-87.5 -23.5t-64 -64t-23.5 -87.5t23.5 -87.5z" />
    <glyph glyph-name="q" unicode="q" horiz-adv-x="619" 
d="M165.5 23q-56.5 33 -89.5 89.5t-33 122.5t33 122.5t89.5 89.5t122.5 33q49 0 95.5 -19t79.5 -55v64h70v-715h-70v309q-33 -36 -79.5 -55t-95.5 -19q-66 0 -122.5 33zM136.5 147.5q23.5 -40.5 64 -64t87.5 -23.5t87.5 23.5t64 64t23.5 87.5t-23.5 87.5t-64 64t-87.5 23.5
t-87.5 -23.5t-64 -64t-23.5 -87.5t23.5 -87.5z" />
    <glyph glyph-name="r" unicode="r" horiz-adv-x="341" 
d="M86 470h70v-62q19 34 49.5 53t69.5 19q29 0 56 -10v-70q-29 10 -56 10q-55 0 -87 -40.5t-32 -110.5v-259h-70v470z" />
    <glyph glyph-name="s" unicode="s" horiz-adv-x="399" 
d="M103.5 18q-43.5 28 -57.5 76l65 28q4 -30 30 -48.5t59 -18.5q34 0 56.5 20t22.5 53q0 25 -14 40.5t-32 23t-57 20.5q-37 13 -61 26.5t-40.5 39t-16.5 66.5q0 61 40.5 98.5t103.5 37.5q50 0 87.5 -26.5t52.5 -71.5l-66 -26q-7 29 -28 44t-49 15q-32 0 -51.5 -18.5
t-19.5 -47.5q0 -23 12.5 -37.5t30.5 -22.5t53 -20q39 -14 64.5 -27.5t43 -40t17.5 -67.5q0 -65 -42.5 -104.5t-106.5 -39.5q-53 0 -96.5 28z" />
    <glyph glyph-name="t" unicode="t" horiz-adv-x="282" 
d="M105 405h-81v65h81v167h70v-167h87v-65h-87v-405h-70v405z" />
    <glyph glyph-name="u" unicode="u" horiz-adv-x="517" 
d="M127 38q-52 48 -52 135v297h70v-297q0 -57 31.5 -85t81.5 -28q51 0 82.5 27.5t31.5 85.5v297h70v-297q0 -87 -52 -135t-132 -48q-79 0 -131 48z" />
    <glyph glyph-name="v" unicode="v" horiz-adv-x="456" 
d="M3 470h78l150 -344l145 344h77l-223 -505z" />
    <glyph glyph-name="w" unicode="w" horiz-adv-x="718" 
d="M4 470h77l137 -331h2l138 346l139 -346h2l137 331h78l-219 -505l-136 342h-2l-136 -342z" />
    <glyph glyph-name="x" unicode="x" horiz-adv-x="489" 
d="M199 235l-193 235h91l147 -180l148 180h91l-193 -235l193 -235h-91l-148 180l-147 -180h-91z" />
    <glyph glyph-name="y" unicode="y" horiz-adv-x="483" 
d="M207 31l-204 439h82l162 -347l150 347h81l-309 -713h-81z" />
    <glyph glyph-name="z" unicode="z" horiz-adv-x="466" 
d="M315 405h-272v65h405l-305 -406h304v-64h-439z" />
    <glyph glyph-name="braceleft" unicode="{" horiz-adv-x="291" 
d="M155 -222q-23 20 -36 51t-13 62v182q0 48 -3.5 74t-17 46t-43.5 37v60q29 17 43 38.5t17.5 47.5t3.5 71v181q0 31 13 62t36 51t52 20h43v-68q-39 -3 -54.5 -19t-15.5 -56v-185q0 -112 -64 -173q64 -61 64 -173v-186q0 -40 15.5 -56t54.5 -19v-68h-43q-29 0 -52 20z" />
    <glyph glyph-name="bar" unicode="|" horiz-adv-x="331" 
d="M128 750h75v-993h-75v993z" />
    <glyph glyph-name="braceright" unicode="}" horiz-adv-x="291" 
d="M95 -157q16 17 16 58v186q0 112 64 173q-64 61 -64 173v185q0 41 -16 58t-54 17v68h43q29 0 52 -20t36 -51t13 -62v-181q0 -45 3.5 -71t17.5 -47.5t43 -38.5v-60q-30 -17 -43.5 -37.5t-17 -46t-3.5 -73.5v-182q0 -31 -13 -62t-36 -51t-52 -20h-43v68q38 0 54 17z" />
    <glyph glyph-name="asciitilde" unicode="~" horiz-adv-x="588" 
d="M319 301q-20 10 -48 34q-16 15 -25.5 20.5t-21.5 5.5q-29 0 -49 -31l-22 -34l-54 34l22 34q19 29 46 44.5t57 15.5q24 0 44.5 -10t45.5 -31q5 -4 14 -12t17 -12t19 -4q30 0 48 30l21 35l56 -32l-22 -36q-18 -29 -45 -45t-59 -16q-24 0 -44 10z" />
    <glyph glyph-name="uni00A0" unicode="&#xa0;" horiz-adv-x="270" 
 />
    <glyph glyph-name="exclamdown" unicode="&#xa1;" horiz-adv-x="317" 
d="M196 -280h-75v553h75v-553zM117 462.5q18 17.5 42 17.5q25 0 42 -17t17 -42t-17 -42.5t-42 -17.5q-24 0 -42 17.5t-18 42.5q0 24 18 41.5z" />
    <glyph glyph-name="cent" unicode="&#xa2;" horiz-adv-x="613" 
d="M288 83q-59 7 -108 41.5t-77.5 87.5t-28.5 114t28.5 114t77.5 87.5t108 41.5v85h63v-85q63 -8 114.5 -47t78.5 -99l-64 -27q-18 40 -52.5 67t-76.5 35v-344q42 8 76.5 35t51.5 67l64 -29q-25 -58 -77 -97t-115 -47v-83h-63v83zM185.5 214q41.5 -49 102.5 -60v344
q-61 -11 -102.5 -60t-41.5 -112t41.5 -112z" />
    <glyph glyph-name="sterling" unicode="&#xa3;" horiz-adv-x="632" 
d="M47 27l41 27q61 41 84.5 83t23.5 110q0 28 -4 70t-9 88h-82v71h78q8 129 71.5 201.5t207.5 72.5h93v-71h-93q-80 0 -124 -26.5t-62 -69.5t-23 -107h282v-71h-278q16 -108 16 -159q0 -55 -14.5 -99.5t-49.5 -86.5h346v-71h-504v38z" />
    <glyph glyph-name="currency" unicode="&#xa4;" horiz-adv-x="736" 
d="M287.5 62.5q-36.5 12.5 -78.5 41.5l-42 -41l-44 44l40 40q-27 43 -38.5 78t-11.5 75t11.5 75t38.5 78l-40 40l44 44l42 -41q42 29 78.5 41.5t80.5 12.5t80.5 -12.5t78.5 -41.5l42 41l44 -44l-40 -40q27 -43 38.5 -78t11.5 -75t-11.5 -75t-38.5 -78l40 -40l-44 -44l-42 41
q-42 -29 -78.5 -41.5t-80.5 -12.5t-80.5 12.5zM210 211.5q25 -41.5 67 -66t91 -24.5q50 0 92 25t66.5 67t24.5 91t-24 89t-66 63t-93 23q-52 0 -94 -23t-66 -64t-24 -92q1 -47 26 -88.5z" />
    <glyph glyph-name="yen" unicode="&#xa5;" horiz-adv-x="665" 
d="M297 180h-190v63h190v82h-190v63h176l-225 362h84l190 -306l191 306h84l-226 -362h177v-63h-191v-82h191v-63h-191v-180h-70v180z" />
    <glyph glyph-name="brokenbar" unicode="&#xa6;" horiz-adv-x="331" 
d="M128 750h75v-407h-75v407zM128 166h75v-407h-75v407z" />
    <glyph glyph-name="section" unicode="&#xa7;" horiz-adv-x="591" 
d="M179 -140.5q-64 36.5 -106 105.5l59 44q37 -61 74.5 -87.5t90.5 -26.5q47 0 81.5 31.5t34.5 78.5q0 32 -20.5 56.5t-52 42t-83.5 39.5q-61 27 -98.5 48.5t-63.5 55.5t-26 81q0 46 24.5 83t64.5 71q-42 55 -42 109t23.5 92.5t63 57.5t86.5 19q50 0 98 -21.5t84 -62.5
l-57 -47q-26 29 -57.5 43.5t-62.5 14.5q-43 0 -72.5 -25.5t-25.5 -68.5q3 -34 25 -59t52 -42.5t81 -41.5q57 -26 91.5 -47.5t58.5 -53.5t24 -76q0 -42 -23 -79t-59 -72q26 -24 37.5 -50t11.5 -67q0 -57 -25 -98.5t-67 -62.5t-93 -21q-67 0 -131 36.5zM168 285q18 -22 55 -40
l167 -82q60 51 60 99q0 34 -18.5 56t-54.5 40l-167 82q-60 -49 -60 -98q0 -35 18 -57z" />
    <glyph glyph-name="dieresis" unicode="&#xa8;" horiz-adv-x="438" 
d="M268.5 555.5q-15.5 15.5 -15.5 38.5t15.5 39t39.5 16q23 0 38.5 -16t15.5 -39t-15.5 -38.5t-38.5 -15.5q-24 0 -39.5 15.5zM91.5 633q15.5 16 39.5 16q23 0 38.5 -16t15.5 -39t-15.5 -38.5t-38.5 -15.5q-24 0 -39.5 15.5t-15.5 38.5t15.5 39z" />
    <glyph glyph-name="copyright" unicode="&#xa9;" horiz-adv-x="779" 
d="M233 105q-72 42 -114.5 114t-42.5 156t42.5 156t114.5 114t156 42q85 0 157 -42t114.5 -113.5t42.5 -156.5t-42.5 -156.5t-114.5 -113.5t-157 -42q-84 0 -156 42zM171 248.5q34 -57.5 92 -91t126 -33.5q69 0 127 33.5t92 91t34 126.5t-34 126.5t-92 91t-127 33.5
q-68 0 -126 -33.5t-92 -91t-34 -126.5t34 -126.5zM242.5 460.5q22.5 38.5 61 61t83.5 22.5q101 0 158 -112l-62 -27q-39 70 -96 70q-40 0 -69 -28.5t-29 -69.5t29 -70t69 -29q55 0 94 65l64 -22q-56 -111 -158 -111q-45 0 -83.5 22.5t-61 61t-22.5 83.5t22.5 83.5z" />
    <glyph glyph-name="guillemotleft" unicode="&#xab;" horiz-adv-x="433" 
d="M188 240l139 133l39 -46l-93 -89l94 -96l-40 -44zM177 373l39 -46l-93 -89l94 -96l-40 -44l-139 142z" />
    <glyph glyph-name="registered" unicode="&#xae;" horiz-adv-x="580" 
d="M160 281.5q-60 34.5 -95 93.5t-35 129q0 71 35 130.5t94.5 94t129.5 34.5t130 -34.5t95 -94t35 -130.5q0 -70 -35.5 -129t-95 -93.5t-129.5 -34.5q-69 0 -129 34.5zM103 397q29 -49 78.5 -77.5t107.5 -28.5q59 0 109 28.5t79 77.5t29 107q0 59 -29 108.5t-79 78
t-109 28.5q-58 0 -107.5 -28.5t-78.5 -78t-29 -108.5q0 -58 29 -107zM203 659h91q41 0 70 -26.5t29 -63.5q0 -47 -58 -83l77 -136h-57l-73 130h-28v-130h-51v309zM294 525q20 0 34.5 12.5t14.5 31.5q0 20 -14 33t-35 13h-40v-90h40z" />
    <glyph glyph-name="macron" unicode="&#xaf;" horiz-adv-x="454" 
d="M86 610h282v-65h-282v65z" />
    <glyph glyph-name="degree" unicode="&#xb0;" horiz-adv-x="544" 
d="M182 424q-41 24 -65 65t-24 89q0 49 24 90t65 65t90 24q48 0 89 -24t65 -65t24 -90q0 -48 -24 -89t-65 -65t-89 -24q-49 0 -90 24zM191.5 498.5q33.5 -33.5 80.5 -33.5t80 33.5t33 79.5q0 47 -33.5 80.5t-79.5 33.5t-80 -33.5t-34 -80.5q0 -46 33.5 -79.5z" />
    <glyph glyph-name="plusminus" unicode="&#xb1;" horiz-adv-x="734" 
d="M332 268h-244v70h244v132h70v-132h244v-70h-244v-132h-70v132zM88 70h558v-70h-558v70z" />
    <glyph glyph-name="acute" unicode="&#xb4;" horiz-adv-x="257" 
d="M139 717h100l-144 -177h-61z" />
    <glyph glyph-name="uni00B5" unicode="&#xb5;" horiz-adv-x="598" 
d="M128 470h70v-297q0 -57 31.5 -85t81.5 -28q51 0 82.5 27.5t31.5 85.5v297h70v-470h-65v27q-47 -37 -119 -37q-71 0 -118 37v-232h-65v675z" />
    <glyph glyph-name="paragraph" unicode="&#xb6;" horiz-adv-x="606" 
d="M248 283q-86 19 -142 81.5t-56 149.5q0 64 32.5 118.5t87.5 86t119 31.5h189v-921h-75v863h-80v-863h-75v454z" />
    <glyph glyph-name="periodcentered" unicode="&#xb7;" horiz-adv-x="336" 
d="M126 196q-17 17 -17 42t17 42.5t42 17.5q24 0 42 -17.5t18 -42.5q0 -24 -18 -41.5t-42 -17.5q-25 0 -42 17z" />
    <glyph glyph-name="cedilla" unicode="&#xb8;" horiz-adv-x="256" 
d="M144 -116q0 20 -14.5 29t-47.5 13l20 80h26l-13 -50q36 -5 60 -25t24 -56q0 -87 -143 -87l10 53q78 0 78 43z" />
    <glyph glyph-name="guillemotright" unicode="&#xbb;" horiz-adv-x="432" 
d="M215 142l94 96l-93 89l38 46l140 -133l-139 -142zM159 238l-93 89l38 46l140 -133l-139 -142l-40 44z" />
    <glyph glyph-name="questiondown" unicode="&#xbf;" horiz-adv-x="479" 
d="M268 154q-12 -28 -29 -47t-46 -45q-39 -35 -58 -62t-19 -68q0 -52 35 -85.5t88 -33.5t91 33.5t44 97.5h71q-4 -64 -33 -110.5t-74.5 -70t-98.5 -23.5q-54 0 -98.5 24.5t-70.5 68.5t-26 99q0 53 22.5 87t66.5 75q38 35 56.5 61.5t18.5 64.5v83h72v-84q0 -37 -12 -65z
M202 492.5q18 17.5 42 17.5q25 0 42 -17t17 -42t-17 -42.5t-42 -17.5q-24 0 -42 17.5t-18 42.5q0 24 18 41.5z" />
    <glyph glyph-name="Agrave" unicode="&#xc0;" horiz-adv-x="688" 
d="M344 780l330 -780h-80l-68 161h-364l-67 -161h-81zM496 234l-152 362l-151 -362h303zM206 953h90l78 -133h-61z" />
    <glyph glyph-name="Aacute" unicode="&#xc1;" horiz-adv-x="688" 
d="M344 780l330 -780h-80l-68 161h-364l-67 -161h-81zM496 234l-152 362l-151 -362h303zM392 953h90l-108 -133h-61z" />
    <glyph glyph-name="Acircumflex" unicode="&#xc2;" horiz-adv-x="688" 
d="M344 780l330 -780h-80l-68 161h-364l-67 -161h-81zM496 234l-152 362l-151 -362h303zM306 953h76l101 -133h-73l-66 81l-66 -81h-73z" />
    <glyph glyph-name="Atilde" unicode="&#xc3;" horiz-adv-x="688" 
d="M344 780l330 -780h-80l-68 161h-364l-67 -161h-81zM496 234l-152 362l-151 -362h303zM367.5 816q-20.5 10 -46.5 34q-16 15 -25.5 20.5t-21.5 5.5q-29 0 -49 -31l-22 -34l-54 34l22 34q19 29 46 44.5t57 15.5q24 0 44.5 -10t45.5 -31q5 -4 14 -12t17 -12t19 -4
q30 0 48 30l21 35l56 -32l-22 -36q-18 -29 -45 -45t-59 -16q-25 0 -45.5 10z" />
    <glyph glyph-name="Adieresis" unicode="&#xc4;" horiz-adv-x="688" 
d="M344 780l330 -780h-80l-68 161h-364l-67 -161h-81zM496 234l-152 362l-151 -362h303zM393.5 855.5q-15.5 15.5 -15.5 38.5t15.5 39t39.5 16q23 0 38.5 -16t15.5 -39t-15.5 -38.5t-38.5 -15.5q-24 0 -39.5 15.5zM216.5 933q15.5 16 39.5 16q23 0 38.5 -16t15.5 -39
t-15.5 -38.5t-38.5 -15.5q-24 0 -39.5 15.5t-15.5 38.5t15.5 39z" />
    <glyph glyph-name="Aring" unicode="&#xc5;" horiz-adv-x="688" 
d="M334 756q-30 4 -50.5 26.5t-20.5 53.5q0 33 23.5 57t57.5 24t57.5 -24t23.5 -57q0 -31 -20.5 -53.5t-50.5 -26.5l320 -756h-80l-68 161h-364l-67 -161h-81zM496 234l-152 362l-151 -362h303zM318 810q11 -11 26 -11t26 11t11 26t-11 26t-26 11t-26 -11t-11 -26t11 -26z
" />
    <glyph glyph-name="AE" unicode="&#xc6;" horiz-adv-x="885" 
d="M477 750h364v-71h-308v-261h261v-71h-261v-276h308v-71h-379v210h-241l-129 -210h-84zM462 280v310l-198 -310h198z" />
    <glyph glyph-name="Ccedilla" unicode="&#xc7;" horiz-adv-x="741" 
d="M465 -116q0 20 -14.5 29t-47.5 13l16 64q-101 5 -185.5 57.5t-134 139t-49.5 188.5q0 104 52.5 192.5t141.5 140.5t193 52q79 0 150.5 -30.5t124.5 -84.5l-55 -51q-44 43 -100.5 67t-119.5 24q-84 0 -156 -42t-114 -113t-42 -155q0 -83 42 -154.5t113.5 -113.5t154.5 -42
q63 0 120.5 24t101.5 67l56 -50q-52 -53 -121.5 -84t-146.5 -32l-9 -34q36 -5 60 -25t24 -56q0 -87 -143 -87l10 53q78 0 78 43z" />
    <glyph glyph-name="Egrave" unicode="&#xc8;" horiz-adv-x="535" 
d="M107 750h382v-73h-307v-265h268v-73h-268v-266h307v-73h-382v750zM160 953h90l78 -133h-61z" />
    <glyph glyph-name="Eacute" unicode="&#xc9;" horiz-adv-x="535" 
d="M107 750h382v-73h-307v-265h268v-73h-268v-266h307v-73h-382v750zM346 953h90l-108 -133h-61z" />
    <glyph glyph-name="Ecircumflex" unicode="&#xca;" horiz-adv-x="535" 
d="M107 750h382v-73h-307v-265h268v-73h-268v-266h307v-73h-382v750zM260 953h76l101 -133h-73l-66 81l-66 -81h-73z" />
    <glyph glyph-name="Edieresis" unicode="&#xcb;" horiz-adv-x="535" 
d="M107 750h382v-73h-307v-265h268v-73h-268v-266h307v-73h-382v750zM347.5 855.5q-15.5 15.5 -15.5 38.5t15.5 39t39.5 16q23 0 38.5 -16t15.5 -39t-15.5 -38.5t-38.5 -15.5q-24 0 -39.5 15.5zM170.5 933q15.5 16 39.5 16q23 0 38.5 -16t15.5 -39t-15.5 -38.5t-38.5 -15.5
q-24 0 -39.5 15.5t-15.5 38.5t15.5 39z" />
    <glyph glyph-name="Igrave" unicode="&#xcc;" horiz-adv-x="289" 
d="M107 750h75v-750h-75v750zM7 953h90l78 -133h-61z" />
    <glyph glyph-name="Iacute" unicode="&#xcd;" horiz-adv-x="289" 
d="M107 750h75v-750h-75v750zM193 953h90l-108 -133h-61z" />
    <glyph glyph-name="Icircumflex" unicode="&#xce;" horiz-adv-x="289" 
d="M107 750h75v-750h-75v750zM107 953h76l101 -133h-73l-66 81l-66 -81h-73z" />
    <glyph glyph-name="Idieresis" unicode="&#xcf;" horiz-adv-x="289" 
d="M107 750h75v-750h-75v750zM194.5 855.5q-15.5 15.5 -15.5 38.5t15.5 39t39.5 16q23 0 38.5 -16t15.5 -39t-15.5 -38.5t-38.5 -15.5q-24 0 -39.5 15.5zM17.5 933q15.5 16 39.5 16q23 0 38.5 -16t15.5 -39t-15.5 -38.5t-38.5 -15.5q-24 0 -39.5 15.5t-15.5 38.5t15.5 39z
" />
    <glyph glyph-name="Eth" unicode="&#xd0;" horiz-adv-x="716" 
d="M107 340h-77v70h77v340h169q116 0 203 -44.5t135 -128.5t48 -200t-48 -201t-135.5 -130.5t-202.5 -45.5h-169v340zM274 73q145 0 229 79.5t84 224.5q0 144 -83.5 222t-229.5 78h-92v-267h153v-70h-153v-267h92z" />
    <glyph glyph-name="Ntilde" unicode="&#xd1;" horiz-adv-x="774" 
d="M182 571v-571h-75v780l485 -601v571h75v-777zM410.5 816q-20.5 10 -46.5 34q-16 15 -25.5 20.5t-21.5 5.5q-29 0 -49 -31l-22 -34l-54 34l22 34q19 29 46 44.5t57 15.5q24 0 44.5 -10t45.5 -31q5 -4 14 -12t17 -12t19 -4q30 0 48 30l21 35l56 -32l-22 -36
q-18 -29 -45 -45t-59 -16q-25 0 -45.5 10z" />
    <glyph glyph-name="Ograve" unicode="&#xd2;" horiz-adv-x="874" 
d="M244 42q-89 52 -141.5 140t-52.5 193q0 104 52.5 192.5t141.5 140.5t193 52t193 -52t141.5 -140.5t52.5 -192.5q0 -105 -52.5 -193t-141.5 -140t-193 -52t-193 52zM167 220.5q42 -71.5 113.5 -113.5t154.5 -42q84 0 156 41.5t115 113t43 155.5t-42.5 155t-114 113
t-155.5 42t-156 -42t-114 -113t-42 -155q0 -83 42 -154.5zM299 953h90l78 -133h-61z" />
    <glyph glyph-name="Oacute" unicode="&#xd3;" horiz-adv-x="874" 
d="M244 42q-89 52 -141.5 140t-52.5 193q0 104 52.5 192.5t141.5 140.5t193 52t193 -52t141.5 -140.5t52.5 -192.5q0 -105 -52.5 -193t-141.5 -140t-193 -52t-193 52zM167 220.5q42 -71.5 113.5 -113.5t154.5 -42q84 0 156 41.5t115 113t43 155.5t-42.5 155t-114 113
t-155.5 42t-156 -42t-114 -113t-42 -155q0 -83 42 -154.5zM485 953h90l-108 -133h-61z" />
    <glyph glyph-name="Ocircumflex" unicode="&#xd4;" horiz-adv-x="874" 
d="M244 42q-89 52 -141.5 140t-52.5 193q0 104 52.5 192.5t141.5 140.5t193 52t193 -52t141.5 -140.5t52.5 -192.5q0 -105 -52.5 -193t-141.5 -140t-193 -52t-193 52zM167 220.5q42 -71.5 113.5 -113.5t154.5 -42q84 0 156 41.5t115 113t43 155.5t-42.5 155t-114 113
t-155.5 42t-156 -42t-114 -113t-42 -155q0 -83 42 -154.5zM399 953h76l101 -133h-73l-66 81l-66 -81h-73z" />
    <glyph glyph-name="Otilde" unicode="&#xd5;" horiz-adv-x="874" 
d="M244 42q-89 52 -141.5 140t-52.5 193q0 104 52.5 192.5t141.5 140.5t193 52t193 -52t141.5 -140.5t52.5 -192.5q0 -105 -52.5 -193t-141.5 -140t-193 -52t-193 52zM167 220.5q42 -71.5 113.5 -113.5t154.5 -42q84 0 156 41.5t115 113t43 155.5t-42.5 155t-114 113
t-155.5 42t-156 -42t-114 -113t-42 -155q0 -83 42 -154.5zM460.5 816q-20.5 10 -46.5 34q-16 15 -25.5 20.5t-21.5 5.5q-29 0 -49 -31l-22 -34l-54 34l22 34q19 29 46 44.5t57 15.5q24 0 44.5 -10t45.5 -31q5 -4 14 -12t17 -12t19 -4q30 0 48 30l21 35l56 -32l-22 -36
q-18 -29 -45 -45t-59 -16q-25 0 -45.5 10z" />
    <glyph glyph-name="Odieresis" unicode="&#xd6;" horiz-adv-x="874" 
d="M244 42q-89 52 -141.5 140t-52.5 193q0 104 52.5 192.5t141.5 140.5t193 52t193 -52t141.5 -140.5t52.5 -192.5q0 -105 -52.5 -193t-141.5 -140t-193 -52t-193 52zM167 220.5q42 -71.5 113.5 -113.5t154.5 -42q84 0 156 41.5t115 113t43 155.5t-42.5 155t-114 113
t-155.5 42t-156 -42t-114 -113t-42 -155q0 -83 42 -154.5zM486.5 855.5q-15.5 15.5 -15.5 38.5t15.5 39t39.5 16q23 0 38.5 -16t15.5 -39t-15.5 -38.5t-38.5 -15.5q-24 0 -39.5 15.5zM309.5 933q15.5 16 39.5 16q23 0 38.5 -16t15.5 -39t-15.5 -38.5t-38.5 -15.5
q-24 0 -39.5 15.5t-15.5 38.5t15.5 39z" />
    <glyph glyph-name="multiply" unicode="&#xd7;" horiz-adv-x="557" 
d="M278 215l-162 -162l-49 49l162 162l-163 163l49 49l163 -163l162 162l49 -49l-162 -162l163 -163l-49 -49z" />
    <glyph glyph-name="Oslash" unicode="&#xd8;" horiz-adv-x="874" 
d="M253 36l-30 -46h-79l55 82q-70 54 -109.5 133t-39.5 170q0 104 52.5 192.5t141.5 140.5t193 52q101 0 186 -48l32 48h75l-54 -83q69 -53 108.5 -132.5t39.5 -169.5q0 -105 -52.5 -193t-141.5 -140t-193 -52q-97 0 -184 46zM155 242q31 -63 85 -107l341 514
q-67 36 -144 36q-84 0 -156 -42t-114 -113t-42 -155q-1 -70 30 -133zM435 65q84 0 156 41.5t115 113t43 155.5q0 71 -31 133.5t-84 105.5l-339 -515q65 -34 140 -34z" />
    <glyph glyph-name="Ugrave" unicode="&#xd9;" horiz-adv-x="674" 
d="M162.5 52.5q-67.5 62.5 -67.5 188.5v509h75v-509q0 -96 43 -137t123 -41q81 0 124 41t43 137v509h75v-509q0 -126 -67 -188.5t-175 -62.5q-106 0 -173.5 62.5zM198 953h90l78 -133h-61z" />
    <glyph glyph-name="Uacute" unicode="&#xda;" horiz-adv-x="674" 
d="M162.5 52.5q-67.5 62.5 -67.5 188.5v509h75v-509q0 -96 43 -137t123 -41q81 0 124 41t43 137v509h75v-509q0 -126 -67 -188.5t-175 -62.5q-106 0 -173.5 62.5zM384 953h90l-108 -133h-61z" />
    <glyph glyph-name="Ucircumflex" unicode="&#xdb;" horiz-adv-x="674" 
d="M162.5 52.5q-67.5 62.5 -67.5 188.5v509h75v-509q0 -96 43 -137t123 -41q81 0 124 41t43 137v509h75v-509q0 -126 -67 -188.5t-175 -62.5q-106 0 -173.5 62.5zM298 953h76l101 -133h-73l-66 81l-66 -81h-73z" />
    <glyph glyph-name="Udieresis" unicode="&#xdc;" horiz-adv-x="674" 
d="M162.5 52.5q-67.5 62.5 -67.5 188.5v509h75v-509q0 -96 43 -137t123 -41q81 0 124 41t43 137v509h75v-509q0 -126 -67 -188.5t-175 -62.5q-106 0 -173.5 62.5zM385.5 855.5q-15.5 15.5 -15.5 38.5t15.5 39t39.5 16q23 0 38.5 -16t15.5 -39t-15.5 -38.5t-38.5 -15.5
q-24 0 -39.5 15.5zM208.5 933q15.5 16 39.5 16q23 0 38.5 -16t15.5 -39t-15.5 -38.5t-38.5 -15.5q-24 0 -39.5 15.5t-15.5 38.5t15.5 39z" />
    <glyph glyph-name="Yacute" unicode="&#xdd;" horiz-adv-x="591" 
d="M258 369l-251 381h84l204 -310l205 310h84l-251 -380v-370h-75v369zM344 953h90l-108 -133h-61z" />
    <glyph glyph-name="Thorn" unicode="&#xde;" horiz-adv-x="576" 
d="M107 750h75v-120h150q57 0 105 -28.5t76 -76.5t28 -105t-28 -105t-76 -76t-105 -28h-150v-211h-75v750zM332 285q37 0 68.5 18t50 49t18.5 68t-18.5 68.5t-50 50t-68.5 18.5h-150v-272h150z" />
    <glyph glyph-name="germandbls" unicode="&#xdf;" horiz-adv-x="537" 
d="M342 88q40 24 62 62t22 83t-22 83t-62 62t-92 28v69q50 6 78.5 34.5t28.5 67.5q0 42 -29.5 72t-71.5 30t-71 -30t-29 -72v-577h-70v577q0 47 23 87t62 63t85 23t85 -23t62 -63t23 -87q0 -70 -60 -130q62 -38 95.5 -93t33.5 -121q0 -64 -31 -118t-87 -87.5t-127 -37.5v70
q52 4 92 28z" />
    <glyph glyph-name="agrave" unicode="&#xe0;" horiz-adv-x="619" 
d="M165.5 23q-56.5 33 -89.5 89.5t-33 122.5t33 122.5t89.5 89.5t122.5 33q49 0 95.5 -19t79.5 -55v64h70v-470h-70v64q-33 -36 -79.5 -55t-95.5 -19q-66 0 -122.5 33zM136.5 147.5q23.5 -40.5 64 -64t87.5 -23.5t87.5 23.5t64 64t23.5 87.5t-23.5 87.5t-64 64t-87.5 23.5
t-87.5 -23.5t-64 -64t-23.5 -87.5t23.5 -87.5zM137 717h100l104 -177h-62z" />
    <glyph glyph-name="aacute" unicode="&#xe1;" horiz-adv-x="619" 
d="M165.5 23q-56.5 33 -89.5 89.5t-33 122.5t33 122.5t89.5 89.5t122.5 33q49 0 95.5 -19t79.5 -55v64h70v-470h-70v64q-33 -36 -79.5 -55t-95.5 -19q-66 0 -122.5 33zM136.5 147.5q23.5 -40.5 64 -64t87.5 -23.5t87.5 23.5t64 64t23.5 87.5t-23.5 87.5t-64 64t-87.5 23.5
t-87.5 -23.5t-64 -64t-23.5 -87.5t23.5 -87.5zM384 717h100l-144 -177h-61z" />
    <glyph glyph-name="acircumflex" unicode="&#xe2;" horiz-adv-x="619" 
d="M165.5 23q-56.5 33 -89.5 89.5t-33 122.5t33 122.5t89.5 89.5t122.5 33q49 0 95.5 -19t79.5 -55v64h70v-470h-70v64q-33 -36 -79.5 -55t-95.5 -19q-66 0 -122.5 33zM136.5 147.5q23.5 -40.5 64 -64t87.5 -23.5t87.5 23.5t64 64t23.5 87.5t-23.5 87.5t-64 64t-87.5 23.5
t-87.5 -23.5t-64 -64t-23.5 -87.5t23.5 -87.5zM272 653h76l101 -113h-73l-66 61l-66 -61h-73z" />
    <glyph glyph-name="atilde" unicode="&#xe3;" horiz-adv-x="619" 
d="M165.5 23q-56.5 33 -89.5 89.5t-33 122.5t33 122.5t89.5 89.5t122.5 33q49 0 95.5 -19t79.5 -55v64h70v-470h-70v64q-33 -36 -79.5 -55t-95.5 -19q-66 0 -122.5 33zM136.5 147.5q23.5 -40.5 64 -64t87.5 -23.5t87.5 23.5t64 64t23.5 87.5t-23.5 87.5t-64 64t-87.5 23.5
t-87.5 -23.5t-64 -64t-23.5 -87.5t23.5 -87.5zM333.5 537q-20.5 10 -46.5 34q-16 15 -25.5 20.5t-21.5 5.5q-20 0 -32 -12t-39 -53l-54 34q35 54 60.5 74t64.5 20q24 0 44.5 -10t45.5 -31q5 -4 14 -12t17 -12t19 -4q22 0 33 11.5t36 53.5l56 -32q-35 -57 -60 -77t-66 -20
q-25 0 -45.5 10z" />
    <glyph glyph-name="adieresis" unicode="&#xe4;" horiz-adv-x="619" 
d="M165.5 23q-56.5 33 -89.5 89.5t-33 122.5t33 122.5t89.5 89.5t122.5 33q49 0 95.5 -19t79.5 -55v64h70v-470h-70v64q-33 -36 -79.5 -55t-95.5 -19q-66 0 -122.5 33zM136.5 147.5q23.5 -40.5 64 -64t87.5 -23.5t87.5 23.5t64 64t23.5 87.5t-23.5 87.5t-64 64t-87.5 23.5
t-87.5 -23.5t-64 -64t-23.5 -87.5t23.5 -87.5zM359.5 555.5q-15.5 15.5 -15.5 38.5t15.5 39t39.5 16q23 0 38.5 -16t15.5 -39t-15.5 -38.5t-38.5 -15.5q-24 0 -39.5 15.5zM182.5 633q15.5 16 39.5 16q23 0 38.5 -16t15.5 -39t-15.5 -38.5t-38.5 -15.5q-24 0 -39.5 15.5
t-15.5 38.5t15.5 39z" />
    <glyph glyph-name="aring" unicode="&#xe5;" horiz-adv-x="619" 
d="M165.5 23q-56.5 33 -89.5 89.5t-33 122.5t33 122.5t89.5 89.5t122.5 33q49 0 95.5 -19t79.5 -55v64h70v-470h-70v64q-33 -36 -79.5 -55t-95.5 -19q-66 0 -122.5 33zM136.5 147.5q23.5 -40.5 64 -64t87.5 -23.5t87.5 23.5t64 64t23.5 87.5t-23.5 87.5t-64 64t-87.5 23.5
t-87.5 -23.5t-64 -64t-23.5 -87.5t23.5 -87.5zM245.5 556q-26.5 26 -26.5 64t26.5 64.5t64.5 26.5t64.5 -26.5t26.5 -64.5q0 -37 -26.5 -63.5t-64.5 -26.5t-64.5 26zM281.5 591.5q11.5 -11.5 28.5 -11.5t28.5 12t11.5 28q0 17 -11.5 29t-28.5 12t-28.5 -12t-11.5 -29
t11.5 -28.5z" />
    <glyph glyph-name="ae" unicode="&#xe6;" horiz-adv-x="888" 
d="M119.5 8q-34.5 18 -55 50.5t-20.5 73.5q0 47 26 83.5t69 54.5h222v48q0 46 -32.5 69t-80.5 23q-38 0 -69 -17t-45 -50l-64 27q22 53 70 81.5t108 28.5q56 0 102 -24t66 -68q34 43 84 67.5t107 24.5q66 0 122.5 -33t89.5 -89.5t33 -122.5h-420q0 -47 23.5 -87.5t64 -64
t87.5 -23.5q52 0 96 28.5t64 76.5l64 -29q-28 -66 -90 -106t-134 -40q-54 0 -102 22t-82 61l-166 -71q-28 -12 -62 -12q-41 0 -75.5 18zM137.5 79q23.5 -20 57.5 -20q16 0 35 7l131 56v84h-207q-40 -26 -40 -74q0 -33 23.5 -53zM769 300q-22 50 -66 80t-96 30t-96 -30
t-66 -80h324z" />
    <glyph glyph-name="ccedilla" unicode="&#xe7;" horiz-adv-x="549" 
d="M316 -116q0 20 -14.5 29t-47.5 13l16 65q-63 4 -115 38t-82 88.5t-30 117.5q0 66 33 122.5t89.5 89.5t122.5 33q73 0 134 -40.5t91 -107.5l-64 -27q-21 48 -65 76.5t-96 28.5q-47 0 -87.5 -23.5t-64 -64t-23.5 -87.5t23.5 -87.5t64 -64t87.5 -23.5q52 0 96 28.5t64 76.5
l64 -29q-27 -64 -86.5 -104t-129.5 -42l-9 -34q36 -5 60 -25t24 -56q0 -87 -143 -87l10 53q78 0 78 43z" />
    <glyph glyph-name="egrave" unicode="&#xe8;" horiz-adv-x="570" 
d="M165.5 23q-56.5 33 -89.5 89.5t-33 122.5t33 122.5t89.5 89.5t122.5 33t122.5 -33t89.5 -89.5t33 -122.5h-417v-2q0 -45 19.5 -84.5t58.5 -64t94 -24.5q52 0 96 28.5t64 76.5l64 -29q-28 -66 -90 -106t-134 -40q-66 0 -122.5 33zM452 295q-21 52 -66 83.5t-98 31.5
q-62 0 -103.5 -32t-58.5 -83h326zM115 717h100l104 -177h-62z" />
    <glyph glyph-name="eacute" unicode="&#xe9;" horiz-adv-x="570" 
d="M165.5 23q-56.5 33 -89.5 89.5t-33 122.5t33 122.5t89.5 89.5t122.5 33t122.5 -33t89.5 -89.5t33 -122.5h-417v-2q0 -45 19.5 -84.5t58.5 -64t94 -24.5q52 0 96 28.5t64 76.5l64 -29q-28 -66 -90 -106t-134 -40q-66 0 -122.5 33zM452 295q-21 52 -66 83.5t-98 31.5
q-62 0 -103.5 -32t-58.5 -83h326zM362 717h100l-144 -177h-61z" />
    <glyph glyph-name="ecircumflex" unicode="&#xea;" horiz-adv-x="570" 
d="M165.5 23q-56.5 33 -89.5 89.5t-33 122.5t33 122.5t89.5 89.5t122.5 33t122.5 -33t89.5 -89.5t33 -122.5h-417v-2q0 -45 19.5 -84.5t58.5 -64t94 -24.5q52 0 96 28.5t64 76.5l64 -29q-28 -66 -90 -106t-134 -40q-66 0 -122.5 33zM452 295q-21 52 -66 83.5t-98 31.5
q-62 0 -103.5 -32t-58.5 -83h326zM250 653h76l101 -113h-73l-66 61l-66 -61h-73z" />
    <glyph glyph-name="edieresis" unicode="&#xeb;" horiz-adv-x="570" 
d="M165.5 23q-56.5 33 -89.5 89.5t-33 122.5t33 122.5t89.5 89.5t122.5 33t122.5 -33t89.5 -89.5t33 -122.5h-417v-2q0 -45 19.5 -84.5t58.5 -64t94 -24.5q52 0 96 28.5t64 76.5l64 -29q-28 -66 -90 -106t-134 -40q-66 0 -122.5 33zM452 295q-21 52 -66 83.5t-98 31.5
q-62 0 -103.5 -32t-58.5 -83h326zM337.5 555.5q-15.5 15.5 -15.5 38.5t15.5 39t39.5 16q23 0 38.5 -16t15.5 -39t-15.5 -38.5t-38.5 -15.5q-24 0 -39.5 15.5zM160.5 633q15.5 16 39.5 16q23 0 38.5 -16t15.5 -39t-15.5 -38.5t-38.5 -15.5q-24 0 -39.5 15.5t-15.5 38.5
t15.5 39z" />
    <glyph glyph-name="igrave" unicode="&#xec;" horiz-adv-x="242" 
d="M86 470h70v-470h-70v470zM-52 717h100l104 -177h-62z" />
    <glyph glyph-name="iacute" unicode="&#xed;" horiz-adv-x="242" 
d="M86 470h70v-470h-70v470zM195 717h100l-144 -177h-61z" />
    <glyph glyph-name="icircumflex" unicode="&#xee;" horiz-adv-x="242" 
d="M86 470h70v-470h-70v470zM83 653h76l101 -113h-73l-66 61l-66 -61h-73z" />
    <glyph glyph-name="idieresis" unicode="&#xef;" horiz-adv-x="242" 
d="M86 470h70v-470h-70v470zM170.5 555.5q-15.5 15.5 -15.5 38.5t15.5 39t39.5 16q23 0 38.5 -16t15.5 -39t-15.5 -38.5t-38.5 -15.5q-24 0 -39.5 15.5zM-6.5 633q15.5 16 39.5 16q23 0 38.5 -16t15.5 -39t-15.5 -38.5t-38.5 -15.5q-24 0 -39.5 15.5t-15.5 38.5t15.5 39z
" />
    <glyph glyph-name="eth" unicode="&#xf0;" horiz-adv-x="590" 
d="M169.5 20.5q-57.5 32.5 -91.5 89t-34 125.5q0 66 32 122.5t86.5 90t119.5 33.5q38 0 69 -7l-79 113h-137v65h92l-69 98h85l68 -98h129v-65h-85l126 -182q63 -91 63 -170q0 -69 -33.5 -125.5t-90.5 -89t-126 -32.5q-67 0 -124.5 32.5zM142.5 146.5q23.5 -40.5 63.5 -64
t88 -23.5t88 23.5t63.5 64t23.5 88.5t-23.5 88t-63.5 63.5t-88 23.5t-88 -23.5t-63.5 -63.5t-23.5 -88t23.5 -88.5z" />
    <glyph glyph-name="ntilde" unicode="&#xf1;" horiz-adv-x="526" 
d="M86 470h70v-49q21 29 54.5 44t70.5 15q50 0 88.5 -24.5t60 -66t21.5 -91.5v-298h-70v298q0 46 -30.5 79t-76.5 33q-30 0 -57 -14.5t-44 -39.5t-17 -55v-301h-70v470zM287.5 537q-20.5 10 -46.5 34q-16 15 -25.5 20.5t-21.5 5.5q-20 0 -32 -12t-39 -53l-54 34
q35 54 60.5 74t64.5 20q24 0 44.5 -10t45.5 -31q5 -4 14 -12t17 -12t19 -4q22 0 33 11.5t36 53.5l56 -32q-35 -57 -60 -77t-66 -20q-25 0 -45.5 10z" />
    <glyph glyph-name="ograve" unicode="&#xf2;" horiz-adv-x="576" 
d="M165.5 23q-56.5 33 -89.5 89.5t-33 122.5t33 122.5t89.5 89.5t122.5 33t122.5 -33t89.5 -89.5t33 -122.5t-33 -122.5t-89.5 -89.5t-122.5 -33t-122.5 33zM136.5 147.5q23.5 -40.5 64 -64t87.5 -23.5t87.5 23.5t64 64t23.5 87.5t-23.5 87.5t-64 64t-87.5 23.5t-87.5 -23.5
t-64 -64t-23.5 -87.5t23.5 -87.5zM115 717h100l104 -177h-62z" />
    <glyph glyph-name="oacute" unicode="&#xf3;" horiz-adv-x="576" 
d="M165.5 23q-56.5 33 -89.5 89.5t-33 122.5t33 122.5t89.5 89.5t122.5 33t122.5 -33t89.5 -89.5t33 -122.5t-33 -122.5t-89.5 -89.5t-122.5 -33t-122.5 33zM136.5 147.5q23.5 -40.5 64 -64t87.5 -23.5t87.5 23.5t64 64t23.5 87.5t-23.5 87.5t-64 64t-87.5 23.5t-87.5 -23.5
t-64 -64t-23.5 -87.5t23.5 -87.5zM362 717h100l-144 -177h-61z" />
    <glyph glyph-name="ocircumflex" unicode="&#xf4;" horiz-adv-x="576" 
d="M165.5 23q-56.5 33 -89.5 89.5t-33 122.5t33 122.5t89.5 89.5t122.5 33t122.5 -33t89.5 -89.5t33 -122.5t-33 -122.5t-89.5 -89.5t-122.5 -33t-122.5 33zM136.5 147.5q23.5 -40.5 64 -64t87.5 -23.5t87.5 23.5t64 64t23.5 87.5t-23.5 87.5t-64 64t-87.5 23.5t-87.5 -23.5
t-64 -64t-23.5 -87.5t23.5 -87.5zM250 653h76l101 -113h-73l-66 61l-66 -61h-73z" />
    <glyph glyph-name="otilde" unicode="&#xf5;" horiz-adv-x="576" 
d="M165.5 23q-56.5 33 -89.5 89.5t-33 122.5t33 122.5t89.5 89.5t122.5 33t122.5 -33t89.5 -89.5t33 -122.5t-33 -122.5t-89.5 -89.5t-122.5 -33t-122.5 33zM136.5 147.5q23.5 -40.5 64 -64t87.5 -23.5t87.5 23.5t64 64t23.5 87.5t-23.5 87.5t-64 64t-87.5 23.5t-87.5 -23.5
t-64 -64t-23.5 -87.5t23.5 -87.5zM311.5 537q-20.5 10 -46.5 34q-16 15 -25.5 20.5t-21.5 5.5q-20 0 -32 -12t-39 -53l-54 34q35 54 60.5 74t64.5 20q24 0 44.5 -10t45.5 -31q5 -4 14 -12t17 -12t19 -4q22 0 33 11.5t36 53.5l56 -32q-35 -57 -60 -77t-66 -20q-25 0 -45.5 10
z" />
    <glyph glyph-name="odieresis" unicode="&#xf6;" horiz-adv-x="576" 
d="M165.5 23q-56.5 33 -89.5 89.5t-33 122.5t33 122.5t89.5 89.5t122.5 33t122.5 -33t89.5 -89.5t33 -122.5t-33 -122.5t-89.5 -89.5t-122.5 -33t-122.5 33zM136.5 147.5q23.5 -40.5 64 -64t87.5 -23.5t87.5 23.5t64 64t23.5 87.5t-23.5 87.5t-64 64t-87.5 23.5t-87.5 -23.5
t-64 -64t-23.5 -87.5t23.5 -87.5zM337.5 555.5q-15.5 15.5 -15.5 38.5t15.5 39t39.5 16q23 0 38.5 -16t15.5 -39t-15.5 -38.5t-38.5 -15.5q-24 0 -39.5 15.5zM160.5 633q15.5 16 39.5 16q23 0 38.5 -16t15.5 -39t-15.5 -38.5t-38.5 -15.5q-24 0 -39.5 15.5t-15.5 38.5
t15.5 39z" />
    <glyph glyph-name="divide" unicode="&#xf7;" horiz-adv-x="504" 
d="M65 299h374v-70h-374v70zM217.5 144q13.5 14 34.5 14t34.5 -14t13.5 -34t-13.5 -34t-34.5 -14t-34.5 14t-13.5 34t13.5 34zM217.5 454q13.5 14 34.5 14t34.5 -14t13.5 -34t-13.5 -34t-34.5 -14t-34.5 14t-13.5 34t13.5 34z" />
    <glyph glyph-name="oslash" unicode="&#xf8;" horiz-adv-x="576" 
d="M207 4l-37 -72h-73l52 102q-49 34 -77.5 87t-28.5 114q0 66 33 122.5t89.5 89.5t122.5 33q41 0 81 -14l36 72h73l-51 -101q49 -34 77.5 -87t28.5 -115q0 -66 -33 -122.5t-89.5 -89.5t-122.5 -33q-42 0 -81 14zM131.5 158q18.5 -36 49.5 -61l155 306q-21 7 -48 7
q-47 0 -87.5 -23.5t-64 -64t-23.5 -87.5q0 -41 18.5 -77zM288 60q47 0 87.5 23.5t64 64t23.5 87.5q0 41 -18.5 77.5t-50.5 61.5l-155 -307q26 -7 49 -7z" />
    <glyph glyph-name="ugrave" unicode="&#xf9;" horiz-adv-x="517" 
d="M127 38q-52 48 -52 135v297h70v-297q0 -57 31.5 -85t81.5 -28q51 0 82.5 27.5t31.5 85.5v297h70v-297q0 -87 -52 -135t-132 -48q-79 0 -131 48zM86 717h100l104 -177h-62z" />
    <glyph glyph-name="uacute" unicode="&#xfa;" horiz-adv-x="517" 
d="M127 38q-52 48 -52 135v297h70v-297q0 -57 31.5 -85t81.5 -28q51 0 82.5 27.5t31.5 85.5v297h70v-297q0 -87 -52 -135t-132 -48q-79 0 -131 48zM333 717h100l-144 -177h-61z" />
    <glyph glyph-name="ucircumflex" unicode="&#xfb;" horiz-adv-x="517" 
d="M127 38q-52 48 -52 135v297h70v-297q0 -57 31.5 -85t81.5 -28q51 0 82.5 27.5t31.5 85.5v297h70v-297q0 -87 -52 -135t-132 -48q-79 0 -131 48zM221 653h76l101 -113h-73l-66 61l-66 -61h-73z" />
    <glyph glyph-name="udieresis" unicode="&#xfc;" horiz-adv-x="517" 
d="M127 38q-52 48 -52 135v297h70v-297q0 -57 31.5 -85t81.5 -28q51 0 82.5 27.5t31.5 85.5v297h70v-297q0 -87 -52 -135t-132 -48q-79 0 -131 48zM308.5 555.5q-15.5 15.5 -15.5 38.5t15.5 39t39.5 16q23 0 38.5 -16t15.5 -39t-15.5 -38.5t-38.5 -15.5q-24 0 -39.5 15.5z
M131.5 633q15.5 16 39.5 16q23 0 38.5 -16t15.5 -39t-15.5 -38.5t-38.5 -15.5q-24 0 -39.5 15.5t-15.5 38.5t15.5 39z" />
    <glyph glyph-name="yacute" unicode="&#xfd;" horiz-adv-x="483" 
d="M207 31l-204 439h82l162 -347l150 347h81l-309 -713h-81zM313 717h100l-144 -177h-61z" />
    <glyph glyph-name="thorn" unicode="&#xfe;" horiz-adv-x="618" 
d="M235.5 9q-46.5 19 -79.5 55v-309h-70v995h70v-344q33 36 79.5 55t95.5 19q65 0 121.5 -33.5t90 -90t33.5 -121.5t-33.5 -121.5t-90 -90t-121.5 -33.5q-49 0 -95.5 19zM179.5 147.5q23.5 -40.5 64 -64t87.5 -23.5t87.5 23.5t64 64t23.5 87.5t-23.5 87.5t-64 64t-87.5 23.5
t-87.5 -23.5t-64 -64t-23.5 -87.5t23.5 -87.5z" />
    <glyph glyph-name="ydieresis" unicode="&#xff;" horiz-adv-x="483" 
d="M207 31l-204 439h82l162 -347l150 347h81l-309 -713h-81zM288.5 555.5q-15.5 15.5 -15.5 38.5t15.5 39t39.5 16q23 0 38.5 -16t15.5 -39t-15.5 -38.5t-38.5 -15.5q-24 0 -39.5 15.5zM111.5 633q15.5 16 39.5 16q23 0 38.5 -16t15.5 -39t-15.5 -38.5t-38.5 -15.5
q-24 0 -39.5 15.5t-15.5 38.5t15.5 39z" />
    <glyph glyph-name="Amacron" unicode="&#x100;" horiz-adv-x="688" 
d="M344 780l330 -780h-80l-68 161h-364l-67 -161h-81zM496 234l-152 362l-151 -362h303zM203 890h282v-65h-282v65z" />
    <glyph glyph-name="amacron" unicode="&#x101;" horiz-adv-x="619" 
d="M165.5 23q-56.5 33 -89.5 89.5t-33 122.5t33 122.5t89.5 89.5t122.5 33q49 0 95.5 -19t79.5 -55v64h70v-470h-70v64q-33 -36 -79.5 -55t-95.5 -19q-66 0 -122.5 33zM136.5 147.5q23.5 -40.5 64 -64t87.5 -23.5t87.5 23.5t64 64t23.5 87.5t-23.5 87.5t-64 64t-87.5 23.5
t-87.5 -23.5t-64 -64t-23.5 -87.5t23.5 -87.5zM169 610h282v-65h-282v65z" />
    <glyph glyph-name="Abreve" unicode="&#x102;" horiz-adv-x="688" 
d="M344 780l330 -780h-80l-68 161h-364l-67 -161h-81zM496 234l-152 362l-151 -362h303zM247 850.5q-38 30.5 -38 102.5h62q0 -42 16.5 -62t56.5 -20t56.5 20t16.5 62h62q0 -72 -38 -102.5t-97 -30.5t-97 30.5z" />
    <glyph glyph-name="abreve" unicode="&#x103;" horiz-adv-x="619" 
d="M165.5 23q-56.5 33 -89.5 89.5t-33 122.5t33 122.5t89.5 89.5t122.5 33q49 0 95.5 -19t79.5 -55v64h70v-470h-70v64q-33 -36 -79.5 -55t-95.5 -19q-66 0 -122.5 33zM136.5 147.5q23.5 -40.5 64 -64t87.5 -23.5t87.5 23.5t64 64t23.5 87.5t-23.5 87.5t-64 64t-87.5 23.5
t-87.5 -23.5t-64 -64t-23.5 -87.5t23.5 -87.5zM213 566.5q-38 26.5 -38 88.5h62q0 -35 16 -48.5t57 -13.5t57 13.5t16 48.5h62q0 -62 -38 -88.5t-97 -26.5t-97 26.5z" />
    <glyph glyph-name="Aogonek" unicode="&#x104;" horiz-adv-x="688" 
d="M344 780l330 -780q-37 -17 -58.5 -41t-21.5 -46q0 -21 20 -34t60 -13v-60q-70 0 -106.5 27.5t-36.5 70.5q0 25 14 51t48 48l-67 158h-364l-67 -161h-81zM496 234l-152 362l-151 -362h303z" />
    <glyph glyph-name="aogonek" unicode="&#x105;" horiz-adv-x="619" 
d="M165.5 23q-56.5 33 -89.5 89.5t-33 122.5t33 122.5t89.5 89.5t122.5 33q49 0 95.5 -19t79.5 -55v64h70v-470q-37 -17 -58.5 -41t-21.5 -46q0 -21 20 -34t60 -13v-60q-70 0 -106.5 27.5t-36.5 70.5q0 27 16.5 55t56.5 50v55q-33 -36 -79.5 -55t-95.5 -19q-66 0 -122.5 33z
M136.5 147.5q23.5 -40.5 64 -64t87.5 -23.5t87.5 23.5t64 64t23.5 87.5t-23.5 87.5t-64 64t-87.5 23.5t-87.5 -23.5t-64 -64t-23.5 -87.5t23.5 -87.5z" />
    <glyph glyph-name="Cacute" unicode="&#x106;" horiz-adv-x="741" 
d="M244 42q-89 52 -141.5 140t-52.5 193q0 104 52.5 192.5t141.5 140.5t193 52q79 0 150.5 -30.5t124.5 -84.5l-55 -51q-44 43 -100.5 67t-119.5 24q-84 0 -156 -42t-114 -113t-42 -155q0 -83 42 -154.5t113.5 -113.5t154.5 -42q63 0 120.5 24t101.5 67l56 -50
q-53 -55 -124.5 -85.5t-151.5 -30.5q-104 0 -193 52zM485 953h90l-108 -133h-61z" />
    <glyph glyph-name="cacute" unicode="&#x107;" horiz-adv-x="549" 
d="M165.5 23q-56.5 33 -89.5 89.5t-33 122.5t33 122.5t89.5 89.5t122.5 33q73 0 134 -40.5t91 -107.5l-64 -27q-21 48 -65 76.5t-96 28.5q-47 0 -87.5 -23.5t-64 -64t-23.5 -87.5t23.5 -87.5t64 -64t87.5 -23.5q52 0 96 28.5t64 76.5l64 -29q-28 -66 -90 -106t-134 -40
q-66 0 -122.5 33zM362 717h100l-144 -177h-61z" />
    <glyph glyph-name="Cdotaccent" unicode="&#x10a;" horiz-adv-x="741" 
d="M244 42q-89 52 -141.5 140t-52.5 193q0 104 52.5 192.5t141.5 140.5t193 52q79 0 150.5 -30.5t124.5 -84.5l-55 -51q-44 43 -100.5 67t-119.5 24q-84 0 -156 -42t-114 -113t-42 -155q0 -83 42 -154.5t113.5 -113.5t154.5 -42q63 0 120.5 24t101.5 67l56 -50
q-53 -55 -124.5 -85.5t-151.5 -30.5q-104 0 -193 52zM397.5 855.5q-15.5 15.5 -15.5 38.5t15.5 39t39.5 16q23 0 38.5 -16t15.5 -39t-15.5 -38.5t-38.5 -15.5q-24 0 -39.5 15.5z" />
    <glyph glyph-name="cdotaccent" unicode="&#x10b;" horiz-adv-x="549" 
d="M165.5 23q-56.5 33 -89.5 89.5t-33 122.5t33 122.5t89.5 89.5t122.5 33q73 0 134 -40.5t91 -107.5l-64 -27q-21 48 -65 76.5t-96 28.5q-47 0 -87.5 -23.5t-64 -64t-23.5 -87.5t23.5 -87.5t64 -64t87.5 -23.5q52 0 96 28.5t64 76.5l64 -29q-28 -66 -90 -106t-134 -40
q-66 0 -122.5 33zM248.5 555.5q-15.5 15.5 -15.5 38.5t15.5 39t39.5 16q23 0 38.5 -16t15.5 -39t-15.5 -38.5t-38.5 -15.5q-24 0 -39.5 15.5z" />
    <glyph glyph-name="Ccaron" unicode="&#x10c;" horiz-adv-x="741" 
d="M244 42q-89 52 -141.5 140t-52.5 193q0 104 52.5 192.5t141.5 140.5t193 52q79 0 150.5 -30.5t124.5 -84.5l-55 -51q-44 43 -100.5 67t-119.5 24q-84 0 -156 -42t-114 -113t-42 -155q0 -83 42 -154.5t113.5 -113.5t154.5 -42q63 0 120.5 24t101.5 67l56 -50
q-53 -55 -124.5 -85.5t-151.5 -30.5q-104 0 -193 52zM298 953h73l66 -81l66 81h73l-101 -133h-76z" />
    <glyph glyph-name="ccaron" unicode="&#x10d;" horiz-adv-x="549" 
d="M165.5 23q-56.5 33 -89.5 89.5t-33 122.5t33 122.5t89.5 89.5t122.5 33q73 0 134 -40.5t91 -107.5l-64 -27q-21 48 -65 76.5t-96 28.5q-47 0 -87.5 -23.5t-64 -64t-23.5 -87.5t23.5 -87.5t64 -64t87.5 -23.5q52 0 96 28.5t64 76.5l64 -29q-28 -66 -90 -106t-134 -40
q-66 0 -122.5 33zM149 653h73l66 -61l66 61h73l-101 -113h-76z" />
    <glyph glyph-name="Dcaron" unicode="&#x10e;" horiz-adv-x="716" 
d="M107 750h169q116 0 203 -44.5t135 -128.5t48 -200t-48 -201t-135.5 -130.5t-202.5 -45.5h-169v750zM274 73q145 0 229 79.5t84 224.5q0 144 -83.5 222t-229.5 78h-92v-604h92zM136 950h73l66 -81l66 81h73l-101 -133h-76z" />
    <glyph glyph-name="dcaron" unicode="&#x10f;" horiz-adv-x="619" 
d="M165.5 23q-56.5 33 -89.5 89.5t-33 122.5t33 122.5t89.5 89.5t122.5 33q49 0 95.5 -19t79.5 -55v344h70v-750h-70v64q-33 -36 -79.5 -55t-95.5 -19q-66 0 -122.5 33zM136.5 147.5q23.5 -40.5 64 -64t87.5 -23.5t87.5 23.5t64 64t23.5 87.5t-23.5 87.5t-64 64t-87.5 23.5
t-87.5 -23.5t-64 -64t-23.5 -87.5t23.5 -87.5zM619 750h84l-80 -218h-48z" />
    <glyph glyph-name="Dcroat" unicode="&#x110;" horiz-adv-x="716" 
d="M107 340h-77v70h77v340h169q116 0 203 -44.5t135 -128.5t48 -200t-48 -201t-135.5 -130.5t-202.5 -45.5h-169v340zM274 73q145 0 229 79.5t84 224.5q0 144 -83.5 222t-229.5 78h-92v-267h153v-70h-153v-267h92z" />
    <glyph glyph-name="dcroat" unicode="&#x111;" horiz-adv-x="619" 
d="M165.5 23q-56.5 33 -89.5 89.5t-33 122.5t33 122.5t89.5 89.5t122.5 33q49 0 95.5 -19t79.5 -55v192h-153v65h153v87h70v-87h82v-65h-82v-598h-70v64q-33 -36 -79.5 -55t-95.5 -19q-66 0 -122.5 33zM136.5 147.5q23.5 -40.5 64 -64t87.5 -23.5t87.5 23.5t64 64t23.5 87.5
t-23.5 87.5t-64 64t-87.5 23.5t-87.5 -23.5t-64 -64t-23.5 -87.5t23.5 -87.5z" />
    <glyph glyph-name="Emacron" unicode="&#x112;" horiz-adv-x="535" 
d="M107 750h382v-73h-307v-265h268v-73h-268v-266h307v-73h-382v750zM157 890h282v-65h-282v65z" />
    <glyph glyph-name="emacron" unicode="&#x113;" horiz-adv-x="570" 
d="M165.5 23q-56.5 33 -89.5 89.5t-33 122.5t33 122.5t89.5 89.5t122.5 33t122.5 -33t89.5 -89.5t33 -122.5h-417v-2q0 -45 19.5 -84.5t58.5 -64t94 -24.5q52 0 96 28.5t64 76.5l64 -29q-28 -66 -90 -106t-134 -40q-66 0 -122.5 33zM452 295q-21 52 -66 83.5t-98 31.5
q-62 0 -103.5 -32t-58.5 -83h326zM147 610h282v-65h-282v65z" />
    <glyph glyph-name="Edotaccent" unicode="&#x116;" horiz-adv-x="535" 
d="M107 750h382v-73h-307v-265h268v-73h-268v-266h307v-73h-382v750zM258.5 855.5q-15.5 15.5 -15.5 38.5t15.5 39t39.5 16q23 0 38.5 -16t15.5 -39t-15.5 -38.5t-38.5 -15.5q-24 0 -39.5 15.5z" />
    <glyph glyph-name="edotaccent" unicode="&#x117;" horiz-adv-x="570" 
d="M165.5 23q-56.5 33 -89.5 89.5t-33 122.5t33 122.5t89.5 89.5t122.5 33t122.5 -33t89.5 -89.5t33 -122.5h-417v-2q0 -45 19.5 -84.5t58.5 -64t94 -24.5q52 0 96 28.5t64 76.5l64 -29q-28 -66 -90 -106t-134 -40q-66 0 -122.5 33zM452 295q-21 52 -66 83.5t-98 31.5
q-62 0 -103.5 -32t-58.5 -83h326zM248.5 555.5q-15.5 15.5 -15.5 38.5t15.5 39t39.5 16q23 0 38.5 -16t15.5 -39t-15.5 -38.5t-38.5 -15.5q-24 0 -39.5 15.5z" />
    <glyph glyph-name="Eogonek" unicode="&#x118;" horiz-adv-x="535" 
d="M107 750h382v-73h-307v-265h268v-73h-268v-266h307v-73q-37 -17 -58.5 -41t-21.5 -46q0 -21 20 -34t60 -13v-60q-70 0 -106.5 27.5t-36.5 70.5q0 24 13 49.5t45 46.5h-297v750z" />
    <glyph glyph-name="eogonek" unicode="&#x119;" horiz-adv-x="570" 
d="M165.5 23q-56.5 33 -89.5 89.5t-33 122.5t33 122.5t89.5 89.5t122.5 33t122.5 -33t89.5 -89.5t33 -122.5h-417v-2q0 -45 19.5 -84.5t58.5 -64t94 -24.5q52 0 96 28.5t64 76.5l64 -29q-17 -41 -49 -73t-74 -51q-23 -16 -35.5 -34t-12.5 -35q0 -21 20 -34t60 -13v-60
q-70 0 -106.5 27.5t-36.5 70.5q0 30 17 56h-7q-66 0 -122.5 33zM452 295q-21 52 -66 83.5t-98 31.5q-62 0 -103.5 -32t-58.5 -83h326z" />
    <glyph glyph-name="Ecaron" unicode="&#x11a;" horiz-adv-x="535" 
d="M107 750h382v-73h-307v-265h268v-73h-268v-266h307v-73h-382v750zM159 953h73l66 -81l66 81h73l-101 -133h-76z" />
    <glyph glyph-name="ecaron" unicode="&#x11b;" horiz-adv-x="570" 
d="M165.5 23q-56.5 33 -89.5 89.5t-33 122.5t33 122.5t89.5 89.5t122.5 33t122.5 -33t89.5 -89.5t33 -122.5h-417v-2q0 -45 19.5 -84.5t58.5 -64t94 -24.5q52 0 96 28.5t64 76.5l64 -29q-28 -66 -90 -106t-134 -40q-66 0 -122.5 33zM452 295q-21 52 -66 83.5t-98 31.5
q-62 0 -103.5 -32t-58.5 -83h326zM149 653h73l66 -61l66 61h73l-101 -113h-76z" />
    <glyph glyph-name="Gbreve" unicode="&#x11e;" horiz-adv-x="794" 
d="M244 42q-89 52 -141.5 140t-52.5 193q0 104 52.5 192.5t141.5 140.5t193 52q79 0 150.5 -30.5t124.5 -84.5l-55 -51q-44 43 -100.5 67t-119.5 24q-84 0 -156 -42t-114 -113t-42 -155q0 -83 42 -154.5t113.5 -113.5t154.5 -42q57 0 110 20t96 56v197h-214v74h286v-412h-72
v48q-92 -58 -204 -58q-104 0 -193 52zM338 850.5q-38 30.5 -38 102.5h62q0 -42 16.5 -62t56.5 -20t56.5 20t16.5 62h62q0 -72 -38 -102.5t-97 -30.5t-97 30.5z" />
    <glyph glyph-name="gbreve" unicode="&#x11f;" horiz-adv-x="619" 
d="M154 -205.5q-60 39.5 -90 106.5l64 29q21 -48 63.5 -76.5t96.5 -28.5q47 0 87.5 23.5t64 64t23.5 87.5v63q-34 -34 -79.5 -53.5t-95.5 -19.5q-66 0 -122.5 33t-89.5 89.5t-33 122.5t33 122.5t89.5 89.5t122.5 33q50 0 95.5 -19.5t79.5 -53.5v63h70v-470q0 -66 -33 -122.5
t-89.5 -89.5t-122.5 -33q-74 0 -134 39.5zM136.5 147.5q23.5 -40.5 64 -64t87.5 -23.5t87.5 23.5t64 64t23.5 87.5t-23.5 87.5t-64 64t-87.5 23.5t-87.5 -23.5t-64 -64t-23.5 -87.5t23.5 -87.5zM213 566.5q-38 26.5 -38 88.5h62q0 -35 16 -48.5t57 -13.5t57 13.5t16 48.5h62
q0 -62 -38 -88.5t-97 -26.5t-97 26.5z" />
    <glyph glyph-name="Gdotaccent" unicode="&#x120;" horiz-adv-x="794" 
d="M244 42q-89 52 -141.5 140t-52.5 193q0 104 52.5 192.5t141.5 140.5t193 52q79 0 150.5 -30.5t124.5 -84.5l-55 -51q-44 43 -100.5 67t-119.5 24q-84 0 -156 -42t-114 -113t-42 -155q0 -83 42 -154.5t113.5 -113.5t154.5 -42q57 0 110 20t96 56v197h-214v74h286v-412h-72
v48q-92 -58 -204 -58q-104 0 -193 52zM395.5 855.5q-15.5 15.5 -15.5 38.5t15.5 39t39.5 16q23 0 38.5 -16t15.5 -39t-15.5 -38.5t-38.5 -15.5q-24 0 -39.5 15.5z" />
    <glyph glyph-name="gdotaccent" unicode="&#x121;" horiz-adv-x="619" 
d="M154 -205.5q-60 39.5 -90 106.5l64 29q21 -48 63.5 -76.5t96.5 -28.5q47 0 87.5 23.5t64 64t23.5 87.5v63q-34 -34 -79.5 -53.5t-95.5 -19.5q-66 0 -122.5 33t-89.5 89.5t-33 122.5t33 122.5t89.5 89.5t122.5 33q50 0 95.5 -19.5t79.5 -53.5v63h70v-470q0 -66 -33 -122.5
t-89.5 -89.5t-122.5 -33q-74 0 -134 39.5zM136.5 147.5q23.5 -40.5 64 -64t87.5 -23.5t87.5 23.5t64 64t23.5 87.5t-23.5 87.5t-64 64t-87.5 23.5t-87.5 -23.5t-64 -64t-23.5 -87.5t23.5 -87.5zM270.5 555.5q-15.5 15.5 -15.5 38.5t15.5 39t39.5 16q23 0 38.5 -16t15.5 -39
t-15.5 -38.5t-38.5 -15.5q-24 0 -39.5 15.5z" />
    <glyph glyph-name="uni0122" unicode="&#x122;" horiz-adv-x="794" 
d="M244 42q-89 52 -141.5 140t-52.5 193q0 104 52.5 192.5t141.5 140.5t193 52q79 0 150.5 -30.5t124.5 -84.5l-55 -51q-44 43 -100.5 67t-119.5 24q-84 0 -156 -42t-114 -113t-42 -155q0 -83 42 -154.5t113.5 -113.5t154.5 -42q57 0 110 20t96 56v197h-214v74h286v-412h-72
v48q-92 -58 -204 -58q-104 0 -193 52zM385 -62h100l-120 -148h-68z" />
    <glyph glyph-name="uni0123" unicode="&#x123;" horiz-adv-x="619" 
d="M154 -205.5q-60 39.5 -90 106.5l64 29q21 -48 63.5 -76.5t96.5 -28.5q47 0 87.5 23.5t64 64t23.5 87.5v63q-34 -34 -79.5 -53.5t-95.5 -19.5q-66 0 -122.5 33t-89.5 89.5t-33 122.5t33 122.5t89.5 89.5t122.5 33q50 0 95.5 -19.5t79.5 -53.5v63h70v-470q0 -66 -33 -122.5
t-89.5 -89.5t-122.5 -33q-74 0 -134 39.5zM136.5 147.5q23.5 -40.5 64 -64t87.5 -23.5t87.5 23.5t64 64t23.5 87.5t-23.5 87.5t-64 64t-87.5 23.5t-87.5 -23.5t-64 -64t-23.5 -87.5t23.5 -87.5zM360 569h-100l120 148h68z" />
    <glyph glyph-name="Hbar" unicode="&#x126;" horiz-adv-x="751" 
d="M107 570h-52v65h52v115h75v-115h387v115h75v-115h52v-65h-52v-570h-75v339h-387v-339h-75v570zM569 412v158h-387v-158h387z" />
    <glyph glyph-name="hbar" unicode="&#x127;" horiz-adv-x="526" 
d="M86 579h-82v65h82v106h70v-106h153v-65h-153v-158q19 26 52 42.5t73 16.5q49 0 87.5 -24.5t60.5 -66t22 -91.5v-298h-70v298q0 49 -29.5 80.5t-77.5 31.5q-30 0 -57 -14.5t-44 -39.5t-17 -55v-301h-70v579z" />
    <glyph glyph-name="Imacron" unicode="&#x12a;" horiz-adv-x="289" 
d="M107 750h75v-750h-75v750zM4 890h282v-65h-282v65z" />
    <glyph glyph-name="imacron" unicode="&#x12b;" horiz-adv-x="242" 
d="M86 470h70v-470h-70v470zM-20 610h282v-65h-282v65z" />
    <glyph glyph-name="Iogonek" unicode="&#x12e;" horiz-adv-x="289" 
d="M75.5 -166.5q-36.5 27.5 -36.5 70.5q0 26 15.5 53t52.5 49v744h75v-750q-37 -17 -58.5 -41t-21.5 -46q0 -21 20 -34t60 -13v-60q-70 0 -106.5 27.5z" />
    <glyph glyph-name="iogonek" unicode="&#x12f;" horiz-adv-x="242" 
d="M81.5 555.5q-15.5 15.5 -15.5 38.5t15.5 39t39.5 16q23 0 38.5 -16t15.5 -39t-15.5 -38.5t-38.5 -15.5q-24 0 -39.5 15.5zM29.5 -41q16.5 28 56.5 50v461h70v-470q-37 -17 -58.5 -41t-21.5 -46q0 -21 20 -34t60 -13v-60q-70 0 -106.5 27.5t-36.5 70.5q0 27 16.5 55z" />
    <glyph glyph-name="Idotaccent" unicode="&#x130;" horiz-adv-x="289" 
d="M107 750h75v-750h-75v750zM105.5 855.5q-15.5 15.5 -15.5 38.5t15.5 39t39.5 16q23 0 38.5 -16t15.5 -39t-15.5 -38.5t-38.5 -15.5q-24 0 -39.5 15.5z" />
    <glyph glyph-name="dotlessi" unicode="&#x131;" horiz-adv-x="242" 
d="M86 470h70v-470h-70v470z" />
    <glyph glyph-name="uni0136" unicode="&#x136;" horiz-adv-x="622" 
d="M179 334v-334h-72v750h72v-334l331 334h101l-377 -375l377 -375h-101zM295 -62h100l-120 -148h-68z" />
    <glyph glyph-name="uni0137" unicode="&#x137;" horiz-adv-x="465" 
d="M156 215v-215h-70v750h70v-471l193 191h98l-230 -222l253 -248h-98zM215 -62h100l-120 -148h-68z" />
    <glyph glyph-name="Lacute" unicode="&#x139;" horiz-adv-x="436" 
d="M107 750h75v-677h241v-73h-316v750zM193 953h90l-108 -133h-61z" />
    <glyph glyph-name="lacute" unicode="&#x13a;" horiz-adv-x="242" 
d="M86 750h70v-750h-70v750zM169 953h90l-108 -133h-61z" />
    <glyph glyph-name="uni013B" unicode="&#x13b;" horiz-adv-x="436" 
d="M107 750h75v-677h241v-73h-316v750zM215 -62h100l-120 -148h-68z" />
    <glyph glyph-name="uni013C" unicode="&#x13c;" horiz-adv-x="242" 
d="M86 750h70v-750h-70v750zM71 -62h100l-120 -148h-68z" />
    <glyph glyph-name="Lcaron" unicode="&#x13d;" horiz-adv-x="436" 
d="M107 750h75v-677h241v-73h-316v750zM327 750h84l-80 -218h-48z" />
    <glyph glyph-name="lcaron" unicode="&#x13e;" horiz-adv-x="242" 
d="M86 750h70v-750h-70v750zM244 750h84l-80 -218h-48z" />
    <glyph glyph-name="Lslash" unicode="&#x141;" horiz-adv-x="436" 
d="M107 282l-59 -35v75l59 35v393h75v-349l190 113v-77l-190 -111v-253h241v-73h-316v282z" />
    <glyph glyph-name="lslash" unicode="&#x142;" horiz-adv-x="242" 
d="M86 300l-58 -34l-32 56l90 53v375h70v-333l56 33l33 -57l-89 -52v-341h-70v300z" />
    <glyph glyph-name="Nacute" unicode="&#x143;" horiz-adv-x="774" 
d="M182 571v-571h-75v780l485 -601v571h75v-777zM435 953h90l-108 -133h-61z" />
    <glyph glyph-name="nacute" unicode="&#x144;" horiz-adv-x="526" 
d="M86 470h70v-49q21 29 54.5 44t70.5 15q50 0 88.5 -24.5t60 -66t21.5 -91.5v-298h-70v298q0 46 -30.5 79t-76.5 33q-30 0 -57 -14.5t-44 -39.5t-17 -55v-301h-70v470zM338 717h100l-144 -177h-61z" />
    <glyph glyph-name="uni0145" unicode="&#x145;" horiz-adv-x="774" 
d="M182 571v-571h-75v780l485 -601v571h75v-777zM337 -62h100l-120 -148h-68z" />
    <glyph glyph-name="uni0146" unicode="&#x146;" horiz-adv-x="526" 
d="M86 470h70v-49q21 29 54.5 44t70.5 15q50 0 88.5 -24.5t60 -66t21.5 -91.5v-298h-70v298q0 46 -30.5 79t-76.5 33q-30 0 -57 -14.5t-44 -39.5t-17 -55v-301h-70v470zM219 -62h100l-120 -148h-68z" />
    <glyph glyph-name="Ncaron" unicode="&#x147;" horiz-adv-x="774" 
d="M182 571v-571h-75v780l485 -601v571h75v-777zM248 953h73l66 -81l66 81h73l-101 -133h-76z" />
    <glyph glyph-name="ncaron" unicode="&#x148;" horiz-adv-x="526" 
d="M86 470h70v-49q21 29 54.5 44t70.5 15q50 0 88.5 -24.5t60 -66t21.5 -91.5v-298h-70v298q0 46 -30.5 79t-76.5 33q-30 0 -57 -14.5t-44 -39.5t-17 -55v-301h-70v470zM125 653h73l66 -61l66 61h73l-101 -113h-76z" />
    <glyph glyph-name="Eng" unicode="&#x14a;" horiz-adv-x="774" 
d="M508 -240v75q17 -14 40 -14q20 0 34.5 13.5t14.5 38.5v186l-415 512v-571h-75v780l485 -601v571h75v-877q0 -57 -32 -88.5t-86 -31.5q-26 0 -41 7z" />
    <glyph glyph-name="eng" unicode="&#x14b;" horiz-adv-x="526" 
d="M86 470h70v-49q21 29 54.5 44t70.5 15q50 0 88.5 -24.5t60 -66t21.5 -91.5v-433q0 -57 -29 -86t-82 -29h-41v68h40q20 0 31 10.5t11 36.5v433q0 46 -30.5 79t-76.5 33q-30 0 -57 -14.5t-44 -39.5t-17 -55v-301h-70v470z" />
    <glyph glyph-name="Omacron" unicode="&#x14c;" horiz-adv-x="874" 
d="M244 42q-89 52 -141.5 140t-52.5 193q0 104 52.5 192.5t141.5 140.5t193 52t193 -52t141.5 -140.5t52.5 -192.5q0 -105 -52.5 -193t-141.5 -140t-193 -52t-193 52zM167 220.5q42 -71.5 113.5 -113.5t154.5 -42q84 0 156 41.5t115 113t43 155.5t-42.5 155t-114 113
t-155.5 42t-156 -42t-114 -113t-42 -155q0 -83 42 -154.5zM296 890h282v-65h-282v65z" />
    <glyph glyph-name="omacron" unicode="&#x14d;" horiz-adv-x="576" 
d="M165.5 23q-56.5 33 -89.5 89.5t-33 122.5t33 122.5t89.5 89.5t122.5 33t122.5 -33t89.5 -89.5t33 -122.5t-33 -122.5t-89.5 -89.5t-122.5 -33t-122.5 33zM136.5 147.5q23.5 -40.5 64 -64t87.5 -23.5t87.5 23.5t64 64t23.5 87.5t-23.5 87.5t-64 64t-87.5 23.5t-87.5 -23.5
t-64 -64t-23.5 -87.5t23.5 -87.5zM147 610h282v-65h-282v65z" />
    <glyph glyph-name="Ohungarumlaut" unicode="&#x150;" horiz-adv-x="874" 
d="M244 42q-89 52 -141.5 140t-52.5 193q0 104 52.5 192.5t141.5 140.5t193 52t193 -52t141.5 -140.5t52.5 -192.5q0 -105 -52.5 -193t-141.5 -140t-193 -52t-193 52zM167 220.5q42 -71.5 113.5 -113.5t154.5 -42q84 0 156 41.5t115 113t43 155.5t-42.5 155t-114 113
t-155.5 42t-156 -42t-114 -113t-42 -155q0 -83 42 -154.5zM559 953h90l-107 -133h-61zM410 953h89l-107 -133h-61z" />
    <glyph glyph-name="ohungarumlaut" unicode="&#x151;" horiz-adv-x="576" 
d="M165.5 23q-56.5 33 -89.5 89.5t-33 122.5t33 122.5t89.5 89.5t122.5 33t122.5 -33t89.5 -89.5t33 -122.5t-33 -122.5t-89.5 -89.5t-122.5 -33t-122.5 33zM136.5 147.5q23.5 -40.5 64 -64t87.5 -23.5t87.5 23.5t64 64t23.5 87.5t-23.5 87.5t-64 64t-87.5 23.5t-87.5 -23.5
t-64 -64t-23.5 -87.5t23.5 -87.5zM436 717h100l-143 -177h-61zM287 717h99l-143 -177h-61z" />
    <glyph glyph-name="OE" unicode="&#x152;" horiz-adv-x="1180" 
d="M244 42q-89 52 -141.5 140t-52.5 193q0 104 52.5 192.5t141.5 140.5t193 52q95 0 178.5 -43.5t136.5 -118.5v152h382v-73h-307v-265h268v-73h-268v-266h307v-73h-382v152q-53 -75 -136.5 -118.5t-178.5 -43.5q-104 0 -193 52zM167 220.5q42 -71.5 113.5 -113.5t154.5 -42
q84 0 156 41.5t115 113t43 155.5t-42.5 155t-114 113t-155.5 42t-156 -42t-114 -113t-42 -155q0 -83 42 -154.5z" />
    <glyph glyph-name="oe" unicode="&#x153;" horiz-adv-x="992" 
d="M588 23q-56 33 -89 88q-33 -55 -89 -88t-122 -33t-122.5 33t-89.5 89.5t-33 122.5t33 122.5t89.5 89.5t122.5 33t122 -33t89 -88q33 55 89 88t122 33t122.5 -33t89.5 -89.5t33 -122.5h-417v-2q0 -45 19.5 -84.5t58.5 -64t94 -24.5q52 0 96 28.5t64 76.5l64 -29
q-28 -66 -90 -106t-134 -40q-66 0 -122 33zM136.5 147.5q23.5 -40.5 64 -64t87.5 -23.5t87.5 23.5t64 64t23.5 87.5t-23.5 87.5t-64 64t-87.5 23.5t-87.5 -23.5t-64 -64t-23.5 -87.5t23.5 -87.5zM874 295q-21 52 -66 83.5t-98 31.5q-62 0 -103.5 -32t-58.5 -83h326z" />
    <glyph glyph-name="Racute" unicode="&#x154;" horiz-adv-x="606" 
d="M107 750h225q57 0 105 -28.5t76 -76.5t28 -105q0 -69 -40 -123.5t-104 -75.5l171 -341h-85l-165 331h-137v-331h-74v750zM332 405q37 0 68.5 18t50 49t18.5 68t-18.5 68.5t-50 50t-68.5 18.5h-151v-272h151zM350 953h90l-108 -133h-61z" />
    <glyph glyph-name="racute" unicode="&#x155;" horiz-adv-x="341" 
d="M86 470h70v-62q19 34 49.5 53t69.5 19q29 0 56 -10v-70q-29 10 -56 10q-55 0 -87 -40.5t-32 -110.5v-259h-70v470zM283 717h100l-144 -177h-61z" />
    <glyph glyph-name="uni0156" unicode="&#x156;" horiz-adv-x="606" 
d="M107 750h225q57 0 105 -28.5t76 -76.5t28 -105q0 -69 -40 -123.5t-104 -75.5l171 -341h-85l-165 331h-137v-331h-74v750zM332 405q37 0 68.5 18t50 49t18.5 68t-18.5 68.5t-50 50t-68.5 18.5h-151v-272h151zM282 -62h100l-120 -148h-68z" />
    <glyph glyph-name="uni0157" unicode="&#x157;" horiz-adv-x="341" 
d="M86 470h70v-62q19 34 49.5 53t69.5 19q29 0 56 -10v-70q-29 10 -56 10q-55 0 -87 -40.5t-32 -110.5v-259h-70v470zM159 -62h100l-120 -148h-68z" />
    <glyph glyph-name="Rcaron" unicode="&#x158;" horiz-adv-x="606" 
d="M107 750h225q57 0 105 -28.5t76 -76.5t28 -105q0 -69 -40 -123.5t-104 -75.5l171 -341h-85l-165 331h-137v-331h-74v750zM332 405q37 0 68.5 18t50 49t18.5 68t-18.5 68.5t-50 50t-68.5 18.5h-151v-272h151zM163 953h73l66 -81l66 81h73l-101 -133h-76z" />
    <glyph glyph-name="rcaron" unicode="&#x159;" horiz-adv-x="341" 
d="M86 470h70v-62q19 34 49.5 53t69.5 19q29 0 56 -10v-70q-29 10 -56 10q-55 0 -87 -40.5t-32 -110.5v-259h-70v470zM70 653h73l66 -61l66 61h73l-101 -113h-76z" />
    <glyph glyph-name="Sacute" unicode="&#x15a;" horiz-adv-x="532" 
d="M131.5 27q-63.5 37 -89.5 107l75 33q18 -53 59.5 -78t95.5 -25q65 0 103 35.5t38 93.5q0 41 -19.5 67.5t-50 43.5t-90.5 43q-55 24 -93.5 49t-64 66.5t-25.5 100.5q0 58 25.5 103t72 69.5t105.5 24.5q58 0 108 -26t80 -82l-71 -33q-19 37 -51 52.5t-68 15.5
q-60 0 -93.5 -33.5t-33.5 -90.5q0 -47 30.5 -82t106.5 -67q5 -3 10.5 -4.5t9.5 -3.5q55 -23 92 -45t65 -63.5t28 -104.5q0 -62 -27.5 -108t-76 -70.5t-110.5 -24.5q-77 0 -140.5 37zM310 953h90l-108 -133h-61z" />
    <glyph glyph-name="sacute" unicode="&#x15b;" horiz-adv-x="399" 
d="M103.5 18q-43.5 28 -57.5 76l65 28q4 -30 30 -48.5t59 -18.5q34 0 56.5 20t22.5 53q0 25 -14 40.5t-32 23t-57 20.5q-37 13 -61 26.5t-40.5 39t-16.5 66.5q0 61 40.5 98.5t103.5 37.5q50 0 87.5 -26.5t52.5 -71.5l-66 -26q-7 29 -28 44t-49 15q-32 0 -51.5 -18.5
t-19.5 -47.5q0 -23 12.5 -37.5t30.5 -22.5t53 -20q39 -14 64.5 -27.5t43 -40t17.5 -67.5q0 -65 -42.5 -104.5t-106.5 -39.5q-53 0 -96.5 28zM270 717h100l-144 -177h-61z" />
    <glyph glyph-name="Scedilla" unicode="&#x15e;" horiz-adv-x="532" 
d="M295 -116q0 20 -14.5 29t-47.5 13l16 65q-70 6 -126.5 42.5t-80.5 100.5l75 33q18 -53 59.5 -78t95.5 -25q65 0 103 35.5t38 93.5q0 41 -19.5 67.5t-50 43.5t-90.5 43q-55 24 -93.5 49t-64 66.5t-25.5 100.5q0 58 25.5 103t72 69.5t105.5 24.5q58 0 108 -26t80 -82
l-71 -33q-19 37 -51 52.5t-68 15.5q-60 0 -93.5 -33.5t-33.5 -90.5q0 -47 30.5 -82t106.5 -67q5 -3 10.5 -4.5t9.5 -3.5q55 -23 92 -45t65 -63.5t28 -104.5q0 -61 -27 -107t-75 -70.5t-109 -25.5l-9 -34q36 -5 60 -25t24 -56q0 -87 -143 -87l10 53q78 0 78 43z" />
    <glyph glyph-name="scedilla" unicode="&#x15f;" horiz-adv-x="399" 
d="M224 -116q0 20 -14.5 29t-47.5 13l16 65q-47 6 -83.5 33.5t-48.5 69.5l65 28q4 -30 30 -48.5t59 -18.5q34 0 56.5 20t22.5 53q0 25 -14 40.5t-32 23t-57 20.5q-37 13 -61 26.5t-40.5 39t-16.5 66.5q0 61 40.5 98.5t103.5 37.5q50 0 87.5 -26.5t52.5 -71.5l-66 -26
q-7 29 -28 44t-49 15q-32 0 -51.5 -18.5t-19.5 -47.5q0 -23 12.5 -37.5t30.5 -22.5t53 -20q39 -14 64.5 -27.5t43 -40t17.5 -67.5q0 -64 -41.5 -103t-103.5 -41l-9 -34q36 -5 60 -25t24 -56q0 -87 -143 -87l10 53q78 0 78 43z" />
    <glyph glyph-name="Scaron" unicode="&#x160;" horiz-adv-x="532" 
d="M131.5 27q-63.5 37 -89.5 107l75 33q18 -53 59.5 -78t95.5 -25q65 0 103 35.5t38 93.5q0 41 -19.5 67.5t-50 43.5t-90.5 43q-55 24 -93.5 49t-64 66.5t-25.5 100.5q0 58 25.5 103t72 69.5t105.5 24.5q58 0 108 -26t80 -82l-71 -33q-19 37 -51 52.5t-68 15.5
q-60 0 -93.5 -33.5t-33.5 -90.5q0 -47 30.5 -82t106.5 -67q5 -3 10.5 -4.5t9.5 -3.5q55 -23 92 -45t65 -63.5t28 -104.5q0 -62 -27.5 -108t-76 -70.5t-110.5 -24.5q-77 0 -140.5 37zM123 953h73l66 -81l66 81h73l-101 -133h-76z" />
    <glyph glyph-name="scaron" unicode="&#x161;" horiz-adv-x="399" 
d="M103.5 18q-43.5 28 -57.5 76l65 28q4 -30 30 -48.5t59 -18.5q34 0 56.5 20t22.5 53q0 25 -14 40.5t-32 23t-57 20.5q-37 13 -61 26.5t-40.5 39t-16.5 66.5q0 61 40.5 98.5t103.5 37.5q50 0 87.5 -26.5t52.5 -71.5l-66 -26q-7 29 -28 44t-49 15q-32 0 -51.5 -18.5
t-19.5 -47.5q0 -23 12.5 -37.5t30.5 -22.5t53 -20q39 -14 64.5 -27.5t43 -40t17.5 -67.5q0 -65 -42.5 -104.5t-106.5 -39.5q-53 0 -96.5 28zM57 653h73l66 -61l66 61h73l-101 -113h-76z" />
    <glyph glyph-name="uni0162" unicode="&#x162;" horiz-adv-x="489" 
d="M207 678h-194v72h463v-72h-194v-678h-27l-11 -44q36 -5 60 -25t24 -56q0 -87 -143 -87l10 53q78 0 78 43q0 20 -14.5 29t-47.5 13l19 74h-23v678z" />
    <glyph glyph-name="uni0163" unicode="&#x163;" horiz-adv-x="282" 
d="M105 405h-81v65h81v167h70v-167h87v-65h-87v-405h-22l-11 -44q36 -5 60 -25t24 -56q0 -87 -143 -87l10 53q78 0 78 43q0 20 -14.5 29t-47.5 13l19 74h-23v405z" />
    <glyph glyph-name="Tcaron" unicode="&#x164;" horiz-adv-x="489" 
d="M207 678h-194v72h463v-72h-194v-678h-75v678zM106 953h73l66 -81l66 81h73l-101 -133h-76z" />
    <glyph glyph-name="tcaron" unicode="&#x165;" horiz-adv-x="282" 
d="M105 405h-81v65h81v167h70v-167h87v-65h-87v-405h-70v405zM282 750h84l-80 -218h-48z" />
    <glyph glyph-name="Tbar" unicode="&#x166;" horiz-adv-x="489" 
d="M207 340h-115v70h115v268h-194v72h463v-72h-194v-268h115v-70h-115v-340h-75v340z" />
    <glyph glyph-name="tbar" unicode="&#x167;" horiz-adv-x="282" 
d="M105 203h-81v65h81v137h-81v65h81v167h70v-167h87v-65h-87v-137h86v-65h-86v-203h-70v203z" />
    <glyph glyph-name="Umacron" unicode="&#x16a;" horiz-adv-x="674" 
d="M162.5 52.5q-67.5 62.5 -67.5 188.5v509h75v-509q0 -96 43 -137t123 -41q81 0 124 41t43 137v509h75v-509q0 -126 -67 -188.5t-175 -62.5q-106 0 -173.5 62.5zM195 890h282v-65h-282v65z" />
    <glyph glyph-name="umacron" unicode="&#x16b;" horiz-adv-x="517" 
d="M127 38q-52 48 -52 135v297h70v-297q0 -57 31.5 -85t81.5 -28q51 0 82.5 27.5t31.5 85.5v297h70v-297q0 -87 -52 -135t-132 -48q-79 0 -131 48zM118 610h282v-65h-282v65z" />
    <glyph glyph-name="Uring" unicode="&#x16e;" horiz-adv-x="674" 
d="M162.5 52.5q-67.5 62.5 -67.5 188.5v509h75v-509q0 -96 43 -137t123 -41q81 0 124 41t43 137v509h75v-509q0 -126 -67 -188.5t-175 -62.5q-106 0 -173.5 62.5zM278.5 778.5q-23.5 23.5 -23.5 57.5q0 33 23.5 57t57.5 24t57.5 -24t23.5 -57q0 -34 -23.5 -57.5t-57.5 -23.5
t-57.5 23.5zM310 810q11 -11 26 -11t26 11t11 26t-11 26t-26 11t-26 -11t-11 -26t11 -26z" />
    <glyph glyph-name="uring" unicode="&#x16f;" horiz-adv-x="517" 
d="M127 38q-52 48 -52 135v297h70v-297q0 -57 31.5 -85t81.5 -28q51 0 82.5 27.5t31.5 85.5v297h70v-297q0 -87 -52 -135t-132 -48q-79 0 -131 48zM194.5 556q-26.5 26 -26.5 64t26.5 64.5t64.5 26.5t64.5 -26.5t26.5 -64.5q0 -37 -26.5 -63.5t-64.5 -26.5t-64.5 26z
M230.5 591.5q11.5 -11.5 28.5 -11.5t28.5 12t11.5 28q0 17 -11.5 29t-28.5 12t-28.5 -12t-11.5 -29t11.5 -28.5z" />
    <glyph glyph-name="Uhungarumlaut" unicode="&#x170;" horiz-adv-x="674" 
d="M162.5 52.5q-67.5 62.5 -67.5 188.5v509h75v-509q0 -96 43 -137t123 -41q81 0 124 41t43 137v509h75v-509q0 -126 -67 -188.5t-175 -62.5q-106 0 -173.5 62.5zM458 953h90l-107 -133h-61zM309 953h89l-107 -133h-61z" />
    <glyph glyph-name="uhungarumlaut" unicode="&#x171;" horiz-adv-x="517" 
d="M127 38q-52 48 -52 135v297h70v-297q0 -57 31.5 -85t81.5 -28q51 0 82.5 27.5t31.5 85.5v297h70v-297q0 -87 -52 -135t-132 -48q-79 0 -131 48zM407 717h100l-143 -177h-61zM258 717h99l-143 -177h-61z" />
    <glyph glyph-name="Uogonek" unicode="&#x172;" horiz-adv-x="674" 
d="M289.5 -166.5q-36.5 27.5 -36.5 70.5q0 22 11 45t36 43q-92 10 -148.5 72.5t-56.5 176.5v509h75v-509q0 -96 43 -137t123 -41q81 0 124 41t43 137v509h75v-509q0 -112 -53.5 -173.5t-142.5 -74.5q-31 -17 -48.5 -38.5t-17.5 -41.5q0 -21 20 -34t60 -13v-60
q-70 0 -106.5 27.5z" />
    <glyph glyph-name="uogonek" unicode="&#x173;" horiz-adv-x="517" 
d="M204.5 -166.5q-36.5 27.5 -36.5 70.5q0 22 11 45.5t38 44.5q-64 12 -103 58t-39 121v297h70v-297q0 -57 31.5 -85t81.5 -28q51 0 82.5 27.5t31.5 85.5v297h70v-297q0 -76 -40 -122t-105 -58q-31 -16 -48.5 -38t-17.5 -42q0 -21 20 -34t60 -13v-60q-70 0 -106.5 27.5z" />
    <glyph glyph-name="Wcircumflex" unicode="&#x174;" horiz-adv-x="1064" 
d="M12 750h83l291 -609l106 224l-185 385h83l143 -299l141 299h83l-183 -384l107 -226l289 610h82l-371 -777l-148 306l-147 -306zM495 953h76l101 -133h-73l-66 81l-66 -81h-73z" />
    <glyph glyph-name="wcircumflex" unicode="&#x175;" horiz-adv-x="718" 
d="M4 470h77l137 -331h2l138 346l139 -346h2l137 331h78l-219 -505l-136 342h-2l-136 -342zM321 653h76l101 -113h-73l-66 61l-66 -61h-73z" />
    <glyph glyph-name="Ycircumflex" unicode="&#x176;" horiz-adv-x="591" 
d="M258 369l-251 381h84l204 -310l205 310h84l-251 -380v-370h-75v369zM258 953h76l101 -133h-73l-66 81l-66 -81h-73z" />
    <glyph glyph-name="ycircumflex" unicode="&#x177;" horiz-adv-x="483" 
d="M207 31l-204 439h82l162 -347l150 347h81l-309 -713h-81zM201 653h76l101 -113h-73l-66 61l-66 -61h-73z" />
    <glyph glyph-name="Ydieresis" unicode="&#x178;" horiz-adv-x="591" 
d="M258 369l-251 381h84l204 -310l205 310h84l-251 -380v-370h-75v369zM345.5 855.5q-15.5 15.5 -15.5 38.5t15.5 39t39.5 16q23 0 38.5 -16t15.5 -39t-15.5 -38.5t-38.5 -15.5q-24 0 -39.5 15.5zM168.5 933q15.5 16 39.5 16q23 0 38.5 -16t15.5 -39t-15.5 -38.5
t-38.5 -15.5q-24 0 -39.5 15.5t-15.5 38.5t15.5 39z" />
    <glyph glyph-name="Zacute" unicode="&#x179;" horiz-adv-x="607" 
d="M445 677h-402v73h537l-424 -677h424v-73h-558zM351 953h90l-108 -133h-61z" />
    <glyph glyph-name="zacute" unicode="&#x17a;" horiz-adv-x="466" 
d="M315 405h-272v65h405l-305 -406h304v-64h-439zM307 717h100l-144 -177h-61z" />
    <glyph glyph-name="Zdotaccent" unicode="&#x17b;" horiz-adv-x="607" 
d="M445 677h-402v73h537l-424 -677h424v-73h-558zM263.5 855.5q-15.5 15.5 -15.5 38.5t15.5 39t39.5 16q23 0 38.5 -16t15.5 -39t-15.5 -38.5t-38.5 -15.5q-24 0 -39.5 15.5z" />
    <glyph glyph-name="zdotaccent" unicode="&#x17c;" horiz-adv-x="466" 
d="M315 405h-272v65h405l-305 -406h304v-64h-439zM193.5 555.5q-15.5 15.5 -15.5 38.5t15.5 39t39.5 16q23 0 38.5 -16t15.5 -39t-15.5 -38.5t-38.5 -15.5q-24 0 -39.5 15.5z" />
    <glyph glyph-name="Zcaron" unicode="&#x17d;" horiz-adv-x="607" 
d="M445 677h-402v73h537l-424 -677h424v-73h-558zM164 953h73l66 -81l66 81h73l-101 -133h-76z" />
    <glyph glyph-name="zcaron" unicode="&#x17e;" horiz-adv-x="466" 
d="M315 405h-272v65h405l-305 -406h304v-64h-439zM94 653h73l66 -61l66 61h73l-101 -113h-76z" />
    <glyph glyph-name="florin" unicode="&#x192;" horiz-adv-x="562" 
d="M158.5 -53q44.5 37 54.5 94l41 221h-101v70h113l16 84q10 53 50.5 87t93.5 34h81v-70h-81q-28 0 -49.5 -18t-26.5 -46l-13 -71h119v-70h-132l-43 -234q-14 -81 -78 -134.5t-158 -59.5v71q69 5 113.5 42z" />
    <glyph glyph-name="uni01D0" unicode="&#x1d0;" horiz-adv-x="242" 
d="M86 470h70v-470h-70v470zM-18 653h73l66 -61l66 61h73l-101 -113h-76z" />
    <glyph glyph-name="uni0218" unicode="&#x218;" horiz-adv-x="532" 
d="M131.5 27q-63.5 37 -89.5 107l75 33q18 -53 59.5 -78t95.5 -25q65 0 103 35.5t38 93.5q0 41 -19.5 67.5t-50 43.5t-90.5 43q-55 24 -93.5 49t-64 66.5t-25.5 100.5q0 58 25.5 103t72 69.5t105.5 24.5q58 0 108 -26t80 -82l-71 -33q-19 37 -51 52.5t-68 15.5
q-60 0 -93.5 -33.5t-33.5 -90.5q0 -47 30.5 -82t106.5 -67q5 -3 10.5 -4.5t9.5 -3.5q55 -23 92 -45t65 -63.5t28 -104.5q0 -62 -27.5 -108t-76 -70.5t-110.5 -24.5q-77 0 -140.5 37zM217 -62h100l-120 -148h-68z" />
    <glyph glyph-name="uni0219" unicode="&#x219;" horiz-adv-x="399" 
d="M103.5 18q-43.5 28 -57.5 76l65 28q4 -30 30 -48.5t59 -18.5q34 0 56.5 20t22.5 53q0 25 -14 40.5t-32 23t-57 20.5q-37 13 -61 26.5t-40.5 39t-16.5 66.5q0 61 40.5 98.5t103.5 37.5q50 0 87.5 -26.5t52.5 -71.5l-66 -26q-7 29 -28 44t-49 15q-32 0 -51.5 -18.5
t-19.5 -47.5q0 -23 12.5 -37.5t30.5 -22.5t53 -20q39 -14 64.5 -27.5t43 -40t17.5 -67.5q0 -65 -42.5 -104.5t-106.5 -39.5q-53 0 -96.5 28zM146 -62h100l-120 -148h-68z" />
    <glyph glyph-name="uni021A" unicode="&#x21a;" horiz-adv-x="489" 
d="M207 678h-194v72h463v-72h-194v-678h-75v678zM195 -62h100l-120 -148h-68z" />
    <glyph glyph-name="uni021B" unicode="&#x21b;" horiz-adv-x="282" 
d="M105 405h-81v65h81v167h70v-167h87v-65h-87v-405h-70v405zM93 -62h100l-120 -148h-68z" />
    <glyph glyph-name="uni0237" unicode="&#x237;" horiz-adv-x="242" 
d="M86 470h70v-715h-70v715z" />
    <glyph glyph-name="circumflex" unicode="&#x2c6;" horiz-adv-x="350" 
d="M137 653h76l101 -113h-73l-66 61l-66 -61h-73z" />
    <glyph glyph-name="caron" unicode="&#x2c7;" horiz-adv-x="354" 
d="M38 653h73l66 -61l66 61h73l-101 -113h-76z" />
    <glyph glyph-name="breve" unicode="&#x2d8;" horiz-adv-x="402" 
d="M104 566.5q-38 26.5 -38 88.5h62q0 -35 16 -48.5t57 -13.5t57 13.5t16 48.5h62q0 -62 -38 -88.5t-97 -26.5t-97 26.5z" />
    <glyph glyph-name="dotaccent" unicode="&#x2d9;" horiz-adv-x="261" 
d="M91.5 555.5q-15.5 15.5 -15.5 38.5t15.5 39t39.5 16q23 0 38.5 -16t15.5 -39t-15.5 -38.5t-38.5 -15.5q-24 0 -39.5 15.5z" />
    <glyph glyph-name="ring" unicode="&#x2da;" horiz-adv-x="318" 
d="M94.5 556q-26.5 26 -26.5 64t26.5 64.5t64.5 26.5t64.5 -26.5t26.5 -64.5q0 -37 -26.5 -63.5t-64.5 -26.5t-64.5 26zM130.5 591.5q11.5 -11.5 28.5 -11.5t28.5 12t11.5 28q0 17 -11.5 29t-28.5 12t-28.5 -12t-11.5 -29t11.5 -28.5z" />
    <glyph glyph-name="ogonek" unicode="&#x2db;" horiz-adv-x="269" 
d="M100.5 -166.5q-36.5 27.5 -36.5 70.5q0 28 18 57.5t62 51.5l63 -13q-37 -17 -58.5 -41t-21.5 -46q0 -21 20 -34t60 -13v-60q-70 0 -106.5 27.5z" />
    <glyph glyph-name="tilde" unicode="&#x2dc;" horiz-adv-x="502" 
d="M274.5 537q-20.5 10 -46.5 34q-16 15 -25.5 20.5t-21.5 5.5q-20 0 -32 -12t-39 -53l-54 34q35 54 60.5 74t64.5 20q24 0 44.5 -10t45.5 -31q5 -4 14 -12t17 -12t19 -4q22 0 33 11.5t36 53.5l56 -32q-35 -57 -60 -77t-66 -20q-25 0 -45.5 10z" />
    <glyph glyph-name="hungarumlaut" unicode="&#x2dd;" horiz-adv-x="407" 
d="M288 717h100l-143 -177h-61zM139 717h99l-143 -177h-61z" />
    <glyph glyph-name="gravecomb" unicode="&#x300;" 
d="M19 717h100l104 -177h-62z" />
    <glyph glyph-name="acutecomb" unicode="&#x301;" 
d="M139 717h100l-144 -177h-61z" />
    <glyph glyph-name="uni0302" unicode="&#x302;" 
d="M137 653h76l101 -113h-73l-66 61l-66 -61h-73z" />
    <glyph glyph-name="tildecomb" unicode="&#x303;" 
d="M274.5 537q-20.5 10 -46.5 34q-16 15 -25.5 20.5t-21.5 5.5q-20 0 -32 -12t-39 -53l-54 34q35 54 60.5 74t64.5 20q24 0 44.5 -10t45.5 -31q5 -4 14 -12t17 -12t19 -4q22 0 33 11.5t36 53.5l56 -32q-35 -57 -60 -77t-66 -20q-25 0 -45.5 10z" />
    <glyph glyph-name="uni0304" unicode="&#x304;" 
d="M86 610h282v-65h-282v65z" />
    <glyph glyph-name="uni0306" unicode="&#x306;" 
d="M104 566.5q-38 26.5 -38 88.5h62q0 -35 16 -48.5t57 -13.5t57 13.5t16 48.5h62q0 -62 -38 -88.5t-97 -26.5t-97 26.5z" />
    <glyph glyph-name="uni0307" unicode="&#x307;" 
d="M91.5 555.5q-15.5 15.5 -15.5 38.5t15.5 39t39.5 16q23 0 38.5 -16t15.5 -39t-15.5 -38.5t-38.5 -15.5q-24 0 -39.5 15.5z" />
    <glyph glyph-name="uni0308" unicode="&#x308;" 
d="M268.5 555.5q-15.5 15.5 -15.5 38.5t15.5 39t39.5 16q23 0 38.5 -16t15.5 -39t-15.5 -38.5t-38.5 -15.5q-24 0 -39.5 15.5zM91.5 633q15.5 16 39.5 16q23 0 38.5 -16t15.5 -39t-15.5 -38.5t-38.5 -15.5q-24 0 -39.5 15.5t-15.5 38.5t15.5 39z" />
    <glyph glyph-name="uni030A" unicode="&#x30a;" 
d="M94.5 556q-26.5 26 -26.5 64t26.5 64.5t64.5 26.5t64.5 -26.5t26.5 -64.5q0 -37 -26.5 -63.5t-64.5 -26.5t-64.5 26zM130.5 591.5q11.5 -11.5 28.5 -11.5t28.5 12t11.5 28q0 17 -11.5 29t-28.5 12t-28.5 -12t-11.5 -29t11.5 -28.5z" />
    <glyph glyph-name="uni030B" unicode="&#x30b;" 
d="M288 717h100l-143 -177h-61zM139 717h99l-143 -177h-61z" />
    <glyph glyph-name="uni030C" unicode="&#x30c;" 
d="M38 653h73l66 -61l66 61h73l-101 -113h-76z" />
    <glyph glyph-name="uni0312" unicode="&#x312;" 
d="M127 569h-100l120 148h68z" />
    <glyph glyph-name="uni0326" unicode="&#x326;" 
d="M131 -62h100l-120 -148h-68z" />
    <glyph glyph-name="uni0327" unicode="&#x327;" 
d="M144 -116q0 20 -14.5 29t-47.5 13l20 80h26l-13 -50q36 -5 60 -25t24 -56q0 -87 -143 -87l10 53q78 0 78 43z" />
    <glyph glyph-name="uni0328" unicode="&#x328;" 
d="M100.5 -166.5q-36.5 27.5 -36.5 70.5q0 28 18 57.5t62 51.5l63 -13q-37 -17 -58.5 -41t-21.5 -46q0 -21 20 -34t60 -13v-60q-70 0 -106.5 27.5z" />
    <glyph glyph-name="uni0335" unicode="&#x335;" 
d="M86 402h305v-65h-305v65z" />
    <glyph glyph-name="uni0336" unicode="&#x336;" 
d="M86 402h641v-65h-641v65z" />
    <glyph glyph-name="uni0337" unicode="&#x337;" 
d="M38 310l216 128l33 -57l-217 -127z" />
    <glyph glyph-name="uni0338" unicode="&#x338;" 
d="M302 532h73l-308 -606h-73z" />
    <glyph glyph-name="uni0394" unicode="&#x394;" horiz-adv-x="593" 
d="M297 494l287 -494h-575zM462 70l-165 284l-166 -284h331z" />
    <glyph glyph-name="uni03A9" unicode="&#x3a9;" horiz-adv-x="890" 
d="M68 70h124q-124 134 -124 296q0 107 51 197.5t137.5 143.5t188.5 53t188.5 -53t137.5 -143.5t51 -197.5q0 -162 -124 -296h124v-70h-238l-15 64q86 47 134.5 128t48.5 174q0 88 -41.5 162.5t-112 118t-153.5 43.5t-153.5 -43.5t-112 -118t-41.5 -162.5q0 -93 48.5 -174
t134.5 -128l-15 -64h-238v70z" />
    <glyph glyph-name="uni03BC" unicode="&#x3bc;" horiz-adv-x="528" 
d="M86 470h70v-297q0 -57 31.5 -85t81.5 -28q51 0 82.5 27.5t31.5 85.5v297h70v-470h-65v27q-47 -37 -119 -37q-71 0 -118 37v-232h-65v675z" />
    <glyph glyph-name="pi" unicode="&#x3c0;" horiz-adv-x="529" 
d="M385 34q-37 39 -37 93v273h-181v-400h-67v400h-67v70h453v-70h-71v-273q0 -27 18 -45.5t53 -24.5v-69q-64 7 -101 46z" />
    <glyph glyph-name="Wgrave" unicode="&#x1e80;" horiz-adv-x="1064" 
d="M12 750h83l291 -609l106 224l-185 385h83l143 -299l141 299h83l-183 -384l107 -226l289 610h82l-371 -777l-148 306l-147 -306zM395 953h90l78 -133h-61z" />
    <glyph glyph-name="wgrave" unicode="&#x1e81;" horiz-adv-x="718" 
d="M4 470h77l137 -331h2l138 346l139 -346h2l137 331h78l-219 -505l-136 342h-2l-136 -342zM186 717h100l104 -177h-62z" />
    <glyph glyph-name="Wacute" unicode="&#x1e82;" horiz-adv-x="1064" 
d="M12 750h83l291 -609l106 224l-185 385h83l143 -299l141 299h83l-183 -384l107 -226l289 610h82l-371 -777l-148 306l-147 -306zM581 953h90l-108 -133h-61z" />
    <glyph glyph-name="wacute" unicode="&#x1e83;" horiz-adv-x="718" 
d="M4 470h77l137 -331h2l138 346l139 -346h2l137 331h78l-219 -505l-136 342h-2l-136 -342zM433 717h100l-144 -177h-61z" />
    <glyph glyph-name="Wdieresis" unicode="&#x1e84;" horiz-adv-x="1064" 
d="M12 750h83l291 -609l106 224l-185 385h83l143 -299l141 299h83l-183 -384l107 -226l289 610h82l-371 -777l-148 306l-147 -306zM582.5 855.5q-15.5 15.5 -15.5 38.5t15.5 39t39.5 16q23 0 38.5 -16t15.5 -39t-15.5 -38.5t-38.5 -15.5q-24 0 -39.5 15.5zM405.5 933
q15.5 16 39.5 16q23 0 38.5 -16t15.5 -39t-15.5 -38.5t-38.5 -15.5q-24 0 -39.5 15.5t-15.5 38.5t15.5 39z" />
    <glyph glyph-name="wdieresis" unicode="&#x1e85;" horiz-adv-x="718" 
d="M4 470h77l137 -331h2l138 346l139 -346h2l137 331h78l-219 -505l-136 342h-2l-136 -342zM408.5 555.5q-15.5 15.5 -15.5 38.5t15.5 39t39.5 16q23 0 38.5 -16t15.5 -39t-15.5 -38.5t-38.5 -15.5q-24 0 -39.5 15.5zM231.5 633q15.5 16 39.5 16q23 0 38.5 -16t15.5 -39
t-15.5 -38.5t-38.5 -15.5q-24 0 -39.5 15.5t-15.5 38.5t15.5 39z" />
    <glyph glyph-name="Ygrave" unicode="&#x1ef2;" horiz-adv-x="591" 
d="M258 369l-251 381h84l204 -310l205 310h84l-251 -380v-370h-75v369zM158 953h90l78 -133h-61z" />
    <glyph glyph-name="ygrave" unicode="&#x1ef3;" horiz-adv-x="483" 
d="M207 31l-204 439h82l162 -347l150 347h81l-309 -713h-81zM66 717h100l104 -177h-62z" />
    <glyph glyph-name="uni2000" unicode="&#x2000;" horiz-adv-x="500" 
 />
    <glyph glyph-name="uni2001" unicode="&#x2001;" horiz-adv-x="1000" 
 />
    <glyph glyph-name="uni2002" unicode="&#x2002;" horiz-adv-x="500" 
 />
    <glyph glyph-name="uni2003" unicode="&#x2003;" horiz-adv-x="1000" 
 />
    <glyph glyph-name="endash" unicode="&#x2013;" horiz-adv-x="706" 
d="M86 276h534v-75h-534v75z" />
    <glyph glyph-name="emdash" unicode="&#x2014;" horiz-adv-x="1000" 
d="M0 276h1000v-75h-1000v75z" />
    <glyph glyph-name="quoteleft" unicode="&#x2018;" horiz-adv-x="226" 
d="M122 430h-79l87 320h53z" />
    <glyph glyph-name="quoteright" unicode="&#x2019;" horiz-adv-x="226" 
d="M104 750h79l-87 -320h-53z" />
    <glyph glyph-name="quotesinglbase" unicode="&#x201a;" horiz-adv-x="245" 
d="M101 101h84l-87 -264h-58z" />
    <glyph glyph-name="quotedblleft" unicode="&#x201c;" horiz-adv-x="374" 
d="M127 430h-84l87 320h58zM273 750h58l-61 -320h-84z" />
    <glyph glyph-name="quotedblright" unicode="&#x201d;" horiz-adv-x="374" 
d="M247 750h84l-87 -320h-58zM104 750h84l-87 -320h-58z" />
    <glyph glyph-name="quotedblbase" unicode="&#x201e;" horiz-adv-x="400" 
d="M256 101h84l-87 -264h-58zM101 101h84l-87 -264h-58z" />
    <glyph glyph-name="dagger" unicode="&#x2020;" horiz-adv-x="398" 
d="M158 398h-118v73h118v279h76v-279h124v-73h-124v-478h-76v478z" />
    <glyph glyph-name="daggerdbl" unicode="&#x2021;" horiz-adv-x="446" 
d="M183 151h-119v73h119v222h-119v73h119v231h75v-231h124v-73h-124v-222h124v-73h-124v-231h-75v231z" />
    <glyph glyph-name="bullet" unicode="&#x2022;" horiz-adv-x="435" 
d="M132 153.5q-35 34.5 -35 85.5q0 49 35 84t85 35q51 0 85.5 -34.5t34.5 -84.5q0 -52 -34 -86t-86 -34q-50 0 -85 34.5z" />
    <glyph glyph-name="ellipsis" unicode="&#x2026;" horiz-adv-x="737" 
d="M526.5 7q-17.5 17 -17.5 42t17.5 42.5t42.5 17.5q24 0 41.5 -17.5t17.5 -42.5t-17.5 -42t-41.5 -17q-25 0 -42.5 17zM126.5 91.5q17.5 17.5 42.5 17.5q24 0 41.5 -17.5t17.5 -42.5t-17.5 -42t-41.5 -17q-25 0 -42.5 17t-17.5 42t17.5 42.5zM326.5 91.5
q17.5 17.5 42.5 17.5q24 0 41.5 -17.5t17.5 -42.5t-17.5 -42t-41.5 -17q-25 0 -42.5 17t-17.5 42t17.5 42.5z" />
    <glyph glyph-name="perthousand" unicode="&#x2030;" horiz-adv-x="999" 
d="M537 750h87l-475 -750h-87zM83 686q20 34 54 54t74 20t74.5 -20t54.5 -54t20 -74t-20 -74t-54.5 -54t-74.5 -20t-74 20t-54 54t-20 74t20 74zM153 553.5q24 -24.5 58 -24.5q35 0 59 24.5t24 58.5q0 35 -24 59t-59 24q-34 0 -58 -24.5t-24 -58.5t24 -58.5zM346 212
q20 34 54.5 54t74.5 20t74 -20t54 -54t20 -74t-20 -74t-54 -54t-74 -20t-74.5 20t-54.5 54t-20 74t20 74zM415.5 79q24.5 -24 59.5 -24q34 0 58.5 24t24.5 59t-24.5 59t-58.5 24q-35 0 -59.5 -24t-24.5 -59t24.5 -59zM674 212q20 34 54.5 54t74.5 20t74 -20t54 -54t20 -74
t-20 -74t-54 -54t-74 -20t-74.5 20t-54.5 54t-20 74t20 74zM743.5 79q24.5 -24 59.5 -24q34 0 58.5 24t24.5 59t-24.5 59t-58.5 24q-35 0 -59.5 -24t-24.5 -59t24.5 -59z" />
    <glyph glyph-name="guilsinglleft" unicode="&#x2039;" horiz-adv-x="283" 
d="M38 240l139 133l39 -46l-93 -89l94 -96l-40 -44z" />
    <glyph glyph-name="guilsinglright" unicode="&#x203a;" horiz-adv-x="282" 
d="M65 142l94 96l-93 89l38 46l140 -133l-139 -142z" />
    <glyph glyph-name="fraction" unicode="&#x2044;" horiz-adv-x="358" 
d="M337 760h72l-387 -770h-72z" />
    <glyph glyph-name="Euro" unicode="&#x20ac;" horiz-adv-x="687" 
d="M344 33q-72 33 -126 93t-81 138h-65v71h50q-3 21 -3 46t3 45h-50v71h65q42 116 139.5 184.5t221.5 68.5h97v-70h-97q-92 0 -167.5 -48t-117.5 -135h350v-71h-371q-3 -19 -3 -45q0 -27 3 -46h371v-71h-351q42 -91 118 -142.5t168 -51.5h97v-70h-97q-82 0 -154 33z" />
    <glyph glyph-name="trademark" unicode="&#x2122;" horiz-adv-x="673" 
d="M313 750h59l97 -152l96 152h58v-320h-61v213l-93 -144l-94 145v-214h-62v320zM50 750h207v-59h-73v-261h-61v261h-73v59z" />
    <glyph glyph-name="partialdiff" unicode="&#x2202;" horiz-adv-x="656" 
d="M184.5 12q-56.5 34 -88 94.5t-31.5 137.5q0 75 26 132t75 87.5t114 30.5q58 0 117 -31.5t106 -85.5q-10 104 -54 172t-133 123l30 65q229 -135 229 -408q0 -108 -31.5 -187.5t-90 -121.5t-139.5 -42q-73 0 -129.5 34zM184 103q49 -53 130 -53q77 0 129.5 56.5t61.5 149.5
q-35 71 -99 119t-126 48q-69 0 -107 -47t-38 -132q0 -88 49 -141z" />
    <glyph glyph-name="product" unicode="&#x220f;" horiz-adv-x="602" 
d="M128 750h346v-750h-75v683h-196v-683h-75v750z" />
    <glyph glyph-name="summation" unicode="&#x2211;" horiz-adv-x="605" 
d="M424 380l-392 370h506v-71h-329l319 -299l-319 -309h329v-71h-506z" />
    <glyph glyph-name="minus" unicode="&#x2212;" horiz-adv-x="650" 
d="M128 299h394v-70h-394v70z" />
    <glyph glyph-name="radical" unicode="&#x221a;" horiz-adv-x="800" 
d="M105 304h-67v71h117l152 -424l384 799h79l-436 -906h-64z" />
    <glyph glyph-name="infinity" unicode="&#x221e;" horiz-adv-x="1229" 
d="M206 23q-57 33 -90.5 89t-33.5 122t33.5 122t90.5 89t124 33q147 0 284 -180q70 91 140 135.5t144 44.5q68 0 125 -33t90 -89t33 -122t-33 -122t-90 -89t-125 -33q-75 0 -145 45t-139 135q-136 -180 -284 -180q-67 0 -124 33zM177 146q24 -40 64.5 -63.5t88.5 -23.5
q66 0 129 50t113 125q-50 75 -113 125t-129 50q-48 0 -88.5 -23.5t-64.5 -63.5t-24 -88t24 -88zM769 109.5q63 -50.5 129 -50.5q48 0 88.5 23.5t64.5 63.5t24 88t-24 88t-64.5 63.5t-88.5 23.5q-66 0 -129 -50t-113 -125q50 -74 113 -124.5z" />
    <glyph glyph-name="integral" unicode="&#x222b;" horiz-adv-x="561" 
d="M145 -57.5q42 32.5 54 98.5l107 588q10 53 50.5 87t93.5 34h81v-70h-81q-28 0 -49.5 -18t-26.5 -46l-107 -588q-32 -181 -236 -194v71q72 5 114 37.5z" />
    <glyph glyph-name="approxequal" unicode="&#x2248;" horiz-adv-x="586" 
d="M315.5 273q-20.5 10 -46.5 34q-16 15 -25.5 20.5t-21.5 5.5q-29 0 -49 -31l-22 -34l-54 34l22 34q19 29 46 44.5t57 15.5q24 0 44.5 -10t45.5 -31q5 -4 14 -12t17 -12t19 -4q30 0 48 30l21 35l56 -32l-22 -36q-18 -29 -45 -45t-59 -16q-25 0 -45.5 10zM119 185
q19 29 46 44.5t57 15.5q24 0 44.5 -10t45.5 -31q5 -4 14 -12t17 -12t19 -4q30 0 48 30l21 35l56 -32l-22 -36q-18 -29 -45 -45t-59 -16q-25 0 -45.5 10t-46.5 34q-16 15 -25.5 20.5t-21.5 5.5q-29 0 -49 -31l-22 -34l-54 34z" />
    <glyph glyph-name="notequal" unicode="&#x2260;" horiz-adv-x="623" 
d="M219 144h-124v70h160l52 101h-212v70h249l59 115h72l-59 -115h114v-70h-151l-52 -101h203v-70h-239l-69 -134h-72z" />
    <glyph glyph-name="uniF8FF" unicode="&#xf8ff;" horiz-adv-x="898" 
d="M259.5 51q-86.5 51 -137.5 137.5t-51 189.5t51 189.5t137.5 137.5t189.5 51t189.5 -51t137.5 -137.5t51 -189.5t-51 -189.5t-137.5 -137.5t-189.5 -51t-189.5 51zM152 206q46 -79 125 -125t172 -46t172 46t125 125t46 172t-46 172t-125 125t-172 46t-172 -46t-125 -125
t-46 -172t46 -172zM235 509q0 7 5 12.5t12 5.5q8 0 13 -5t5 -13v-262q0 -7 -5 -12t-13 -5q-7 0 -12 5t-5 12v262zM306 390.5q5 4.5 12 4.5h65q8 0 13 -5t5 -12t-5 -12t-13 -5h-65q-7 0 -12 5t-5 12q0 8 5 12.5zM432 509q0 8 5 13t12 5t12 -5t5 -13v-262q0 -7 -4.5 -12
t-12.5 -5q-7 0 -12 5t-5 12v262zM498 378q0 8 4 12l132 131q5 5 12 5t12 -5q5 -4 5 -12q0 -7 -5 -12l-119 -119l119 -119q5 -4 5 -12t-5 -12q-5 -5 -12 -5t-12 5l-132 131q-4 5 -4 12z" />
    <glyph glyph-name="uni004A0301" horiz-adv-x="339" 
d="M14 0v77q47 -14 82 -14q29 0 46 20t17 48v619h77v-619q0 -39 -19 -71t-51.5 -51t-69.5 -19q-43 0 -82 10zM218 953h90l-108 -133h-61z" />
    <glyph glyph-name="I.ss01" horiz-adv-x="321" 
d="M63 73h60v604h-60v73h195v-73h-60v-604h60v-73h-195v73z" />
    <glyph glyph-name="Iacute.ss01" horiz-adv-x="321" 
d="M63 73h60v604h-60v73h195v-73h-60v-604h60v-73h-195v73zM209 953h90l-108 -133h-61z" />
    <glyph glyph-name="Icircumflex.ss01" horiz-adv-x="321" 
d="M63 73h60v604h-60v73h195v-73h-60v-604h60v-73h-195v73zM123 953h76l101 -133h-73l-66 81l-66 -81h-73z" />
    <glyph glyph-name="Idieresis.ss01" horiz-adv-x="321" 
d="M63 73h60v604h-60v73h195v-73h-60v-604h60v-73h-195v73zM210.5 855.5q-15.5 15.5 -15.5 38.5t15.5 39t39.5 16q23 0 38.5 -16t15.5 -39t-15.5 -38.5t-38.5 -15.5q-24 0 -39.5 15.5zM33.5 933q15.5 16 39.5 16q23 0 38.5 -16t15.5 -39t-15.5 -38.5t-38.5 -15.5
q-24 0 -39.5 15.5t-15.5 38.5t15.5 39z" />
    <glyph glyph-name="Idotaccent.ss01" horiz-adv-x="321" 
d="M63 73h60v604h-60v73h195v-73h-60v-604h60v-73h-195v73zM121.5 855.5q-15.5 15.5 -15.5 38.5t15.5 39t39.5 16q23 0 38.5 -16t15.5 -39t-15.5 -38.5t-38.5 -15.5q-24 0 -39.5 15.5z" />
    <glyph glyph-name="Igrave.ss01" horiz-adv-x="321" 
d="M63 73h60v604h-60v73h195v-73h-60v-604h60v-73h-195v73zM23 953h90l78 -133h-61z" />
    <glyph glyph-name="Imacron.ss01" horiz-adv-x="321" 
d="M63 73h60v604h-60v73h195v-73h-60v-604h60v-73h-195v73zM20 890h282v-65h-282v65z" />
    <glyph glyph-name="Iogonek.ss01" horiz-adv-x="321" 
d="M63 73h60v604h-60v73h195v-73h-60v-604h60v-73q-37 -17 -58.5 -41t-21.5 -46q0 -21 20 -34t60 -13v-60q-70 0 -106.5 27.5t-36.5 70.5q0 24 13 49.5t45 46.5h-110v73z" />
    <glyph glyph-name="i.loclTRK" horiz-adv-x="242" 
d="M86 470h70v-470h-70v470zM81.5 555.5q-15.5 15.5 -15.5 38.5t15.5 39t39.5 16q23 0 38.5 -16t15.5 -39t-15.5 -38.5t-38.5 -15.5q-24 0 -39.5 15.5z" />
    <glyph glyph-name="uni006A0301" horiz-adv-x="242" 
d="M86 470h70v-715h-70v715zM195 717h100l-144 -177h-61z" />
    <glyph glyph-name="j.ss01" horiz-adv-x="242" 
d="M4 -182h40q20 0 31 10.5t11 36.5v605h70v-605q0 -57 -29 -86t-82 -29h-41v68zM81.5 555.5q-15.5 15.5 -15.5 38.5t15.5 39t39.5 16q23 0 38.5 -16t15.5 -39t-15.5 -38.5t-38.5 -15.5q-24 0 -39.5 15.5z" />
    <glyph glyph-name="uni0237.ss01" horiz-adv-x="242" 
d="M4 -182h40q20 0 31 10.5t11 36.5v605h70v-605q0 -57 -29 -86t-82 -29h-41v68z" />
    <glyph glyph-name="l.ss01" horiz-adv-x="266" 
d="M111 29q-29 29 -29 86v635h70v-635q0 -26 11 -36.5t31 -10.5h40v-68h-41q-53 0 -82 29z" />
    <glyph glyph-name="lacute.ss01" horiz-adv-x="266" 
d="M111 29q-29 29 -29 86v635h70v-635q0 -26 11 -36.5t31 -10.5h40v-68h-41q-53 0 -82 29zM162 953h90l-108 -133h-61z" />
    <glyph glyph-name="lcaron.ss01" horiz-adv-x="266" 
d="M111 29q-29 29 -29 86v635h70v-635q0 -26 11 -36.5t31 -10.5h40v-68h-41q-53 0 -82 29zM232 750h84l-80 -218h-48z" />
    <glyph glyph-name="lslash.ss01" horiz-adv-x="266" 
d="M111 29q-29 29 -29 86v218l-51 -30l-32 56l83 49v342h70v-300l63 37l33 -57l-96 -56v-259q0 -26 11 -36.5t31 -10.5h40v-68h-41q-53 0 -82 29z" />
    <glyph glyph-name="a.ss02" horiz-adv-x="508" 
d="M111.5 9.5q-33.5 19.5 -51 52t-17.5 69.5q0 44 24.5 82t71.5 57h222v48q0 44 -32.5 68.5t-78.5 24.5q-38 0 -70 -18t-46 -50l-64 27q22 53 70.5 81.5t108.5 28.5q49 0 90.5 -19t66.5 -55.5t25 -87.5v-318h-70v46q-60 -30 -94.5 -43t-75.5 -13q-46 0 -79.5 19.5z
M138.5 80.5q25.5 -23.5 69.5 -23.5q33 0 70 13t83 35v109h-196q-26 -14 -39 -34.5t-13 -42.5q0 -33 25.5 -56.5z" />
    <glyph glyph-name="aacute.ss02" horiz-adv-x="508" 
d="M111.5 9.5q-33.5 19.5 -51 52t-17.5 69.5q0 44 24.5 82t71.5 57h222v48q0 44 -32.5 68.5t-78.5 24.5q-38 0 -70 -18t-46 -50l-64 27q22 53 70.5 81.5t108.5 28.5q49 0 90.5 -19t66.5 -55.5t25 -87.5v-318h-70v46q-60 -30 -94.5 -43t-75.5 -13q-46 0 -79.5 19.5z
M138.5 80.5q25.5 -23.5 69.5 -23.5q33 0 70 13t83 35v109h-196q-26 -14 -39 -34.5t-13 -42.5q0 -33 25.5 -56.5zM328 717h100l-144 -177h-61z" />
    <glyph glyph-name="acircumflex.ss02" horiz-adv-x="508" 
d="M111.5 9.5q-33.5 19.5 -51 52t-17.5 69.5q0 44 24.5 82t71.5 57h222v48q0 44 -32.5 68.5t-78.5 24.5q-38 0 -70 -18t-46 -50l-64 27q22 53 70.5 81.5t108.5 28.5q49 0 90.5 -19t66.5 -55.5t25 -87.5v-318h-70v46q-60 -30 -94.5 -43t-75.5 -13q-46 0 -79.5 19.5z
M138.5 80.5q25.5 -23.5 69.5 -23.5q33 0 70 13t83 35v109h-196q-26 -14 -39 -34.5t-13 -42.5q0 -33 25.5 -56.5zM216 653h76l101 -113h-73l-66 61l-66 -61h-73z" />
    <glyph glyph-name="adieresis.ss02" horiz-adv-x="508" 
d="M111.5 9.5q-33.5 19.5 -51 52t-17.5 69.5q0 44 24.5 82t71.5 57h222v48q0 44 -32.5 68.5t-78.5 24.5q-38 0 -70 -18t-46 -50l-64 27q22 53 70.5 81.5t108.5 28.5q49 0 90.5 -19t66.5 -55.5t25 -87.5v-318h-70v46q-60 -30 -94.5 -43t-75.5 -13q-46 0 -79.5 19.5z
M138.5 80.5q25.5 -23.5 69.5 -23.5q33 0 70 13t83 35v109h-196q-26 -14 -39 -34.5t-13 -42.5q0 -33 25.5 -56.5zM303.5 555.5q-15.5 15.5 -15.5 38.5t15.5 39t39.5 16q23 0 38.5 -16t15.5 -39t-15.5 -38.5t-38.5 -15.5q-24 0 -39.5 15.5zM126.5 633q15.5 16 39.5 16
q23 0 38.5 -16t15.5 -39t-15.5 -38.5t-38.5 -15.5q-24 0 -39.5 15.5t-15.5 38.5t15.5 39z" />
    <glyph glyph-name="agrave.ss02" horiz-adv-x="508" 
d="M111.5 9.5q-33.5 19.5 -51 52t-17.5 69.5q0 44 24.5 82t71.5 57h222v48q0 44 -32.5 68.5t-78.5 24.5q-38 0 -70 -18t-46 -50l-64 27q22 53 70.5 81.5t108.5 28.5q49 0 90.5 -19t66.5 -55.5t25 -87.5v-318h-70v46q-60 -30 -94.5 -43t-75.5 -13q-46 0 -79.5 19.5z
M138.5 80.5q25.5 -23.5 69.5 -23.5q33 0 70 13t83 35v109h-196q-26 -14 -39 -34.5t-13 -42.5q0 -33 25.5 -56.5zM81 717h100l104 -177h-62z" />
    <glyph glyph-name="amacron.ss02" horiz-adv-x="508" 
d="M111.5 9.5q-33.5 19.5 -51 52t-17.5 69.5q0 44 24.5 82t71.5 57h222v48q0 44 -32.5 68.5t-78.5 24.5q-38 0 -70 -18t-46 -50l-64 27q22 53 70.5 81.5t108.5 28.5q49 0 90.5 -19t66.5 -55.5t25 -87.5v-318h-70v46q-60 -30 -94.5 -43t-75.5 -13q-46 0 -79.5 19.5z
M138.5 80.5q25.5 -23.5 69.5 -23.5q33 0 70 13t83 35v109h-196q-26 -14 -39 -34.5t-13 -42.5q0 -33 25.5 -56.5zM113 610h282v-65h-282v65z" />
    <glyph glyph-name="aogonek.ss02" horiz-adv-x="508" 
d="M111.5 9.5q-33.5 19.5 -51 52t-17.5 69.5q0 44 24.5 82t71.5 57h222v48q0 44 -32.5 68.5t-78.5 24.5q-38 0 -70 -18t-46 -50l-64 27q22 53 70.5 81.5t108.5 28.5q49 0 90.5 -19t66.5 -55.5t25 -87.5v-318h-1q-37 -17 -58.5 -41t-21.5 -46q0 -21 20 -34t60 -13v-60
q-70 0 -106.5 27.5t-36.5 70.5q0 27 16.5 55.5t57.5 50.5v36q-60 -30 -94.5 -43t-75.5 -13q-46 0 -79.5 19.5zM138.5 80.5q25.5 -23.5 69.5 -23.5q33 0 70 13t83 35v109h-196q-26 -14 -39 -34.5t-13 -42.5q0 -33 25.5 -56.5z" />
    <glyph glyph-name="aring.ss02" horiz-adv-x="508" 
d="M111.5 9.5q-33.5 19.5 -51 52t-17.5 69.5q0 44 24.5 82t71.5 57h222v48q0 44 -32.5 68.5t-78.5 24.5q-38 0 -70 -18t-46 -50l-64 27q22 53 70.5 81.5t108.5 28.5q49 0 90.5 -19t66.5 -55.5t25 -87.5v-318h-70v46q-60 -30 -94.5 -43t-75.5 -13q-46 0 -79.5 19.5z
M138.5 80.5q25.5 -23.5 69.5 -23.5q33 0 70 13t83 35v109h-196q-26 -14 -39 -34.5t-13 -42.5q0 -33 25.5 -56.5zM189.5 556q-26.5 26 -26.5 64t26.5 64.5t64.5 26.5t64.5 -26.5t26.5 -64.5q0 -37 -26.5 -63.5t-64.5 -26.5t-64.5 26zM225.5 591.5q11.5 -11.5 28.5 -11.5
t28.5 12t11.5 28q0 17 -11.5 29t-28.5 12t-28.5 -12t-11.5 -29t11.5 -28.5z" />
    <glyph glyph-name="atilde.ss02" horiz-adv-x="508" 
d="M111.5 9.5q-33.5 19.5 -51 52t-17.5 69.5q0 44 24.5 82t71.5 57h222v48q0 44 -32.5 68.5t-78.5 24.5q-38 0 -70 -18t-46 -50l-64 27q22 53 70.5 81.5t108.5 28.5q49 0 90.5 -19t66.5 -55.5t25 -87.5v-318h-70v46q-60 -30 -94.5 -43t-75.5 -13q-46 0 -79.5 19.5z
M138.5 80.5q25.5 -23.5 69.5 -23.5q33 0 70 13t83 35v109h-196q-26 -14 -39 -34.5t-13 -42.5q0 -33 25.5 -56.5zM277.5 537q-20.5 10 -46.5 34q-16 15 -25.5 20.5t-21.5 5.5q-20 0 -32 -12t-39 -53l-54 34q35 54 60.5 74t64.5 20q24 0 44.5 -10t45.5 -31q5 -4 14 -12t17 -12
t19 -4q22 0 33 11.5t36 53.5l56 -32q-35 -57 -60 -77t-66 -20q-25 0 -45.5 10z" />
    <glyph glyph-name="fl.ss01" horiz-adv-x="554" 
d="M102 405h-71v65h71v140q0 73 31.5 111.5t92.5 38.5q29 0 58 -10v-70q-31 12 -54 12q-30 0 -44 -22t-14 -70v-130h112v-65h-112v-405h-70v405zM399 29q-29 29 -29 86v635h70v-635q0 -26 11 -36.5t31 -10.5h40v-68h-41q-53 0 -82 29z" />
    <glyph glyph-name="zero.lf" horiz-adv-x="588" 
d="M172.5 37.5q-51.5 47.5 -79 134.5t-27.5 203q0 117 27.5 204t79 134t121.5 47t121.5 -47t79 -134t27.5 -204q0 -116 -27.5 -203t-79 -134.5t-121.5 -47.5t-121.5 47.5zM160 208q19 -71 54 -109t80 -38t80 38t54 109t19 167q0 97 -19 168t-53.5 109t-80.5 38t-80.5 -38
t-53.5 -109t-19 -168q0 -96 19 -167z" />
    <glyph glyph-name="one.lf" horiz-adv-x="307" 
d="M129 679h-120v71h195v-750h-75v679z" />
    <glyph glyph-name="two.lf" horiz-adv-x="548" 
d="M395 451.5q25 41.5 25 90.5q0 65 -43 106t-108 41q-66 0 -105.5 -41t-46.5 -115h-76q10 106 70.5 166.5t155.5 60.5q63 0 115 -27t82.5 -77t30.5 -114q0 -45 -15 -83.5t-39.5 -72.5t-72.5 -90q-14 -18 -22 -27l-167 -198h315v-71h-472l291 344q57 66 82 107.5z" />
    <glyph glyph-name="three.lf" horiz-adv-x="551" 
d="M112.5 43q-64.5 55 -81.5 153h72q15 -69 58.5 -103t102.5 -34q43 0 80 21.5t59 58.5t22 81q0 46 -22 81.5t-59 55.5t-80 20h-22v71h22q39 0 67.5 18t42.5 46t14 59q0 50 -35 84t-89 34q-50 0 -88.5 -32.5t-42.5 -87.5h-74q5 58 35 101.5t75.5 66.5t94.5 23q53 0 98.5 -25
t72.5 -68.5t27 -95.5q0 -87 -81 -155q59 -39 88 -89t29 -107q0 -61 -32 -114.5t-86 -85.5t-116 -32q-87 0 -151.5 55z" />
    <glyph glyph-name="four.lf" horiz-adv-x="601" 
d="M403 147h-393l468 624v-552h96v-72h-96v-147h-75v147zM403 219v344l-254 -344h254z" />
    <glyph glyph-name="five.lf" horiz-adv-x="533" 
d="M108 19.5q-56 31.5 -99 92.5l59 43q32 -46 74 -71t89 -25q46 0 86.5 22.5t65.5 63t25 91.5q0 49 -24 89.5t-65 63.5t-88 23q-34 0 -84 -15l-44 36l78 317h286v-71h-228l-50 -203q25 5 55 5q67 0 121.5 -33.5t86 -90t31.5 -123.5q0 -72 -33.5 -128t-91.5 -87t-130 -31
q-64 0 -120 31.5z" />
    <glyph glyph-name="six.lf" horiz-adv-x="570" 
d="M159 20.5q-57 32.5 -90.5 89t-33.5 125.5q0 79 63 170l238 345h85l-193 -276q31 7 69 7q65 0 119.5 -33.5t86.5 -90t32 -122.5q0 -69 -34 -125.5t-91.5 -89t-124.5 -32.5q-69 0 -126 32.5zM133.5 146.5q23.5 -40.5 63.5 -64t88 -23.5t88 23.5t63.5 64t23.5 88.5t-23.5 88
t-63.5 63.5t-88 23.5t-88 -23.5t-63.5 -63.5t-23.5 -88t23.5 -88.5z" />
    <glyph glyph-name="seven.lf" horiz-adv-x="567" 
d="M432 679h-392v71h523l-457 -750h-88z" />
    <glyph glyph-name="eight.lf" horiz-adv-x="574" 
d="M171.5 21q-53.5 31 -86 84t-32.5 115q0 58 30 108t86 88q-80 67 -80 155q0 52 27 95.5t72.5 68.5t98.5 25t98.5 -25t72.5 -68.5t27 -95.5q0 -87 -81 -155q58 -37 87.5 -87t29.5 -109q0 -62 -32.5 -115t-86 -84t-115.5 -31t-115.5 31zM146.5 139.5q21.5 -36.5 59 -57.5
t81.5 -21t81.5 21t59 57.5t21.5 80.5t-21.5 80t-58.5 56.5t-82 20.5t-82 -20.5t-58.5 -56.5t-21.5 -80t21.5 -80.5zM198.5 484q36.5 -36 88.5 -36q34 0 62.5 16.5t45.5 45t17 61.5q0 50 -37 84.5t-88 34.5q-52 0 -88.5 -34.5t-36.5 -84.5q0 -51 36.5 -87z" />
    <glyph glyph-name="nine.lf" horiz-adv-x="569" 
d="M341 276q-31 -7 -69 -7q-65 0 -119.5 33.5t-86.5 90t-32 122.5q0 68 34 124.5t91.5 88.5t124.5 32q69 0 126 -32t90.5 -88t33.5 -125q0 -79 -63 -170l-238 -345h-85zM132.5 427q23.5 -40 63.5 -63.5t88 -23.5t88 23.5t63.5 63.5t23.5 88t-23.5 88t-63.5 63t-88 23
t-88 -23t-63.5 -63t-23.5 -88t23.5 -88z" />
    <glyph glyph-name="uni030C.alt" 
d="M108 750h84l-80 -218h-48z" />
    <glyph glyph-name="uni0308.case" 
d="M268.5 855.5q-15.5 15.5 -15.5 38.5t15.5 39t39.5 16q23 0 38.5 -16t15.5 -39t-15.5 -38.5t-38.5 -15.5q-24 0 -39.5 15.5zM91.5 933q15.5 16 39.5 16q23 0 38.5 -16t15.5 -39t-15.5 -38.5t-38.5 -15.5q-24 0 -39.5 15.5t-15.5 38.5t15.5 39z" />
    <glyph glyph-name="uni0307.case" 
d="M91.5 855.5q-15.5 15.5 -15.5 38.5t15.5 39t39.5 16q23 0 38.5 -16t15.5 -39t-15.5 -38.5t-38.5 -15.5q-24 0 -39.5 15.5z" />
    <glyph glyph-name="gravecomb.case" 
d="M34 953h90l78 -133h-61z" />
    <glyph glyph-name="acutecomb.case" 
d="M126 953h90l-108 -133h-61z" />
    <glyph glyph-name="uni030B.case" 
d="M275 953h90l-107 -133h-61zM126 953h89l-107 -133h-61z" />
    <glyph glyph-name="uni0302.case" 
d="M137 953h76l101 -133h-73l-66 81l-66 -81h-73z" />
    <glyph glyph-name="uni030C.case" 
d="M37 953h73l66 -81l66 81h73l-101 -133h-76z" />
    <glyph glyph-name="uni0306.case" 
d="M103 850.5q-38 30.5 -38 102.5h62q0 -42 16.5 -62t56.5 -20t56.5 20t16.5 62h62q0 -72 -38 -102.5t-97 -30.5t-97 30.5z" />
    <glyph glyph-name="uni030A.case" 
d="M93.5 778.5q-23.5 23.5 -23.5 57.5q0 33 23.5 57t57.5 24t57.5 -24t23.5 -57q0 -34 -23.5 -57.5t-57.5 -23.5t-57.5 23.5zM125 810q11 -11 26 -11t26 11t11 26t-11 26t-26 11t-26 -11t-11 -26t11 -26z" />
    <glyph glyph-name="tildecomb.case" 
d="M274.5 816q-20.5 10 -46.5 34q-16 15 -25.5 20.5t-21.5 5.5q-29 0 -49 -31l-22 -34l-54 34l22 34q19 29 46 44.5t57 15.5q24 0 44.5 -10t45.5 -31q5 -4 14 -12t17 -12t19 -4q30 0 48 30l21 35l56 -32l-22 -36q-18 -29 -45 -45t-59 -16q-25 0 -45.5 10z" />
    <glyph glyph-name="uni0335.case" 
d="M86 404h305v-70h-305v70z" />
    <glyph glyph-name="uni0337.case" 
d="M29 266l324 192v-77l-324 -190v75z" />
    <glyph glyph-name="uni0338.case" 
d="M496 760h75l-507 -770h-79z" />
    </font>
</defs>
</svg>
