<?xml version="1.0" standalone="no"?>
<!DOCTYPE svg PUBLIC "-//W3C//DTD SVG 1.1//EN" "http://www.w3.org/Graphics/SVG/1.1/DTD/svg11.dtd" >
<svg xmlns="http://www.w3.org/2000/svg" xmlns:xlink="http://www.w3.org/1999/xlink" version="1.1">
<metadata>
Created by FontForge 20201107 at Fri Mar 19 11:40:29 2021
 By 
Hanken Design Co. (c)2021 (hello@hanken.co)
</metadata>
<defs>
<font id="HansKendrick-Bold" horiz-adv-x="0" >
  <font-face 
    font-family="Hans Kendrick"
    font-weight="700"
    font-stretch="normal"
    units-per-em="1000"
    panose-1="0 0 0 0 0 0 0 0 0 0"
    ascent="800"
    descent="-200"
    x-height="470"
    cap-height="750"
    bbox="-102 -280 1110 952"
    underline-thickness="80"
    underline-position="-165"
    unicode-range="U+0020-FB02"
  />
<missing-glyph horiz-adv-x="503" 
d="M64 750h375v-750h-375v750zM376 63v625h-250v-625h250z" />
    <glyph glyph-name="fi" unicode="fi" horiz-adv-x="623" 
d="M89 347h-71v123h71v78q0 101 52.5 154t136.5 53q34 0 70 -9v-136h-8q-29 13 -53 13q-23 0 -35.5 -16t-12.5 -59v-78h109v-123h-109v-347h-150v347zM409 470h150v-470h-150v470zM420 566q-26 26 -26 64q0 37 26 63.5t63 26.5q38 0 64 -26t26 -64t-26 -64t-64 -26
q-37 0 -63 26z" />
    <glyph glyph-name="fl" unicode="fl" horiz-adv-x="623" 
d="M89 347h-71v123h71v78q0 101 52.5 154t136.5 53q34 0 70 -9v-136h-8q-29 13 -53 13q-23 0 -35.5 -16t-12.5 -59v-78h109v-123h-109v-347h-150v347zM409 750h150v-750h-150v750z" />
    <glyph glyph-name="f_f" unicode="ff" horiz-adv-x="670" 
d="M89 347h-71v123h71v78q0 101 52.5 154t136.5 53q34 0 70 -9v-136h-8q-29 13 -53 13q-23 0 -35.5 -16t-12.5 -59v-78h175v78q0 101 52.5 154t136.5 53q34 0 70 -9v-136h-8q-29 13 -53 13q-23 0 -35.5 -16t-12.5 -59v-78h109v-123h-109v-347h-150v347h-175v-347h-150v347z
" />
    <glyph glyph-name="f_y.liga" unicode="fy" horiz-adv-x="843" 
d="M89 347h-71v123h71v78q0 101 52.5 154t136.5 53q34 0 70 -9v-136h-8q-29 13 -53 13q-23 0 -35.5 -16t-12.5 -59v-78h211l119 -278l130 278h162l-334 -715h-162l132 284l-159 308h-99v-347h-150v347z" />
    <glyph glyph-name=".notdef" horiz-adv-x="503" 
d="M64 750h375v-750h-375v750zM376 63v625h-250v-625h250z" />
    <glyph glyph-name=".null" 
 />
    <glyph glyph-name="nonmarkingreturn" horiz-adv-x="333" 
 />
    <glyph glyph-name="space" unicode=" " horiz-adv-x="270" 
 />
    <glyph glyph-name="exclam" unicode="!" horiz-adv-x="326" 
d="M87 750h150v-503h-150v503zM92.5 155q28.5 29 68.5 29t68.5 -28.5t28.5 -68.5q0 -41 -28.5 -69t-68.5 -28t-68.5 28.5t-28.5 68.5q0 39 28.5 68z" />
    <glyph glyph-name="quotedbl" unicode="&#x22;" horiz-adv-x="374" 
d="M210 750h134l-20 -338h-94zM164 750l-20 -338h-94l-20 338h134z" />
    <glyph glyph-name="numbersign" unicode="#" horiz-adv-x="694" 
d="M129 153h-99l14 105h101l23 170h-99l14 105h99l21 153h115l-21 -153h152l21 153h115l-21 -153h100l-15 -105h-100l-23 -170h98l-13 -105h-100l-21 -153h-115l22 153h-153l-21 -153h-115zM411 258l23 170h-152l-23 -170h152z" />
    <glyph glyph-name="dollar" unicode="$" horiz-adv-x="593" 
d="M279 -10q-94 5 -162 51t-92 125l132 62q11 -42 44.5 -69.5t77.5 -33.5v189q-65 25 -109 49t-77 68t-33 111q0 62 29 109.5t79 75t111 32.5v81h62v-82q66 -8 120 -44t82 -103l-133 -62q-9 24 -27 42t-42 27v-181l24 -9q59 -24 99.5 -48.5t66.5 -65.5t26 -103
q0 -96 -60.5 -152t-155.5 -67v-82h-62v80zM226.5 498q18.5 -19 52.5 -35v159q-30 -6 -50.5 -26.5t-20.5 -50.5q0 -28 18.5 -47zM389 159.5q18 20.5 18 51.5q0 27 -15.5 44.5t-50.5 33.5v-159q30 9 48 29.5z" />
    <glyph glyph-name="percent" unicode="%" horiz-adv-x="767" 
d="M533 750h163l-463 -750h-163zM41.5 677q22.5 38 60.5 60.5t83 22.5t83 -22.5t60.5 -60.5t22.5 -83t-22.5 -83t-60.5 -60.5t-83 -22.5t-83 22.5t-60.5 60.5t-22.5 83t22.5 83zM151.5 560q13.5 -14 33.5 -14q19 0 33 14t14 34t-14 34t-33 14q-20 0 -33.5 -14t-13.5 -34
t13.5 -34zM438.5 239q22.5 38 61 60.5t82.5 22.5t82.5 -22.5t61 -60.5t22.5 -83t-23 -83t-61 -60.5t-82 -22.5t-82.5 22.5t-61 60.5t-22.5 83t22.5 83zM548 122q14 -14 34 -14q19 0 33 14t14 34t-14 34t-33 14q-20 0 -34 -14t-14 -34t14 -34z" />
    <glyph glyph-name="ampersand" unicode="&#x26;" horiz-adv-x="699" 
d="M486 83l-21 -21q-35 -37 -80.5 -56t-96.5 -19q-70 0 -127.5 35.5t-90.5 94.5t-33 127q0 50 19 97t55 84l22 23q-33 50 -33 109q0 52 25 96.5t68 70.5t95 26q50 0 92.5 -24.5t67 -66t24.5 -90.5q0 -75 -55 -152l-95 95q19 30 19 56q0 25 -15.5 38.5t-37.5 13.5t-39 -14.5
t-17 -38.5q0 -18 9 -35t30 -38l215 -220l103 105l94 -95l-103 -106l101 -103l-93 -96zM204 156.5q35 -34.5 84 -34.5t84 35l21 21l-169 173l-21 -22q-34 -34 -34 -86t35 -86.5z" />
    <glyph glyph-name="quotesingle" unicode="'" horiz-adv-x="194" 
d="M30 750h134l-20 -338h-94z" />
    <glyph glyph-name="parenleft" unicode="(" horiz-adv-x="346" 
d="M146.5 -146q-72.5 88 -96.5 197t-24 209q0 99 24 208.5t96.5 198t204.5 97.5v-74q-72 -10 -113 -90.5t-56 -175.5t-15 -164t15 -164t56 -175t113 -90v-74q-132 9 -204.5 97z" />
    <glyph glyph-name="parenright" unicode=")" horiz-adv-x="346" 
d="M108 -79q41 80 56 175t15 164t-15 164t-56 175.5t-113 90.5v74q132 -9 204.5 -97.5t96.5 -198t24 -208.5q0 -100 -24 -209t-96.5 -197t-204.5 -97v74q72 10 113 90z" />
    <glyph glyph-name="asterisk" unicode="*" horiz-adv-x="430" 
d="M100 504l54 93l-107 2v67l107 2l-54 93l61 34l54 -91l54 91l61 -34l-54 -93l107 -2v-67l-107 -2l54 -93l-61 -34l-54 91l-54 -91z" />
    <glyph glyph-name="plus" unicode="+" horiz-adv-x="594" 
d="M232 199h-200v130h200v199h130v-199h200v-130h-200v-199h-130v199z" />
    <glyph glyph-name="comma" unicode="," horiz-adv-x="260" 
d="M86 101h154l-127 -264h-108z" />
    <glyph glyph-name="hyphen" unicode="-" horiz-adv-x="474" 
d="M63 296h348v-115h-348v115z" />
    <glyph glyph-name="period" unicode="." horiz-adv-x="280" 
d="M71.5 18.5q-28.5 28.5 -28.5 68.5q0 39 28.5 68t68.5 29t68.5 -28.5t28.5 -68.5q0 -41 -28.5 -69t-68.5 -28t-68.5 28.5z" />
    <glyph glyph-name="slash" unicode="/" horiz-adv-x="563" 
d="M474 760h124l-509 -1005h-124z" />
    <glyph glyph-name="zero" unicode="0" horiz-adv-x="620" 
d="M108 90q-71 100 -71 285t71 285t203 100q131 0 202 -100t71 -285t-71 -285t-202 -100q-132 0 -203 100zM220 192.5q32 -64.5 91 -64.5t90.5 63.5t31.5 181.5q0 120 -31.5 184.5t-90.5 64.5t-91 -63.5t-32 -182.5t32 -183.5z" />
    <glyph glyph-name="one" unicode="1" horiz-adv-x="620" 
d="M269 610h-138v140h288v-750h-150v610z" />
    <glyph glyph-name="two" unicode="2" horiz-adv-x="620" 
d="M357 409.5q24 30.5 38 60.5t14 57q0 42 -31 68.5t-74 26.5q-119 0 -119 -140h-152q0 79 30.5 142t91 99.5t147.5 36.5q75 0 134 -30.5t91.5 -83.5t32.5 -119q0 -49 -15.5 -90.5t-38.5 -75t-63 -82.5l-18 -23l-94 -118h238v-138h-539l297 371q6 8 30 38.5z" />
    <glyph glyph-name="three" unicode="3" horiz-adv-x="620" 
d="M108.5 46.5q-77.5 56.5 -77.5 175.5h147q12 -99 136 -99q48 0 80.5 31.5t32.5 79.5q0 52 -39 83.5t-114 31.5h-27v117h31q54 0 83.5 23t29.5 62q0 78 -89 78q-97 0 -97 -91h-148q0 69 32 119t87.5 76.5t124.5 26.5q111 0 175.5 -50.5t64.5 -155.5q0 -40 -19.5 -78.5
t-51.5 -59.5q50 -29 78.5 -77t28.5 -105q0 -76 -35 -131t-95.5 -84t-135.5 -29q-125 0 -202.5 56.5z" />
    <glyph glyph-name="four" unicode="4" horiz-adv-x="620" 
d="M377 134h-385l448 616h87v-482h79v-134h-79v-134h-150v134zM377 268v209l-146 -209h146z" />
    <glyph glyph-name="five" unicode="5" horiz-adv-x="620" 
d="M125.5 29q-73.5 39 -114.5 115l120 78q28 -51 71 -75.5t90 -24.5q54 0 90.5 33t36.5 93q0 61 -39.5 95.5t-98.5 34.5q-45 0 -89 -21l-78 57l91 336h343v-140h-228l-29 -115h19q82 1 140.5 -31t88.5 -89t30 -129q0 -79 -40 -137t-106 -88.5t-140 -30.5q-84 0 -157.5 39z
" />
    <glyph glyph-name="six" unicode="6" horiz-adv-x="620" 
d="M169.5 25q-64.5 35 -102 95t-37.5 134q0 83 68 177l231 319h172l-173 -233q72 -2 132.5 -38.5t95 -96t34.5 -128.5q0 -73 -38 -133.5t-102.5 -95.5t-139.5 -35q-76 0 -140.5 35zM194 189.5q18 -29.5 49 -46.5t67 -17t66.5 17t48.5 46.5t18 64.5t-18 64.5t-48.5 46.5
t-66.5 17t-67 -17t-49 -46.5t-18 -64.5t18 -64.5z" />
    <glyph glyph-name="seven" unicode="7" horiz-adv-x="620" 
d="M367 610h-326v140h559l-379 -750h-172z" />
    <glyph glyph-name="eight" unicode="8" horiz-adv-x="620" 
d="M178.5 21q-62.5 31 -101 86.5t-38.5 125.5q0 53 25.5 100t70.5 83q-29 29 -45 64t-16 74q0 60 33.5 107t88 73t114.5 26t114.5 -26t88 -73t33.5 -107q0 -39 -16 -74t-45 -64q47 -29 72 -73.5t25 -98.5q0 -72 -37.5 -130t-100.5 -91t-134 -33q-69 0 -131.5 31zM222 157.5
q36 -34.5 88 -34.5t88 34.5t36 86.5t-36 85.5t-88 33.5t-88 -33.5t-36 -85.5t36 -86.5zM248.5 486.5q25.5 -24.5 61.5 -24.5t61.5 24.5t25.5 60.5q0 35 -25.5 57.5t-61.5 22.5t-61.5 -22.5t-25.5 -57.5q0 -36 25.5 -60.5z" />
    <glyph glyph-name="nine" unicode="9" horiz-adv-x="620" 
d="M291 233q-72 2 -132 39t-94.5 96.5t-34.5 128.5q0 73 38 133.5t102.5 95t139.5 34.5q76 0 140.5 -34.5t102 -95t37.5 -133.5q0 -84 -68 -178l-231 -319h-172zM194 432.5q18 -29.5 49 -46.5t67 -17t66.5 17t48.5 46.5t18 64.5t-18 64.5t-48.5 46.5t-66.5 17t-67 -17
t-49 -46.5t-18 -64.5t18 -64.5z" />
    <glyph glyph-name="colon" unicode=":" horiz-adv-x="319" 
d="M90.5 314.5q-28.5 28.5 -28.5 68.5q0 39 28.5 68t68.5 29t68.5 -28.5t28.5 -68.5q0 -41 -28.5 -69t-68.5 -28t-68.5 28.5zM90.5 155q28.5 29 68.5 29t68.5 -28.5t28.5 -68.5q0 -41 -28.5 -69t-68.5 -28t-68.5 28.5t-28.5 68.5q0 39 28.5 68z" />
    <glyph glyph-name="semicolon" unicode=";" horiz-adv-x="306" 
d="M105 101h134l-87 -264h-108zM95.5 451q28.5 29 68.5 29t68.5 -28.5t28.5 -68.5q0 -41 -28.5 -69t-68.5 -28t-68.5 28.5t-28.5 68.5q0 39 28.5 68z" />
    <glyph glyph-name="less" unicode="&#x3c;" horiz-adv-x="538" 
d="M31 184v120l401 195l60 -120l-282 -138l284 -151l-64 -118z" />
    <glyph glyph-name="equal" unicode="=" horiz-adv-x="627" 
d="M96 420h435v-120h-435v120zM96 229h435v-120h-435v120z" />
    <glyph glyph-name="greater" unicode="&#x3e;" horiz-adv-x="539" 
d="M44 90l284 151l-282 138l60 120l402 -195v-120l-400 -212z" />
    <glyph glyph-name="question" unicode="?" horiz-adv-x="499" 
d="M188 347.5q13 27.5 31 47t48 45.5q37 32 54.5 55t17.5 54q0 36 -23 58t-64 22q-51 0 -72.5 -28t-27.5 -77h-146q9 107 74 171.5t178 64.5q64 0 116 -26.5t82 -74.5t30 -110q0 -40 -13.5 -69.5t-31.5 -49t-49 -45.5q-36 -30 -53 -52t-17 -53v-33h-147v38q0 35 13 62.5z
M179.5 155q28.5 29 68.5 29t68.5 -28.5t28.5 -68.5q0 -41 -28.5 -69t-68.5 -28t-68.5 28.5t-28.5 68.5q0 39 28.5 68z" />
    <glyph glyph-name="at" unicode="@" horiz-adv-x="780" 
d="M235 -44.5q-100 55.5 -148 148.5t-48 208q0 116 48 212t137 151.5t205 55.5q72 0 133 -22t99 -69t38 -118v-413h-77l-12 31q-59 -47 -132 -47q-61 0 -112 30.5t-81 82t-30 110.5t30 110t80 81.5t107 30.5q31 0 64 -10t62 -29v23q0 59 -48.5 82t-112.5 23
q-94 0 -158.5 -41.5t-97 -113t-32.5 -161.5q0 -137 79 -224t254 -87h217v-100h-217q-147 0 -247 55.5zM392.5 227q35.5 -36 86.5 -36q52 0 89 36t37 88q0 34 -17 63t-45.5 46t-62.5 17q-51 0 -87 -37t-36 -89t35.5 -88z" />
    <glyph glyph-name="A" unicode="A" horiz-adv-x="698" 
d="M303 750h93l313 -750h-163l-47 122h-299l-47 -122h-164zM446 257l-97 251l-97 -251h194z" />
    <glyph glyph-name="B" unicode="B" horiz-adv-x="653" 
d="M80 750h249q91 0 150.5 -29t87 -76t27.5 -101q0 -50 -21 -94t-57 -65q51 -22 77 -68.5t26 -103.5q0 -54 -24.5 -103t-73.5 -79.5t-119 -30.5h-322v750zM371 140q46 0 70.5 25.5t24.5 63.5q0 39 -25 62.5t-70 23.5h-141v-175h141zM361 445q40 0 62.5 23.5t22.5 58.5
q0 37 -27.5 60t-79.5 23h-109v-165h131z" />
    <glyph glyph-name="C" unicode="C" horiz-adv-x="712" 
d="M215.5 37q-88.5 52 -141 141.5t-52.5 196.5t52.5 196.5t141.5 141.5t193 52q89 0 167 -38t132 -104l-109 -104q-33 44 -83 70t-107 26q-65 0 -119 -32t-86 -87t-32 -121t32 -121t86.5 -87t118.5 -32q57 0 107.5 26.5t84.5 71.5l110 -103q-54 -67 -133 -106t-169 -39
q-105 0 -193.5 52z" />
    <glyph glyph-name="D" unicode="D" horiz-adv-x="733" 
d="M80 750h206q125 0 221 -44.5t149.5 -129t53.5 -199.5q0 -116 -53.5 -201.5t-149 -130.5t-221.5 -45h-206v750zM286 140q131 0 202.5 60.5t71.5 176.5q0 115 -71 174t-203 59h-55v-470h55z" />
    <glyph glyph-name="E" unicode="E" horiz-adv-x="585" 
d="M80 750h457v-140h-307v-163h268v-140h-268v-167h307v-140h-457v750z" />
    <glyph glyph-name="F" unicode="F" horiz-adv-x="553" 
d="M80 750h457v-140h-307v-163h268v-140h-268v-307h-150v750z" />
    <glyph glyph-name="G" unicode="G" horiz-adv-x="775" 
d="M216.5 37q-88.5 52 -141 141.5t-52.5 196.5t52.5 196.5t141.5 141.5t193 52q89 0 167 -38t132 -104l-109 -104q-33 44 -83 70t-107 26q-65 0 -119 -32t-86 -87t-32 -121t32 -121t86.5 -87t118.5 -32q46 0 87.5 17t74.5 48v85h-165v140h315v-425h-140l-6 40
q-61 -55 -166 -55t-193.5 52z" />
    <glyph glyph-name="H" unicode="H" horiz-adv-x="772" 
d="M80 750h150v-302h312v302h150v-750h-150v308h-312v-308h-150v750z" />
    <glyph glyph-name="I" unicode="I" horiz-adv-x="310" 
d="M80 750h150v-750h-150v750z" />
    <glyph glyph-name="J" unicode="J" horiz-adv-x="362" 
d="M1 4v151q46 -23 80 -23q27 0 42 14.5t15 44.5v559h150v-562q0 -114 -38 -158.5t-116 -44.5q-54 0 -133 19z" />
    <glyph glyph-name="K" unicode="K" horiz-adv-x="687" 
d="M230 308v-308h-150v750h150v-334l286 334h182l-337 -384l333 -366h-191z" />
    <glyph glyph-name="L" unicode="L" horiz-adv-x="514" 
d="M80 750h150v-610h286v-140h-436v750z" />
    <glyph glyph-name="M" unicode="M" horiz-adv-x="927" 
d="M80 750h80l303 -387l304 387h80v-750h-146v441l-238 -310l-237 309v-440h-146v750z" />
    <glyph glyph-name="N" unicode="N" horiz-adv-x="795" 
d="M80 750h80l409 -464v464h146v-750h-85l-404 452v-452h-146v750z" />
    <glyph glyph-name="O" unicode="O" horiz-adv-x="826" 
d="M217.5 36.5q-89.5 51.5 -142 141t-52.5 197.5t52.5 197.5t142 141t195.5 51.5t195.5 -51.5t142 -141t52.5 -197.5t-52.5 -197.5t-142 -141t-195.5 -51.5t-195.5 51.5zM205 252.5q32 -54.5 87 -86t121 -31.5t121 31.5t87 86t32 122.5t-32 122.5t-87 86t-121 31.5
t-121 -31.5t-87 -86t-32 -122.5t32 -122.5z" />
    <glyph glyph-name="P" unicode="P" horiz-adv-x="626" 
d="M80 750h313q69 0 119 -32.5t76 -85.5t26 -114t-25.5 -114t-75.5 -85.5t-120 -32.5h-163v-286h-150v750zM366 426q47 0 72.5 27.5t25.5 68.5q0 40 -25 64t-73 24h-136v-184h136z" />
    <glyph glyph-name="Q" unicode="Q" horiz-adv-x="826" 
d="M217.5 36.5q-89.5 51.5 -142 141t-52.5 197.5t52.5 197.5t142 141t195.5 51.5t195.5 -51.5t142 -141t52.5 -197.5q0 -67 -21 -128t-60 -111l66 -66l-92 -91l-69 69q-98 -63 -214 -63q-106 0 -195.5 51.5zM205 252.5q32 -54.5 87 -86t121 -31.5q55 0 104 23l-88 87l92 92
l94 -94q38 59 38 132q0 68 -32 122.5t-87 86t-121 31.5t-121 -31.5t-87 -86t-32 -122.5t32 -122.5z" />
    <glyph glyph-name="R" unicode="R" horiz-adv-x="659" 
d="M80 750h313q69 0 119 -32.5t76 -85.5t26 -114q0 -70 -33 -128t-94 -85l160 -305h-169l-142 286h-106v-286h-150v750zM366 426q47 0 72.5 27.5t25.5 68.5q0 40 -25 64t-73 24h-136v-184h136z" />
    <glyph glyph-name="S" unicode="S" horiz-adv-x="567" 
d="M110.5 31.5q-73.5 46.5 -98.5 129.5l132 60q12 -48 52.5 -76t91.5 -28q47 0 76.5 21t29.5 60q0 42 -27 64t-93 47q-67 25 -112.5 50t-80 72.5t-34.5 120.5q0 64 33 112.5t89 74.5t122 26q76 0 141.5 -36.5t97.5 -112.5l-133 -60q-13 34 -41.5 54.5t-65.5 20.5t-66 -20.5
t-29 -53.5q0 -29 21 -51.5t52.5 -38.5t83.5 -37q58 -23 98.5 -49t67 -69t26.5 -106q0 -72 -35.5 -122t-94.5 -74.5t-130 -24.5q-100 0 -173.5 46.5z" />
    <glyph glyph-name="T" unicode="T" horiz-adv-x="577" 
d="M213 610h-216v140h583v-140h-216v-610h-151v610z" />
    <glyph glyph-name="U" unicode="U" horiz-adv-x="730" 
d="M213 13q-68 28 -108 87t-40 149v501h153v-481q0 -137 147 -137q72 0 109.5 33t37.5 104v481h153v-501q0 -133 -84 -198.5t-216 -65.5q-84 0 -152 28z" />
    <glyph glyph-name="V" unicode="V" horiz-adv-x="698" 
d="M-11 750h159l201 -508l202 508h158l-313 -750h-93z" />
    <glyph glyph-name="W" unicode="W" horiz-adv-x="990" 
d="M-11 750h159l208 -499h7l62 155l-144 344h149l63 -174h5l63 174h148l-143 -343l62 -156h7l208 499h158l-313 -750h-93l-100 238l-99 -238h-93z" />
    <glyph glyph-name="X" unicode="X" horiz-adv-x="650" 
d="M235 377l-236 373h179l147 -262l147 262h179l-236 -373l239 -377h-180l-149 265l-149 -265h-180z" />
    <glyph glyph-name="Y" unicode="Y" horiz-adv-x="680" 
d="M264 356l-283 394h177l181 -258l183 258h177l-285 -394v-356h-150v356z" />
    <glyph glyph-name="Z" unicode="Z" horiz-adv-x="642" 
d="M368 610h-325v140h585l-369 -610h371v-140h-630z" />
    <glyph glyph-name="bracketleft" unicode="[" horiz-adv-x="341" 
d="M77 750h252v-134h-107v-727h109v-134h-254v995z" />
    <glyph glyph-name="backslash" unicode="\" horiz-adv-x="563" 
d="M-35 760h124l509 -1005h-124z" />
    <glyph glyph-name="bracketright" unicode="]" horiz-adv-x="341" 
d="M10 -111h109v727h-107v134h252v-995h-254v134z" />
    <glyph glyph-name="asciicircum" unicode="^" horiz-adv-x="483" 
d="M191 750h101l169 -403h-129l-91 259l-90 -259h-129z" />
    <glyph glyph-name="underscore" unicode="_" horiz-adv-x="684" 
d="M63 0h558v-115h-558v115z" />
    <glyph glyph-name="grave" unicode="`" horiz-adv-x="260" 
d="M10 703h138l97 -163h-121z" />
    <glyph glyph-name="a" unicode="a" horiz-adv-x="619" 
d="M136 18q-53 33 -83 90.5t-30 126.5t30 126.5t83 90.5t120 33q47 0 86.5 -17.5t62.5 -56.5v59h150v-470h-140l-9 60q-24 -40 -63.5 -57.5t-86.5 -17.5q-67 0 -120 33zM205 152q34 -34 83 -34t83 34t34 83t-34 83t-83 34t-83 -34t-34 -83t34 -83z" />
    <glyph glyph-name="b" unicode="b" horiz-adv-x="618" 
d="M277.5 4q-40.5 19 -64.5 58l-9 -62h-140v750h150v-339q24 37 64 55.5t85 18.5q66 0 119.5 -34t83.5 -91.5t30 -124.5q0 -69 -30.5 -126t-83.5 -90.5t-117 -33.5q-47 0 -87.5 19zM248 152q34 -34 83 -34t83 34t34 83t-34 83t-83 34t-83 -34t-34 -83t34 -83z" />
    <glyph glyph-name="c" unicode="c" horiz-adv-x="496" 
d="M147.5 18q-60.5 33 -94.5 90.5t-34 126.5t34 126.5t94.5 90.5t136.5 33q130 0 207 -102l-110 -82q-16 24 -41.5 37.5t-55.5 13.5q-49 0 -83 -34t-34 -83t34 -83t83 -34q30 0 56 14.5t42 38.5l108 -85q-76 -101 -206 -101q-76 0 -136.5 33z" />
    <glyph glyph-name="d" unicode="d" horiz-adv-x="618" 
d="M136 18.5q-53 33.5 -83.5 90.5t-30.5 126q0 67 30 124.5t83.5 91.5t119.5 34q45 0 85 -18.5t64 -55.5v339h150v-750h-140l-9 62q-24 -39 -64.5 -58t-87.5 -19q-64 0 -117 33.5zM204 152q34 -34 83 -34t83 34t34 83t-34 83t-83 34t-83 -34t-34 -83t34 -83z" />
    <glyph glyph-name="e" unicode="e" horiz-adv-x="529" 
d="M150 14.5q-60 29.5 -94.5 86t-34.5 134.5q0 69 33 126t89 90.5t123 33.5q121 0 183 -74t62 -196h-340q4 -48 33 -71.5t77 -23.5q34 0 60 13.5t48 41.5l101 -76q-35 -55 -88.5 -84.5t-115.5 -29.5q-76 0 -136 29.5zM365 297q-6 33 -32 53.5t-59 20.5q-74 0 -95 -74h186z
" />
    <glyph glyph-name="f" unicode="f" horiz-adv-x="345" 
d="M89 347h-71v123h71v78q0 101 52.5 154t136.5 53q34 0 70 -9v-136h-8q-29 13 -53 13q-23 0 -35.5 -16t-12.5 -59v-78h109v-123h-109v-347h-150v347z" />
    <glyph glyph-name="g" unicode="g" horiz-adv-x="618" 
d="M129.5 -215q-66.5 29 -103.5 85l112 79q23 -32 60 -49.5t78 -17.5q57 0 92.5 32t35.5 89v55q-24 -38 -63 -55.5t-86 -17.5q-67 0 -120 33t-83 90.5t-30 126.5t30 126.5t83 90.5t120 33q47 0 86.5 -17.5t62.5 -56.5v59h150v-457q0 -79 -38 -137.5t-103 -89t-144 -30.5
q-73 0 -139.5 29zM204 152q34 -34 83 -34t83 34t34 83t-34 83t-83 34t-83 -34t-34 -83t34 -83z" />
    <glyph glyph-name="h" unicode="h" horiz-adv-x="595" 
d="M64 750h150v-325q31 30 66.5 45t82.5 15q92 0 135.5 -57t43.5 -168v-260h-150v260q0 41 -13 70t-62 29q-103 0 -103 -167v-192h-150v750z" />
    <glyph glyph-name="i" unicode="i" horiz-adv-x="278" 
d="M64 470h150v-470h-150v470zM75 566q-26 26 -26 64q0 37 26 63.5t63 26.5q38 0 64 -26t26 -64t-26 -64t-64 -26q-37 0 -63 26z" />
    <glyph glyph-name="j" unicode="j" horiz-adv-x="278" 
d="M64 470h150v-713h-150v713zM75 566q-26 26 -26 64q0 37 26 63.5t63 26.5q38 0 64 -26t26 -64t-26 -64t-64 -26q-37 0 -63 26z" />
    <glyph glyph-name="k" unicode="k" horiz-adv-x="538" 
d="M214 202v-202h-150v750h150v-482l152 202h184l-196 -235l196 -235h-184z" />
    <glyph glyph-name="l" unicode="l" horiz-adv-x="278" 
d="M64 750h150v-750h-150v750z" />
    <glyph glyph-name="m" unicode="m" horiz-adv-x="857" 
d="M64 471h149v-48q25 30 59 46t70 16q40 0 74.5 -19t53.5 -54q29 34 73.5 53.5t90.5 19.5q50 0 88.5 -25t60 -67.5t21.5 -94.5v-298h-150v238q0 51 -12 84t-56 33q-76 0 -76 -115v-240h-150v240q0 51 -12 83t-55 32t-61 -33.5t-18 -80.5v-241h-150v471z" />
    <glyph glyph-name="n" unicode="n" horiz-adv-x="594" 
d="M64 470h150v-50q31 30 66.5 45t82.5 15q92 0 135.5 -57t43.5 -168v-255h-150v255q0 41 -13 70t-62 29q-103 0 -103 -167v-187h-150v470z" />
    <glyph glyph-name="o" unicode="o" horiz-adv-x="569" 
d="M147.5 18q-60.5 33 -94.5 90.5t-34 126.5t34 126.5t94.5 90.5t136.5 33t136.5 -33t94.5 -90.5t34 -126.5t-34 -126.5t-94.5 -90.5t-136.5 -33t-136.5 33zM201 152q34 -34 83 -34t83 34t34 83t-34 83t-83 34t-83 -34t-34 -83t34 -83z" />
    <glyph glyph-name="p" unicode="p" horiz-adv-x="617" 
d="M278 4q-40 19 -64 57v-311h-150v720h150v-59q24 37 64 55.5t85 18.5q66 0 119.5 -34t83.5 -91.5t30 -124.5q0 -69 -30.5 -126t-83.5 -90.5t-117 -33.5q-47 0 -87 19zM248 152q34 -34 83 -34t83 34t34 83t-34 83t-83 34t-83 -34t-34 -83t34 -83z" />
    <glyph glyph-name="q" unicode="q" horiz-adv-x="619" 
d="M136 18q-53 33 -83 90.5t-30 126.5t30 126.5t83 90.5t120 33q47 0 86.5 -17.5t62.5 -56.5v59h150v-720h-150v308q-24 -38 -63 -55.5t-86 -17.5q-67 0 -120 33zM205 152q34 -34 83 -34t83 34t34 83t-34 83t-83 34t-83 -34t-34 -83t34 -83z" />
    <glyph glyph-name="r" unicode="r" horiz-adv-x="379" 
d="M64 470h150v-51q40 61 112 61q24 0 43 -10v-136h-5q-28 14 -57 14q-42 0 -67.5 -32t-25.5 -96v-215l-150 -5v470z" />
    <glyph glyph-name="s" unicode="s" horiz-adv-x="491" 
d="M112 17.5q-68 32.5 -101 103.5l139 47q34 -59 102 -59q25 0 41 7.5t16 22.5q0 18 -21 28t-63 20q-55 13 -92 26.5t-64 44t-27 80.5q0 74 57 110.5t142 36.5q72 0 129.5 -28.5t83.5 -91.5l-147 -38q-8 22 -27.5 34.5t-45.5 12.5q-21 0 -35.5 -8t-14.5 -21
q0 -14 18.5 -21.5t60.5 -16.5l20 -5q52 -12 89.5 -28.5t64 -49t26.5 -85.5q0 -79 -57 -116.5t-145 -37.5q-81 0 -149 32.5z" />
    <glyph glyph-name="t" unicode="t" horiz-adv-x="344" 
d="M97 347h-90v123h90v170h150v-170h90v-123h-90v-347h-150v347z" />
    <glyph glyph-name="u" unicode="u" horiz-adv-x="545" 
d="M108 47.5q-61 57.5 -61 157.5v265h150v-259q0 -42 19 -68.5t56 -26.5t56 26.5t19 68.5v259h150v-265q0 -100 -61 -157.5t-164 -57.5t-164 57.5z" />
    <glyph glyph-name="v" unicode="v" horiz-adv-x="494" 
d="M-9 470h149l107 -318l106 318h150l-168 -470h-176z" />
    <glyph glyph-name="w" unicode="w" horiz-adv-x="784" 
d="M-10 470h156l90 -297l87 297h136l88 -297l91 297h157l-177 -470h-141l-86 286l-85 -286h-142z" />
    <glyph glyph-name="x" unicode="x" horiz-adv-x="526" 
d="M167 245l-165 225h174l87 -142l87 142h174l-165 -225l179 -245h-183l-92 159l-92 -159h-183z" />
    <glyph glyph-name="y" unicode="y" horiz-adv-x="548" 
d="M202 39l-222 431h175l119 -278l130 278h162l-334 -715h-162z" />
    <glyph glyph-name="z" unicode="z" horiz-adv-x="489" 
d="M239 346h-212v124h442l-212 -341h214v-129h-464z" />
    <glyph glyph-name="braceleft" unicode="{" horiz-adv-x="317" 
d="M137.5 -222q-29.5 20 -44 50.5t-14.5 62.5v182q0 48 -3.5 73.5t-17 46t-43.5 37.5v60q29 17 43 38.5t17.5 47.5t3.5 71v181q0 32 15 62.5t46.5 50.5t79.5 20h73v-118q-39 -3 -54.5 -19t-15.5 -56v-135q0 -112 -64 -173q64 -61 64 -173v-136q0 -40 15.5 -56t54.5 -19v-118
h-83q-43 0 -72.5 20z" />
    <glyph glyph-name="bar" unicode="|" horiz-adv-x="342" 
d="M96 750h150v-993h-150v993z" />
    <glyph glyph-name="braceright" unicode="}" horiz-adv-x="317" 
d="M78 -107q16 17 16 58v136q0 112 64 173q-64 61 -64 173v135q0 41 -16 58t-54 17v118h83q43 0 72.5 -20t44 -50.5t14.5 -62.5v-181q0 -45 3.5 -71t17.5 -47.5t43 -38.5v-60q-30 -17 -43.5 -37.5t-17 -46t-3.5 -73.5v-182q0 -32 -14.5 -62.5t-44 -50.5t-72.5 -20h-83v118
q38 0 54 17z" />
    <glyph glyph-name="asciitilde" unicode="~" horiz-adv-x="593" 
d="M344.5 275q-20.5 9 -47.5 27q-4 2 -19.5 12.5t-29.5 15.5t-27 5q-18 0 -27.5 -10t-27.5 -40l-6 -10l-107 55l15 31q23 47 57.5 70t77.5 23q61 0 123 -43q34 -24 51 -24q20 0 37 36l16 35l109 -51l-22 -44q-25 -50 -55 -73.5t-71 -23.5q-26 0 -46.5 9z" />
    <glyph glyph-name="uni00A0" unicode="&#xa0;" horiz-adv-x="270" 
 />
    <glyph glyph-name="exclamdown" unicode="&#xa1;" horiz-adv-x="327" 
d="M238 -280h-150v503h150v-503zM95.5 452q28.5 28 68.5 28t68.5 -28.5t28.5 -68.5q0 -39 -28.5 -68t-68.5 -29t-68.5 28.5t-28.5 68.5q0 41 28.5 69z" />
    <glyph glyph-name="cent" unicode="&#xa2;" horiz-adv-x="524" 
d="M254 84q-60 7 -109 41.5t-77.5 87.5t-28.5 114t28.5 114t77.5 87.5t109 41.5v84h63v-84q55 -7 101 -37t75 -77l-112 -77q-22 41 -64 53v-210q42 12 64 53l112 -78q-29 -46 -75 -76t-101 -37v-84h-63v84zM197 261q22 -29 57 -40v211q-35 -11 -57 -40t-22 -65q0 -37 22 -66
z" />
    <glyph glyph-name="sterling" unicode="&#xa3;" horiz-adv-x="596" 
d="M26 69l49 33q36 24 54 41.5t26.5 41.5t8.5 62q0 40 -13 137h-77v112h73q13 120 87.5 187t239.5 67h56v-123h-56q-81 0 -123 -17t-56 -43.5t-21 -70.5h236v-112h-232q10 -83 10 -129q0 -83 -32 -143h274v-123h-504v80z" />
    <glyph glyph-name="currency" unicode="&#xa4;" horiz-adv-x="658" 
d="M258.5 60q-32.5 10 -68.5 31l-34 -33l-77 77l33 33q-20 34 -29 65.5t-9 66.5t9 66.5t29 65.5l-33 33l78 77l33 -33q36 21 68.5 31t70.5 10t70.5 -10t68.5 -31l33 33l78 -77l-33 -33q20 -34 29 -65.5t9 -66.5t-9 -66.5t-29 -65.5l33 -33l-77 -77l-34 33q-36 -21 -68.5 -31
t-70.5 -10t-70.5 10zM209.5 235.5q18.5 -31.5 50 -50t69.5 -18.5q37 0 68.5 18.5t50 50t18.5 67.5q0 55 -39.5 92.5t-97.5 37.5q-59 0 -98.5 -37.5t-39.5 -92.5q0 -36 18.5 -67.5z" />
    <glyph glyph-name="yen" unicode="&#xa5;" horiz-adv-x="643" 
d="M246 140h-142v105h142v86h-142v105h94l-186 314h177l131 -278l133 278h177l-188 -314h97v-105h-145v-86h145v-105h-145v-140h-148v140z" />
    <glyph glyph-name="brokenbar" unicode="&#xa6;" horiz-adv-x="342" 
d="M96 750h150v-407h-150v407zM96 166h150v-407h-150v407z" />
    <glyph glyph-name="section" unicode="&#xa7;" horiz-adv-x="547" 
d="M147 -113.5q-66 50.5 -108 126.5l111 93q3 -6 23.5 -42.5t47.5 -59.5t55 -23q23 0 40 17.5t17 40.5q0 24 -24 41.5t-76 41.5q-57 28 -94 52t-64 63t-27 95q0 41 16.5 78.5t45.5 68.5q-23 46 -23 97q0 52 23.5 94t65.5 66t94 24q112 0 206 -116l-107 -97q-22 26 -47 47
t-47 21q-17 0 -29.5 -12.5t-12.5 -29.5q0 -24 23 -41.5t75 -43.5q55 -28 90 -51.5t60.5 -61.5t25.5 -92q0 -69 -54 -139q30 -45 30 -103q0 -53 -25 -100.5t-68.5 -76t-97.5 -28.5q-79 0 -145 50.5zM233 295l113 -61q18 22 18 40q0 26 -40 48l-113 61q-18 -22 -18 -40
q0 -26 40 -48z" />
    <glyph glyph-name="dieresis" unicode="&#xa8;" horiz-adv-x="441" 
d="M288 566q-26 26 -26 64q0 37 26 63.5t63 26.5q38 0 64 -26t26 -64t-26 -64t-64 -26q-37 0 -63 26zM68 693.5q26 26.5 63 26.5q38 0 64 -26t26 -64t-26 -64t-64 -26q-37 0 -63 26t-26 64q0 37 26 63.5z" />
    <glyph glyph-name="copyright" unicode="&#xa9;" horiz-adv-x="757" 
d="M209.5 92q-77.5 44 -123.5 119.5t-46 163.5t46 163.5t123.5 119.5t168.5 44t169 -44t124 -119.5t46 -163.5t-46 -163.5t-124 -119.5t-169 -44t-168.5 44zM162 254q34 -55 91 -87.5t125 -32.5t126 32t91.5 87.5t33.5 121.5t-33.5 121.5t-91.5 87.5t-126 32t-125 -32.5
t-91 -87.5t-34 -121t34 -121zM214.5 467.5q25.5 41.5 68.5 66t93 24.5q46 0 84.5 -19t63.5 -49t34 -63l-88 -27q-7 25 -32 44.5t-62 19.5t-63.5 -25.5t-26.5 -61.5t26.5 -61.5t63.5 -25.5q68 0 91 57l91 -21q-10 -32 -35 -62t-63 -49t-84 -19q-50 0 -93 24.5t-68.5 66
t-25.5 90.5t25.5 90.5z" />
    <glyph glyph-name="guillemotleft" unicode="&#xab;" horiz-adv-x="506" 
d="M218 242l207 198l58 -68l-139 -133l140 -143l-59 -65zM202 440l58 -68l-139 -133l140 -143l-59 -65l-207 211z" />
    <glyph glyph-name="registered" unicode="&#xae;" horiz-adv-x="613" 
d="M159.5 212q-67.5 39 -107 106.5t-39.5 147.5t39.5 147.5t107 107t147.5 39.5t147 -39.5t106.5 -107t39.5 -147.5t-39.5 -147.5t-106.5 -106.5t-147 -39t-147.5 39zM119 357.5q29 -49.5 79 -78.5t109 -29t108.5 29t78.5 78.5t29 108.5t-29 109t-78.5 79t-108.5 29
t-109 -29t-79 -79t-29 -109t29 -108.5zM220 619h93q47 0 75 -27t28 -68q0 -58 -51 -79l77 -131h-84l-62 116h-1v-116h-75v305zM303 486q20 0 29.5 10.5t9.5 27.5q0 16 -9.5 27t-29.5 11h-8v-76h8z" />
    <glyph glyph-name="macron" unicode="&#xaf;" horiz-adv-x="408" 
d="M63 635h282v-105h-282v105z" />
    <glyph glyph-name="degree" unicode="&#xb0;" horiz-adv-x="470" 
d="M145 424q-41 24 -65 65t-24 89q0 49 24 90t65 65t90 24q48 0 89 -24t65 -65t24 -90q0 -48 -24 -89t-65 -65t-89 -24q-49 0 -90 24zM183 526.5q22 -21.5 52 -21.5t51.5 21.5t21.5 51.5t-21.5 52t-51.5 22t-52 -22t-22 -52t22 -51.5z" />
    <glyph glyph-name="plusminus" unicode="&#xb1;" horiz-adv-x="680" 
d="M275 340h-214v130h214v149h130v-149h214v-130h-214v-149h-130v149zM61 130h558v-130h-558v130z" />
    <glyph glyph-name="acute" unicode="&#xb4;" horiz-adv-x="260" 
d="M112 703h138l-114 -163h-121z" />
    <glyph glyph-name="uni00B5" unicode="&#xb5;" horiz-adv-x="616" 
d="M96 470h150v-259q0 -42 19 -68.5t56 -26.5t56 26.5t19 68.5v259h150v-470h-76l-17 23q-55 -33 -132 -33q-44 0 -78 10v-205h-147v675z" />
    <glyph glyph-name="paragraph" unicode="&#xb6;" horiz-adv-x="541" 
d="M215 283q-86 19 -142 81.5t-56 149.5q0 64 32.5 118.5t87.5 86t119 31.5h189v-921h-75v863h-80v-863h-75v454z" />
    <glyph glyph-name="periodcentered" unicode="&#xb7;" horiz-adv-x="322" 
d="M94.5 171.5q-27.5 27.5 -27.5 66.5t27.5 67t66.5 28q38 0 66.5 -28t28.5 -67t-28.5 -66.5t-66.5 -27.5q-39 0 -66.5 27.5z" />
    <glyph glyph-name="cedilla" unicode="&#xb8;" horiz-adv-x="260" 
d="M127 -116q0 42 -62 42l20 80h76l-13 -50q36 -5 60 -25t24 -56q0 -52 -49.5 -84.5t-153.5 -32.5l20 83q78 0 78 43z" />
    <glyph glyph-name="guillemotright" unicode="&#xbb;" horiz-adv-x="506" 
d="M245 96l140 143l-139 133l58 68l207 -198l-207 -211zM162 239l-139 133l58 68l207 -198l-207 -211l-59 65z" />
    <glyph glyph-name="questiondown" unicode="&#xbf;" horiz-adv-x="499" 
d="M311 151.5q-13 -27.5 -31 -47t-48 -45.5q-37 -32 -54.5 -55t-17.5 -54q0 -36 23 -58t64 -22q51 0 72.5 28t27.5 77h146q-9 -107 -74 -171.5t-178 -64.5q-64 0 -116 26.5t-82 74.5t-30 110q0 40 13.5 69.5t31.5 49t49 45.5q36 30 53 52t17 53v33h147v-38q0 -35 -13 -62.5z
M182.5 481q28.5 28 68.5 28t68.5 -28.5t28.5 -68.5q0 -39 -28.5 -68t-68.5 -29t-68.5 28.5t-28.5 68.5q0 41 28.5 69z" />
    <glyph glyph-name="Agrave" unicode="&#xc0;" horiz-adv-x="698" 
d="M303 750h93l313 -750h-163l-47 122h-299l-47 -122h-164zM446 257l-97 251l-97 -251h194zM177 952h143l84 -142h-111z" />
    <glyph glyph-name="Aacute" unicode="&#xc1;" horiz-adv-x="698" 
d="M303 750h93l313 -750h-163l-47 122h-299l-47 -122h-164zM446 257l-97 251l-97 -251h194zM377 952h143l-116 -142h-111z" />
    <glyph glyph-name="Acircumflex" unicode="&#xc2;" horiz-adv-x="698" 
d="M303 750h93l313 -750h-163l-47 122h-299l-47 -122h-164zM446 257l-97 251l-97 -251h194zM277 952h144l117 -142h-123l-66 79l-66 -79h-123z" />
    <glyph glyph-name="Atilde" unicode="&#xc3;" horiz-adv-x="698" 
d="M303 750h93l313 -750h-163l-47 122h-299l-47 -122h-164zM446 257l-97 251l-97 -251h194zM384.5 812q-15.5 7 -32.5 19q-19 13 -30.5 18.5t-24.5 5.5t-20 -7t-20 -29l-6 -10l-78 40l13 25q35 67 98 67q42 0 89 -31q26 -17 37 -17q7 0 13 5.5t14 20.5l12 25l79 -37l-16 -32
q-18 -36 -40 -53t-52 -17q-20 0 -35.5 7z" />
    <glyph glyph-name="Adieresis" unicode="&#xc4;" horiz-adv-x="698" 
d="M303 750h93l313 -750h-163l-47 122h-299l-47 -122h-164zM446 257l-97 251l-97 -251h194zM390 816q-22 22 -22 56t22 57t57 23q34 0 56 -23t22 -57t-22 -56t-56 -22q-35 0 -57 22zM194 929q22 23 57 23q34 0 56 -23t22 -57t-22 -56t-56 -22q-35 0 -57 22t-22 56t22 57z
" />
    <glyph glyph-name="Aring" unicode="&#xc5;" horiz-adv-x="698" 
d="M298 737q-27 14 -43.5 40.5t-16.5 58.5q0 45 32.5 78t78.5 33t78.5 -33t32.5 -78q0 -32 -16 -58t-43 -40l308 -738h-163l-47 122h-299l-47 -122h-164zM446 257l-97 251l-97 -251h194zM323 810q11 -11 26 -11t26 11t11 26t-11 26t-26 11t-26 -11t-11 -26t11 -26z" />
    <glyph glyph-name="AE" unicode="&#xc6;" horiz-adv-x="905" 
d="M456 750h402v-140h-260v-158h217v-140h-217v-172h260v-140h-410v194h-179l-120 -194h-166zM448 316v159l-102 -159h102z" />
    <glyph glyph-name="Ccedilla" unicode="&#xc7;" horiz-adv-x="712" 
d="M404 -116q0 42 -62 42l16 62q-94 13 -170.5 67t-121 138t-44.5 182q0 107 52.5 196.5t141.5 141.5t193 52q89 0 167 -38t132 -104l-109 -104q-33 44 -83 70t-107 26q-65 0 -119 -32t-86 -87t-32 -121t32 -121t86.5 -87t118.5 -32q57 0 107.5 26.5t84.5 71.5l110 -103
q-50 -63 -122.5 -101t-155.5 -43l-8 -30q36 -5 60 -25t24 -56q0 -52 -49.5 -84.5t-153.5 -32.5l20 83q78 0 78 43z" />
    <glyph glyph-name="Egrave" unicode="&#xc8;" horiz-adv-x="585" 
d="M80 750h457v-140h-307v-163h268v-140h-268v-167h307v-140h-457v750zM137 952h143l84 -142h-111z" />
    <glyph glyph-name="Eacute" unicode="&#xc9;" horiz-adv-x="585" 
d="M80 750h457v-140h-307v-163h268v-140h-268v-167h307v-140h-457v750zM337 952h143l-116 -142h-111z" />
    <glyph glyph-name="Ecircumflex" unicode="&#xca;" horiz-adv-x="585" 
d="M80 750h457v-140h-307v-163h268v-140h-268v-167h307v-140h-457v750zM237 952h144l117 -142h-123l-66 79l-66 -79h-123z" />
    <glyph glyph-name="Edieresis" unicode="&#xcb;" horiz-adv-x="585" 
d="M80 750h457v-140h-307v-163h268v-140h-268v-167h307v-140h-457v750zM350 816q-22 22 -22 56t22 57t57 23q34 0 56 -23t22 -57t-22 -56t-56 -22q-35 0 -57 22zM154 929q22 23 57 23q34 0 56 -23t22 -57t-22 -56t-56 -22q-35 0 -57 22t-22 56t22 57z" />
    <glyph glyph-name="Igrave" unicode="&#xcc;" horiz-adv-x="310" 
d="M80 750h150v-750h-150v750zM-17 952h143l84 -142h-111z" />
    <glyph glyph-name="Iacute" unicode="&#xcd;" horiz-adv-x="310" 
d="M80 750h150v-750h-150v750zM183 952h143l-116 -142h-111z" />
    <glyph glyph-name="Icircumflex" unicode="&#xce;" horiz-adv-x="310" 
d="M80 750h150v-750h-150v750zM83 952h144l117 -142h-123l-66 79l-66 -79h-123z" />
    <glyph glyph-name="Idieresis" unicode="&#xcf;" horiz-adv-x="310" 
d="M80 750h150v-750h-150v750zM196 816q-22 22 -22 56t22 57t57 23q34 0 56 -23t22 -57t-22 -56t-56 -22q-35 0 -57 22zM0 929q22 23 57 23q34 0 56 -23t22 -57t-22 -56t-56 -22q-35 0 -57 22t-22 56t22 57z" />
    <glyph glyph-name="Eth" unicode="&#xd0;" horiz-adv-x="733" 
d="M80 310h-62v130h62v310h206q125 0 221 -44.5t149.5 -129t53.5 -199.5q0 -116 -53.5 -201.5t-149 -130.5t-221.5 -45h-206v310zM286 140q131 0 202.5 60.5t71.5 176.5q0 115 -71 174t-203 59h-55v-170h92v-130h-92v-170h55z" />
    <glyph glyph-name="Ntilde" unicode="&#xd1;" horiz-adv-x="795" 
d="M80 750h80l409 -464v464h146v-750h-85l-404 452v-452h-146v750zM433.5 812q-15.5 7 -32.5 19q-19 13 -30.5 18.5t-24.5 5.5t-20 -7t-20 -29l-6 -10l-78 40l13 25q35 67 98 67q42 0 89 -31q26 -17 37 -17q7 0 13 5.5t14 20.5l12 25l79 -37l-16 -32q-18 -36 -40 -53
t-52 -17q-20 0 -35.5 7z" />
    <glyph glyph-name="Ograve" unicode="&#xd2;" horiz-adv-x="826" 
d="M217.5 36.5q-89.5 51.5 -142 141t-52.5 197.5t52.5 197.5t142 141t195.5 51.5t195.5 -51.5t142 -141t52.5 -197.5t-52.5 -197.5t-142 -141t-195.5 -51.5t-195.5 51.5zM205 252.5q32 -54.5 87 -86t121 -31.5t121 31.5t87 86t32 122.5t-32 122.5t-87 86t-121 31.5
t-121 -31.5t-87 -86t-32 -122.5t32 -122.5zM241 952h143l84 -142h-111z" />
    <glyph glyph-name="Oacute" unicode="&#xd3;" horiz-adv-x="826" 
d="M217.5 36.5q-89.5 51.5 -142 141t-52.5 197.5t52.5 197.5t142 141t195.5 51.5t195.5 -51.5t142 -141t52.5 -197.5t-52.5 -197.5t-142 -141t-195.5 -51.5t-195.5 51.5zM205 252.5q32 -54.5 87 -86t121 -31.5t121 31.5t87 86t32 122.5t-32 122.5t-87 86t-121 31.5
t-121 -31.5t-87 -86t-32 -122.5t32 -122.5zM441 952h143l-116 -142h-111z" />
    <glyph glyph-name="Ocircumflex" unicode="&#xd4;" horiz-adv-x="826" 
d="M217.5 36.5q-89.5 51.5 -142 141t-52.5 197.5t52.5 197.5t142 141t195.5 51.5t195.5 -51.5t142 -141t52.5 -197.5t-52.5 -197.5t-142 -141t-195.5 -51.5t-195.5 51.5zM205 252.5q32 -54.5 87 -86t121 -31.5t121 31.5t87 86t32 122.5t-32 122.5t-87 86t-121 31.5
t-121 -31.5t-87 -86t-32 -122.5t32 -122.5zM341 952h144l117 -142h-123l-66 79l-66 -79h-123z" />
    <glyph glyph-name="Otilde" unicode="&#xd5;" horiz-adv-x="826" 
d="M217.5 36.5q-89.5 51.5 -142 141t-52.5 197.5t52.5 197.5t142 141t195.5 51.5t195.5 -51.5t142 -141t52.5 -197.5t-52.5 -197.5t-142 -141t-195.5 -51.5t-195.5 51.5zM205 252.5q32 -54.5 87 -86t121 -31.5t121 31.5t87 86t32 122.5t-32 122.5t-87 86t-121 31.5
t-121 -31.5t-87 -86t-32 -122.5t32 -122.5zM448.5 812q-15.5 7 -32.5 19q-19 13 -30.5 18.5t-24.5 5.5t-20 -7t-20 -29l-6 -10l-78 40l13 25q35 67 98 67q42 0 89 -31q26 -17 37 -17q7 0 13 5.5t14 20.5l12 25l79 -37l-16 -32q-18 -36 -40 -53t-52 -17q-20 0 -35.5 7z" />
    <glyph glyph-name="Odieresis" unicode="&#xd6;" horiz-adv-x="826" 
d="M217.5 36.5q-89.5 51.5 -142 141t-52.5 197.5t52.5 197.5t142 141t195.5 51.5t195.5 -51.5t142 -141t52.5 -197.5t-52.5 -197.5t-142 -141t-195.5 -51.5t-195.5 51.5zM205 252.5q32 -54.5 87 -86t121 -31.5t121 31.5t87 86t32 122.5t-32 122.5t-87 86t-121 31.5
t-121 -31.5t-87 -86t-32 -122.5t32 -122.5zM454 816q-22 22 -22 56t22 57t57 23q34 0 56 -23t22 -57t-22 -56t-56 -22q-35 0 -57 22zM258 929q22 23 57 23q34 0 56 -23t22 -57t-22 -56t-56 -22q-35 0 -57 22t-22 56t22 57z" />
    <glyph glyph-name="multiply" unicode="&#xd7;" horiz-adv-x="538" 
d="M269 170l-141 -141l-92 92l141 140l-141 142l91 92l142 -142l141 141l92 -92l-141 -141l141 -141l-92 -92z" />
    <glyph glyph-name="Oslash" unicode="&#xd8;" horiz-adv-x="826" 
d="M254 18l-18 -28h-139l60 90q-63 55 -98.5 131t-35.5 164q0 108 52.5 197.5t142 141t195.5 51.5q91 0 172 -39l23 34h135l-64 -98q58 -54 91 -128t33 -159q0 -108 -52.5 -197.5t-142 -141t-195.5 -51.5q-82 0 -159 33zM190.5 282q17.5 -43 49.5 -76l261 393q-43 16 -88 16
q-66 0 -121 -31.5t-87 -86t-32 -122.5q0 -50 17.5 -93zM413 135q66 0 121 31.5t87 86t32 122.5q0 46 -15.5 87t-43.5 72l-255 -388q36 -11 74 -11z" />
    <glyph glyph-name="Ugrave" unicode="&#xd9;" horiz-adv-x="730" 
d="M213 13q-68 28 -108 87t-40 149v501h153v-481q0 -137 147 -137q72 0 109.5 33t37.5 104v481h153v-501q0 -133 -84 -198.5t-216 -65.5q-84 0 -152 28zM193 952h143l84 -142h-111z" />
    <glyph glyph-name="Uacute" unicode="&#xda;" horiz-adv-x="730" 
d="M213 13q-68 28 -108 87t-40 149v501h153v-481q0 -137 147 -137q72 0 109.5 33t37.5 104v481h153v-501q0 -133 -84 -198.5t-216 -65.5q-84 0 -152 28zM393 952h143l-116 -142h-111z" />
    <glyph glyph-name="Ucircumflex" unicode="&#xdb;" horiz-adv-x="730" 
d="M213 13q-68 28 -108 87t-40 149v501h153v-481q0 -137 147 -137q72 0 109.5 33t37.5 104v481h153v-501q0 -133 -84 -198.5t-216 -65.5q-84 0 -152 28zM293 952h144l117 -142h-123l-66 79l-66 -79h-123z" />
    <glyph glyph-name="Udieresis" unicode="&#xdc;" horiz-adv-x="730" 
d="M213 13q-68 28 -108 87t-40 149v501h153v-481q0 -137 147 -137q72 0 109.5 33t37.5 104v481h153v-501q0 -133 -84 -198.5t-216 -65.5q-84 0 -152 28zM406 816q-22 22 -22 56t22 57t57 23q34 0 56 -23t22 -57t-22 -56t-56 -22q-35 0 -57 22zM210 929q22 23 57 23
q34 0 56 -23t22 -57t-22 -56t-56 -22q-35 0 -57 22t-22 56t22 57z" />
    <glyph glyph-name="Yacute" unicode="&#xdd;" horiz-adv-x="680" 
d="M264 356l-283 394h177l181 -258l183 258h177l-285 -394v-356h-150v356zM368 952h143l-116 -142h-111z" />
    <glyph glyph-name="Thorn" unicode="&#xde;" horiz-adv-x="625" 
d="M80 750h150v-96h163q69 0 119 -33.5t76 -88t26 -115.5t-25.5 -114t-75.5 -85.5t-120 -32.5h-163v-185h-150v750zM376 325q47 0 72.5 27.5t25.5 68.5t-25 67t-73 26h-146v-189h146z" />
    <glyph glyph-name="germandbls" unicode="&#xdf;" horiz-adv-x="570" 
d="M367.5 174q28.5 32 28.5 84q0 48 -31.5 79.5t-76.5 31.5v122q38 0 58.5 13.5t20.5 45.5t-20.5 47.5t-53.5 15.5q-83 0 -83 -99v-514h-146v537q0 103 62 158t158 55q66 0 116.5 -26t78 -71.5t27.5 -102.5q0 -74 -46 -119q86 -60 86 -173q0 -75 -32.5 -136t-91.5 -96.5
t-134 -35.5v152q51 0 79.5 32z" />
    <glyph glyph-name="agrave" unicode="&#xe0;" horiz-adv-x="619" 
d="M136 18q-53 33 -83 90.5t-30 126.5t30 126.5t83 90.5t120 33q47 0 86.5 -17.5t62.5 -56.5v59h150v-470h-140l-9 60q-24 -40 -63.5 -57.5t-86.5 -17.5q-67 0 -120 33zM205 152q34 -34 83 -34t83 34t34 83t-34 83t-83 34t-83 -34t-34 -83t34 -83zM137 703h138l97 -163h-121
z" />
    <glyph glyph-name="aacute" unicode="&#xe1;" horiz-adv-x="619" 
d="M136 18q-53 33 -83 90.5t-30 126.5t30 126.5t83 90.5t120 33q47 0 86.5 -17.5t62.5 -56.5v59h150v-470h-140l-9 60q-24 -40 -63.5 -57.5t-86.5 -17.5q-67 0 -120 33zM205 152q34 -34 83 -34t83 34t34 83t-34 83t-83 34t-83 -34t-34 -83t34 -83zM348 703h138l-114 -163
h-121z" />
    <glyph glyph-name="acircumflex" unicode="&#xe2;" horiz-adv-x="619" 
d="M136 18q-53 33 -83 90.5t-30 126.5t30 126.5t83 90.5t120 33q47 0 86.5 -17.5t62.5 -56.5v59h150v-470h-140l-9 60q-24 -40 -63.5 -57.5t-86.5 -17.5q-67 0 -120 33zM205 152q34 -34 83 -34t83 34t34 83t-34 83t-83 34t-83 -34t-34 -83t34 -83zM264 703h96l121 -163h-113
l-56 71l-56 -71h-113z" />
    <glyph glyph-name="atilde" unicode="&#xe3;" horiz-adv-x="619" 
d="M136 18q-53 33 -83 90.5t-30 126.5t30 126.5t83 90.5t120 33q47 0 86.5 -17.5t62.5 -56.5v59h150v-470h-140l-9 60q-24 -40 -63.5 -57.5t-86.5 -17.5q-67 0 -120 33zM205 152q34 -34 83 -34t83 34t34 83t-34 83t-83 34t-83 -34t-34 -83t34 -83zM344 542q-17 8 -37 22
q-22 16 -33.5 22.5t-22.5 6.5q-14 0 -23.5 -11.5t-25.5 -40.5l-83 49q33 56 59 77t65 21q47 0 98 -38q11 -8 20.5 -14t16.5 -6q9 0 14.5 7t14 22t12.5 23l85 -47q-32 -57 -58.5 -79t-66.5 -22q-18 0 -35 8z" />
    <glyph glyph-name="adieresis" unicode="&#xe4;" horiz-adv-x="619" 
d="M136 18q-53 33 -83 90.5t-30 126.5t30 126.5t83 90.5t120 33q47 0 86.5 -17.5t62.5 -56.5v59h150v-470h-140l-9 60q-24 -40 -63.5 -57.5t-86.5 -17.5q-67 0 -120 33zM205 152q34 -34 83 -34t83 34t34 83t-34 83t-83 34t-83 -34t-34 -83t34 -83zM359 566q-26 26 -26 64
q0 37 26 63.5t63 26.5q38 0 64 -26t26 -64t-26 -64t-64 -26q-37 0 -63 26zM139 693.5q26 26.5 63 26.5q38 0 64 -26t26 -64t-26 -64t-64 -26q-37 0 -63 26t-26 64q0 37 26 63.5z" />
    <glyph glyph-name="aring" unicode="&#xe5;" horiz-adv-x="619" 
d="M136 18q-53 33 -83 90.5t-30 126.5t30 126.5t83 90.5t120 33q47 0 86.5 -17.5t62.5 -56.5v59h150v-470h-140l-9 60q-24 -40 -63.5 -57.5t-86.5 -17.5q-67 0 -120 33zM205 152q34 -34 83 -34t83 34t34 83t-34 83t-83 34t-83 -34t-34 -83t34 -83zM227 556.5
q-35 34.5 -35 83.5q0 50 35 85t85 35t85 -35t35 -85q0 -49 -35 -83.5t-85 -34.5t-85 34.5zM280.5 609.5q12.5 -12.5 31.5 -12.5q18 0 31 12.5t13 30.5q0 19 -13 32t-31 13q-19 0 -31.5 -13t-12.5 -32q0 -18 12.5 -30.5z" />
    <glyph glyph-name="ae" unicode="&#xe6;" horiz-adv-x="851" 
d="M65.5 30.5q-42.5 40.5 -42.5 101.5q0 47 26 86.5t69 57.5h222v32q0 32 -26.5 50t-60.5 18q-31 0 -57 -15.5t-35 -38.5l-122 50q30 61 84.5 84.5t124.5 23.5q123 0 182 -58q33 28 76 43t92 15q75 0 128 -34t80.5 -94.5t27.5 -136.5h-339q8 -95 109 -95q36 0 60.5 13
t47.5 42l101 -76q-77 -109 -210 -109q-55 0 -104.5 18.5t-85.5 52.5l-140 -53q-46 -18 -90 -18q-75 0 -117.5 40.5zM187 112.5q14 -12.5 35 -12.5q16 0 47 11l71 26v59h-137q-30 -17 -30 -49q0 -22 14 -34.5zM688 297q-7 31 -33 50t-61 19q-34 0 -57 -18t-34 -51h185z" />
    <glyph glyph-name="ccedilla" unicode="&#xe7;" horiz-adv-x="496" 
d="M286 -116q0 42 -62 42l16 62q-65 9 -115.5 44t-78 88t-27.5 115q0 69 34 126.5t94.5 90.5t136.5 33q130 0 207 -102l-110 -82q-16 24 -41.5 37.5t-55.5 13.5q-49 0 -83 -34t-34 -83t34 -83t83 -34q30 0 56 14.5t42 38.5l108 -85q-68 -89 -175 -99l-8 -31q36 -5 60 -25
t24 -56q0 -52 -49.5 -84.5t-153.5 -32.5l20 83q78 0 78 43z" />
    <glyph glyph-name="egrave" unicode="&#xe8;" horiz-adv-x="529" 
d="M150 14.5q-60 29.5 -94.5 86t-34.5 134.5q0 69 33 126t89 90.5t123 33.5q121 0 183 -74t62 -196h-340q4 -48 33 -71.5t77 -23.5q34 0 60 13.5t48 41.5l101 -76q-35 -55 -88.5 -84.5t-115.5 -29.5q-76 0 -136 29.5zM365 297q-6 33 -32 53.5t-59 20.5q-74 0 -95 -74h186z
M93 703h138l97 -163h-121z" />
    <glyph glyph-name="eacute" unicode="&#xe9;" horiz-adv-x="529" 
d="M150 14.5q-60 29.5 -94.5 86t-34.5 134.5q0 69 33 126t89 90.5t123 33.5q121 0 183 -74t62 -196h-340q4 -48 33 -71.5t77 -23.5q34 0 60 13.5t48 41.5l101 -76q-35 -55 -88.5 -84.5t-115.5 -29.5q-76 0 -136 29.5zM365 297q-6 33 -32 53.5t-59 20.5q-74 0 -95 -74h186z
M304 703h138l-114 -163h-121z" />
    <glyph glyph-name="ecircumflex" unicode="&#xea;" horiz-adv-x="529" 
d="M150 14.5q-60 29.5 -94.5 86t-34.5 134.5q0 69 33 126t89 90.5t123 33.5q121 0 183 -74t62 -196h-340q4 -48 33 -71.5t77 -23.5q34 0 60 13.5t48 41.5l101 -76q-35 -55 -88.5 -84.5t-115.5 -29.5q-76 0 -136 29.5zM365 297q-6 33 -32 53.5t-59 20.5q-74 0 -95 -74h186z
M220 703h96l121 -163h-113l-56 71l-56 -71h-113z" />
    <glyph glyph-name="edieresis" unicode="&#xeb;" horiz-adv-x="529" 
d="M150 14.5q-60 29.5 -94.5 86t-34.5 134.5q0 69 33 126t89 90.5t123 33.5q121 0 183 -74t62 -196h-340q4 -48 33 -71.5t77 -23.5q34 0 60 13.5t48 41.5l101 -76q-35 -55 -88.5 -84.5t-115.5 -29.5q-76 0 -136 29.5zM365 297q-6 33 -32 53.5t-59 20.5q-74 0 -95 -74h186z
M315 566q-26 26 -26 64q0 37 26 63.5t63 26.5q38 0 64 -26t26 -64t-26 -64t-64 -26q-37 0 -63 26zM95 693.5q26 26.5 63 26.5q38 0 64 -26t26 -64t-26 -64t-64 -26q-37 0 -63 26t-26 64q0 37 26 63.5z" />
    <glyph glyph-name="igrave" unicode="&#xec;" horiz-adv-x="278" 
d="M64 470h150v-470h-150v470zM-36 703h138l97 -163h-121z" />
    <glyph glyph-name="iacute" unicode="&#xed;" horiz-adv-x="278" 
d="M64 470h150v-470h-150v470zM175 703h138l-114 -163h-121z" />
    <glyph glyph-name="icircumflex" unicode="&#xee;" horiz-adv-x="278" 
d="M64 470h150v-470h-150v470zM91 703h96l121 -163h-113l-56 71l-56 -71h-113z" />
    <glyph glyph-name="idieresis" unicode="&#xef;" horiz-adv-x="278" 
d="M64 470h150v-470h-150v470zM186 566q-26 26 -26 64q0 37 26 63.5t63 26.5q38 0 64 -26t26 -64t-26 -64t-64 -26q-37 0 -63 26zM-34 693.5q26 26.5 63 26.5q38 0 64 -26t26 -64t-26 -64t-64 -26q-37 0 -63 26t-26 64q0 37 26 63.5z" />
    <glyph glyph-name="eth" unicode="&#xf0;" horiz-adv-x="601" 
d="M160.5 25q-64.5 35 -102.5 95.5t-38 133.5q0 69 34.5 128.5t95 96t132.5 38.5l-41 55h-168v94h98l-62 84h172l61 -84h185v-94h-117l102 -141q68 -94 68 -177q0 -74 -37.5 -134t-102 -95t-140.5 -35q-75 0 -139.5 35zM185 189.5q18 -29.5 48.5 -46.5t66.5 -17t67 17
t49 46.5t18 64.5t-18 64.5t-49 46.5t-67 17t-66.5 -17t-48.5 -46.5t-18 -64.5t18 -64.5z" />
    <glyph glyph-name="ntilde" unicode="&#xf1;" horiz-adv-x="594" 
d="M64 470h150v-50q31 30 66.5 45t82.5 15q92 0 135.5 -57t43.5 -168v-255h-150v255q0 41 -13 70t-62 29q-103 0 -103 -167v-187h-150v470zM330 542q-17 8 -37 22q-22 16 -33.5 22.5t-22.5 6.5q-14 0 -23.5 -11.5t-25.5 -40.5l-83 49q33 56 59 77t65 21q47 0 98 -38
q11 -8 20.5 -14t16.5 -6q9 0 14.5 7t14 22t12.5 23l85 -47q-32 -57 -58.5 -79t-66.5 -22q-18 0 -35 8z" />
    <glyph glyph-name="ograve" unicode="&#xf2;" horiz-adv-x="569" 
d="M147.5 18q-60.5 33 -94.5 90.5t-34 126.5t34 126.5t94.5 90.5t136.5 33t136.5 -33t94.5 -90.5t34 -126.5t-34 -126.5t-94.5 -90.5t-136.5 -33t-136.5 33zM201 152q34 -34 83 -34t83 34t34 83t-34 83t-83 34t-83 -34t-34 -83t34 -83zM110 703h138l97 -163h-121z" />
    <glyph glyph-name="oacute" unicode="&#xf3;" horiz-adv-x="569" 
d="M147.5 18q-60.5 33 -94.5 90.5t-34 126.5t34 126.5t94.5 90.5t136.5 33t136.5 -33t94.5 -90.5t34 -126.5t-34 -126.5t-94.5 -90.5t-136.5 -33t-136.5 33zM201 152q34 -34 83 -34t83 34t34 83t-34 83t-83 34t-83 -34t-34 -83t34 -83zM321 703h138l-114 -163h-121z" />
    <glyph glyph-name="ocircumflex" unicode="&#xf4;" horiz-adv-x="569" 
d="M147.5 18q-60.5 33 -94.5 90.5t-34 126.5t34 126.5t94.5 90.5t136.5 33t136.5 -33t94.5 -90.5t34 -126.5t-34 -126.5t-94.5 -90.5t-136.5 -33t-136.5 33zM201 152q34 -34 83 -34t83 34t34 83t-34 83t-83 34t-83 -34t-34 -83t34 -83zM237 703h96l121 -163h-113l-56 71
l-56 -71h-113z" />
    <glyph glyph-name="otilde" unicode="&#xf5;" horiz-adv-x="569" 
d="M147.5 18q-60.5 33 -94.5 90.5t-34 126.5t34 126.5t94.5 90.5t136.5 33t136.5 -33t94.5 -90.5t34 -126.5t-34 -126.5t-94.5 -90.5t-136.5 -33t-136.5 33zM201 152q34 -34 83 -34t83 34t34 83t-34 83t-83 34t-83 -34t-34 -83t34 -83zM317 542q-17 8 -37 22
q-22 16 -33.5 22.5t-22.5 6.5q-14 0 -23.5 -11.5t-25.5 -40.5l-83 49q33 56 59 77t65 21q47 0 98 -38q11 -8 20.5 -14t16.5 -6q9 0 14.5 7t14 22t12.5 23l85 -47q-32 -57 -58.5 -79t-66.5 -22q-18 0 -35 8z" />
    <glyph glyph-name="odieresis" unicode="&#xf6;" horiz-adv-x="569" 
d="M147.5 18q-60.5 33 -94.5 90.5t-34 126.5t34 126.5t94.5 90.5t136.5 33t136.5 -33t94.5 -90.5t34 -126.5t-34 -126.5t-94.5 -90.5t-136.5 -33t-136.5 33zM201 152q34 -34 83 -34t83 34t34 83t-34 83t-83 34t-83 -34t-34 -83t34 -83zM332 566q-26 26 -26 64q0 37 26 63.5
t63 26.5q38 0 64 -26t26 -64t-26 -64t-64 -26q-37 0 -63 26zM112 693.5q26 26.5 63 26.5q38 0 64 -26t26 -64t-26 -64t-64 -26q-37 0 -63 26t-26 64q0 37 26 63.5z" />
    <glyph glyph-name="divide" unicode="&#xf7;" horiz-adv-x="456" 
d="M31 329h394v-130h-394v130zM171.5 127q23.5 24 56.5 24t56.5 -24t23.5 -57q0 -34 -23.5 -57t-56.5 -23t-56.5 23.5t-23.5 56.5t23.5 57zM171.5 515q23.5 23 56.5 23t56.5 -23.5t23.5 -56.5t-23.5 -57t-56.5 -24t-56.5 24t-23.5 57q0 34 23.5 57z" />
    <glyph glyph-name="oslash" unicode="&#xf8;" horiz-adv-x="569" 
d="M200 -3l-33 -65h-73l46 90q-57 33 -89 89t-32 124q0 69 34 126.5t94.5 90.5t136.5 33q46 0 85 -12l33 65h73l-46 -91q56 -33 88 -89t32 -123q0 -69 -34 -126.5t-94.5 -90.5t-136.5 -33q-45 0 -84 12zM177 187.5q10 -22.5 27 -38.5l102 201q-14 2 -22 2q-49 0 -83 -34
t-34 -83q0 -25 10 -47.5zM284 118q49 0 83 34t34 83q0 25 -9.5 47t-27.5 38l-101 -200q12 -2 21 -2z" />
    <glyph glyph-name="ugrave" unicode="&#xf9;" horiz-adv-x="545" 
d="M108 47.5q-61 57.5 -61 157.5v265h150v-259q0 -42 19 -68.5t56 -26.5t56 26.5t19 68.5v259h150v-265q0 -100 -61 -157.5t-164 -57.5t-164 57.5zM97 703h138l97 -163h-121z" />
    <glyph glyph-name="uacute" unicode="&#xfa;" horiz-adv-x="545" 
d="M108 47.5q-61 57.5 -61 157.5v265h150v-259q0 -42 19 -68.5t56 -26.5t56 26.5t19 68.5v259h150v-265q0 -100 -61 -157.5t-164 -57.5t-164 57.5zM308 703h138l-114 -163h-121z" />
    <glyph glyph-name="ucircumflex" unicode="&#xfb;" horiz-adv-x="545" 
d="M108 47.5q-61 57.5 -61 157.5v265h150v-259q0 -42 19 -68.5t56 -26.5t56 26.5t19 68.5v259h150v-265q0 -100 -61 -157.5t-164 -57.5t-164 57.5zM224 703h96l121 -163h-113l-56 71l-56 -71h-113z" />
    <glyph glyph-name="udieresis" unicode="&#xfc;" horiz-adv-x="545" 
d="M108 47.5q-61 57.5 -61 157.5v265h150v-259q0 -42 19 -68.5t56 -26.5t56 26.5t19 68.5v259h150v-265q0 -100 -61 -157.5t-164 -57.5t-164 57.5zM319 566q-26 26 -26 64q0 37 26 63.5t63 26.5q38 0 64 -26t26 -64t-26 -64t-64 -26q-37 0 -63 26zM99 693.5q26 26.5 63 26.5
q38 0 64 -26t26 -64t-26 -64t-64 -26q-37 0 -63 26t-26 64q0 37 26 63.5z" />
    <glyph glyph-name="yacute" unicode="&#xfd;" horiz-adv-x="548" 
d="M202 39l-222 431h175l119 -278l130 278h162l-334 -715h-162zM311 703h138l-114 -163h-121z" />
    <glyph glyph-name="thorn" unicode="&#xfe;" horiz-adv-x="617" 
d="M276.5 7q-39.5 17 -62.5 54v-311h-150v1000h150v-340q24 36 63.5 53t85.5 17q67 0 120 -33t83 -89t30 -123t-30 -123t-83 -89t-120 -33q-47 0 -86.5 17zM248 152q34 -34 83 -34t83 34t34 83t-34 83t-83 34t-83 -34t-34 -83t34 -83z" />
    <glyph glyph-name="ydieresis" unicode="&#xff;" horiz-adv-x="548" 
d="M202 39l-222 431h175l119 -278l130 278h162l-334 -715h-162zM322 566q-26 26 -26 64q0 37 26 63.5t63 26.5q38 0 64 -26t26 -64t-26 -64t-64 -26q-37 0 -63 26zM102 693.5q26 26.5 63 26.5q38 0 64 -26t26 -64t-26 -64t-64 -26q-37 0 -63 26t-26 64q0 37 26 63.5z" />
    <glyph glyph-name="Amacron" unicode="&#x100;" horiz-adv-x="698" 
d="M303 750h93l313 -750h-163l-47 122h-299l-47 -122h-164zM446 257l-97 251l-97 -251h194zM208 915h282v-105h-282v105z" />
    <glyph glyph-name="amacron" unicode="&#x101;" horiz-adv-x="619" 
d="M136 18q-53 33 -83 90.5t-30 126.5t30 126.5t83 90.5t120 33q47 0 86.5 -17.5t62.5 -56.5v59h150v-470h-140l-9 60q-24 -40 -63.5 -57.5t-86.5 -17.5q-67 0 -120 33zM205 152q34 -34 83 -34t83 34t34 83t-34 83t-83 34t-83 -34t-34 -83t34 -83zM171 635h282v-105h-282
v105z" />
    <glyph glyph-name="Abreve" unicode="&#x102;" horiz-adv-x="698" 
d="M303 750h93l313 -750h-163l-47 122h-299l-47 -122h-164zM446 257l-97 251l-97 -251h194zM221.5 831.5q-57.5 34.5 -57.5 120.5h112q0 -38 21 -55t52 -17t52 17t21 55h112q0 -86 -57.5 -120.5t-127.5 -34.5t-127.5 34.5z" />
    <glyph glyph-name="abreve" unicode="&#x103;" horiz-adv-x="619" 
d="M136 18q-53 33 -83 90.5t-30 126.5t30 126.5t83 90.5t120 33q47 0 86.5 -17.5t62.5 -56.5v59h150v-470h-140l-9 60q-24 -40 -63.5 -57.5t-86.5 -17.5q-67 0 -120 33zM205 152q34 -34 83 -34t83 34t34 83t-34 83t-83 34t-83 -34t-34 -83t34 -83zM184 567.5
q-57 37.5 -57 135.5h112q0 -90 73 -90t73 90h112q0 -98 -57 -135.5t-128 -37.5t-128 37.5z" />
    <glyph glyph-name="Aogonek" unicode="&#x104;" horiz-adv-x="698" 
d="M303 750h93l313 -750q-37 -13 -58.5 -31t-21.5 -35q0 -16 20 -26t60 -10v-92q-90 0 -131.5 27t-41.5 71q0 60 78 96h-68l-47 122h-299l-47 -122h-164zM446 257l-97 251l-97 -251h194z" />
    <glyph glyph-name="aogonek" unicode="&#x105;" horiz-adv-x="619" 
d="M136 18q-53 33 -83 90.5t-30 126.5t30 126.5t83 90.5t120 33q47 0 86.5 -17.5t62.5 -56.5v59h150v-470q-37 -13 -58.5 -31t-21.5 -35q0 -16 20 -26t60 -10v-92q-90 0 -131.5 27t-41.5 71q0 60 78 96h-45l-9 60q-24 -40 -63.5 -57.5t-86.5 -17.5q-67 0 -120 33zM205 152
q34 -34 83 -34t83 34t34 83t-34 83t-83 34t-83 -34t-34 -83t34 -83z" />
    <glyph glyph-name="Cacute" unicode="&#x106;" horiz-adv-x="712" 
d="M215.5 37q-88.5 52 -141 141.5t-52.5 196.5t52.5 196.5t141.5 141.5t193 52q89 0 167 -38t132 -104l-109 -104q-33 44 -83 70t-107 26q-65 0 -119 -32t-86 -87t-32 -121t32 -121t86.5 -87t118.5 -32q57 0 107.5 26.5t84.5 71.5l110 -103q-54 -67 -133 -106t-169 -39
q-105 0 -193.5 52zM428 952h143l-116 -142h-111z" />
    <glyph glyph-name="cacute" unicode="&#x107;" horiz-adv-x="496" 
d="M147.5 18q-60.5 33 -94.5 90.5t-34 126.5t34 126.5t94.5 90.5t136.5 33q130 0 207 -102l-110 -82q-16 24 -41.5 37.5t-55.5 13.5q-49 0 -83 -34t-34 -83t34 -83t83 -34q30 0 56 14.5t42 38.5l108 -85q-76 -101 -206 -101q-76 0 -136.5 33zM318 703h138l-114 -163h-121z
" />
    <glyph glyph-name="Cdotaccent" unicode="&#x10a;" horiz-adv-x="712" 
d="M215.5 37q-88.5 52 -141 141.5t-52.5 196.5t52.5 196.5t141.5 141.5t193 52q89 0 167 -38t132 -104l-109 -104q-33 44 -83 70t-107 26q-65 0 -119 -32t-86 -87t-32 -121t32 -121t86.5 -87t118.5 -32q57 0 107.5 26.5t84.5 71.5l110 -103q-54 -67 -133 -106t-169 -39
q-105 0 -193.5 52zM343 816q-22 22 -22 56t22 57t57 23q34 0 56 -23t22 -57t-22 -56t-56 -22q-35 0 -57 22z" />
    <glyph glyph-name="cdotaccent" unicode="&#x10b;" horiz-adv-x="496" 
d="M147.5 18q-60.5 33 -94.5 90.5t-34 126.5t34 126.5t94.5 90.5t136.5 33q130 0 207 -102l-110 -82q-16 24 -41.5 37.5t-55.5 13.5q-49 0 -83 -34t-34 -83t34 -83t83 -34q30 0 56 14.5t42 38.5l108 -85q-76 -101 -206 -101q-76 0 -136.5 33zM218 566q-26 26 -26 64
q0 37 26 63.5t63 26.5q38 0 64 -26t26 -64t-26 -64t-64 -26q-37 0 -63 26z" />
    <glyph glyph-name="Ccaron" unicode="&#x10c;" horiz-adv-x="712" 
d="M215.5 37q-88.5 52 -141 141.5t-52.5 196.5t52.5 196.5t141.5 141.5t193 52q89 0 167 -38t132 -104l-109 -104q-33 44 -83 70t-107 26q-65 0 -119 -32t-86 -87t-32 -121t32 -121t86.5 -87t118.5 -32q57 0 107.5 26.5t84.5 71.5l110 -103q-54 -67 -133 -106t-169 -39
q-105 0 -193.5 52zM211 952h123l66 -79l66 79h123l-117 -142h-144z" />
    <glyph glyph-name="ccaron" unicode="&#x10d;" horiz-adv-x="496" 
d="M147.5 18q-60.5 33 -94.5 90.5t-34 126.5t34 126.5t94.5 90.5t136.5 33q130 0 207 -102l-110 -82q-16 24 -41.5 37.5t-55.5 13.5q-49 0 -83 -34t-34 -83t34 -83t83 -34q30 0 56 14.5t42 38.5l108 -85q-76 -101 -206 -101q-76 0 -136.5 33zM113 703h113l56 -71l56 71h113
l-121 -163h-96z" />
    <glyph glyph-name="Dcaron" unicode="&#x10e;" horiz-adv-x="733" 
d="M80 750h206q125 0 221 -44.5t149.5 -129t53.5 -199.5q0 -116 -53.5 -201.5t-149 -130.5t-221.5 -45h-206v750zM286 140q131 0 202.5 60.5t71.5 176.5q0 115 -71 174t-203 59h-55v-470h55zM97 952h123l66 -79l66 79h123l-117 -142h-144z" />
    <glyph glyph-name="dcaron" unicode="&#x10f;" horiz-adv-x="618" 
d="M136 18.5q-53 33.5 -83.5 90.5t-30.5 126q0 67 30 124.5t83.5 91.5t119.5 34q45 0 85 -18.5t64 -55.5v339h150v-750h-140l-9 62q-24 -39 -64.5 -58t-87.5 -19q-64 0 -117 33.5zM204 152q34 -34 83 -34t83 34t34 83t-34 83t-83 34t-83 -34t-34 -83t34 -83zM631 750h134
l-80 -218h-98z" />
    <glyph glyph-name="Dcroat" unicode="&#x110;" horiz-adv-x="733" 
d="M80 310h-62v130h62v310h206q125 0 221 -44.5t149.5 -129t53.5 -199.5q0 -116 -53.5 -201.5t-149 -130.5t-221.5 -45h-206v310zM286 140q131 0 202.5 60.5t71.5 176.5q0 115 -71 174t-203 59h-55v-170h92v-130h-92v-170h55z" />
    <glyph glyph-name="dcroat" unicode="&#x111;" horiz-adv-x="618" 
d="M136 18.5q-53 33.5 -83.5 90.5t-30.5 126q0 67 30 124.5t83.5 91.5t119.5 34q45 0 85 -18.5t64 -55.5v172h-93v94h93v73h150v-73h62v-94h-62v-583h-140l-9 62q-24 -39 -64.5 -58t-87.5 -19q-64 0 -117 33.5zM204 152q34 -34 83 -34t83 34t34 83t-34 83t-83 34t-83 -34
t-34 -83t34 -83z" />
    <glyph glyph-name="Emacron" unicode="&#x112;" horiz-adv-x="585" 
d="M80 750h457v-140h-307v-163h268v-140h-268v-167h307v-140h-457v750zM168 915h282v-105h-282v105z" />
    <glyph glyph-name="emacron" unicode="&#x113;" horiz-adv-x="529" 
d="M150 14.5q-60 29.5 -94.5 86t-34.5 134.5q0 69 33 126t89 90.5t123 33.5q121 0 183 -74t62 -196h-340q4 -48 33 -71.5t77 -23.5q34 0 60 13.5t48 41.5l101 -76q-35 -55 -88.5 -84.5t-115.5 -29.5q-76 0 -136 29.5zM365 297q-6 33 -32 53.5t-59 20.5q-74 0 -95 -74h186z
M127 635h282v-105h-282v105z" />
    <glyph glyph-name="Edotaccent" unicode="&#x116;" horiz-adv-x="585" 
d="M80 750h457v-140h-307v-163h268v-140h-268v-167h307v-140h-457v750zM252 816q-22 22 -22 56t22 57t57 23q34 0 56 -23t22 -57t-22 -56t-56 -22q-35 0 -57 22z" />
    <glyph glyph-name="edotaccent" unicode="&#x117;" horiz-adv-x="529" 
d="M150 14.5q-60 29.5 -94.5 86t-34.5 134.5q0 69 33 126t89 90.5t123 33.5q121 0 183 -74t62 -196h-340q4 -48 33 -71.5t77 -23.5q34 0 60 13.5t48 41.5l101 -76q-35 -55 -88.5 -84.5t-115.5 -29.5q-76 0 -136 29.5zM365 297q-6 33 -32 53.5t-59 20.5q-74 0 -95 -74h186z
M204 566q-26 26 -26 64q0 37 26 63.5t63 26.5q38 0 64 -26t26 -64t-26 -64t-64 -26q-37 0 -63 26z" />
    <glyph glyph-name="Eogonek" unicode="&#x118;" horiz-adv-x="585" 
d="M80 750h457v-140h-307v-163h268v-140h-268v-167h307v-140q-37 -13 -58.5 -31t-21.5 -35q0 -16 20 -26t60 -10v-92q-90 0 -131.5 27t-41.5 71q0 60 78 96h-362v750z" />
    <glyph glyph-name="eogonek" unicode="&#x119;" horiz-adv-x="529" 
d="M255.5 -154q-41.5 27 -41.5 71q0 40 35 70q-102 10 -165 75t-63 173q0 69 33 126t89 90.5t123 33.5q121 0 183 -74t62 -196h-340q4 -48 33 -71.5t77 -23.5q34 0 60 13.5t48 41.5l101 -76q-27 -42 -65.5 -69.5t-83.5 -38.5q-34 -22 -34 -44q0 -16 20 -26t60 -10v-92
q-90 0 -131.5 27zM365 297q-6 33 -32 53.5t-59 20.5q-74 0 -95 -74h186z" />
    <glyph glyph-name="Ecaron" unicode="&#x11a;" horiz-adv-x="585" 
d="M80 750h457v-140h-307v-163h268v-140h-268v-167h307v-140h-457v750zM120 952h123l66 -79l66 79h123l-117 -142h-144z" />
    <glyph glyph-name="ecaron" unicode="&#x11b;" horiz-adv-x="529" 
d="M150 14.5q-60 29.5 -94.5 86t-34.5 134.5q0 69 33 126t89 90.5t123 33.5q121 0 183 -74t62 -196h-340q4 -48 33 -71.5t77 -23.5q34 0 60 13.5t48 41.5l101 -76q-35 -55 -88.5 -84.5t-115.5 -29.5q-76 0 -136 29.5zM365 297q-6 33 -32 53.5t-59 20.5q-74 0 -95 -74h186z
M99 703h113l56 -71l56 71h113l-121 -163h-96z" />
    <glyph glyph-name="Gbreve" unicode="&#x11e;" horiz-adv-x="775" 
d="M216.5 37q-88.5 52 -141 141.5t-52.5 196.5t52.5 196.5t141.5 141.5t193 52q89 0 167 -38t132 -104l-109 -104q-33 44 -83 70t-107 26q-65 0 -119 -32t-86 -87t-32 -121t32 -121t86.5 -87t118.5 -32q46 0 87.5 17t74.5 48v85h-165v140h315v-425h-140l-6 40
q-61 -55 -166 -55t-193.5 52zM257.5 831.5q-57.5 34.5 -57.5 120.5h112q0 -38 21 -55t52 -17t52 17t21 55h112q0 -86 -57.5 -120.5t-127.5 -34.5t-127.5 34.5z" />
    <glyph glyph-name="gbreve" unicode="&#x11f;" horiz-adv-x="618" 
d="M129.5 -215q-66.5 29 -103.5 85l112 79q23 -32 60 -49.5t78 -17.5q57 0 92.5 32t35.5 89v55q-24 -38 -63 -55.5t-86 -17.5q-67 0 -120 33t-83 90.5t-30 126.5t30 126.5t83 90.5t120 33q47 0 86.5 -17.5t62.5 -56.5v59h150v-457q0 -79 -38 -137.5t-103 -89t-144 -30.5
q-73 0 -139.5 29zM204 152q34 -34 83 -34t83 34t34 83t-34 83t-83 34t-83 -34t-34 -83t34 -83zM183 567.5q-57 37.5 -57 135.5h112q0 -90 73 -90t73 90h112q0 -98 -57 -135.5t-128 -37.5t-128 37.5z" />
    <glyph glyph-name="Gdotaccent" unicode="&#x120;" horiz-adv-x="775" 
d="M216.5 37q-88.5 52 -141 141.5t-52.5 196.5t52.5 196.5t141.5 141.5t193 52q89 0 167 -38t132 -104l-109 -104q-33 44 -83 70t-107 26q-65 0 -119 -32t-86 -87t-32 -121t32 -121t86.5 -87t118.5 -32q46 0 87.5 17t74.5 48v85h-165v140h315v-425h-140l-6 40
q-61 -55 -166 -55t-193.5 52zM328 816q-22 22 -22 56t22 57t57 23q34 0 56 -23t22 -57t-22 -56t-56 -22q-35 0 -57 22z" />
    <glyph glyph-name="gdotaccent" unicode="&#x121;" horiz-adv-x="618" 
d="M129.5 -215q-66.5 29 -103.5 85l112 79q23 -32 60 -49.5t78 -17.5q57 0 92.5 32t35.5 89v55q-24 -38 -63 -55.5t-86 -17.5q-67 0 -120 33t-83 90.5t-30 126.5t30 126.5t83 90.5t120 33q47 0 86.5 -17.5t62.5 -56.5v59h150v-457q0 -79 -38 -137.5t-103 -89t-144 -30.5
q-73 0 -139.5 29zM204 152q34 -34 83 -34t83 34t34 83t-34 83t-83 34t-83 -34t-34 -83t34 -83zM247 566q-26 26 -26 64q0 37 26 63.5t63 26.5q38 0 64 -26t26 -64t-26 -64t-64 -26q-37 0 -63 26z" />
    <glyph glyph-name="uni0122" unicode="&#x122;" horiz-adv-x="775" 
d="M216.5 37q-88.5 52 -141 141.5t-52.5 196.5t52.5 196.5t141.5 141.5t193 52q89 0 167 -38t132 -104l-109 -104q-33 44 -83 70t-107 26q-65 0 -119 -32t-86 -87t-32 -121t32 -121t86.5 -87t118.5 -32q46 0 87.5 17t74.5 48v85h-165v140h315v-425h-140l-6 40
q-61 -55 -166 -55t-193.5 52zM316 -64h138l-102 -146h-103z" />
    <glyph glyph-name="uni0123" unicode="&#x123;" horiz-adv-x="618" 
d="M129.5 -215q-66.5 29 -103.5 85l112 79q23 -32 60 -49.5t78 -17.5q57 0 92.5 32t35.5 89v55q-24 -38 -63 -55.5t-86 -17.5q-67 0 -120 33t-83 90.5t-30 126.5t30 126.5t83 90.5t120 33q47 0 86.5 -17.5t62.5 -56.5v59h150v-457q0 -79 -38 -137.5t-103 -89t-144 -30.5
q-73 0 -139.5 29zM204 152q34 -34 83 -34t83 34t34 83t-34 83t-83 34t-83 -34t-34 -83t34 -83zM380 557h-138l102 146h103z" />
    <glyph glyph-name="Hbar" unicode="&#x126;" horiz-adv-x="772" 
d="M80 556h-57v94h57v100h150v-100h312v100h150v-100h57v-94h-57v-556h-150v308h-312v-308h-150v556zM542 448v108h-312v-108h312z" />
    <glyph glyph-name="hbar" unicode="&#x127;" horiz-adv-x="595" 
d="M64 564h-57v94h57v92h150v-92h98v-94h-98v-139q31 30 66.5 45t82.5 15q92 0 135.5 -57t43.5 -168v-260h-150v260q0 41 -13 70t-62 29q-103 0 -103 -167v-192h-150v564z" />
    <glyph glyph-name="Imacron" unicode="&#x12a;" horiz-adv-x="310" 
d="M80 750h150v-750h-150v750zM14 915h282v-105h-282v105z" />
    <glyph glyph-name="imacron" unicode="&#x12b;" horiz-adv-x="278" 
d="M64 470h150v-470h-150v470zM-2 635h282v-105h-282v105z" />
    <glyph glyph-name="Iogonek" unicode="&#x12e;" horiz-adv-x="310" 
d="M80 750h150v-750q-37 -13 -58.5 -31t-21.5 -35q0 -16 20 -26t60 -10v-92q-90 0 -131.5 27t-41.5 71q0 60 78 96h-55v750z" />
    <glyph glyph-name="iogonek" unicode="&#x12f;" horiz-adv-x="278" 
d="M64 470h150v-470q-37 -13 -58.5 -31t-21.5 -35q0 -16 20 -26t60 -10v-92q-90 0 -131.5 27t-41.5 71q0 60 78 96h-55v470zM75 693.5q26 26.5 63 26.5q38 0 64 -26t26 -64t-26 -64t-64 -26q-37 0 -63 26t-26 64q0 37 26 63.5z" />
    <glyph glyph-name="Idotaccent" unicode="&#x130;" horiz-adv-x="310" 
d="M80 750h150v-750h-150v750zM98 816q-22 22 -22 56t22 57t57 23q34 0 56 -23t22 -57t-22 -56t-56 -22q-35 0 -57 22z" />
    <glyph glyph-name="dotlessi" unicode="&#x131;" horiz-adv-x="278" 
d="M64 470h150v-470h-150v470z" />
    <glyph glyph-name="uni0136" unicode="&#x136;" horiz-adv-x="687" 
d="M230 308v-308h-150v750h150v-334l286 334h182l-337 -384l333 -366h-191zM298 -64h138l-102 -146h-103z" />
    <glyph glyph-name="uni0137" unicode="&#x137;" horiz-adv-x="538" 
d="M214 202v-202h-150v750h150v-482l152 202h184l-196 -235l196 -235h-184zM221 -64h138l-102 -146h-103z" />
    <glyph glyph-name="Lacute" unicode="&#x139;" horiz-adv-x="514" 
d="M80 750h150v-610h286v-140h-436v750zM183 952h143l-116 -142h-111z" />
    <glyph glyph-name="lacute" unicode="&#x13a;" horiz-adv-x="278" 
d="M64 750h150v-750h-150v750zM167 952h143l-116 -142h-111z" />
    <glyph glyph-name="uni013B" unicode="&#x13b;" horiz-adv-x="514" 
d="M80 750h150v-610h286v-140h-436v750zM229 -64h138l-102 -146h-103z" />
    <glyph glyph-name="uni013C" unicode="&#x13c;" horiz-adv-x="278" 
d="M64 750h150v-750h-150v750zM70 -64h138l-102 -146h-103z" />
    <glyph glyph-name="Lcaron" unicode="&#x13d;" horiz-adv-x="514" 
d="M80 750h150v-610h286v-140h-436v750zM373 750h134l-80 -218h-98z" />
    <glyph glyph-name="lcaron" unicode="&#x13e;" horiz-adv-x="278" 
d="M64 750h150v-750h-150v750zM295 750h134l-80 -218h-98z" />
    <glyph glyph-name="Lslash" unicode="&#x141;" horiz-adv-x="514" 
d="M80 204l-66 -39v114l66 39v432h150v-344l147 87v-115l-147 -86v-152h286v-140h-436v204z" />
    <glyph glyph-name="lslash" unicode="&#x142;" horiz-adv-x="278" 
d="M64 269l-43 -25l-56 99l99 59v348h150v-260l60 36l58 -101l-118 -69v-356h-150v269z" />
    <glyph glyph-name="Nacute" unicode="&#x143;" horiz-adv-x="795" 
d="M80 750h80l409 -464v464h146v-750h-85l-404 452v-452h-146v750zM426 952h143l-116 -142h-111z" />
    <glyph glyph-name="nacute" unicode="&#x144;" horiz-adv-x="594" 
d="M64 470h150v-50q31 30 66.5 45t82.5 15q92 0 135.5 -57t43.5 -168v-255h-150v255q0 41 -13 70t-62 29q-103 0 -103 -167v-187h-150v470zM334 703h138l-114 -163h-121z" />
    <glyph glyph-name="uni0145" unicode="&#x145;" horiz-adv-x="795" 
d="M80 750h80l409 -464v464h146v-750h-85l-404 452v-452h-146v750zM329 -64h138l-102 -146h-103z" />
    <glyph glyph-name="uni0146" unicode="&#x146;" horiz-adv-x="594" 
d="M64 470h150v-50q31 30 66.5 45t82.5 15q92 0 135.5 -57t43.5 -168v-255h-150v255q0 41 -13 70t-62 29q-103 0 -103 -167v-187h-150v470zM234 -64h138l-102 -146h-103z" />
    <glyph glyph-name="Ncaron" unicode="&#x147;" horiz-adv-x="795" 
d="M80 750h80l409 -464v464h146v-750h-85l-404 452v-452h-146v750zM209 952h123l66 -79l66 79h123l-117 -142h-144z" />
    <glyph glyph-name="ncaron" unicode="&#x148;" horiz-adv-x="594" 
d="M64 470h150v-50q31 30 66.5 45t82.5 15q92 0 135.5 -57t43.5 -168v-255h-150v255q0 41 -13 70t-62 29q-103 0 -103 -167v-187h-150v470zM129 703h113l56 -71l56 71h113l-121 -163h-96z" />
    <glyph glyph-name="Eng" unicode="&#x14a;" horiz-adv-x="795" 
d="M479 -244v136h11q20 -13 38 -13q37 0 37 47v147l-339 379v-452h-146v750h80l409 -464v464h146v-829q0 -85 -45.5 -129.5t-121.5 -44.5q-30 0 -69 9z" />
    <glyph glyph-name="eng" unicode="&#x14b;" horiz-adv-x="594" 
d="M64 470h150v-50q63 60 141 60q98 0 142.5 -55.5t44.5 -169.5v-331q0 -85 -45.5 -129.5t-121.5 -44.5h-69v132h39q26 0 36.5 12t10.5 35v326q0 50 -17 74.5t-57 24.5q-44 0 -74 -35t-30 -84v-235h-150v470z" />
    <glyph glyph-name="Omacron" unicode="&#x14c;" horiz-adv-x="826" 
d="M217.5 36.5q-89.5 51.5 -142 141t-52.5 197.5t52.5 197.5t142 141t195.5 51.5t195.5 -51.5t142 -141t52.5 -197.5t-52.5 -197.5t-142 -141t-195.5 -51.5t-195.5 51.5zM205 252.5q32 -54.5 87 -86t121 -31.5t121 31.5t87 86t32 122.5t-32 122.5t-87 86t-121 31.5
t-121 -31.5t-87 -86t-32 -122.5t32 -122.5zM272 915h282v-105h-282v105z" />
    <glyph glyph-name="omacron" unicode="&#x14d;" horiz-adv-x="569" 
d="M147.5 18q-60.5 33 -94.5 90.5t-34 126.5t34 126.5t94.5 90.5t136.5 33t136.5 -33t94.5 -90.5t34 -126.5t-34 -126.5t-94.5 -90.5t-136.5 -33t-136.5 33zM201 152q34 -34 83 -34t83 34t34 83t-34 83t-83 34t-83 -34t-34 -83t34 -83zM144 635h282v-105h-282v105z" />
    <glyph glyph-name="Ohungarumlaut" unicode="&#x150;" horiz-adv-x="826" 
d="M217.5 36.5q-89.5 51.5 -142 141t-52.5 197.5t52.5 197.5t142 141t195.5 51.5t195.5 -51.5t142 -141t52.5 -197.5t-52.5 -197.5t-142 -141t-195.5 -51.5t-195.5 51.5zM205 252.5q32 -54.5 87 -86t121 -31.5t121 31.5t87 86t32 122.5t-32 122.5t-87 86t-121 31.5
t-121 -31.5t-87 -86t-32 -122.5t32 -122.5zM549 952h143l-116 -142h-111zM334 952h143l-116 -142h-111z" />
    <glyph glyph-name="ohungarumlaut" unicode="&#x151;" horiz-adv-x="569" 
d="M147.5 18q-60.5 33 -94.5 90.5t-34 126.5t34 126.5t94.5 90.5t136.5 33t136.5 -33t94.5 -90.5t34 -126.5t-34 -126.5t-94.5 -90.5t-136.5 -33t-136.5 33zM201 152q34 -34 83 -34t83 34t34 83t-34 83t-83 34t-83 -34t-34 -83t34 -83zM434 703h147l-133 -163h-111zM219 703
h147l-133 -163h-111z" />
    <glyph glyph-name="OE" unicode="&#x152;" horiz-adv-x="1153" 
d="M217.5 36.5q-89.5 51.5 -142 141t-52.5 197.5t52.5 197.5t142 141t195.5 51.5q65 0 125 -20t110 -57v62h457v-140h-307v-163h268v-140h-268v-167h307v-140h-457v62q-50 -37 -110 -57t-125 -20q-106 0 -195.5 51.5zM205 252.5q32 -54.5 87 -86t121 -31.5q57 0 106.5 24
t83.5 67t45 98v102q-11 55 -45 98t-83.5 67t-106.5 24q-66 0 -121 -31.5t-87 -86t-32 -122.5t32 -122.5z" />
    <glyph glyph-name="oe" unicode="&#x153;" horiz-adv-x="912" 
d="M559.5 3q-50.5 18 -86.5 53q-36 -34 -84 -52.5t-105 -18.5q-76 0 -136.5 33t-94.5 90.5t-34 126.5t34 126.5t94.5 90.5t136.5 33q57 0 106 -19t85 -54q35 35 79.5 54t94.5 19q121 0 183 -74t62 -196h-340q4 -48 33 -71.5t77 -23.5q34 0 60 13.5t48 41.5l101 -76
q-35 -55 -88.5 -84.5t-115.5 -29.5q-59 0 -109.5 18zM201 152q34 -34 83 -34t83 34t34 83t-34 83t-83 34t-83 -34t-34 -83t34 -83zM748 297q-6 33 -32 53.5t-59 20.5q-74 0 -95 -74h186z" />
    <glyph glyph-name="Racute" unicode="&#x154;" horiz-adv-x="659" 
d="M80 750h313q69 0 119 -32.5t76 -85.5t26 -114q0 -70 -33 -128t-94 -85l160 -305h-169l-142 286h-106v-286h-150v750zM366 426q47 0 72.5 27.5t25.5 68.5q0 40 -25 64t-73 24h-136v-184h136zM397 952h143l-116 -142h-111z" />
    <glyph glyph-name="racute" unicode="&#x155;" horiz-adv-x="379" 
d="M64 470h150v-51q40 61 112 61q24 0 43 -10v-136h-5q-28 14 -57 14q-42 0 -67.5 -32t-25.5 -96v-215l-150 -5v470zM253 703h138l-114 -163h-121z" />
    <glyph glyph-name="uni0156" unicode="&#x156;" horiz-adv-x="659" 
d="M80 750h313q69 0 119 -32.5t76 -85.5t26 -114q0 -70 -33 -128t-94 -85l160 -305h-169l-142 286h-106v-286h-150v750zM366 426q47 0 72.5 27.5t25.5 68.5q0 40 -25 64t-73 24h-136v-184h136zM300 -64h138l-102 -146h-103z" />
    <glyph glyph-name="uni0157" unicode="&#x157;" horiz-adv-x="379" 
d="M64 470h150v-51q40 61 112 61q24 0 43 -10v-136h-5q-28 14 -57 14q-42 0 -67.5 -32t-25.5 -96v-215l-150 -5v470zM148 -64h138l-102 -146h-103z" />
    <glyph glyph-name="Rcaron" unicode="&#x158;" horiz-adv-x="659" 
d="M80 750h313q69 0 119 -32.5t76 -85.5t26 -114q0 -70 -33 -128t-94 -85l160 -305h-169l-142 286h-106v-286h-150v750zM366 426q47 0 72.5 27.5t25.5 68.5q0 40 -25 64t-73 24h-136v-184h136zM180 952h123l66 -79l66 79h123l-117 -142h-144z" />
    <glyph glyph-name="rcaron" unicode="&#x159;" horiz-adv-x="379" 
d="M64 470h150v-51q40 61 112 61q24 0 43 -10v-136h-5q-28 14 -57 14q-42 0 -67.5 -32t-25.5 -96v-215l-150 -5v470zM48 703h113l56 -71l56 71h113l-121 -163h-96z" />
    <glyph glyph-name="Sacute" unicode="&#x15a;" horiz-adv-x="567" 
d="M110.5 31.5q-73.5 46.5 -98.5 129.5l132 60q12 -48 52.5 -76t91.5 -28q47 0 76.5 21t29.5 60q0 42 -27 64t-93 47q-67 25 -112.5 50t-80 72.5t-34.5 120.5q0 64 33 112.5t89 74.5t122 26q76 0 141.5 -36.5t97.5 -112.5l-133 -60q-13 34 -41.5 54.5t-65.5 20.5t-66 -20.5
t-29 -53.5q0 -29 21 -51.5t52.5 -38.5t83.5 -37q58 -23 98.5 -49t67 -69t26.5 -106q0 -72 -35.5 -122t-94.5 -74.5t-130 -24.5q-100 0 -173.5 46.5zM313 952h143l-116 -142h-111z" />
    <glyph glyph-name="sacute" unicode="&#x15b;" horiz-adv-x="491" 
d="M112 17.5q-68 32.5 -101 103.5l139 47q34 -59 102 -59q25 0 41 7.5t16 22.5q0 18 -21 28t-63 20q-55 13 -92 26.5t-64 44t-27 80.5q0 74 57 110.5t142 36.5q72 0 129.5 -28.5t83.5 -91.5l-147 -38q-8 22 -27.5 34.5t-45.5 12.5q-21 0 -35.5 -8t-14.5 -21
q0 -14 18.5 -21.5t60.5 -16.5l20 -5q52 -12 89.5 -28.5t64 -49t26.5 -85.5q0 -79 -57 -116.5t-145 -37.5q-81 0 -149 32.5zM275 703h138l-114 -163h-121z" />
    <glyph glyph-name="Scedilla" unicode="&#x15e;" horiz-adv-x="567" 
d="M289 -116q0 42 -62 42l15 61q-85 9 -146.5 54.5t-83.5 119.5l132 60q12 -48 52.5 -76t91.5 -28q47 0 76.5 21t29.5 60q0 42 -27 64t-93 47q-67 25 -112.5 50t-80 72.5t-34.5 120.5q0 64 33 112.5t89 74.5t122 26q76 0 141.5 -36.5t97.5 -112.5l-133 -60
q-13 34 -41.5 54.5t-65.5 20.5t-66 -20.5t-29 -53.5q0 -29 21 -51.5t52.5 -38.5t83.5 -37q58 -23 98.5 -49t67 -69t26.5 -106q0 -98 -63.5 -154.5t-162.5 -65.5l-8 -30q36 -5 60 -25t24 -56q0 -52 -49.5 -84.5t-153.5 -32.5l20 83q78 0 78 43z" />
    <glyph glyph-name="scedilla" unicode="&#x15f;" horiz-adv-x="491" 
d="M249 -116q0 42 -62 42l16 63q-64 10 -114.5 42t-77.5 90l139 47q34 -59 102 -59q25 0 41 7.5t16 22.5q0 18 -21 28t-63 20q-55 13 -92 26.5t-64 44t-27 80.5q0 74 57 110.5t142 36.5q72 0 129.5 -28.5t83.5 -91.5l-147 -38q-8 22 -27.5 34.5t-45.5 12.5q-21 0 -35.5 -8
t-14.5 -21q0 -14 18.5 -21.5t60.5 -16.5l20 -5q52 -12 89.5 -28.5t64 -49t26.5 -85.5q0 -75 -52 -112.5t-133 -41.5l-8 -29q36 -5 60 -25t24 -56q0 -52 -49.5 -84.5t-153.5 -32.5l20 83q78 0 78 43z" />
    <glyph glyph-name="Scaron" unicode="&#x160;" horiz-adv-x="567" 
d="M110.5 31.5q-73.5 46.5 -98.5 129.5l132 60q12 -48 52.5 -76t91.5 -28q47 0 76.5 21t29.5 60q0 42 -27 64t-93 47q-67 25 -112.5 50t-80 72.5t-34.5 120.5q0 64 33 112.5t89 74.5t122 26q76 0 141.5 -36.5t97.5 -112.5l-133 -60q-13 34 -41.5 54.5t-65.5 20.5t-66 -20.5
t-29 -53.5q0 -29 21 -51.5t52.5 -38.5t83.5 -37q58 -23 98.5 -49t67 -69t26.5 -106q0 -72 -35.5 -122t-94.5 -74.5t-130 -24.5q-100 0 -173.5 46.5zM96 952h123l66 -79l66 79h123l-117 -142h-144z" />
    <glyph glyph-name="scaron" unicode="&#x161;" horiz-adv-x="491" 
d="M112 17.5q-68 32.5 -101 103.5l139 47q34 -59 102 -59q25 0 41 7.5t16 22.5q0 18 -21 28t-63 20q-55 13 -92 26.5t-64 44t-27 80.5q0 74 57 110.5t142 36.5q72 0 129.5 -28.5t83.5 -91.5l-147 -38q-8 22 -27.5 34.5t-45.5 12.5q-21 0 -35.5 -8t-14.5 -21
q0 -14 18.5 -21.5t60.5 -16.5l20 -5q52 -12 89.5 -28.5t64 -49t26.5 -85.5q0 -79 -57 -116.5t-145 -37.5q-81 0 -149 32.5zM70 703h113l56 -71l56 71h113l-121 -163h-96z" />
    <glyph glyph-name="uni0162" unicode="&#x162;" horiz-adv-x="577" 
d="M213 610h-216v140h583v-140h-216v-610h-39l-11 -44q36 -5 60 -25t24 -56q0 -52 -49.5 -84.5t-153.5 -32.5l20 83q78 0 78 43q0 42 -62 42l19 74h-37v610z" />
    <glyph glyph-name="uni0163" unicode="&#x163;" horiz-adv-x="344" 
d="M97 347h-90v123h90v170h150v-170h90v-123h-90v-347h-39l-11 -44q36 -5 60 -25t24 -56q0 -52 -49.5 -84.5t-153.5 -32.5l20 83q78 0 78 43q0 42 -62 42l19 74h-36v347z" />
    <glyph glyph-name="Tcaron" unicode="&#x164;" horiz-adv-x="577" 
d="M213 610h-216v140h583v-140h-216v-610h-151v610zM100 952h123l66 -79l66 79h123l-117 -142h-144z" />
    <glyph glyph-name="tcaron" unicode="&#x165;" horiz-adv-x="344" 
d="M97 347h-90v123h90v170h150v-170h90v-123h-90v-347h-150v347zM339 750h134l-80 -218h-98z" />
    <glyph glyph-name="Tbar" unicode="&#x166;" horiz-adv-x="577" 
d="M213 310h-77v130h77v170h-216v140h583v-140h-216v-170h77v-130h-77v-310h-151v310z" />
    <glyph glyph-name="tbar" unicode="&#x167;" horiz-adv-x="344" 
d="M97 150h-78v94h78v103h-90v123h90v170h150v-170h90v-123h-90v-103h77v-94h-77v-150h-150v150z" />
    <glyph glyph-name="Umacron" unicode="&#x16a;" horiz-adv-x="730" 
d="M213 13q-68 28 -108 87t-40 149v501h153v-481q0 -137 147 -137q72 0 109.5 33t37.5 104v481h153v-501q0 -133 -84 -198.5t-216 -65.5q-84 0 -152 28zM224 915h282v-105h-282v105z" />
    <glyph glyph-name="umacron" unicode="&#x16b;" horiz-adv-x="545" 
d="M108 47.5q-61 57.5 -61 157.5v265h150v-259q0 -42 19 -68.5t56 -26.5t56 26.5t19 68.5v259h150v-265q0 -100 -61 -157.5t-164 -57.5t-164 57.5zM131 635h282v-105h-282v105z" />
    <glyph glyph-name="Uring" unicode="&#x16e;" horiz-adv-x="730" 
d="M213 13q-68 28 -108 87t-40 149v501h153v-481q0 -137 147 -137q72 0 109.5 33t37.5 104v481h153v-501q0 -133 -84 -198.5t-216 -65.5q-84 0 -152 28zM286.5 757.5q-32.5 32.5 -32.5 78.5q0 45 32.5 78t78.5 33t78.5 -33t32.5 -78q0 -46 -32 -78.5t-79 -32.5
q-46 0 -78.5 32.5zM339 810q11 -11 26 -11t26 11t11 26t-11 26t-26 11t-26 -11t-11 -26t11 -26z" />
    <glyph glyph-name="uring" unicode="&#x16f;" horiz-adv-x="545" 
d="M108 47.5q-61 57.5 -61 157.5v265h150v-259q0 -42 19 -68.5t56 -26.5t56 26.5t19 68.5v259h150v-265q0 -100 -61 -157.5t-164 -57.5t-164 57.5zM187 556.5q-35 34.5 -35 83.5q0 50 35 85t85 35t85 -35t35 -85q0 -49 -35 -83.5t-85 -34.5t-85 34.5zM240.5 609.5
q12.5 -12.5 31.5 -12.5q18 0 31 12.5t13 30.5q0 19 -13 32t-31 13q-19 0 -31.5 -13t-12.5 -32q0 -18 12.5 -30.5z" />
    <glyph glyph-name="Uhungarumlaut" unicode="&#x170;" horiz-adv-x="730" 
d="M213 13q-68 28 -108 87t-40 149v501h153v-481q0 -137 147 -137q72 0 109.5 33t37.5 104v481h153v-501q0 -133 -84 -198.5t-216 -65.5q-84 0 -152 28zM501 952h143l-116 -142h-111zM286 952h143l-116 -142h-111z" />
    <glyph glyph-name="uhungarumlaut" unicode="&#x171;" horiz-adv-x="545" 
d="M108 47.5q-61 57.5 -61 157.5v265h150v-259q0 -42 19 -68.5t56 -26.5t56 26.5t19 68.5v259h150v-265q0 -100 -61 -157.5t-164 -57.5t-164 57.5zM421 703h147l-133 -163h-111zM206 703h147l-133 -163h-111z" />
    <glyph glyph-name="Uogonek" unicode="&#x172;" horiz-adv-x="730" 
d="M290.5 -167q-41.5 27 -41.5 71q0 50 56 85q-108 14 -174 79t-66 181v501h153v-481q0 -137 147 -137q72 0 109.5 33t37.5 104v481h153v-501q0 -127 -76.5 -192t-199.5 -71q-22 -12 -34.5 -25.5t-12.5 -26.5q0 -16 20 -26t60 -10v-92q-90 0 -131.5 27z" />
    <glyph glyph-name="uogonek" unicode="&#x173;" horiz-adv-x="545" 
d="M214.5 -167q-41.5 27 -41.5 71q0 53 62 88q-87 10 -137.5 66t-50.5 147v265h150v-259q0 -42 19 -68.5t56 -26.5t56 26.5t19 68.5v259h150v-265q0 -83 -42.5 -137t-116.5 -71q-34 -13 -53 -30t-19 -33t20 -26t60 -10v-92q-90 0 -131.5 27z" />
    <glyph glyph-name="Wcircumflex" unicode="&#x174;" horiz-adv-x="990" 
d="M-11 750h159l208 -499h7l62 155l-144 344h149l63 -174h5l63 174h148l-143 -343l62 -156h7l208 499h158l-313 -750h-93l-100 238l-99 -238h-93zM423 952h144l117 -142h-123l-66 79l-66 -79h-123z" />
    <glyph glyph-name="wcircumflex" unicode="&#x175;" horiz-adv-x="784" 
d="M-10 470h156l90 -297l87 297h136l88 -297l91 297h157l-177 -470h-141l-86 286l-85 -286h-142zM344 703h96l121 -163h-113l-56 71l-56 -71h-113z" />
    <glyph glyph-name="Ycircumflex" unicode="&#x176;" horiz-adv-x="680" 
d="M264 356l-283 394h177l181 -258l183 258h177l-285 -394v-356h-150v356zM268 952h144l117 -142h-123l-66 79l-66 -79h-123z" />
    <glyph glyph-name="ycircumflex" unicode="&#x177;" horiz-adv-x="548" 
d="M202 39l-222 431h175l119 -278l130 278h162l-334 -715h-162zM227 703h96l121 -163h-113l-56 71l-56 -71h-113z" />
    <glyph glyph-name="Ydieresis" unicode="&#x178;" horiz-adv-x="680" 
d="M264 356l-283 394h177l181 -258l183 258h177l-285 -394v-356h-150v356zM381 816q-22 22 -22 56t22 57t57 23q34 0 56 -23t22 -57t-22 -56t-56 -22q-35 0 -57 22zM185 929q22 23 57 23q34 0 56 -23t22 -57t-22 -56t-56 -22q-35 0 -57 22t-22 56t22 57z" />
    <glyph glyph-name="Zacute" unicode="&#x179;" horiz-adv-x="642" 
d="M368 610h-325v140h585l-369 -610h371v-140h-630zM349 952h143l-116 -142h-111z" />
    <glyph glyph-name="zacute" unicode="&#x17a;" horiz-adv-x="489" 
d="M239 346h-212v124h442l-212 -341h214v-129h-464zM282 703h138l-114 -163h-121z" />
    <glyph glyph-name="Zdotaccent" unicode="&#x17b;" horiz-adv-x="642" 
d="M368 610h-325v140h585l-369 -610h371v-140h-630zM264 816q-22 22 -22 56t22 57t57 23q34 0 56 -23t22 -57t-22 -56t-56 -22q-35 0 -57 22z" />
    <glyph glyph-name="zdotaccent" unicode="&#x17c;" horiz-adv-x="489" 
d="M239 346h-212v124h442l-212 -341h214v-129h-464zM182 566q-26 26 -26 64q0 37 26 63.5t63 26.5q38 0 64 -26t26 -64t-26 -64t-64 -26q-37 0 -63 26z" />
    <glyph glyph-name="Zcaron" unicode="&#x17d;" horiz-adv-x="642" 
d="M368 610h-325v140h585l-369 -610h371v-140h-630zM132 952h123l66 -79l66 79h123l-117 -142h-144z" />
    <glyph glyph-name="zcaron" unicode="&#x17e;" horiz-adv-x="489" 
d="M239 346h-212v124h442l-212 -341h214v-129h-464zM77 703h113l56 -71l56 71h113l-121 -163h-96z" />
    <glyph glyph-name="florin" unicode="&#x192;" horiz-adv-x="585" 
d="M142.5 -48.5q45.5 33.5 54.5 86.5l39 205h-104v119h126l13 70q12 63 62 104t115 41h110v-119h-110q-22 0 -38.5 -13.5t-21.5 -34.5l-8 -48h123v-119h-146l-42 -227q-18 -95 -96 -155.5t-203 -67.5v119q81 6 126.5 39.5z" />
    <glyph glyph-name="uni01D0" unicode="&#x1d0;" horiz-adv-x="278" 
d="M64 470h150v-470h-150v470zM-30 703h113l56 -71l56 71h113l-121 -163h-96z" />
    <glyph glyph-name="uni0218" unicode="&#x218;" horiz-adv-x="567" 
d="M110.5 31.5q-73.5 46.5 -98.5 129.5l132 60q12 -48 52.5 -76t91.5 -28q47 0 76.5 21t29.5 60q0 42 -27 64t-93 47q-67 25 -112.5 50t-80 72.5t-34.5 120.5q0 64 33 112.5t89 74.5t122 26q76 0 141.5 -36.5t97.5 -112.5l-133 -60q-13 34 -41.5 54.5t-65.5 20.5t-66 -20.5
t-29 -53.5q0 -29 21 -51.5t52.5 -38.5t83.5 -37q58 -23 98.5 -49t67 -69t26.5 -106q0 -72 -35.5 -122t-94.5 -74.5t-130 -24.5q-100 0 -173.5 46.5zM216 -64h138l-102 -146h-103z" />
    <glyph glyph-name="uni0219" unicode="&#x219;" horiz-adv-x="491" 
d="M112 17.5q-68 32.5 -101 103.5l139 47q34 -59 102 -59q25 0 41 7.5t16 22.5q0 18 -21 28t-63 20q-55 13 -92 26.5t-64 44t-27 80.5q0 74 57 110.5t142 36.5q72 0 129.5 -28.5t83.5 -91.5l-147 -38q-8 22 -27.5 34.5t-45.5 12.5q-21 0 -35.5 -8t-14.5 -21
q0 -14 18.5 -21.5t60.5 -16.5l20 -5q52 -12 89.5 -28.5t64 -49t26.5 -85.5q0 -79 -57 -116.5t-145 -37.5q-81 0 -149 32.5zM176 -64h138l-102 -146h-103z" />
    <glyph glyph-name="uni021A" unicode="&#x21a;" horiz-adv-x="577" 
d="M213 610h-216v140h583v-140h-216v-610h-151v610zM220 -64h138l-102 -146h-103z" />
    <glyph glyph-name="uni021B" unicode="&#x21b;" horiz-adv-x="344" 
d="M97 347h-90v123h90v170h150v-170h90v-123h-90v-347h-150v347zM103 -64h138l-102 -146h-103z" />
    <glyph glyph-name="uni0237" unicode="&#x237;" horiz-adv-x="278" 
d="M64 470h150v-713h-150v713z" />
    <glyph glyph-name="circumflex" unicode="&#x2c6;" horiz-adv-x="348" 
d="M126 703h96l121 -163h-113l-56 71l-56 -71h-113z" />
    <glyph glyph-name="caron" unicode="&#x2c7;" horiz-adv-x="352" 
d="M7 703h113l56 -71l56 71h113l-121 -163h-96z" />
    <glyph glyph-name="breve" unicode="&#x2d8;" 
d="M89 567.5q-57 37.5 -57 135.5h112q0 -90 73 -90t73 90h112q0 -98 -57 -135.5t-128 -37.5t-128 37.5z" />
    <glyph glyph-name="dotaccent" unicode="&#x2d9;" horiz-adv-x="242" 
d="M69 566q-26 26 -26 64q0 37 26 63.5t63 26.5q38 0 64 -26t26 -64t-26 -64t-64 -26q-37 0 -63 26z" />
    <glyph glyph-name="ring" unicode="&#x2da;" horiz-adv-x="313" 
d="M71 556.5q-35 34.5 -35 83.5q0 50 35 85t85 35t85 -35t35 -85q0 -49 -35 -83.5t-85 -34.5t-85 34.5zM124.5 609.5q12.5 -12.5 31.5 -12.5q18 0 31 12.5t13 30.5q0 19 -13 32t-31 13q-19 0 -31.5 -13t-12.5 -32q0 -18 12.5 -30.5z" />
    <glyph glyph-name="ogonek" unicode="&#x2db;" horiz-adv-x="256" 
d="M75.5 -167q-41.5 27 -41.5 71q0 71 110 109l63 -13q-37 -13 -58.5 -31t-21.5 -35q0 -16 20 -26t60 -10v-92q-90 0 -131.5 27z" />
    <glyph glyph-name="tilde" unicode="&#x2dc;" horiz-adv-x="440" 
d="M253 542q-17 8 -37 22q-22 16 -33.5 22.5t-22.5 6.5q-14 0 -23.5 -11.5t-25.5 -40.5l-83 49q33 56 59 77t65 21q47 0 98 -38q11 -8 20.5 -14t16.5 -6q9 0 14.5 7t14 22t12.5 23l85 -47q-32 -57 -58.5 -79t-66.5 -22q-18 0 -35 8z" />
    <glyph glyph-name="hungarumlaut" unicode="&#x2dd;" horiz-adv-x="477" 
d="M327 703h147l-133 -163h-111zM112 703h147l-133 -163h-111z" />
    <glyph glyph-name="gravecomb" unicode="&#x300;" 
d="M10 703h138l97 -163h-121z" />
    <glyph glyph-name="acutecomb" unicode="&#x301;" 
d="M112 703h138l-114 -163h-121z" />
    <glyph glyph-name="uni0302" unicode="&#x302;" 
d="M126 703h96l121 -163h-113l-56 71l-56 -71h-113z" />
    <glyph glyph-name="tildecomb" unicode="&#x303;" 
d="M253 542q-17 8 -37 22q-22 16 -33.5 22.5t-22.5 6.5q-14 0 -23.5 -11.5t-25.5 -40.5l-83 49q33 56 59 77t65 21q47 0 98 -38q11 -8 20.5 -14t16.5 -6q9 0 14.5 7t14 22t12.5 23l85 -47q-32 -57 -58.5 -79t-66.5 -22q-18 0 -35 8z" />
    <glyph glyph-name="uni0304" unicode="&#x304;" 
d="M63 635h282v-105h-282v105z" />
    <glyph glyph-name="uni0306" unicode="&#x306;" 
d="M89 567.5q-57 37.5 -57 135.5h112q0 -90 73 -90t73 90h112q0 -98 -57 -135.5t-128 -37.5t-128 37.5z" />
    <glyph glyph-name="uni0307" unicode="&#x307;" 
d="M69 566q-26 26 -26 64q0 37 26 63.5t63 26.5q38 0 64 -26t26 -64t-26 -64t-64 -26q-37 0 -63 26z" />
    <glyph glyph-name="uni0308" unicode="&#x308;" 
d="M288 566q-26 26 -26 64q0 37 26 63.5t63 26.5q38 0 64 -26t26 -64t-26 -64t-64 -26q-37 0 -63 26zM68 693.5q26 26.5 63 26.5q38 0 64 -26t26 -64t-26 -64t-64 -26q-37 0 -63 26t-26 64q0 37 26 63.5z" />
    <glyph glyph-name="uni030A" unicode="&#x30a;" 
d="M71 556.5q-35 34.5 -35 83.5q0 50 35 85t85 35t85 -35t35 -85q0 -49 -35 -83.5t-85 -34.5t-85 34.5zM124.5 609.5q12.5 -12.5 31.5 -12.5q18 0 31 12.5t13 30.5q0 19 -13 32t-31 13q-19 0 -31.5 -13t-12.5 -32q0 -18 12.5 -30.5z" />
    <glyph glyph-name="uni030B" unicode="&#x30b;" 
d="M327 703h147l-133 -163h-111zM112 703h147l-133 -163h-111z" />
    <glyph glyph-name="uni030C" unicode="&#x30c;" 
d="M7 703h113l56 -71l56 71h113l-121 -163h-96z" />
    <glyph glyph-name="uni0312" unicode="&#x312;" 
d="M150 557h-138l102 146h103z" />
    <glyph glyph-name="uni0326" unicode="&#x326;" 
d="M97 -64h138l-102 -146h-103z" />
    <glyph glyph-name="uni0327" unicode="&#x327;" 
d="M127 -116q0 42 -62 42l20 80h76l-13 -50q36 -5 60 -25t24 -56q0 -52 -49.5 -84.5t-153.5 -32.5l20 83q78 0 78 43z" />
    <glyph glyph-name="uni0328" unicode="&#x328;" 
d="M75.5 -167q-41.5 27 -41.5 71q0 71 110 109l63 -13q-37 -13 -58.5 -31t-21.5 -35q0 -16 20 -26t60 -10v-92q-90 0 -131.5 27z" />
    <glyph glyph-name="uni0335" unicode="&#x335;" 
d="M63 416h305v-94h-305v94z" />
    <glyph glyph-name="uni0336" unicode="&#x336;" 
d="M63 416h726v-94h-726v94z" />
    <glyph glyph-name="uni0337" unicode="&#x337;" 
d="M3 307l309 183l58 -101l-311 -181z" />
    <glyph glyph-name="uni0338" unicode="&#x338;" 
d="M282 532h73l-308 -606h-73z" />
    <glyph glyph-name="uni0394" unicode="&#x394;" horiz-adv-x="765" 
d="M383 691l398 -691h-797zM538 140l-155 271l-156 -271h311z" />
    <glyph glyph-name="uni03A9" unicode="&#x3a9;" horiz-adv-x="864" 
d="M45 139h120q-56 48 -88 112t-32 142q0 100 52.5 184t141.5 133.5t193 49.5t193 -49.5t141.5 -133.5t52.5 -184q0 -78 -32 -142t-88 -112h120v-139h-328v139q56 17 96 56.5t61 90.5t21 101q0 63 -32 114t-86.5 80t-119.5 29q-64 0 -118.5 -29t-86 -80t-31.5 -114
q0 -50 21 -101t61 -90.5t96 -56.5v-139h-328v139z" />
    <glyph glyph-name="uni03BC" unicode="&#x3bc;" horiz-adv-x="562" 
d="M64 470h150v-259q0 -42 19 -68.5t56 -26.5t56 26.5t19 68.5v259h150v-470h-76l-17 23q-55 -33 -132 -33q-44 0 -78 10v-205h-147v675z" />
    <glyph glyph-name="pi" unicode="&#x3c0;" horiz-adv-x="619" 
d="M435.5 -2q-44.5 8 -68 43.5t-23.5 117.5v171h-108v-330h-150v330h-61v140h552v-140h-83v-147q0 -39 17.5 -51.5t65.5 -12.5v-129q-97 0 -141.5 8z" />
    <glyph glyph-name="Wgrave" unicode="&#x1e80;" horiz-adv-x="990" 
d="M-11 750h159l208 -499h7l62 155l-144 344h149l63 -174h5l63 174h148l-143 -343l62 -156h7l208 499h158l-313 -750h-93l-100 238l-99 -238h-93zM323 952h143l84 -142h-111z" />
    <glyph glyph-name="wgrave" unicode="&#x1e81;" horiz-adv-x="784" 
d="M-10 470h156l90 -297l87 297h136l88 -297l91 297h157l-177 -470h-141l-86 286l-85 -286h-142zM217 703h138l97 -163h-121z" />
    <glyph glyph-name="Wacute" unicode="&#x1e82;" horiz-adv-x="990" 
d="M-11 750h159l208 -499h7l62 155l-144 344h149l63 -174h5l63 174h148l-143 -343l62 -156h7l208 499h158l-313 -750h-93l-100 238l-99 -238h-93zM523 952h143l-116 -142h-111z" />
    <glyph glyph-name="wacute" unicode="&#x1e83;" horiz-adv-x="784" 
d="M-10 470h156l90 -297l87 297h136l88 -297l91 297h157l-177 -470h-141l-86 286l-85 -286h-142zM428 703h138l-114 -163h-121z" />
    <glyph glyph-name="Wdieresis" unicode="&#x1e84;" horiz-adv-x="990" 
d="M-11 750h159l208 -499h7l62 155l-144 344h149l63 -174h5l63 174h148l-143 -343l62 -156h7l208 499h158l-313 -750h-93l-100 238l-99 -238h-93zM536 816q-22 22 -22 56t22 57t57 23q34 0 56 -23t22 -57t-22 -56t-56 -22q-35 0 -57 22zM340 929q22 23 57 23q34 0 56 -23
t22 -57t-22 -56t-56 -22q-35 0 -57 22t-22 56t22 57z" />
    <glyph glyph-name="wdieresis" unicode="&#x1e85;" horiz-adv-x="784" 
d="M-10 470h156l90 -297l87 297h136l88 -297l91 297h157l-177 -470h-141l-86 286l-85 -286h-142zM439 566q-26 26 -26 64q0 37 26 63.5t63 26.5q38 0 64 -26t26 -64t-26 -64t-64 -26q-37 0 -63 26zM219 693.5q26 26.5 63 26.5q38 0 64 -26t26 -64t-26 -64t-64 -26
q-37 0 -63 26t-26 64q0 37 26 63.5z" />
    <glyph glyph-name="Ygrave" unicode="&#x1ef2;" horiz-adv-x="680" 
d="M264 356l-283 394h177l181 -258l183 258h177l-285 -394v-356h-150v356zM168 952h143l84 -142h-111z" />
    <glyph glyph-name="ygrave" unicode="&#x1ef3;" horiz-adv-x="548" 
d="M202 39l-222 431h175l119 -278l130 278h162l-334 -715h-162zM100 703h138l97 -163h-121z" />
    <glyph glyph-name="uni2000" unicode="&#x2000;" horiz-adv-x="500" 
 />
    <glyph glyph-name="uni2001" unicode="&#x2001;" horiz-adv-x="1000" 
 />
    <glyph glyph-name="uni2002" unicode="&#x2002;" horiz-adv-x="500" 
 />
    <glyph glyph-name="uni2003" unicode="&#x2003;" horiz-adv-x="1000" 
 />
    <glyph glyph-name="endash" unicode="&#x2013;" horiz-adv-x="660" 
d="M63 296h534v-115h-534v115z" />
    <glyph glyph-name="emdash" unicode="&#x2014;" horiz-adv-x="1000" 
d="M0 296h1000v-115h-1000v115z" />
    <glyph glyph-name="quoteleft" unicode="&#x2018;" horiz-adv-x="254" 
d="M174 400h-154l107 350h108z" />
    <glyph glyph-name="quoteright" unicode="&#x2019;" horiz-adv-x="254" 
d="M80 750h154l-107 -350h-108z" />
    <glyph glyph-name="quotesinglbase" unicode="&#x201a;" horiz-adv-x="220" 
d="M66 101h134l-87 -264h-108z" />
    <glyph glyph-name="quotedblleft" unicode="&#x201c;" horiz-adv-x="469" 
d="M174 400h-154l107 350h108zM342 750h108l-61 -350h-154z" />
    <glyph glyph-name="quotedblright" unicode="&#x201d;" horiz-adv-x="469" 
d="M295 750h154l-107 -350h-108zM80 750h154l-107 -350h-108z" />
    <glyph glyph-name="quotedblbase" unicode="&#x201e;" horiz-adv-x="456" 
d="M282 101h154l-127 -264h-108zM86 101h154l-127 -264h-108z" />
    <glyph glyph-name="dagger" unicode="&#x2020;" horiz-adv-x="409" 
d="M128 409h-112v126h112v215h150v-215h116v-126h-116v-489h-150v489z" />
    <glyph glyph-name="daggerdbl" unicode="&#x2021;" horiz-adv-x="468" 
d="M157 135h-112v126h112v148h-112v126h112v215h150v-215h116v-126h-116v-148h116v-126h-116v-215h-150v215z" />
    <glyph glyph-name="bullet" unicode="&#x2022;" horiz-adv-x="436" 
d="M134.5 96.5q-37.5 21.5 -59.5 59t-22 83.5q0 44 22 81.5t60 59.5t82 22q46 0 83.5 -22t59 -59t21.5 -82q0 -46 -21.5 -83.5t-59 -59t-83.5 -21.5q-45 0 -82.5 21.5z" />
    <glyph glyph-name="ellipsis" unicode="&#x2026;" horiz-adv-x="827" 
d="M594.5 18.5q-28.5 28.5 -28.5 68.5q0 39 28.5 68t68.5 29t68.5 -28.5t28.5 -68.5q0 -41 -28.5 -69t-68.5 -28t-68.5 28.5zM94.5 155q28.5 29 68.5 29t68.5 -28.5t28.5 -68.5q0 -41 -28.5 -69t-68.5 -28t-68.5 28.5t-28.5 68.5q0 39 28.5 68zM344.5 155q28.5 29 68.5 29
t68.5 -28.5t28.5 -68.5q0 -41 -28.5 -69t-68.5 -28t-68.5 28.5t-28.5 68.5q0 39 28.5 68z" />
    <glyph glyph-name="perthousand" unicode="&#x2030;" horiz-adv-x="1120" 
d="M533 750h163l-463 -750h-163zM41.5 677q22.5 38 60.5 60.5t83 22.5t83 -22.5t60.5 -60.5t22.5 -83t-22.5 -83t-60.5 -60.5t-83 -22.5t-83 22.5t-60.5 60.5t-22.5 83t22.5 83zM151.5 560q13.5 -14 33.5 -14q19 0 33 14t14 34t-14 34t-33 14q-20 0 -33.5 -14t-13.5 -34
t13.5 -34zM438.5 239q22.5 38 61 60.5t82.5 22.5t82.5 -22.5t61 -60.5t22.5 -83t-23 -83t-61 -60.5t-82 -22.5t-82.5 22.5t-61 60.5t-22.5 83t22.5 83zM548 122q14 -14 34 -14q19 0 33 14t14 34t-14 34t-33 14q-20 0 -34 -14t-14 -34t14 -34zM797.5 239q22.5 38 61 60.5
t83.5 22.5q44 0 82 -22.5t60.5 -60.5t22.5 -83t-22.5 -83t-60.5 -60.5t-82 -22.5q-45 0 -83.5 22.5t-61 60.5t-22.5 83t22.5 83zM907.5 122q13.5 -14 34.5 -14q19 0 33 14.5t14 33.5t-14 33.5t-33 14.5q-21 0 -34.5 -14t-13.5 -34t13.5 -34z" />
    <glyph glyph-name="guilsinglleft" unicode="&#x2039;" horiz-adv-x="283" 
d="M-5 242l207 198l58 -68l-139 -133l140 -143l-59 -65z" />
    <glyph glyph-name="guilsinglright" unicode="&#x203a;" horiz-adv-x="283" 
d="M22 96l140 143l-139 133l58 68l207 -198l-207 -211z" />
    <glyph glyph-name="fraction" unicode="&#x2044;" horiz-adv-x="221" 
d="M239 760h84l-341 -770h-84z" />
    <glyph glyph-name="Euro" unicode="&#x20ac;" horiz-adv-x="686" 
d="M261 65q-107 65 -147 182h-72v100h53q-1 10 -1 30t1 29h-53v100h72q40 116 146.5 180t257.5 64h105v-135h-105q-87 0 -149 -27.5t-94 -81.5h278v-100h-308q-1 -9 -1 -29t1 -30h308v-100h-278q32 -55 94 -83.5t149 -28.5h105v-135h-105q-150 0 -257 65z" />
    <glyph glyph-name="trademark" unicode="&#x2122;" horiz-adv-x="669" 
d="M304 750h42l130 -173l129 173h41v-325h-75v160l-95 -128l-96 128v-160h-76v325zM23 750h243v-71h-83v-254h-76v254h-84v71z" />
    <glyph glyph-name="partialdiff" unicode="&#x2202;" horiz-adv-x="602" 
d="M154.5 19.5q-58.5 29.5 -91.5 86t-33 134.5q0 76 28.5 132t80.5 85.5t120 29.5q36 0 71 -13t65 -36q-15 55 -52.5 105t-111.5 118l46 89q151 -80 216 -180t65 -234q0 -105 -33 -183.5t-94 -120.5t-143 -42q-75 0 -133.5 29.5zM208 169.5q29 -29.5 80 -29.5q46 0 77.5 31
t41.5 85q-28 44 -67.5 69t-77.5 25q-36 0 -59.5 -25.5t-23.5 -73.5q0 -52 29 -81.5z" />
    <glyph glyph-name="product" unicode="&#x220f;" horiz-adv-x="674" 
d="M96 750h482v-750h-148v598h-186v-598h-148v750z" />
    <glyph glyph-name="summation" unicode="&#x2211;" horiz-adv-x="660" 
d="M391 379l-388 371h603v-139h-261l243 -231l-246 -241h264v-139h-601z" />
    <glyph glyph-name="minus" unicode="&#x2212;" horiz-adv-x="584" 
d="M95 329h394v-130h-394v130z" />
    <glyph glyph-name="radical" unicode="&#x221a;" horiz-adv-x="821" 
d="M117 256h-101v158h212l110 -355l308 691h175l-436 -906h-120z" />
    <glyph glyph-name="infinity" unicode="&#x221e;" horiz-adv-x="1156" 
d="M177.5 23q-60.5 33 -96 89t-35.5 122t35.5 122t96 89t132.5 33q78 0 145.5 -40t122.5 -102q55 62 122.5 102t145.5 40q72 0 132.5 -33t96 -89t35.5 -122t-35.5 -122t-96 -89t-132.5 -33q-78 0 -145.5 40t-122.5 102q-55 -62 -122.5 -102t-145.5 -40q-72 0 -132.5 33z
M191.5 169.5q18.5 -29.5 50 -47t68.5 -17.5q48 0 98.5 36t94.5 93q-44 57 -94.5 92.5t-98.5 35.5q-37 0 -68.5 -17t-50 -46.5t-18.5 -64.5t18.5 -64.5zM747.5 141q50.5 -36 98.5 -36q37 0 68.5 17t50 47t18.5 65t-18.5 64.5t-50 46.5t-68.5 17q-48 0 -98.5 -35.5
t-94.5 -92.5q44 -57 94.5 -93z" />
    <glyph glyph-name="integral" unicode="&#x222b;" horiz-adv-x="498" 
d="M99 -38.5q32 25.5 43 77.5l93 516q18 98 65.5 146.5t113.5 48.5h78v-128h-55q-25 0 -38.5 -8t-23 -31t-18.5 -70l-91 -497q-36 -198 -256 -213l-4 129q61 4 93 29.5z" />
    <glyph glyph-name="approxequal" unicode="&#x2248;" horiz-adv-x="592" 
d="M343.5 295q-20.5 9 -47.5 27q-4 2 -19.5 12.5t-29.5 15.5t-27 5q-18 0 -27.5 -10t-27.5 -40l-6 -10l-107 55l15 31q23 47 57.5 70t77.5 23q61 0 123 -43q34 -24 51 -24q20 0 37 36l16 35l109 -51l-22 -44q-25 -50 -55 -73.5t-71 -23.5q-26 0 -46.5 9zM67 148
q23 47 57.5 70t77.5 23q61 0 123 -43q34 -24 51 -24q20 0 37 36l16 35l109 -51l-22 -44q-25 -50 -55 -73.5t-71 -23.5q-26 0 -46.5 9t-47.5 27q-4 2 -19.5 12.5t-29.5 15.5t-27 5q-18 0 -27.5 -10t-27.5 -40l-6 -10l-107 55z" />
    <glyph glyph-name="notequal" unicode="&#x2260;" horiz-adv-x="645" 
d="M176 109h-101v120h163l37 71h-200v120h262l46 90h132l-46 -90h101v-120h-163l-37 -71h200v-120h-262l-46 -89h-132z" />
    <glyph glyph-name="uniF8FF" unicode="&#xf8ff;" horiz-adv-x="830" 
d="M225.5 51q-86.5 51 -137.5 137.5t-51 189.5t51 189.5t137.5 137.5t189.5 51t189.5 -51t137.5 -137.5t51 -189.5t-51 -189.5t-137.5 -137.5t-189.5 -51t-189.5 51zM118 206q46 -79 125 -125t172 -46t172 46t125 125t46 172t-46 172t-125 125t-172 46t-172 -46t-125 -125
t-46 -172t46 -172zM201 509q0 7 5 12.5t12 5.5q8 0 13 -5t5 -13v-262q0 -7 -5 -12t-13 -5q-7 0 -12 5t-5 12v262zM272 390.5q5 4.5 12 4.5h65q8 0 13 -5t5 -12t-5 -12t-13 -5h-65q-7 0 -12 5t-5 12q0 8 5 12.5zM398 509q0 8 5 13t12 5t12 -5t5 -13v-262q0 -7 -4.5 -12
t-12.5 -5q-7 0 -12 5t-5 12v262zM464 378q0 8 4 12l132 131q5 5 12 5t12 -5q5 -4 5 -12q0 -7 -5 -12l-119 -119l119 -119q5 -4 5 -12t-5 -12q-5 -5 -12 -5t-12 5l-132 131q-4 5 -4 12z" />
    <glyph glyph-name="uni004A0301" horiz-adv-x="362" 
d="M1 4v151q46 -23 80 -23q27 0 42 14.5t15 44.5v559h150v-562q0 -114 -38 -158.5t-116 -44.5q-54 0 -133 19zM217 952h143l-116 -142h-111z" />
    <glyph glyph-name="I.ss01" horiz-adv-x="359" 
d="M52 140h53v470h-53v140h255v-140h-52v-470h52v-140h-255v140z" />
    <glyph glyph-name="Iacute.ss01" horiz-adv-x="359" 
d="M52 140h53v470h-53v140h255v-140h-52v-470h52v-140h-255v140zM208 952h143l-116 -142h-111z" />
    <glyph glyph-name="Icircumflex.ss01" horiz-adv-x="359" 
d="M52 140h53v470h-53v140h255v-140h-52v-470h52v-140h-255v140zM108 952h144l117 -142h-123l-66 79l-66 -79h-123z" />
    <glyph glyph-name="Idieresis.ss01" horiz-adv-x="359" 
d="M52 140h53v470h-53v140h255v-140h-52v-470h52v-140h-255v140zM221 816q-22 22 -22 56t22 57t57 23q34 0 56 -23t22 -57t-22 -56t-56 -22q-35 0 -57 22zM25 929q22 23 57 23q34 0 56 -23t22 -57t-22 -56t-56 -22q-35 0 -57 22t-22 56t22 57z" />
    <glyph glyph-name="Idotaccent.ss01" horiz-adv-x="359" 
d="M52 140h53v470h-53v140h255v-140h-52v-470h52v-140h-255v140zM123 816q-22 22 -22 56t22 57t57 23q34 0 56 -23t22 -57t-22 -56t-56 -22q-35 0 -57 22z" />
    <glyph glyph-name="Igrave.ss01" horiz-adv-x="359" 
d="M52 140h53v470h-53v140h255v-140h-52v-470h52v-140h-255v140zM8 952h143l84 -142h-111z" />
    <glyph glyph-name="Imacron.ss01" horiz-adv-x="359" 
d="M52 140h53v470h-53v140h255v-140h-52v-470h52v-140h-255v140zM39 915h282v-105h-282v105z" />
    <glyph glyph-name="Iogonek.ss01" horiz-adv-x="359" 
d="M52 140h53v470h-53v140h255v-140h-52v-470h52v-140q-37 -13 -58.5 -31t-21.5 -35q0 -16 20 -26t60 -10v-92q-90 0 -131.5 27t-41.5 71q0 60 78 96h-160v140z" />
    <glyph glyph-name="i.loclTRK" horiz-adv-x="278" 
d="M64 470h150v-470h-150v470zM75 566q-26 26 -26 64q0 37 26 63.5t63 26.5q38 0 64 -26t26 -64t-26 -64t-64 -26q-37 0 -63 26z" />
    <glyph glyph-name="uni006A0301" horiz-adv-x="278" 
d="M64 470h150v-713h-150v713zM175 703h138l-114 -163h-121z" />
    <glyph glyph-name="j.ss01" horiz-adv-x="278" 
d="M-22 -118h39q26 0 36.5 12t10.5 35v541h150v-546q0 -85 -45.5 -129.5t-121.5 -44.5h-69v132zM75 566q-26 26 -26 64q0 37 26 63.5t63 26.5q38 0 64 -26t26 -64t-26 -64t-64 -26q-37 0 -63 26z" />
    <glyph glyph-name="uni0237.ss01" horiz-adv-x="278" 
d="M-22 -118h39q26 0 36.5 12t10.5 35v541h150v-546q0 -85 -45.5 -129.5t-121.5 -44.5h-69v132z" />
    <glyph glyph-name="l.ss01" horiz-adv-x="302" 
d="M99.5 44.5q-45.5 44.5 -45.5 129.5v576h150v-571q0 -23 10.5 -35t36.5 -12h39v-132h-69q-76 0 -121.5 44.5z" />
    <glyph glyph-name="lacute.ss01" horiz-adv-x="302" 
d="M99.5 44.5q-45.5 44.5 -45.5 129.5v576h150v-571q0 -23 10.5 -35t36.5 -12h39v-132h-69q-76 0 -121.5 44.5zM154 952h143l-116 -142h-111z" />
    <glyph glyph-name="lcaron.ss01" horiz-adv-x="302" 
d="M99.5 44.5q-45.5 44.5 -45.5 129.5v576h150v-571q0 -23 10.5 -35t36.5 -12h39v-132h-69q-76 0 -121.5 44.5zM277 750h134l-80 -218h-98z" />
    <glyph glyph-name="lslash.ss01" horiz-adv-x="302" 
d="M99.5 44.5q-45.5 44.5 -45.5 129.5v62l-46 -27l-56 99l102 60v382h150v-293l57 34l58 -101l-115 -67v-144q0 -23 10.5 -35t36.5 -12h39v-132h-69q-76 0 -121.5 44.5z" />
    <glyph glyph-name="a.ss02" horiz-adv-x="540" 
d="M69 28.5q-47 38.5 -47 106.5q0 46 24.5 83.5t71.5 57.5h222v32q0 29 -23.5 45.5t-56.5 16.5q-26 0 -49.5 -11.5t-35.5 -33.5l-134 38q33 63 88.5 90t133.5 27q103 0 164.5 -45t61.5 -147v-288h-139l-10 46q-34 -28 -74.5 -42t-80.5 -14q-69 0 -116 38.5zM188.5 97
q16.5 -12 43.5 -12q29 0 59.5 14.5t47.5 40.5l1 44h-136q-32 -19 -32 -52q0 -23 16.5 -35z" />
    <glyph glyph-name="aacute.ss02" horiz-adv-x="540" 
d="M69 28.5q-47 38.5 -47 106.5q0 46 24.5 83.5t71.5 57.5h222v32q0 29 -23.5 45.5t-56.5 16.5q-26 0 -49.5 -11.5t-35.5 -33.5l-134 38q33 63 88.5 90t133.5 27q103 0 164.5 -45t61.5 -147v-288h-139l-10 46q-34 -28 -74.5 -42t-80.5 -14q-69 0 -116 38.5zM188.5 97
q16.5 -12 43.5 -12q29 0 59.5 14.5t47.5 40.5l1 44h-136q-32 -19 -32 -52q0 -23 16.5 -35zM306 703h138l-114 -163h-121z" />
    <glyph glyph-name="acircumflex.ss02" horiz-adv-x="540" 
d="M69 28.5q-47 38.5 -47 106.5q0 46 24.5 83.5t71.5 57.5h222v32q0 29 -23.5 45.5t-56.5 16.5q-26 0 -49.5 -11.5t-35.5 -33.5l-134 38q33 63 88.5 90t133.5 27q103 0 164.5 -45t61.5 -147v-288h-139l-10 46q-34 -28 -74.5 -42t-80.5 -14q-69 0 -116 38.5zM188.5 97
q16.5 -12 43.5 -12q29 0 59.5 14.5t47.5 40.5l1 44h-136q-32 -19 -32 -52q0 -23 16.5 -35zM222 703h96l121 -163h-113l-56 71l-56 -71h-113z" />
    <glyph glyph-name="adieresis.ss02" horiz-adv-x="540" 
d="M69 28.5q-47 38.5 -47 106.5q0 46 24.5 83.5t71.5 57.5h222v32q0 29 -23.5 45.5t-56.5 16.5q-26 0 -49.5 -11.5t-35.5 -33.5l-134 38q33 63 88.5 90t133.5 27q103 0 164.5 -45t61.5 -147v-288h-139l-10 46q-34 -28 -74.5 -42t-80.5 -14q-69 0 -116 38.5zM188.5 97
q16.5 -12 43.5 -12q29 0 59.5 14.5t47.5 40.5l1 44h-136q-32 -19 -32 -52q0 -23 16.5 -35zM317 566q-26 26 -26 64q0 37 26 63.5t63 26.5q38 0 64 -26t26 -64t-26 -64t-64 -26q-37 0 -63 26zM97 693.5q26 26.5 63 26.5q38 0 64 -26t26 -64t-26 -64t-64 -26q-37 0 -63 26
t-26 64q0 37 26 63.5z" />
    <glyph glyph-name="agrave.ss02" horiz-adv-x="540" 
d="M69 28.5q-47 38.5 -47 106.5q0 46 24.5 83.5t71.5 57.5h222v32q0 29 -23.5 45.5t-56.5 16.5q-26 0 -49.5 -11.5t-35.5 -33.5l-134 38q33 63 88.5 90t133.5 27q103 0 164.5 -45t61.5 -147v-288h-139l-10 46q-34 -28 -74.5 -42t-80.5 -14q-69 0 -116 38.5zM188.5 97
q16.5 -12 43.5 -12q29 0 59.5 14.5t47.5 40.5l1 44h-136q-32 -19 -32 -52q0 -23 16.5 -35zM95 703h138l97 -163h-121z" />
    <glyph glyph-name="amacron.ss02" horiz-adv-x="540" 
d="M69 28.5q-47 38.5 -47 106.5q0 46 24.5 83.5t71.5 57.5h222v32q0 29 -23.5 45.5t-56.5 16.5q-26 0 -49.5 -11.5t-35.5 -33.5l-134 38q33 63 88.5 90t133.5 27q103 0 164.5 -45t61.5 -147v-288h-139l-10 46q-34 -28 -74.5 -42t-80.5 -14q-69 0 -116 38.5zM188.5 97
q16.5 -12 43.5 -12q29 0 59.5 14.5t47.5 40.5l1 44h-136q-32 -19 -32 -52q0 -23 16.5 -35zM129 635h282v-105h-282v105z" />
    <glyph glyph-name="aogonek.ss02" horiz-adv-x="540" 
d="M69 28.5q-47 38.5 -47 106.5q0 46 24.5 83.5t71.5 57.5h222v32q0 29 -23.5 45.5t-56.5 16.5q-26 0 -49.5 -11.5t-35.5 -33.5l-134 38q33 63 88.5 90t133.5 27q103 0 164.5 -45t61.5 -147v-288q-37 -13 -58.5 -31t-21.5 -35q0 -16 20 -26t60 -10v-92q-90 0 -131.5 27
t-41.5 71q0 60 78 96h-44l-10 46q-34 -28 -74.5 -42t-80.5 -14q-69 0 -116 38.5zM188.5 97q16.5 -12 43.5 -12q29 0 59.5 14.5t47.5 40.5l1 44h-136q-32 -19 -32 -52q0 -23 16.5 -35z" />
    <glyph glyph-name="aring.ss02" horiz-adv-x="540" 
d="M69 28.5q-47 38.5 -47 106.5q0 46 24.5 83.5t71.5 57.5h222v32q0 29 -23.5 45.5t-56.5 16.5q-26 0 -49.5 -11.5t-35.5 -33.5l-134 38q33 63 88.5 90t133.5 27q103 0 164.5 -45t61.5 -147v-288h-139l-10 46q-34 -28 -74.5 -42t-80.5 -14q-69 0 -116 38.5zM188.5 97
q16.5 -12 43.5 -12q29 0 59.5 14.5t47.5 40.5l1 44h-136q-32 -19 -32 -52q0 -23 16.5 -35zM185 556.5q-35 34.5 -35 83.5q0 50 35 85t85 35t85 -35t35 -85q0 -49 -35 -83.5t-85 -34.5t-85 34.5zM238.5 609.5q12.5 -12.5 31.5 -12.5q18 0 31 12.5t13 30.5q0 19 -13 32t-31 13
q-19 0 -31.5 -13t-12.5 -32q0 -18 12.5 -30.5z" />
    <glyph glyph-name="atilde.ss02" horiz-adv-x="540" 
d="M69 28.5q-47 38.5 -47 106.5q0 46 24.5 83.5t71.5 57.5h222v32q0 29 -23.5 45.5t-56.5 16.5q-26 0 -49.5 -11.5t-35.5 -33.5l-134 38q33 63 88.5 90t133.5 27q103 0 164.5 -45t61.5 -147v-288h-139l-10 46q-34 -28 -74.5 -42t-80.5 -14q-69 0 -116 38.5zM188.5 97
q16.5 -12 43.5 -12q29 0 59.5 14.5t47.5 40.5l1 44h-136q-32 -19 -32 -52q0 -23 16.5 -35zM302 542q-17 8 -37 22q-22 16 -33.5 22.5t-22.5 6.5q-14 0 -23.5 -11.5t-25.5 -40.5l-83 49q33 56 59 77t65 21q47 0 98 -38q11 -8 20.5 -14t16.5 -6q9 0 14.5 7t14 22t12.5 23
l85 -47q-32 -57 -58.5 -79t-66.5 -22q-18 0 -35 8z" />
    <glyph glyph-name="fl.ss01" horiz-adv-x="647" 
d="M89 347h-71v123h71v78q0 101 52.5 154t136.5 53q34 0 70 -9v-136h-8q-29 13 -53 13q-23 0 -35.5 -16t-12.5 -59v-78h109v-123h-109v-347h-150v347zM444.5 44.5q-45.5 44.5 -45.5 129.5v576h150v-571q0 -23 10.5 -35t36.5 -12h39v-132h-69q-76 0 -121.5 44.5z" />
    <glyph glyph-name="zero.lf" horiz-adv-x="664" 
d="M129 90q-71 100 -71 285t71 285t203 100q131 0 202 -99.5t71 -284.5q0 -186 -71 -286t-202 -100q-132 0 -203 100zM240.5 188.5q31.5 -60.5 89.5 -60.5q60 0 92 63.5t32 181.5q0 120 -31.5 184.5t-90.5 64.5t-91 -67.5t-32 -192.5q0 -113 31.5 -173.5z" />
    <glyph glyph-name="one.lf" horiz-adv-x="360" 
d="M133 610h-138v140h288v-750h-150v610z" />
    <glyph glyph-name="two.lf" horiz-adv-x="580" 
d="M335 409.5q24 30.5 38 60.5t14 57q0 42 -31 68.5t-74 26.5q-119 0 -119 -140h-152q0 79 30.5 142t91 99.5t147.5 36.5q75 0 134 -30.5t91.5 -83.5t32.5 -119q0 -49 -15.5 -90.5t-38.5 -75t-63 -82.5l-18 -23l-94 -118h238v-138h-539l297 371q6 8 30 38.5z" />
    <glyph glyph-name="three.lf" horiz-adv-x="586" 
d="M90.5 46.5q-77.5 56.5 -77.5 175.5h147q12 -99 136 -99q48 0 80.5 31.5t32.5 79.5q0 52 -39 83.5t-114 31.5h-27v117h31q54 0 83.5 23t29.5 62q0 78 -89 78q-97 0 -97 -91h-148q0 69 32 119t87.5 76.5t124.5 26.5q111 0 175.5 -50.5t64.5 -155.5q0 -40 -19.5 -78.5
t-51.5 -59.5q50 -29 78.5 -77t28.5 -105q0 -76 -35 -131t-95.5 -84t-135.5 -29q-125 0 -202.5 56.5z" />
    <glyph glyph-name="four.lf" horiz-adv-x="618" 
d="M369 134h-385l448 616h87v-482h79v-134h-79v-134h-150v134zM369 268v209l-146 -209h146z" />
    <glyph glyph-name="five.lf" horiz-adv-x="572" 
d="M96.5 29q-73.5 39 -114.5 115l120 78q28 -51 71 -75.5t90 -24.5q54 0 90.5 33t36.5 93q0 61 -39.5 95.5t-98.5 34.5q-45 0 -89 -21l-78 57l91 336h343v-140h-228l-29 -115h19q82 1 140.5 -31t88.5 -89t30 -129q0 -79 -40 -137t-106 -88.5t-140 -30.5q-84 0 -157.5 39z
" />
    <glyph glyph-name="six.lf" horiz-adv-x="578" 
d="M148.5 25q-64.5 35 -102 95t-37.5 134q0 83 68 177l231 319h172l-173 -233q72 -2 132.5 -38.5t95 -96t34.5 -128.5q0 -73 -38 -133.5t-102.5 -95.5t-139.5 -35q-76 0 -140.5 35zM173 189.5q18 -29.5 49 -46.5t67 -17t66.5 17t48.5 46.5t18 64.5t-18 64.5t-48.5 46.5
t-66.5 17t-67 -17t-49 -46.5t-18 -64.5t18 -64.5z" />
    <glyph glyph-name="seven.lf" horiz-adv-x="552" 
d="M336 610h-326v140h559l-379 -750h-172z" />
    <glyph glyph-name="eight.lf" horiz-adv-x="593" 
d="M164.5 21q-62.5 31 -101 86.5t-38.5 125.5q0 53 25.5 100t70.5 83q-29 29 -45 64t-16 74q0 60 33.5 107t88 73t114.5 26t114.5 -26t88 -73t33.5 -107q0 -39 -16 -74t-45 -64q47 -29 72 -73.5t25 -98.5q0 -72 -37.5 -130t-100.5 -91t-134 -33q-69 0 -131.5 31zM208 157.5
q36 -34.5 88 -34.5t88 34.5t36 86.5t-36 85.5t-88 33.5t-88 -33.5t-36 -85.5t36 -86.5zM234.5 486.5q25.5 -24.5 61.5 -24.5t61.5 24.5t25.5 60.5q0 35 -25.5 57.5t-61.5 22.5t-61.5 -22.5t-25.5 -57.5q0 -36 25.5 -60.5z" />
    <glyph glyph-name="nine.lf" horiz-adv-x="578" 
d="M270 233q-72 2 -132 39t-94.5 96.5t-34.5 128.5q0 73 38 133.5t102.5 95t139.5 34.5q76 0 140.5 -34.5t102 -95t37.5 -133.5q0 -84 -68 -178l-231 -319h-172zM173 432.5q18 -29.5 49 -46.5t67 -17t66.5 17t48.5 46.5t18 64.5t-18 64.5t-48.5 46.5t-66.5 17t-67 -17
t-49 -46.5t-18 -64.5t18 -64.5z" />
    <glyph glyph-name="uni030C.alt" 
d="M86 750h134l-80 -218h-98z" />
    <glyph glyph-name="uni0308.case" 
d="M263 816q-22 22 -22 56t22 57t57 23q34 0 56 -23t22 -57t-22 -56t-56 -22q-35 0 -57 22zM67 929q22 23 57 23q34 0 56 -23t22 -57t-22 -56t-56 -22q-35 0 -57 22t-22 56t22 57z" />
    <glyph glyph-name="uni0307.case" 
d="M67 816q-22 22 -22 56t22 57t57 23q34 0 56 -23t22 -57t-22 -56t-56 -22q-35 0 -57 22z" />
    <glyph glyph-name="gravecomb.case" 
d="M9 952h143l84 -142h-111z" />
    <glyph glyph-name="acutecomb.case" 
d="M106 952h143l-116 -142h-111z" />
    <glyph glyph-name="uni030B.case" 
d="M321 952h143l-116 -142h-111zM106 952h143l-116 -142h-111z" />
    <glyph glyph-name="uni0302.case" 
d="M123 952h144l117 -142h-123l-66 79l-66 -79h-123z" />
    <glyph glyph-name="uni030C.case" 
d="M8 952h123l66 -79l66 79h123l-117 -142h-144z" />
    <glyph glyph-name="uni0306.case" 
d="M89.5 831.5q-57.5 34.5 -57.5 120.5h112q0 -38 21 -55t52 -17t52 17t21 55h112q0 -86 -57.5 -120.5t-127.5 -34.5t-127.5 34.5z" />
    <glyph glyph-name="uni030A.case" 
d="M70.5 757.5q-32.5 32.5 -32.5 78.5q0 45 32.5 78t78.5 33t78.5 -33t32.5 -78q0 -46 -32 -78.5t-79 -32.5q-46 0 -78.5 32.5zM123 810q11 -11 26 -11t26 11t11 26t-11 26t-26 11t-26 -11t-11 -26t11 -26z" />
    <glyph glyph-name="tildecomb.case" 
d="M242.5 812q-15.5 7 -32.5 19q-19 13 -30.5 18.5t-24.5 5.5t-20 -7t-20 -29l-6 -10l-78 40l13 25q35 67 98 67q42 0 89 -31q26 -17 37 -17q7 0 13 5.5t14 20.5l12 25l79 -37l-16 -32q-18 -36 -40 -53t-52 -17q-20 0 -35.5 7z" />
    <glyph glyph-name="uni0335.case" 
d="M63 434h305v-130h-305v130z" />
    <glyph glyph-name="uni0337.case" 
d="M10 304l363 214v-115l-363 -213v114z" />
    <glyph glyph-name="uni0338.case" 
d="M477 760h135l-507 -770h-139z" />
    </font>
</defs>
</svg>
