<?xml version="1.0" standalone="no"?>
<!DOCTYPE svg PUBLIC "-//W3C//DTD SVG 1.1//EN" "http://www.w3.org/Graphics/SVG/1.1/DTD/svg11.dtd" >
<svg xmlns="http://www.w3.org/2000/svg" xmlns:xlink="http://www.w3.org/1999/xlink" version="1.1">
<metadata>
Created by FontForge 20201107 at Fri Mar 19 11:40:29 2021
 By 
Hanken Design Co. (c)2021 (hello@hanken.co)
</metadata>
<defs>
<font id="HansKendrick-SemiBold" horiz-adv-x="0" >
  <font-face 
    font-family="Hans Kendrick SemiBold"
    font-weight="600"
    font-stretch="normal"
    units-per-em="1000"
    panose-1="0 0 0 0 0 0 0 0 0 0"
    ascent="800"
    descent="-200"
    x-height="470"
    cap-height="750"
    bbox="-85 -280 1122 952"
    underline-thickness="60"
    underline-position="-155"
    unicode-range="U+0020-FB02"
  />
<missing-glyph horiz-adv-x="546" 
d="M85 750h375v-750h-375v750zM397 63v625h-250v-625h250z" />
    <glyph glyph-name="fi" unicode="fi" horiz-adv-x="592" 
d="M93 365h-71v105h71v99q0 91 46 139.5t122 48.5q33 0 66 -10v-115h-6q-30 14 -52 14q-25 0 -38.5 -17.5t-13.5 -63.5v-95h110v-105h-110v-365h-124v365zM397 470h124v-470h-124v470zM403.5 562.5q-22.5 22.5 -22.5 55.5t22.5 55.5t55.5 22.5t55.5 -22.5t22.5 -55.5
t-22.5 -55.5t-55.5 -22.5t-55.5 22.5z" />
    <glyph glyph-name="fl" unicode="fl" horiz-adv-x="592" 
d="M93 365h-71v105h71v99q0 91 46 139.5t122 48.5q33 0 66 -10v-115h-6q-30 14 -52 14q-25 0 -38.5 -17.5t-13.5 -63.5v-95h110v-105h-110v-365h-124v365zM397 750h124v-750h-124v750z" />
    <glyph glyph-name="f_f" unicode="ff" horiz-adv-x="625" 
d="M93 365h-71v105h71v99q0 91 46 139.5t122 48.5q33 0 66 -10v-115h-6q-30 14 -52 14q-25 0 -38.5 -17.5t-13.5 -63.5v-95h175v99q0 91 46 139.5t122 48.5q33 0 66 -10v-115h-6q-30 14 -52 14q-25 0 -38.5 -17.5t-13.5 -63.5v-95h110v-105h-110v-365h-124v365h-175v-365
h-124v365z" />
    <glyph glyph-name="f_y.liga" unicode="fy" horiz-adv-x="806" 
d="M93 365h-71v105h71v99q0 91 46 139.5t122 48.5q33 0 66 -10v-115h-6q-30 14 -52 14q-25 0 -38.5 -17.5t-13.5 -63.5v-95h194l133 -299l137 299h135l-326 -714h-135l128 280l-164 329h-102v-365h-124v365z" />
    <glyph glyph-name=".notdef" horiz-adv-x="546" 
d="M85 750h375v-750h-375v750zM397 63v625h-250v-625h250z" />
    <glyph glyph-name=".null" 
 />
    <glyph glyph-name="nonmarkingreturn" horiz-adv-x="333" 
 />
    <glyph glyph-name="space" unicode=" " horiz-adv-x="270" 
 />
    <glyph glyph-name="exclam" unicode="!" horiz-adv-x="321" 
d="M96 750h125v-520h-125v520zM98.5 134q24.5 25 59.5 25t60 -25t25 -60t-25 -59.5t-60 -24.5t-59.5 24.5t-24.5 59.5t24.5 60z" />
    <glyph glyph-name="quotedbl" unicode="&#x22;" horiz-adv-x="361" 
d="M207 750h120l-20 -338h-80zM154 750l-20 -338h-81l-20 338h121z" />
    <glyph glyph-name="numbersign" unicode="#" horiz-adv-x="684" 
d="M135 156h-102l13 92h103l26 190h-102l13 92h101l22 156h102l-21 -156h156l22 156h102l-21 -156h102l-13 -92h-103l-25 -190h100l-11 -92h-102l-22 -156h-103l23 156h-157l-22 -156h-103zM407 248l26 190h-156l-26 -190h156z" />
    <glyph glyph-name="dollar" unicode="$" horiz-adv-x="586" 
d="M273 -9q-84 5 -148 48t-88 116l113 53q13 -44 46.5 -70.5t76.5 -31.5v221q-59 23 -101.5 48t-72 67.5t-29.5 106.5q0 89 57.5 145t145.5 65v81h62v-82q61 -7 110 -39.5t77 -93.5l-112 -53q-11 26 -30.5 43t-44.5 25v-213l9 -4q61 -24 100.5 -47.5t67.5 -65t28 -105.5
q0 -92 -57 -147t-148 -66v-82h-62v81zM213 496.5q20 -22.5 60 -42.5v188q-35 -7 -57.5 -32t-22.5 -60q0 -31 20 -53.5zM394 142.5q22 25.5 22 62.5q0 34 -19.5 56t-61.5 40v-193q37 9 59 34.5z" />
    <glyph glyph-name="percent" unicode="%" horiz-adv-x="740" 
d="M534 750h138l-467 -750h-138zM55.5 680.5q21.5 36.5 58.5 58t80 21.5t80 -21.5t58.5 -58t21.5 -80.5t-21.5 -80.5t-58.5 -58t-80 -21.5t-80 21.5t-58.5 58t-21.5 80.5t21.5 80.5zM152 557.5q17 -17.5 42 -17.5t42 17.5t17 42.5q0 24 -17.5 42t-41.5 18t-41.5 -18
t-17.5 -42q0 -25 17 -42.5zM408 230.5q22 36.5 58.5 58t79.5 21.5t79.5 -21.5t58.5 -58t22 -80.5t-22 -80.5t-59 -58t-79 -21.5q-43 0 -79.5 21.5t-58.5 58t-22 80.5t22 80.5zM503.5 107.5q17.5 -17.5 42.5 -17.5q24 0 41.5 17.5t17.5 42.5t-17.5 42.5t-41.5 17.5
q-25 0 -42.5 -17.5t-17.5 -42.5t17.5 -42.5z" />
    <glyph glyph-name="ampersand" unicode="&#x26;" horiz-adv-x="718" 
d="M501 91l-30 -30q-35 -36 -80 -55t-95 -19q-69 0 -126 34.5t-90 93t-33 125.5q0 49 18.5 95.5t54.5 82.5l31 32q-39 50 -39 113q0 51 24.5 94t67 68t92.5 25q49 0 90 -24t65 -64.5t24 -88.5q0 -73 -54 -146l-81 81q23 32 23 64q0 30 -19.5 48t-47.5 18q-30 0 -50.5 -19
t-20.5 -49q0 -36 36 -72l240 -244l107 108l81 -81l-107 -109l109 -111l-80 -81zM178 169q18 -31 49.5 -49t68.5 -18q56 0 96 40l30 30l-193 196l-30 -31q-39 -40 -39 -98q0 -39 18 -70z" />
    <glyph glyph-name="quotesingle" unicode="'" horiz-adv-x="187" 
d="M33 750h121l-20 -338h-81z" />
    <glyph glyph-name="parenleft" unicode="(" horiz-adv-x="341" 
d="M150 -146q-67 88 -90 197.5t-23 208.5q0 98 23 208t90 198.5t188 97.5v-74q-72 -10 -113 -90.5t-56 -175.5t-15 -164t15 -164t56 -175t113 -90v-74q-121 9 -188 97z" />
    <glyph glyph-name="parenright" unicode=")" horiz-adv-x="341" 
d="M116 -79q41 80 56 175t15 164t-15 164t-56 175.5t-113 90.5v74q121 -9 188 -97.5t90 -198.5t23 -208q0 -99 -23 -208.5t-90 -197.5t-188 -97v74q72 10 113 90z" />
    <glyph glyph-name="asterisk" unicode="*" horiz-adv-x="441" 
d="M110 517l61 94l-111 -4v65l111 -4l-61 94l59 33l51 -98l52 98l58 -33l-61 -94l112 4v-65l-112 4l61 -94l-58 -33l-52 98l-51 -98z" />
    <glyph glyph-name="plus" unicode="+" horiz-adv-x="609" 
d="M249 209h-210v110h210v209h110v-209h210v-110h-210v-209h-110v209z" />
    <glyph glyph-name="comma" unicode="," horiz-adv-x="255" 
d="M91 101h131l-114 -264h-91z" />
    <glyph glyph-name="hyphen" unicode="-" horiz-adv-x="489" 
d="M71 288h348v-99h-348v99z" />
    <glyph glyph-name="period" unicode="." horiz-adv-x="280" 
d="M80.5 14.5q-24.5 24.5 -24.5 59.5t24.5 60t59.5 25t60 -25t25 -60t-25 -59.5t-60 -24.5t-59.5 24.5z" />
    <glyph glyph-name="slash" unicode="/" horiz-adv-x="560" 
d="M481 760h107l-509 -1005h-107z" />
    <glyph glyph-name="zero" unicode="0" horiz-adv-x="600" 
d="M110 91.5q-68 101.5 -68 283.5q0 183 68 284t191 101t190.5 -101t67.5 -284q0 -120 -30.5 -207t-88.5 -132.5t-139 -45.5q-123 0 -191 101.5zM203.5 177q35.5 -71 97.5 -71t97 70.5t35 197.5q0 129 -35 200t-97 71q-63 0 -98 -71t-35 -198q0 -128 35.5 -199z" />
    <glyph glyph-name="one" unicode="1" horiz-adv-x="600" 
d="M267 633h-132v117h257v-750h-125v633z" />
    <glyph glyph-name="two" unicode="2" horiz-adv-x="600" 
d="M373.5 424q16.5 22 29 50.5t12.5 57.5q0 49 -34.5 80.5t-85.5 31.5q-62 0 -95 -37t-35 -108h-127q3 76 33 135t87 92.5t135 33.5q71 0 127.5 -29.5t88.5 -81.5t32 -117q0 -48 -15.5 -89t-39 -74.5t-66.5 -85.5l-19 -23l-118 -144h264v-116h-517l295 362q32 40 48.5 62z
" />
    <glyph glyph-name="three" unicode="3" horiz-adv-x="600" 
d="M112.5 45q-73.5 56 -79.5 168h122q9 -58 48 -84.5t97 -26.5q54 0 91.5 36.5t37.5 90.5q0 58 -42 93.5t-114 35.5h-25v102h28q55 0 85.5 28t30.5 70q0 43 -27 67t-73 24q-49 0 -78.5 -25.5t-30.5 -75.5h-123q1 65 32.5 113t84 73.5t114.5 25.5q100 0 163 -52t63 -148
q0 -42 -20 -80.5t-54 -63.5q53 -32 81.5 -81t28.5 -106q0 -71 -34 -125.5t-92.5 -84.5t-128.5 -30q-112 0 -185.5 56z" />
    <glyph glyph-name="four" unicode="4" horiz-adv-x="600" 
d="M381 138h-388l450 612h63v-498h85v-114h-85v-138h-125v138zM381 252v254l-181 -254h181z" />
    <glyph glyph-name="five" unicode="5" horiz-adv-x="600" 
d="M126 25.5q-68 36.5 -110 107.5l100 67q29 -50 72 -74.5t90 -24.5q38 0 71 17t52.5 49.5t19.5 76.5q0 66 -43.5 105.5t-107.5 39.5q-43 0 -87 -19l-67 50l87 330h324v-117h-228l-36 -144q13 1 35 1q76 0 132 -32.5t86 -89t30 -126.5q0 -77 -38 -134.5t-101 -88t-136 -30.5
q-77 0 -145 36.5z" />
    <glyph glyph-name="six" unicode="6" horiz-adv-x="600" 
d="M164 23q-62 34 -98 93.5t-36 131.5q0 82 66 174l234 328h143l-178 -246l16 1q71 0 130.5 -35t94 -94t34.5 -128q0 -72 -37 -131.5t-99 -93.5t-134 -34q-74 0 -136 34zM172 176q20 -33 54 -52.5t74 -19.5t74 19.5t53.5 52.5t19.5 72t-19.5 72t-53.5 52t-74 19t-74 -19
t-54 -52t-20 -72t20 -72z" />
    <glyph glyph-name="seven" unicode="7" horiz-adv-x="600" 
d="M387 633h-348v117h547l-405 -750h-144z" />
    <glyph glyph-name="eight" unicode="8" horiz-adv-x="600" 
d="M173.5 21q-59.5 31 -96 86t-36.5 122q0 55 27 103t76 84q-67 62 -67 144q0 57 31.5 103t83 71.5t108.5 25.5t108.5 -25.5t83 -71.5t31.5 -103q0 -80 -67 -144q50 -31 76.5 -77.5t26.5 -102.5q0 -69 -36 -125t-95.5 -88.5t-127.5 -32.5q-67 0 -126.5 31zM203 140.5
q40 -38.5 97 -38.5t97 38.5t40 95.5t-40 94.5t-97 37.5t-97 -37.5t-40 -94.5t40 -95.5zM229.5 485.5q29.5 -28.5 70.5 -28.5t70.5 28.5t29.5 69.5q0 40 -29.5 66.5t-70.5 26.5t-70.5 -26.5t-29.5 -66.5q0 -41 29.5 -69.5z" />
    <glyph glyph-name="nine" unicode="9" horiz-adv-x="600" 
d="M305 246l-16 -1q-71 0 -130.5 35.5t-94 94.5t-34.5 128q0 72 37 131t99 92.5t134 33.5q74 0 136 -34t98 -92.5t36 -130.5q0 -81 -66 -175l-234 -328h-143zM172 431q20 -33 54 -52.5t74 -19.5t74 19.5t53.5 52.5t19.5 72t-19.5 72t-53.5 52t-74 19t-74 -19t-54 -52
t-20 -72t20 -72z" />
    <glyph glyph-name="colon" unicode=":" horiz-adv-x="318" 
d="M98.5 335.5q-24.5 24.5 -24.5 59.5t24.5 60t59.5 25t60 -25t25 -60t-25 -59.5t-60 -24.5t-59.5 24.5zM98.5 134q24.5 25 59.5 25t60 -25t25 -60t-25 -59.5t-60 -24.5t-59.5 24.5t-24.5 59.5t24.5 60z" />
    <glyph glyph-name="semicolon" unicode=";" horiz-adv-x="309" 
d="M114 101h118l-87 -264h-92zM105.5 455q24.5 25 59.5 25t60 -25t25 -60t-25 -59.5t-60 -24.5t-59.5 24.5t-24.5 59.5t24.5 60z" />
    <glyph glyph-name="less" unicode="&#x3c;" horiz-adv-x="546" 
d="M40 193v102l401 195l51 -102l-301 -147l302 -160l-54 -100z" />
    <glyph glyph-name="equal" unicode="=" horiz-adv-x="648" 
d="M107 408h435v-103h-435v103zM107 224h435v-103h-435v103z" />
    <glyph glyph-name="greater" unicode="&#x3e;" horiz-adv-x="546" 
d="M52 81l302 160l-300 147l51 102l401 -195v-102l-400 -212z" />
    <glyph glyph-name="question" unicode="?" horiz-adv-x="492" 
d="M195.5 347.5q12.5 27.5 30 46.5t47.5 45q37 32 55.5 57t18.5 59q0 42 -27 67.5t-72 25.5q-51 0 -78.5 -30t-33.5 -83h-121q8 103 71 164t166 61q61 0 110.5 -26t78 -72.5t28.5 -106.5q0 -39 -13 -68t-31 -48.5t-48 -46.5q-36 -31 -54 -54.5t-18 -57.5v-50h-122v54
q0 36 12.5 63.5zM184 134q25 25 60 25t59.5 -25t24.5 -60t-24.5 -59.5t-59.5 -24.5t-60 24.5t-25 59.5t25 60z" />
    <glyph glyph-name="at" unicode="@" horiz-adv-x="790" 
d="M251 -33.5q-102 54.5 -152 146.5t-50 206q0 113 50 207.5t139.5 149.5t202.5 55q68 0 126.5 -21.5t94.5 -68t36 -117.5v-407h-66l-13 37q-61 -53 -137 -53q-58 0 -108 30t-79.5 79.5t-29.5 107.5t29.5 108t78.5 79.5t105 29.5q33 0 68 -12.5t62 -33.5v35q0 56 -44 85.5
t-117 29.5q-92 0 -161 -43t-105.5 -116t-36.5 -162t37 -161t116.5 -114.5t202.5 -42.5h198v-88h-198q-147 0 -249 54.5zM392 227q36 -37 89 -37q54 0 91.5 37.5t37.5 90.5q0 35 -17.5 65t-46.5 47t-64 17q-34 0 -63 -17.5t-46 -47t-17 -64.5q0 -54 36 -91z" />
    <glyph glyph-name="A" unicode="A" horiz-adv-x="695" 
d="M312 750h71l314 -750h-135l-54 135h-320l-54 -135h-137zM462 249l-115 288l-114 -288h229z" />
    <glyph glyph-name="B" unicode="B" horiz-adv-x="648" 
d="M89 750h234q131 0 193.5 -58t62.5 -146q0 -50 -20 -94t-59 -68q50 -22 76.5 -68.5t26.5 -101.5q0 -57 -24 -105.5t-74 -78.5t-126 -30h-290v750zM357 118q64 0 91.5 30t27.5 77q0 46 -28.5 73.5t-86.5 27.5h-147v-208h143zM354 435q52 0 77 27.5t25 72.5t-30 71t-97 26
h-115v-197h140z" />
    <glyph glyph-name="C" unicode="C" horiz-adv-x="722" 
d="M225 39q-89 52 -141.5 141t-52.5 195t52.5 195t141.5 141t193 52q86 0 162 -35.5t129 -97.5l-91 -86q-36 44 -88.5 69t-111.5 25q-71 0 -131 -35.5t-95.5 -95.5t-35.5 -132q0 -71 35.5 -131.5t95.5 -96t129 -35.5q60 0 113 25.5t91 69.5l92 -85q-54 -63 -130.5 -99
t-163.5 -36q-104 0 -193 52z" />
    <glyph glyph-name="D" unicode="D" horiz-adv-x="727" 
d="M89 750h194q122 0 215 -44.5t144.5 -129t51.5 -199.5q0 -116 -51.5 -201t-144.5 -130.5t-215 -45.5h-194v750zM282 118q136 0 211.5 67t75.5 192t-75.5 190t-211.5 65h-67v-514h67z" />
    <glyph glyph-name="E" unicode="E" horiz-adv-x="568" 
d="M89 750h432v-118h-307v-197h268v-117h-268v-200h307v-118h-432v750z" />
    <glyph glyph-name="F" unicode="F" horiz-adv-x="542" 
d="M89 750h432v-118h-307v-197h271v-117h-271v-318h-125v750z" />
    <glyph glyph-name="G" unicode="G" horiz-adv-x="781" 
d="M226 39q-89 52 -141.5 141t-52.5 195t52.5 195t141.5 141t193 52q86 0 161.5 -35t129.5 -98l-91 -86q-37 44 -89 69t-111 25q-71 0 -131 -35.5t-95.5 -95.5t-35.5 -132q0 -71 35.5 -131.5t95 -96t129.5 -35.5q50 0 96 17.5t82 50.5v123h-181v118h305v-421h-117l-5 52
q-32 -32 -77.5 -48.5t-100.5 -16.5q-104 0 -193 52z" />
    <glyph glyph-name="H" unicode="H" horiz-adv-x="765" 
d="M89 750h125v-314h337v314h125v-750h-125v318h-337v-318h-125v750z" />
    <glyph glyph-name="I" unicode="I" horiz-adv-x="303" 
d="M89 750h125v-750h-125v750z" />
    <glyph glyph-name="J" unicode="J" horiz-adv-x="354" 
d="M5 3v126q49 -20 81 -20q27 0 43 16.5t16 45.5v579h126v-581q0 -182 -150 -182q-51 0 -116 16z" />
    <glyph glyph-name="K" unicode="K" horiz-adv-x="665" 
d="M213 317v-317h-124v750h124v-334l301 334h155l-350 -381l347 -369h-161z" />
    <glyph glyph-name="L" unicode="L" horiz-adv-x="488" 
d="M89 750h125v-632h271v-118h-396v750z" />
    <glyph glyph-name="M" unicode="M" horiz-adv-x="920" 
d="M89 750h61l310 -409l310 409h61v-750h-122v477l-249 -332l-249 331v-476h-122v750z" />
    <glyph glyph-name="N" unicode="N" horiz-adv-x="788" 
d="M89 750h61l427 -503v503h122v-750h-67l-421 490v-490h-122v750z" />
    <glyph glyph-name="O" unicode="O" horiz-adv-x="842" 
d="M226 38.5q-89 51.5 -141.5 140.5t-52.5 196t52.5 196t141.5 140.5t195 51.5t195 -51.5t141.5 -140.5t52.5 -196t-52.5 -196t-141.5 -140.5t-195 -51.5t-195 51.5zM192.5 242q35.5 -60 95.5 -95t131 -35q72 0 133 34.5t97 95t36 133.5t-35.5 133.5t-96 95t-132.5 34.5
t-132.5 -34.5t-96 -95t-35.5 -133.5t35.5 -133z" />
    <glyph glyph-name="P" unicode="P" horiz-adv-x="609" 
d="M89 750h284q65 0 114.5 -31t76 -82.5t26.5 -111.5t-26.5 -111t-76 -82t-114.5 -31h-159v-301h-125v750zM355 419q50 0 80.5 31.5t30.5 77.5t-30 75t-81 29h-141v-213h141z" />
    <glyph glyph-name="Q" unicode="Q" horiz-adv-x="846" 
d="M226 38.5q-89 51.5 -141.5 140.5t-52.5 196t52.5 196t141.5 140.5t195 51.5t195 -51.5t141.5 -140.5t52.5 -196q0 -69 -22 -131.5t-63 -112.5l70 -70l-78 -79l-74 73q-48 -33 -104.5 -50.5t-117.5 -17.5q-106 0 -195 51.5zM192.5 242q35.5 -60 95.5 -95t131 -35
q73 0 133 34l-92 90l79 80l96 -96q50 67 50 155q0 73 -35.5 133.5t-96 95t-132.5 34.5t-132.5 -34.5t-96 -95t-35.5 -133.5t35.5 -133z" />
    <glyph glyph-name="R" unicode="R" horiz-adv-x="641" 
d="M89 750h284q65 0 114.5 -31t76 -82.5t26.5 -111.5q0 -70 -35.5 -127t-97.5 -81l164 -317h-141l-150 301h-116v-301h-125v750zM355 419q50 0 80.5 31.5t30.5 77.5t-30 75t-81 29h-141v-213h141z" />
    <glyph glyph-name="S" unicode="S" horiz-adv-x="555" 
d="M118 30.5q-70 43.5 -96 121.5l113 51q15 -49 55.5 -76.5t92.5 -27.5q53 0 85 26t32 71q0 33 -15 54.5t-41.5 36.5t-76.5 35q-63 25 -106 49.5t-74.5 70t-31.5 114.5q0 62 30.5 109t83 72.5t116.5 25.5q70 0 130 -32.5t92 -102.5l-112 -51q-15 35 -45 54t-66 19
q-45 0 -75.5 -25t-30.5 -66q0 -43 37.5 -73t112.5 -61q60 -25 100 -49t68.5 -66.5t28.5 -107.5q0 -69 -33 -117.5t-88.5 -73t-123.5 -24.5q-92 0 -162 43.5z" />
    <glyph glyph-name="T" unicode="T" horiz-adv-x="548" 
d="M211 633h-209v117h543v-117h-208v-633h-126v633z" />
    <glyph glyph-name="U" unicode="U" horiz-adv-x="711" 
d="M213 14.5q-63 27.5 -100.5 85.5t-37.5 146v504h127v-490q0 -80 39.5 -115.5t113.5 -35.5q75 0 114.5 35.5t39.5 115.5v490h127v-504q0 -130 -78.5 -194.5t-202.5 -64.5q-79 0 -142 27.5z" />
    <glyph glyph-name="V" unicode="V" horiz-adv-x="695" 
d="M-3 750h133l217 -540l218 540h132l-313 -750h-73z" />
    <glyph glyph-name="W" unicode="W" horiz-adv-x="1015" 
d="M-3 750h133l238 -540l79 182l-157 358h127l91 -218l91 218h126l-156 -357l79 -184l237 541h133l-328 -750h-71l-111 252l-111 -252h-71z" />
    <glyph glyph-name="X" unicode="X" horiz-adv-x="643" 
d="M246 378l-239 372h150l164 -276l165 276h149l-239 -372l243 -378h-150l-168 280l-167 -280h-150z" />
    <glyph glyph-name="Y" unicode="Y" horiz-adv-x="650" 
d="M262 360l-272 390h146l188 -275l191 275h146l-274 -389v-361h-125v360z" />
    <glyph glyph-name="Z" unicode="Z" horiz-adv-x="630" 
d="M394 632h-351v118h569l-387 -632h388v-118h-606z" />
    <glyph glyph-name="bracketleft" unicode="[" horiz-adv-x="330" 
d="M86 750h228v-114h-107v-767h109v-114h-230v995z" />
    <glyph glyph-name="backslash" unicode="\" horiz-adv-x="560" 
d="M-28 760h107l509 -1005h-107z" />
    <glyph glyph-name="bracketright" unicode="]" horiz-adv-x="330" 
d="M14 -131h109v767h-107v114h228v-995h-230v114z" />
    <glyph glyph-name="asciicircum" unicode="^" horiz-adv-x="497" 
d="M202 750h93l170 -389h-111l-106 269l-105 -269h-111z" />
    <glyph glyph-name="underscore" unicode="_" horiz-adv-x="699" 
d="M71 0h558v-98h-558v98z" />
    <glyph glyph-name="grave" unicode="`" horiz-adv-x="259" 
d="M13 708h125l100 -168h-102z" />
    <glyph glyph-name="a" unicode="a" horiz-adv-x="619" 
d="M146 20q-54 33 -85 90t-31 125t31 125t85 90t121 33q47 0 89 -18t68 -56v61h124v-470h-117l-6 61q-27 -38 -68.5 -56t-89.5 -18q-67 0 -121 33zM170.5 167q18.5 -31 49.5 -49.5t68 -18.5t68 18.5t49.5 49.5t18.5 68t-18.5 68t-49.5 49.5t-68 18.5t-68 -18.5t-49.5 -49.5
t-18.5 -68t18.5 -68z" />
    <glyph glyph-name="b" unicode="b" horiz-adv-x="618" 
d="M263 6q-42 19 -69 57l-6 -63h-117v750h123v-341q27 37 69 55.5t89 18.5q67 0 121 -33.5t85 -90.5t31 -124q0 -68 -31.5 -125t-85.5 -90t-119 -33q-48 0 -90 19zM212.5 167q18.5 -31 50 -49.5t68.5 -18.5t68 18.5t49.5 49.5t18.5 68t-18.5 68t-49.5 49.5t-68 18.5
t-68.5 -18.5t-50 -49.5t-18.5 -68t18.5 -68z" />
    <glyph glyph-name="c" unicode="c" horiz-adv-x="514" 
d="M153 20q-59 33 -92.5 90t-33.5 125t33.5 125t92.5 90t132 33q70 0 124.5 -31t88.5 -86l-94 -64q-18 32 -50 50.5t-69 18.5t-68 -18.5t-49.5 -49.5t-18.5 -68t18.5 -68t49.5 -49.5t68 -18.5q38 0 70 19t49 51l93 -66q-33 -54 -88 -85t-124 -31q-73 0 -132 33z" />
    <glyph glyph-name="d" unicode="d" horiz-adv-x="618" 
d="M146 20q-54 33 -85.5 90t-31.5 125q0 67 31 124t85 90.5t121 33.5q47 0 89 -18.5t69 -55.5v341h123v-750h-117l-6 63q-27 -38 -69 -57t-90 -19q-65 0 -119 33zM169.5 167q18.5 -31 49.5 -49.5t68 -18.5t68.5 18.5t50 49.5t18.5 68t-18.5 68t-50 49.5t-68.5 18.5
t-68 -18.5t-49.5 -49.5t-18.5 -68t18.5 -68z" />
    <glyph glyph-name="e" unicode="e" horiz-adv-x="543" 
d="M155 17.5q-59 30.5 -93 87t-34 130.5q0 68 33 125t89.5 90t122.5 33q77 0 132 -33.5t84 -93t29 -134.5h-365q2 -57 36.5 -89.5t93.5 -32.5q40 0 72 18.5t54 53.5l88 -61q-32 -58 -88 -91t-122 -33q-73 0 -132 30.5zM392 298q-10 39 -42 62.5t-71 23.5q-45 0 -74.5 -22.5
t-42.5 -63.5h230z" />
    <glyph glyph-name="f" unicode="f" horiz-adv-x="326" 
d="M93 365h-71v105h71v99q0 91 46 139.5t122 48.5q33 0 66 -10v-115h-6q-30 14 -52 14q-25 0 -38.5 -17.5t-13.5 -63.5v-95h110v-105h-110v-365h-124v365z" />
    <glyph glyph-name="g" unicode="g" horiz-adv-x="618" 
d="M138 -212q-64 32 -99 92l96 63q22 -38 61 -59t84 -21q62 0 103 39t41 100v59q-27 -37 -68.5 -55.5t-89.5 -18.5q-67 0 -121 33t-85 90t-31 125t31 125t85 90t121 33q48 0 89.5 -18.5t68.5 -55.5v61h123v-461q0 -75 -36.5 -132.5t-98.5 -89t-137 -31.5q-73 0 -137 32z
M169.5 167q18.5 -31 49.5 -49.5t68 -18.5t68.5 18.5t50 49.5t18.5 68t-18.5 68t-50 49.5t-68.5 18.5t-68 -18.5t-49.5 -49.5t-18.5 -68t18.5 -68z" />
    <glyph glyph-name="h" unicode="h" horiz-adv-x="572" 
d="M71 750h124v-326q57 59 141 59q86 0 131 -55.5t45 -154.5v-273h-124v273q0 41 -18.5 72t-66.5 31t-78 -36.5t-30 -111.5v-228h-124v750z" />
    <glyph glyph-name="i" unicode="i" horiz-adv-x="266" 
d="M71 470h124v-470h-124v470zM77.5 562.5q-22.5 22.5 -22.5 55.5t22.5 55.5t55.5 22.5t55.5 -22.5t22.5 -55.5t-22.5 -55.5t-55.5 -22.5t-55.5 22.5z" />
    <glyph glyph-name="j" unicode="j" horiz-adv-x="266" 
d="M71 470h124v-714h-124v714zM77.5 562.5q-22.5 22.5 -22.5 55.5t22.5 55.5t55.5 22.5t55.5 -22.5t22.5 -55.5t-22.5 -55.5t-55.5 -22.5t-55.5 22.5z" />
    <glyph glyph-name="k" unicode="k" horiz-adv-x="514" 
d="M195 206v-206h-124v750h124v-477l165 197h156l-208 -231l215 -239h-155z" />
    <glyph glyph-name="l" unicode="l" horiz-adv-x="266" 
d="M71 750h124v-750h-124v750z" />
    <glyph glyph-name="m" unicode="m" horiz-adv-x="845" 
d="M71 471h123v-49q24 29 57.5 45t70.5 16q41 0 76 -19.5t55 -53.5q29 35 72.5 54t89.5 19q50 0 88.5 -24.5t60 -67t21.5 -93.5v-298h-124v258q0 46 -18 80.5t-62 34.5q-33 0 -53 -19t-29 -45.5t-9 -48.5v-260h-123v259q0 47 -18 80.5t-62 33.5t-68 -33.5t-24 -78.5v-261
h-124v471z" />
    <glyph glyph-name="n" unicode="n" horiz-adv-x="571" 
d="M71 470h124v-50q55 60 141 60t131 -56t45 -155v-269h-124v269q0 41 -18.5 72.5t-66.5 31.5t-78 -36.5t-30 -111.5v-225h-124v470z" />
    <glyph glyph-name="o" unicode="o" horiz-adv-x="571" 
d="M153 20q-59 33 -92.5 90t-33.5 125t33.5 125t92.5 90t132 33t132.5 -33t93 -90t33.5 -125t-33.5 -125t-93 -90t-132.5 -33t-132 33zM167.5 167q18.5 -31 49.5 -49.5t68 -18.5t68.5 18.5t50 49.5t18.5 68t-18.5 68t-50 49.5t-68.5 18.5t-68 -18.5t-49.5 -49.5t-18.5 -68
t18.5 -68z" />
    <glyph glyph-name="p" unicode="p" horiz-adv-x="618" 
d="M264 6q-42 19 -69 56v-312h-124v720h124v-61q27 37 68.5 55.5t88.5 18.5q67 0 121 -33.5t85 -90.5t31 -124q0 -68 -31.5 -125t-85.5 -90t-118 -33q-48 0 -90 19zM213.5 167q18.5 -31 49.5 -49.5t68 -18.5t68 18.5t49.5 49.5t18.5 68t-18.5 68t-49.5 49.5t-68 18.5
t-68 -18.5t-49.5 -49.5t-18.5 -68t18.5 -68z" />
    <glyph glyph-name="q" unicode="q" horiz-adv-x="619" 
d="M146 20q-54 33 -85 90t-31 125t31 125t85 90t121 33q47 0 89 -18t68 -55v60h124v-718h-124v308q-27 -37 -68.5 -55t-88.5 -18q-67 0 -121 33zM170.5 167q18.5 -31 49.5 -49.5t68 -18.5t68 18.5t49.5 49.5t18.5 68t-18.5 68t-49.5 49.5t-68 18.5t-68 -18.5t-49.5 -49.5
t-18.5 -68t18.5 -68z" />
    <glyph glyph-name="r" unicode="r" horiz-adv-x="366" 
d="M71 470h124v-55q19 32 48 48.5t66 16.5q27 0 47 -10v-115q-29 14 -60 14q-46 0 -73.5 -35t-27.5 -101v-230l-124 -3v470z" />
    <glyph glyph-name="s" unicode="s" horiz-adv-x="460" 
d="M109 18q-60 31 -86 94l114 41q14 -32 40.5 -47t57.5 -15q28 0 46 11.5t18 32.5q0 24 -21.5 35.5t-68.5 24.5q-50 13 -82.5 27t-56 42.5t-23.5 75.5q0 70 51.5 106.5t129.5 36.5q64 0 115 -27.5t74 -84.5l-120 -34q-8 24 -28 37.5t-47 13.5q-24 0 -40.5 -11.5t-16.5 -30.5
q0 -21 22 -31t76 -24q48 -13 81.5 -28.5t57 -46t23.5 -79.5q0 -74 -52.5 -112t-131.5 -38q-72 0 -132 31z" />
    <glyph glyph-name="t" unicode="t" horiz-adv-x="323" 
d="M100 366h-87v104h87v169h123v-169h89v-104h-89v-366h-123v366z" />
    <glyph glyph-name="u" unicode="u" horiz-adv-x="536" 
d="M114 44q-58 54 -58 150v276h124v-272q0 -46 23 -73.5t64 -27.5t64.5 27.5t23.5 73.5v272h124v-276q0 -96 -58 -150t-154 -54q-95 0 -153 54z" />
    <glyph glyph-name="v" unicode="v" horiz-adv-x="481" 
d="M-5 470h125l122 -327l119 327h125l-181 -470h-128z" />
    <glyph glyph-name="w" unicode="w" horiz-adv-x="762" 
d="M-5 470h129l106 -308l103 308h95l103 -308l107 308h130l-185 -470h-104l-99 295l-98 -295h-104z" />
    <glyph glyph-name="x" unicode="x" horiz-adv-x="514" 
d="M178 242l-175 228h147l107 -155l107 155h146l-174 -228l184 -242h-153l-110 166l-111 -166h-152z" />
    <glyph glyph-name="y" unicode="y" horiz-adv-x="526" 
d="M204 36l-216 434h144l133 -299l137 299h135l-326 -714h-135z" />
    <glyph glyph-name="z" unicode="z" horiz-adv-x="481" 
d="M264 366h-232v104h430l-243 -363h244v-107h-456z" />
    <glyph glyph-name="braceleft" unicode="{" horiz-adv-x="308" 
d="M143.5 -222q-27.5 20 -41.5 50.5t-14 62.5v182q0 48 -3.5 73.5t-17 46t-43.5 37.5v60q29 17 43 38.5t17.5 47.5t3.5 71v181q0 32 14.5 62.5t43 50.5t70.5 20h63v-101q-39 -3 -54.5 -19t-15.5 -56v-152q0 -112 -64 -173q64 -61 64 -173v-153q0 -40 15.5 -56t54.5 -19v-101
h-70q-38 0 -65.5 20z" />
    <glyph glyph-name="bar" unicode="|" horiz-adv-x="338" 
d="M107 750h125v-993h-125v993z" />
    <glyph glyph-name="braceright" unicode="}" horiz-adv-x="308" 
d="M84 -124q16 17 16 58v153q0 112 64 173q-64 61 -64 173v152q0 41 -16 58t-54 17v101h69q38 0 65.5 -20t41.5 -50.5t14 -62.5v-181q0 -45 3.5 -71t17.5 -47.5t43 -38.5v-60q-30 -17 -43.5 -37.5t-17 -46t-3.5 -73.5v-182q0 -32 -14 -62.5t-41.5 -50.5t-65.5 -20h-69v101
q38 0 54 17z" />
    <glyph glyph-name="asciitilde" unicode="~" horiz-adv-x="591" 
d="M335.5 283.5q-20.5 9.5 -47.5 29.5q-25 17 -37.5 24t-28.5 7q-17 0 -27.5 -10t-25.5 -34l-11 -18l-90 48l18 32q21 41 53 61.5t71 20.5q56 0 112 -42q19 -14 29.5 -20t21.5 -6q24 0 40 34l18 35l91 -44l-22 -42q-23 -43 -51.5 -64t-66.5 -21q-26 0 -46.5 9.5z" />
    <glyph glyph-name="uni00A0" unicode="&#xa0;" horiz-adv-x="270" 
 />
    <glyph glyph-name="exclamdown" unicode="&#xa1;" horiz-adv-x="324" 
d="M224 -280h-125v520h125v-520zM102 455.5q25 24.5 60 24.5t59.5 -24.5t24.5 -59.5t-24.5 -60t-59.5 -25t-60 25t-25 60t25 59.5z" />
    <glyph glyph-name="cent" unicode="&#xa2;" horiz-adv-x="554" 
d="M265 84q-59 7 -108 41.5t-77.5 87.5t-28.5 114t28.5 114t77.5 87.5t108 41.5v84h63v-84q58 -7 106 -40.5t76 -84.5l-96 -60q-13 26 -35.5 44t-50.5 25v-255q28 7 50.5 25.5t35.5 44.5l96 -62q-27 -50 -75.5 -83t-106.5 -40v-84h-63v84zM193.5 245.5
q28.5 -35.5 71.5 -46.5v255q-43 -11 -71.5 -46.5t-28.5 -80.5q0 -46 28.5 -81.5z" />
    <glyph glyph-name="sterling" unicode="&#xa3;" horiz-adv-x="608" 
d="M33 55l46 31q55 36 75 69t20 93q0 52 -12 143h-79v98h75q12 123 82.5 192t228.5 69h68v-106h-68q-81 0 -123.5 -20t-58 -52t-21.5 -83h251v-98h-247q12 -91 12 -139q0 -47 -10 -84.5t-33 -72.5h298v-106h-504v66z" />
    <glyph glyph-name="currency" unicode="&#xa4;" horiz-adv-x="684" 
d="M269 61q-34 11 -73 34l-36 -35l-66 66l35 35q-22 37 -32 69.5t-10 69.5t10 69.5t32 69.5l-35 35l66 66l36 -35q39 23 73 34t73 11t73 -11t73 -34l36 35l66 -66l-35 -35q22 -37 32 -69.5t10 -69.5t-10 -69.5t-32 -69.5l35 -35l-66 -66l-36 35q-39 -23 -73 -34t-73 -11
t-73 11zM209.5 228q20.5 -35 55.5 -55.5t77 -20.5t76.5 21t55 55.5t20.5 75.5q0 40 -20 73t-55 52t-77 19q-43 0 -78 -19t-55 -52t-20 -74q0 -40 20.5 -75z" />
    <glyph glyph-name="yen" unicode="&#xa5;" horiz-adv-x="650" 
d="M263 153h-158v91h158v85h-158v91h121l-199 330h146l151 -287l152 287h146l-200 -330h123v-91h-160v-85h160v-91h-160v-153h-122v153z" />
    <glyph glyph-name="brokenbar" unicode="&#xa6;" horiz-adv-x="338" 
d="M107 750h125v-407h-125v407zM107 166h125v-407h-125v407z" />
    <glyph glyph-name="section" unicode="&#xa7;" horiz-adv-x="562" 
d="M157.5 -122.5q-65.5 45.5 -107.5 119.5l94 77q33 -57 64.5 -89.5t74.5 -32.5q31 0 54 22.5t23 53.5t-28.5 52t-90.5 50q-58 27 -95.5 50.5t-64 61t-26.5 89.5q0 78 71 149q-29 51 -29 101q0 53 23.5 93.5t64.5 63t91 22.5q57 0 107 -28t91 -77l-90 -81q-22 26 -50 45.5
t-53 19.5q-26 0 -43.5 -16.5t-16.5 -42.5q1 -32 30 -54t88 -51q57 -29 91 -51t59 -58t25 -86q0 -69 -63 -143q36 -46 36 -108q0 -55 -25 -100t-68 -71t-96 -26q-75 0 -140.5 45.5zM192.5 305.5q13.5 -15.5 37.5 -27.5l131 -68q32 34 32 60q0 21 -14 36t-37 28l-131 68
q-32 -30 -32 -59q0 -22 13.5 -37.5z" />
    <glyph glyph-name="dieresis" unicode="&#xa8;" horiz-adv-x="440" 
d="M281.5 562.5q-22.5 22.5 -22.5 55.5t22.5 55.5t55.5 22.5t55.5 -22.5t22.5 -55.5t-22.5 -55.5t-55.5 -22.5t-55.5 22.5zM76 673.5q23 22.5 55 22.5q33 0 55.5 -22.5t22.5 -55.5t-22.5 -55.5t-55.5 -22.5q-32 0 -55 22.5t-23 55.5t23 55.5z" />
    <glyph glyph-name="copyright" unicode="&#xa9;" horiz-adv-x="764" 
d="M217 96.5q-76 43.5 -120.5 117.5t-44.5 161t44.5 161t120.5 117.5t165 43.5t165 -43.5t120.5 -117.5t44.5 -161t-44.5 -161t-120.5 -117.5t-165 -43.5t-165 43.5zM165 252q34 -56 91.5 -88.5t125.5 -32.5t126 32.5t91.5 88.5t33.5 123t-33.5 123t-91.5 88.5t-126 32.5
t-125.5 -32.5t-91.5 -88.5t-34 -123t34 -123zM223.5 465.5q24.5 40.5 66 64t90.5 23.5q61 0 107 -35t67 -89l-80 -27q-12 30 -36.5 48t-57.5 18q-38 0 -65.5 -27t-27.5 -64t27.5 -64t65.5 -27q64 0 92 60l82 -22q-21 -53 -67 -88t-107 -35q-49 0 -90.5 23.5t-66 64
t-24.5 88.5t24.5 88.5z" />
    <glyph glyph-name="guillemotleft" unicode="&#xab;" horiz-adv-x="482" 
d="M208 241l184 177l52 -61l-124 -118l125 -128l-53 -58zM194 418l51 -61l-123 -118l124 -128l-52 -58l-185 188z" />
    <glyph glyph-name="registered" unicode="&#xae;" horiz-adv-x="602" 
d="M159.5 235.5q-64.5 37.5 -102.5 102t-38 141.5t38 141.5t102.5 102.5t141.5 38q76 0 141 -38t103 -102.5t38 -141.5t-38 -141.5t-103 -102t-141 -37.5q-77 0 -141.5 37.5zM114 370.5q29 -49.5 78.5 -78t108.5 -28.5t108.5 28.5t78.5 78t29 108.5t-29 108.5t-78.5 78.5
t-108.5 29t-108.5 -29t-78.5 -78.5t-29 -108.5t29 -108.5zM214 632h93q45 0 73 -26.5t28 -66.5q0 -54 -53 -80l77 -133h-75l-66 121h-10v-121h-67v306zM300 499q20 0 31 11.5t11 28.5q0 18 -11 29.5t-31 11.5h-19v-81h19z" />
    <glyph glyph-name="macron" unicode="&#xaf;" horiz-adv-x="423" 
d="M71 627h282v-92h-282v92z" />
    <glyph glyph-name="degree" unicode="&#xb0;" horiz-adv-x="495" 
d="M157 424q-41 24 -65 65t-24 89q0 49 24 90t65 65t90 24q48 0 89 -24t65 -65t24 -90q0 -48 -24 -89t-65 -65t-89 -24q-49 0 -90 24zM186 517.5q26 -25.5 61 -25.5q36 0 61.5 25.5t25.5 60.5t-25.5 61t-61.5 26q-35 0 -61 -26t-26 -61t26 -60.5z" />
    <glyph glyph-name="plusminus" unicode="&#xb1;" horiz-adv-x="698" 
d="M294 316h-224v110h224v143h110v-143h224v-110h-224v-143h-110v143zM70 110h558v-110h-558v110z" />
    <glyph glyph-name="acute" unicode="&#xb4;" horiz-adv-x="259" 
d="M121 708h125l-124 -168h-101z" />
    <glyph glyph-name="uni00B5" unicode="&#xb5;" horiz-adv-x="610" 
d="M107 470h123v-272q0 -46 23.5 -73.5t64.5 -27.5t64.5 27.5t23.5 73.5v272h123v-470h-72l-12 24q-53 -34 -127 -34q-53 0 -92 19v-214h-119v675z" />
    <glyph glyph-name="paragraph" unicode="&#xb6;" horiz-adv-x="563" 
d="M226 283q-86 19 -142 81.5t-56 149.5q0 64 32.5 118.5t87.5 86t119 31.5h189v-921h-75v863h-80v-863h-75v454z" />
    <glyph glyph-name="periodcentered" unicode="&#xb7;" horiz-adv-x="327" 
d="M105 180q-24 24 -24 58t24 58.5t58 24.5q33 0 58.5 -24.5t25.5 -58.5t-25 -58t-59 -24t-58 24z" />
    <glyph glyph-name="cedilla" unicode="&#xb8;" horiz-adv-x="259" 
d="M133 -116q0 21 -15.5 30.5t-46.5 11.5l20 80h59l-13 -50q36 -5 60 -25t24 -56q0 -49 -45.5 -78t-137.5 -29l17 73q78 0 78 43z" />
    <glyph glyph-name="guillemotright" unicode="&#xbb;" horiz-adv-x="481" 
d="M235 111l125 128l-124 118l51 61l185 -177l-184 -188zM161 239l-124 118l52 61l184 -177l-184 -188l-53 58z" />
    <glyph glyph-name="questiondown" unicode="&#xbf;" horiz-adv-x="492" 
d="M296.5 151.5q-12.5 -27.5 -30 -46.5t-47.5 -45q-37 -32 -55.5 -57t-18.5 -59q0 -42 27 -67.5t72 -25.5q51 0 78.5 30t33.5 83h121q-8 -103 -71 -164t-166 -61q-61 0 -110.5 26t-78 72.5t-28.5 106.5q0 39 13 68t31 48.5t48 46.5q36 31 54 54.5t18 57.5v50h122v-54
q0 -36 -12.5 -63.5zM188.5 484.5q24.5 24.5 59.5 24.5t60 -24.5t25 -59.5t-25 -60t-60 -25t-59.5 25t-24.5 60t24.5 59.5z" />
    <glyph glyph-name="Agrave" unicode="&#xc0;" horiz-adv-x="695" 
d="M312 750h71l314 -750h-135l-54 135h-320l-54 -135h-137zM462 249l-115 288l-114 -288h229zM186 952h126l82 -139h-95z" />
    <glyph glyph-name="Aacute" unicode="&#xc1;" horiz-adv-x="695" 
d="M312 750h71l314 -750h-135l-54 135h-320l-54 -135h-137zM462 249l-115 288l-114 -288h229zM382 952h125l-113 -139h-95z" />
    <glyph glyph-name="Acircumflex" unicode="&#xc2;" horiz-adv-x="695" 
d="M312 750h71l314 -750h-135l-54 135h-320l-54 -135h-137zM462 249l-115 288l-114 -288h229zM287 952h121l112 -139h-107l-66 80l-66 -80h-106z" />
    <glyph glyph-name="Atilde" unicode="&#xc3;" horiz-adv-x="695" 
d="M312 750h71l314 -750h-135l-54 135h-320l-54 -135h-137zM462 249l-115 288l-114 -288h229zM379.5 813q-17.5 8 -37.5 24q-17 13 -28 19t-24 6q-14 0 -23 -8t-20 -26l-12 -18l-70 38l16 28q37 64 100 64q42 0 89 -34q3 -2 12 -8.5t16.5 -9.5t13.5 -3q17 0 34 28l15 28
l71 -35l-18 -34q-37 -67 -96 -67q-21 0 -38.5 8z" />
    <glyph glyph-name="Adieresis" unicode="&#xc4;" horiz-adv-x="695" 
d="M312 750h71l314 -750h-135l-54 135h-320l-54 -135h-137zM462 249l-115 288l-114 -288h229zM391 829q-20 20 -20 50q0 31 20 51.5t51 20.5t50.5 -20.5t19.5 -51.5q0 -30 -19.5 -50t-50.5 -20t-51 20zM201 930.5q20 20.5 51 20.5t50.5 -20.5t19.5 -51.5q0 -30 -19.5 -50
t-50.5 -20t-51 20t-20 50q0 31 20 51.5z" />
    <glyph glyph-name="Aring" unicode="&#xc5;" horiz-adv-x="695" 
d="M309 743q-28 11 -45 36.5t-17 56.5q0 42 29.5 71.5t71.5 29.5t71.5 -30t29.5 -71q0 -31 -17.5 -57t-45.5 -37l311 -742h-135l-54 135h-320l-54 -135h-137zM462 249l-115 288l-114 -288h229zM322 810q11 -11 26 -11t26 11t11 26t-11 26t-26 11t-26 -11t-11 -26t11 -26z
" />
    <glyph glyph-name="AE" unicode="&#xc6;" horiz-adv-x="898" 
d="M463 750h389v-117h-276v-192h232v-117h-232v-207h276v-117h-399v199h-200l-123 -199h-139zM453 304v209l-134 -209h134z" />
    <glyph glyph-name="Ccedilla" unicode="&#xc7;" horiz-adv-x="722" 
d="M425 -116q0 21 -15.5 30.5t-46.5 11.5l16 63q-96 10 -175.5 63.5t-126 138t-46.5 184.5q0 106 52.5 195t141.5 141t193 52q86 0 162 -35.5t129 -97.5l-91 -86q-36 44 -88.5 69t-111.5 25q-71 0 -131 -35.5t-95.5 -95.5t-35.5 -132q0 -71 35.5 -131.5t95.5 -96t129 -35.5
q60 0 113 25.5t91 69.5l92 -85q-51 -59 -122.5 -95t-152.5 -40l-8 -31q36 -5 60 -25t24 -56q0 -49 -45.5 -78t-137.5 -29l17 73q78 0 78 43z" />
    <glyph glyph-name="Egrave" unicode="&#xc8;" horiz-adv-x="568" 
d="M89 750h432v-118h-307v-197h268v-117h-268v-200h307v-118h-432v750zM144 952h126l82 -139h-95z" />
    <glyph glyph-name="Eacute" unicode="&#xc9;" horiz-adv-x="568" 
d="M89 750h432v-118h-307v-197h268v-117h-268v-200h307v-118h-432v750zM340 952h125l-113 -139h-95z" />
    <glyph glyph-name="Ecircumflex" unicode="&#xca;" horiz-adv-x="568" 
d="M89 750h432v-118h-307v-197h268v-117h-268v-200h307v-118h-432v750zM245 952h121l112 -139h-107l-66 80l-66 -80h-106z" />
    <glyph glyph-name="Edieresis" unicode="&#xcb;" horiz-adv-x="568" 
d="M89 750h432v-118h-307v-197h268v-117h-268v-200h307v-118h-432v750zM349 829q-20 20 -20 50q0 31 20 51.5t51 20.5t50.5 -20.5t19.5 -51.5q0 -30 -19.5 -50t-50.5 -20t-51 20zM159 930.5q20 20.5 51 20.5t50.5 -20.5t19.5 -51.5q0 -30 -19.5 -50t-50.5 -20t-51 20t-20 50
q0 31 20 51.5z" />
    <glyph glyph-name="Igrave" unicode="&#xcc;" horiz-adv-x="303" 
d="M89 750h125v-750h-125v750zM-9 952h126l82 -139h-95z" />
    <glyph glyph-name="Iacute" unicode="&#xcd;" horiz-adv-x="303" 
d="M89 750h125v-750h-125v750zM187 952h125l-113 -139h-95z" />
    <glyph glyph-name="Icircumflex" unicode="&#xce;" horiz-adv-x="303" 
d="M89 750h125v-750h-125v750zM91 952h121l112 -139h-107l-66 80l-66 -80h-106z" />
    <glyph glyph-name="Idieresis" unicode="&#xcf;" horiz-adv-x="303" 
d="M89 750h125v-750h-125v750zM196 829q-20 20 -20 50q0 31 20 51.5t51 20.5t50.5 -20.5t19.5 -51.5q0 -30 -19.5 -50t-50.5 -20t-51 20zM6 930.5q20 20.5 51 20.5t50.5 -20.5t19.5 -51.5q0 -30 -19.5 -50t-50.5 -20t-51 20t-20 50q0 31 20 51.5z" />
    <glyph glyph-name="Eth" unicode="&#xd0;" horiz-adv-x="727" 
d="M89 320h-67v110h67v320h194q122 0 215 -44.5t144.5 -129t51.5 -199.5q0 -116 -51.5 -201t-144.5 -130.5t-215 -45.5h-194v320zM282 118q136 0 211.5 67t75.5 192t-75.5 190t-211.5 65h-67v-202h112v-110h-112v-202h67z" />
    <glyph glyph-name="Ntilde" unicode="&#xd1;" horiz-adv-x="788" 
d="M89 750h61l427 -503v503h122v-750h-67l-421 490v-490h-122v750zM426.5 813q-17.5 8 -37.5 24q-17 13 -28 19t-24 6q-14 0 -23 -8t-20 -26l-12 -18l-70 38l16 28q37 64 100 64q42 0 89 -34q3 -2 12 -8.5t16.5 -9.5t13.5 -3q17 0 34 28l15 28l71 -35l-18 -34
q-37 -67 -96 -67q-21 0 -38.5 8z" />
    <glyph glyph-name="Ograve" unicode="&#xd2;" horiz-adv-x="842" 
d="M226 38.5q-89 51.5 -141.5 140.5t-52.5 196t52.5 196t141.5 140.5t195 51.5t195 -51.5t141.5 -140.5t52.5 -196t-52.5 -196t-141.5 -140.5t-195 -51.5t-195 51.5zM192.5 242q35.5 -60 95.5 -95t131 -35q72 0 133 34.5t97 95t36 133.5t-35.5 133.5t-96 95t-132.5 34.5
t-132.5 -34.5t-96 -95t-35.5 -133.5t35.5 -133zM260 952h126l82 -139h-95z" />
    <glyph glyph-name="Oacute" unicode="&#xd3;" horiz-adv-x="842" 
d="M226 38.5q-89 51.5 -141.5 140.5t-52.5 196t52.5 196t141.5 140.5t195 51.5t195 -51.5t141.5 -140.5t52.5 -196t-52.5 -196t-141.5 -140.5t-195 -51.5t-195 51.5zM192.5 242q35.5 -60 95.5 -95t131 -35q72 0 133 34.5t97 95t36 133.5t-35.5 133.5t-96 95t-132.5 34.5
t-132.5 -34.5t-96 -95t-35.5 -133.5t35.5 -133zM456 952h125l-113 -139h-95z" />
    <glyph glyph-name="Ocircumflex" unicode="&#xd4;" horiz-adv-x="842" 
d="M226 38.5q-89 51.5 -141.5 140.5t-52.5 196t52.5 196t141.5 140.5t195 51.5t195 -51.5t141.5 -140.5t52.5 -196t-52.5 -196t-141.5 -140.5t-195 -51.5t-195 51.5zM192.5 242q35.5 -60 95.5 -95t131 -35q72 0 133 34.5t97 95t36 133.5t-35.5 133.5t-96 95t-132.5 34.5
t-132.5 -34.5t-96 -95t-35.5 -133.5t35.5 -133zM361 952h121l112 -139h-107l-66 80l-66 -80h-106z" />
    <glyph glyph-name="Otilde" unicode="&#xd5;" horiz-adv-x="842" 
d="M226 38.5q-89 51.5 -141.5 140.5t-52.5 196t52.5 196t141.5 140.5t195 51.5t195 -51.5t141.5 -140.5t52.5 -196t-52.5 -196t-141.5 -140.5t-195 -51.5t-195 51.5zM192.5 242q35.5 -60 95.5 -95t131 -35q72 0 133 34.5t97 95t36 133.5t-35.5 133.5t-96 95t-132.5 34.5
t-132.5 -34.5t-96 -95t-35.5 -133.5t35.5 -133zM452.5 813q-17.5 8 -37.5 24q-17 13 -28 19t-24 6q-14 0 -23 -8t-20 -26l-12 -18l-70 38l16 28q37 64 100 64q42 0 89 -34q3 -2 12 -8.5t16.5 -9.5t13.5 -3q17 0 34 28l15 28l71 -35l-18 -34q-37 -67 -96 -67q-21 0 -38.5 8z
" />
    <glyph glyph-name="Odieresis" unicode="&#xd6;" horiz-adv-x="842" 
d="M226 38.5q-89 51.5 -141.5 140.5t-52.5 196t52.5 196t141.5 140.5t195 51.5t195 -51.5t141.5 -140.5t52.5 -196t-52.5 -196t-141.5 -140.5t-195 -51.5t-195 51.5zM192.5 242q35.5 -60 95.5 -95t131 -35q72 0 133 34.5t97 95t36 133.5t-35.5 133.5t-96 95t-132.5 34.5
t-132.5 -34.5t-96 -95t-35.5 -133.5t35.5 -133zM465 829q-20 20 -20 50q0 31 20 51.5t51 20.5t50.5 -20.5t19.5 -51.5q0 -30 -19.5 -50t-50.5 -20t-51 20zM275 930.5q20 20.5 51 20.5t50.5 -20.5t19.5 -51.5q0 -30 -19.5 -50t-50.5 -20t-51 20t-20 50q0 31 20 51.5z" />
    <glyph glyph-name="multiply" unicode="&#xd7;" horiz-adv-x="544" 
d="M272 185l-148 -148l-78 78l148 147l-148 149l77 78l149 -149l148 148l78 -78l-148 -148l148 -148l-78 -78z" />
    <glyph glyph-name="Oslash" unicode="&#xd8;" horiz-adv-x="842" 
d="M254 24l-23 -34h-119l58 88q-64 54 -101 131t-37 166q0 107 52.5 196t141.5 140.5t195 51.5q94 0 176 -42l26 39h115l-61 -92q62 -55 97.5 -130.5t35.5 -162.5q0 -107 -52.5 -196t-141.5 -140.5t-195 -51.5q-90 0 -167 37zM179 268.5q22 -49.5 61 -86.5l288 434
q-52 22 -107 22q-72 0 -132.5 -34.5t-96 -95t-35.5 -133.5q0 -57 22 -106.5zM419 112q72 0 133 34.5t97 95t36 133.5q0 54 -20.5 102.5t-56.5 84.5l-285 -432q45 -18 96 -18z" />
    <glyph glyph-name="Ugrave" unicode="&#xd9;" horiz-adv-x="711" 
d="M213 14.5q-63 27.5 -100.5 85.5t-37.5 146v504h127v-490q0 -80 39.5 -115.5t113.5 -35.5q75 0 114.5 35.5t39.5 115.5v490h127v-504q0 -130 -78.5 -194.5t-202.5 -64.5q-79 0 -142 27.5zM194 952h126l82 -139h-95z" />
    <glyph glyph-name="Uacute" unicode="&#xda;" horiz-adv-x="711" 
d="M213 14.5q-63 27.5 -100.5 85.5t-37.5 146v504h127v-490q0 -80 39.5 -115.5t113.5 -35.5q75 0 114.5 35.5t39.5 115.5v490h127v-504q0 -130 -78.5 -194.5t-202.5 -64.5q-79 0 -142 27.5zM390 952h125l-113 -139h-95z" />
    <glyph glyph-name="Ucircumflex" unicode="&#xdb;" horiz-adv-x="711" 
d="M213 14.5q-63 27.5 -100.5 85.5t-37.5 146v504h127v-490q0 -80 39.5 -115.5t113.5 -35.5q75 0 114.5 35.5t39.5 115.5v490h127v-504q0 -130 -78.5 -194.5t-202.5 -64.5q-79 0 -142 27.5zM295 952h121l112 -139h-107l-66 80l-66 -80h-106z" />
    <glyph glyph-name="Udieresis" unicode="&#xdc;" horiz-adv-x="711" 
d="M213 14.5q-63 27.5 -100.5 85.5t-37.5 146v504h127v-490q0 -80 39.5 -115.5t113.5 -35.5q75 0 114.5 35.5t39.5 115.5v490h127v-504q0 -130 -78.5 -194.5t-202.5 -64.5q-79 0 -142 27.5zM399 829q-20 20 -20 50q0 31 20 51.5t51 20.5t50.5 -20.5t19.5 -51.5
q0 -30 -19.5 -50t-50.5 -20t-51 20zM209 930.5q20 20.5 51 20.5t50.5 -20.5t19.5 -51.5q0 -30 -19.5 -50t-50.5 -20t-51 20t-20 50q0 31 20 51.5z" />
    <glyph glyph-name="Yacute" unicode="&#xdd;" horiz-adv-x="650" 
d="M262 360l-272 390h146l188 -275l191 275h146l-274 -389v-361h-125v360zM360 952h125l-113 -139h-95z" />
    <glyph glyph-name="Thorn" unicode="&#xde;" horiz-adv-x="609" 
d="M89 750h125v-104h159q65 0 114 -32t76 -84.5t27 -111.5q0 -60 -26.5 -111t-76 -82t-114.5 -31h-159v-194h-125v750zM361 312q51 0 81 31t30 78q0 46 -30 76.5t-81 30.5h-147v-216h147z" />
    <glyph glyph-name="germandbls" unicode="&#xdf;" horiz-adv-x="559" 
d="M371 154q35 38 35 96q0 54 -37 92t-94 39v105q42 2 65.5 20t23.5 53t-24 55.5t-59 20.5q-40 0 -64.5 -25.5t-24.5 -74.5v-535h-121v550q0 62 27 107.5t73.5 69t103.5 23.5q59 0 105.5 -25t72.5 -68.5t26 -97.5q0 -73 -50 -123q48 -31 74 -78.5t26 -107.5q0 -71 -32 -130
t-90 -94t-132 -36v125q61 1 96 39z" />
    <glyph glyph-name="agrave" unicode="&#xe0;" horiz-adv-x="619" 
d="M146 20q-54 33 -85 90t-31 125t31 125t85 90t121 33q47 0 89 -18t68 -56v61h124v-470h-117l-6 61q-27 -38 -68.5 -56t-89.5 -18q-67 0 -121 33zM170.5 167q18.5 -31 49.5 -49.5t68 -18.5t68 18.5t49.5 49.5t18.5 68t-18.5 68t-49.5 49.5t-68 18.5t-68 -18.5t-49.5 -49.5
t-18.5 -68t18.5 -68zM137 708h125l100 -168h-102z" />
    <glyph glyph-name="aacute" unicode="&#xe1;" horiz-adv-x="619" 
d="M146 20q-54 33 -85 90t-31 125t31 125t85 90t121 33q47 0 89 -18t68 -56v61h124v-470h-117l-6 61q-27 -38 -68.5 -56t-89.5 -18q-67 0 -121 33zM170.5 167q18.5 -31 49.5 -49.5t68 -18.5t68 18.5t49.5 49.5t18.5 68t-18.5 68t-49.5 49.5t-68 18.5t-68 -18.5t-49.5 -49.5
t-18.5 -68t18.5 -68zM360 708h125l-124 -168h-101z" />
    <glyph glyph-name="acircumflex" unicode="&#xe2;" horiz-adv-x="619" 
d="M146 20q-54 33 -85 90t-31 125t31 125t85 90t121 33q47 0 89 -18t68 -56v61h124v-470h-117l-6 61q-27 -38 -68.5 -56t-89.5 -18q-67 0 -121 33zM170.5 167q18.5 -31 49.5 -49.5t68 -18.5t68 18.5t49.5 49.5t18.5 68t-18.5 68t-49.5 49.5t-68 18.5t-68 -18.5t-49.5 -49.5
t-18.5 -68t18.5 -68zM267 686h89l114 -146h-99l-60 68l-59 -68h-100z" />
    <glyph glyph-name="atilde" unicode="&#xe3;" horiz-adv-x="619" 
d="M146 20q-54 33 -85 90t-31 125t31 125t85 90t121 33q47 0 89 -18t68 -56v61h124v-470h-117l-6 61q-27 -38 -68.5 -56t-89.5 -18q-67 0 -121 33zM170.5 167q18.5 -31 49.5 -49.5t68 -18.5t68 18.5t49.5 49.5t18.5 68t-18.5 68t-49.5 49.5t-68 18.5t-68 -18.5t-49.5 -49.5
t-18.5 -68t18.5 -68zM340.5 540.5q-18.5 8.5 -40.5 25.5q-18 14 -29.5 21t-23.5 7q-16 0 -26 -11t-30 -45l-74 44q34 55 60 76t65 21q45 0 95 -39q16 -13 24 -18t17 -5q13 0 20.5 8t17 24.5t13.5 23.5l75 -42q-32 -56 -58.5 -77.5t-66.5 -21.5q-20 0 -38.5 8.5z" />
    <glyph glyph-name="adieresis" unicode="&#xe4;" horiz-adv-x="619" 
d="M146 20q-54 33 -85 90t-31 125t31 125t85 90t121 33q47 0 89 -18t68 -56v61h124v-470h-117l-6 61q-27 -38 -68.5 -56t-89.5 -18q-67 0 -121 33zM170.5 167q18.5 -31 49.5 -49.5t68 -18.5t68 18.5t49.5 49.5t18.5 68t-18.5 68t-49.5 49.5t-68 18.5t-68 -18.5t-49.5 -49.5
t-18.5 -68t18.5 -68zM359.5 562.5q-22.5 22.5 -22.5 55.5t22.5 55.5t55.5 22.5t55.5 -22.5t22.5 -55.5t-22.5 -55.5t-55.5 -22.5t-55.5 22.5zM154 673.5q23 22.5 55 22.5q33 0 55.5 -22.5t22.5 -55.5t-22.5 -55.5t-55.5 -22.5q-32 0 -55 22.5t-23 55.5t23 55.5z" />
    <glyph glyph-name="aring" unicode="&#xe5;" horiz-adv-x="619" 
d="M146 20q-54 33 -85 90t-31 125t31 125t85 90t121 33q47 0 89 -18t68 -56v61h124v-470h-117l-6 61q-27 -38 -68.5 -56t-89.5 -18q-67 0 -121 33zM170.5 167q18.5 -31 49.5 -49.5t68 -18.5t68 18.5t49.5 49.5t18.5 68t-18.5 68t-49.5 49.5t-68 18.5t-68 -18.5t-49.5 -49.5
t-18.5 -68t18.5 -68zM233 556.5q-32 31.5 -32 76.5q0 47 32 79t78 32t78 -32.5t32 -78.5q0 -45 -32 -76.5t-78 -31.5t-78 31.5zM280.5 603.5q12.5 -12.5 30.5 -12.5q17 0 30 12.5t13 29.5q0 19 -12.5 31.5t-30.5 12.5t-30.5 -12.5t-12.5 -31.5q0 -17 12.5 -29.5z" />
    <glyph glyph-name="ae" unicode="&#xe6;" horiz-adv-x="863" 
d="M73 30.5q-43 40.5 -43 101.5q0 47 26 85.5t69 56.5h222v37q0 37 -28.5 56.5t-67.5 19.5q-34 0 -61.5 -15.5t-37.5 -42.5l-103 42q28 58 80.5 83.5t118.5 25.5q59 0 104.5 -17.5t72.5 -51.5q34 32 79.5 50.5t96.5 18.5q72 0 126 -34t83.5 -92.5t29.5 -131.5h-366
q3 -57 39 -89.5t92 -32.5q81 0 125 72l89 -61q-33 -56 -88.5 -88.5t-126.5 -32.5q-55 0 -104 19.5t-84 55.5l-148 -59q-39 -16 -81 -16q-71 0 -114 40.5zM170.5 101q17.5 -15 42.5 -15q17 0 43 10l91 36v67h-160q-34 -20 -34 -57q0 -26 17.5 -41zM715 298q-12 37 -44 60
t-73 23q-40 0 -69.5 -22.5t-44.5 -60.5h231z" />
    <glyph glyph-name="ccedilla" unicode="&#xe7;" horiz-adv-x="514" 
d="M296 -116q0 21 -15.5 30.5t-46.5 11.5l16 63q-64 8 -115 42.5t-79.5 87.5t-28.5 116q0 68 33.5 125t92.5 90t132 33q70 0 124.5 -31t88.5 -86l-94 -64q-18 32 -50 50.5t-69 18.5t-68 -18.5t-49.5 -49.5t-18.5 -68t18.5 -68t49.5 -49.5t68 -18.5q38 0 70 19t49 51l93 -66
q-30 -49 -79 -79.5t-110 -35.5l-8 -32q36 -5 60 -25t24 -56q0 -49 -45.5 -78t-137.5 -29l17 73q78 0 78 43z" />
    <glyph glyph-name="egrave" unicode="&#xe8;" horiz-adv-x="543" 
d="M155 17.5q-59 30.5 -93 87t-34 130.5q0 68 33 125t89.5 90t122.5 33q77 0 132 -33.5t84 -93t29 -134.5h-365q2 -57 36.5 -89.5t93.5 -32.5q40 0 72 18.5t54 53.5l88 -61q-32 -58 -88 -91t-122 -33q-73 0 -132 30.5zM392 298q-10 39 -42 62.5t-71 23.5q-45 0 -74.5 -22.5
t-42.5 -63.5h230zM100 708h125l100 -168h-102z" />
    <glyph glyph-name="eacute" unicode="&#xe9;" horiz-adv-x="543" 
d="M155 17.5q-59 30.5 -93 87t-34 130.5q0 68 33 125t89.5 90t122.5 33q77 0 132 -33.5t84 -93t29 -134.5h-365q2 -57 36.5 -89.5t93.5 -32.5q40 0 72 18.5t54 53.5l88 -61q-32 -58 -88 -91t-122 -33q-73 0 -132 30.5zM392 298q-10 39 -42 62.5t-71 23.5q-45 0 -74.5 -22.5
t-42.5 -63.5h230zM323 708h125l-124 -168h-101z" />
    <glyph glyph-name="ecircumflex" unicode="&#xea;" horiz-adv-x="543" 
d="M155 17.5q-59 30.5 -93 87t-34 130.5q0 68 33 125t89.5 90t122.5 33q77 0 132 -33.5t84 -93t29 -134.5h-365q2 -57 36.5 -89.5t93.5 -32.5q40 0 72 18.5t54 53.5l88 -61q-32 -58 -88 -91t-122 -33q-73 0 -132 30.5zM392 298q-10 39 -42 62.5t-71 23.5q-45 0 -74.5 -22.5
t-42.5 -63.5h230zM230 686h89l114 -146h-99l-60 68l-59 -68h-100z" />
    <glyph glyph-name="edieresis" unicode="&#xeb;" horiz-adv-x="543" 
d="M155 17.5q-59 30.5 -93 87t-34 130.5q0 68 33 125t89.5 90t122.5 33q77 0 132 -33.5t84 -93t29 -134.5h-365q2 -57 36.5 -89.5t93.5 -32.5q40 0 72 18.5t54 53.5l88 -61q-32 -58 -88 -91t-122 -33q-73 0 -132 30.5zM392 298q-10 39 -42 62.5t-71 23.5q-45 0 -74.5 -22.5
t-42.5 -63.5h230zM322.5 562.5q-22.5 22.5 -22.5 55.5t22.5 55.5t55.5 22.5t55.5 -22.5t22.5 -55.5t-22.5 -55.5t-55.5 -22.5t-55.5 22.5zM117 673.5q23 22.5 55 22.5q33 0 55.5 -22.5t22.5 -55.5t-22.5 -55.5t-55.5 -22.5q-32 0 -55 22.5t-23 55.5t23 55.5z" />
    <glyph glyph-name="igrave" unicode="&#xec;" horiz-adv-x="266" 
d="M71 470h124v-470h-124v470zM-41 708h125l100 -168h-102z" />
    <glyph glyph-name="iacute" unicode="&#xed;" horiz-adv-x="266" 
d="M71 470h124v-470h-124v470zM182 708h125l-124 -168h-101z" />
    <glyph glyph-name="icircumflex" unicode="&#xee;" horiz-adv-x="266" 
d="M71 470h124v-470h-124v470zM89 686h89l114 -146h-99l-60 68l-59 -68h-100z" />
    <glyph glyph-name="idieresis" unicode="&#xef;" horiz-adv-x="266" 
d="M71 470h124v-470h-124v470zM180.5 562.5q-22.5 22.5 -22.5 55.5t22.5 55.5t55.5 22.5t55.5 -22.5t22.5 -55.5t-22.5 -55.5t-55.5 -22.5t-55.5 22.5zM-25 673.5q23 22.5 55 22.5q33 0 55.5 -22.5t22.5 -55.5t-22.5 -55.5t-55.5 -22.5q-32 0 -55 22.5t-23 55.5t23 55.5z
" />
    <glyph glyph-name="eth" unicode="&#xf0;" horiz-adv-x="597" 
d="M164 23q-62 34 -99 93.5t-37 131.5q0 69 34.5 128t94 94t130.5 35l16 -1l-53 73h-156v84h96l-65 89h143l63 -89h167v-84h-107l111 -155q66 -92 66 -174q0 -72 -36 -131.5t-98 -93.5t-136 -34q-72 0 -134 34zM170.5 176q19.5 -33 53.5 -52.5t74 -19.5t74 19.5t54 52.5
t20 72t-20 72t-54 52t-74 19t-74 -19t-53.5 -52t-19.5 -72t19.5 -72z" />
    <glyph glyph-name="ntilde" unicode="&#xf1;" horiz-adv-x="571" 
d="M71 470h124v-50q55 60 141 60t131 -56t45 -155v-269h-124v269q0 41 -18.5 72.5t-66.5 31.5t-78 -36.5t-30 -111.5v-225h-124v470zM316.5 540.5q-18.5 8.5 -40.5 25.5q-18 14 -29.5 21t-23.5 7q-16 0 -26 -11t-30 -45l-74 44q34 55 60 76t65 21q45 0 95 -39q16 -13 24 -18
t17 -5q13 0 20.5 8t17 24.5t13.5 23.5l75 -42q-32 -56 -58.5 -77.5t-66.5 -21.5q-20 0 -38.5 8.5z" />
    <glyph glyph-name="ograve" unicode="&#xf2;" horiz-adv-x="571" 
d="M153 20q-59 33 -92.5 90t-33.5 125t33.5 125t92.5 90t132 33t132.5 -33t93 -90t33.5 -125t-33.5 -125t-93 -90t-132.5 -33t-132 33zM167.5 167q18.5 -31 49.5 -49.5t68 -18.5t68.5 18.5t50 49.5t18.5 68t-18.5 68t-50 49.5t-68.5 18.5t-68 -18.5t-49.5 -49.5t-18.5 -68
t18.5 -68zM112 708h125l100 -168h-102z" />
    <glyph glyph-name="oacute" unicode="&#xf3;" horiz-adv-x="571" 
d="M153 20q-59 33 -92.5 90t-33.5 125t33.5 125t92.5 90t132 33t132.5 -33t93 -90t33.5 -125t-33.5 -125t-93 -90t-132.5 -33t-132 33zM167.5 167q18.5 -31 49.5 -49.5t68 -18.5t68.5 18.5t50 49.5t18.5 68t-18.5 68t-50 49.5t-68.5 18.5t-68 -18.5t-49.5 -49.5t-18.5 -68
t18.5 -68zM335 708h125l-124 -168h-101z" />
    <glyph glyph-name="ocircumflex" unicode="&#xf4;" horiz-adv-x="571" 
d="M153 20q-59 33 -92.5 90t-33.5 125t33.5 125t92.5 90t132 33t132.5 -33t93 -90t33.5 -125t-33.5 -125t-93 -90t-132.5 -33t-132 33zM167.5 167q18.5 -31 49.5 -49.5t68 -18.5t68.5 18.5t50 49.5t18.5 68t-18.5 68t-50 49.5t-68.5 18.5t-68 -18.5t-49.5 -49.5t-18.5 -68
t18.5 -68zM242 686h89l114 -146h-99l-60 68l-59 -68h-100z" />
    <glyph glyph-name="otilde" unicode="&#xf5;" horiz-adv-x="571" 
d="M153 20q-59 33 -92.5 90t-33.5 125t33.5 125t92.5 90t132 33t132.5 -33t93 -90t33.5 -125t-33.5 -125t-93 -90t-132.5 -33t-132 33zM167.5 167q18.5 -31 49.5 -49.5t68 -18.5t68.5 18.5t50 49.5t18.5 68t-18.5 68t-50 49.5t-68.5 18.5t-68 -18.5t-49.5 -49.5t-18.5 -68
t18.5 -68zM315.5 540.5q-18.5 8.5 -40.5 25.5q-18 14 -29.5 21t-23.5 7q-16 0 -26 -11t-30 -45l-74 44q34 55 60 76t65 21q45 0 95 -39q16 -13 24 -18t17 -5q13 0 20.5 8t17 24.5t13.5 23.5l75 -42q-32 -56 -58.5 -77.5t-66.5 -21.5q-20 0 -38.5 8.5z" />
    <glyph glyph-name="odieresis" unicode="&#xf6;" horiz-adv-x="571" 
d="M153 20q-59 33 -92.5 90t-33.5 125t33.5 125t92.5 90t132 33t132.5 -33t93 -90t33.5 -125t-33.5 -125t-93 -90t-132.5 -33t-132 33zM167.5 167q18.5 -31 49.5 -49.5t68 -18.5t68.5 18.5t50 49.5t18.5 68t-18.5 68t-50 49.5t-68.5 18.5t-68 -18.5t-49.5 -49.5t-18.5 -68
t18.5 -68zM333.5 562.5q-22.5 22.5 -22.5 55.5t22.5 55.5t55.5 22.5t55.5 -22.5t22.5 -55.5t-22.5 -55.5t-55.5 -22.5t-55.5 22.5zM128 673.5q23 22.5 55 22.5q33 0 55.5 -22.5t22.5 -55.5t-22.5 -55.5t-55.5 -22.5q-32 0 -55 22.5t-23 55.5t23 55.5z" />
    <glyph glyph-name="divide" unicode="&#xf7;" horiz-adv-x="472" 
d="M42 319h388v-110h-388v110zM187 132.5q20 20.5 49 20.5t49 -20.5t20 -49.5t-20 -49t-49 -20t-49 20t-20 49t20 49.5zM187 494.5q20 20.5 49 20.5t49 -20.5t20 -49.5q0 -28 -20 -49t-49 -21t-49 20.5t-20 49.5t20 49.5z" />
    <glyph glyph-name="oslash" unicode="&#xf8;" horiz-adv-x="571" 
d="M202 -1l-34 -67h-73l48 94q-54 33 -85 88.5t-31 120.5q0 68 33.5 125t92.5 90t132 33q45 0 84 -12l34 67h73l-48 -94q54 -33 85 -88.5t31 -120.5q0 -68 -33.5 -125t-93 -90t-132.5 -33q-44 0 -83 12zM161.5 178q12.5 -27 35.5 -46l119 235q-13 4 -31 4q-37 0 -68 -18.5
t-49.5 -49.5t-18.5 -68q0 -30 12.5 -57zM285 99q37 0 68.5 18.5t50 49.5t18.5 68q0 30 -12.5 57t-35.5 46l-119 -236q14 -3 30 -3z" />
    <glyph glyph-name="ugrave" unicode="&#xf9;" horiz-adv-x="536" 
d="M114 44q-58 54 -58 150v276h124v-272q0 -46 23 -73.5t64 -27.5t64.5 27.5t23.5 73.5v272h124v-276q0 -96 -58 -150t-154 -54q-95 0 -153 54zM93 708h125l100 -168h-102z" />
    <glyph glyph-name="uacute" unicode="&#xfa;" horiz-adv-x="536" 
d="M114 44q-58 54 -58 150v276h124v-272q0 -46 23 -73.5t64 -27.5t64.5 27.5t23.5 73.5v272h124v-276q0 -96 -58 -150t-154 -54q-95 0 -153 54zM316 708h125l-124 -168h-101z" />
    <glyph glyph-name="ucircumflex" unicode="&#xfb;" horiz-adv-x="536" 
d="M114 44q-58 54 -58 150v276h124v-272q0 -46 23 -73.5t64 -27.5t64.5 27.5t23.5 73.5v272h124v-276q0 -96 -58 -150t-154 -54q-95 0 -153 54zM223 686h89l114 -146h-99l-60 68l-59 -68h-100z" />
    <glyph glyph-name="udieresis" unicode="&#xfc;" horiz-adv-x="536" 
d="M114 44q-58 54 -58 150v276h124v-272q0 -46 23 -73.5t64 -27.5t64.5 27.5t23.5 73.5v272h124v-276q0 -96 -58 -150t-154 -54q-95 0 -153 54zM315.5 562.5q-22.5 22.5 -22.5 55.5t22.5 55.5t55.5 22.5t55.5 -22.5t22.5 -55.5t-22.5 -55.5t-55.5 -22.5t-55.5 22.5z
M110 673.5q23 22.5 55 22.5q33 0 55.5 -22.5t22.5 -55.5t-22.5 -55.5t-55.5 -22.5q-32 0 -55 22.5t-23 55.5t23 55.5z" />
    <glyph glyph-name="yacute" unicode="&#xfd;" horiz-adv-x="526" 
d="M204 36l-216 434h144l133 -299l137 299h135l-326 -714h-135zM312 708h125l-124 -168h-101z" />
    <glyph glyph-name="thorn" unicode="&#xfe;" horiz-adv-x="617" 
d="M263 8q-42 18 -68 54v-310h-124v998h124v-341q27 36 68.5 53.5t88.5 17.5q66 0 120.5 -33t85.5 -89.5t31 -122.5t-31 -122.5t-85.5 -89.5t-120.5 -33q-47 0 -89 18zM213.5 167q18.5 -31 49.5 -49.5t68 -18.5t68 18.5t49.5 49.5t18.5 68t-18.5 68t-49.5 49.5t-68 18.5
t-68 -18.5t-49.5 -49.5t-18.5 -68t18.5 -68z" />
    <glyph glyph-name="ydieresis" unicode="&#xff;" horiz-adv-x="526" 
d="M204 36l-216 434h144l133 -299l137 299h135l-326 -714h-135zM310.5 562.5q-22.5 22.5 -22.5 55.5t22.5 55.5t55.5 22.5t55.5 -22.5t22.5 -55.5t-22.5 -55.5t-55.5 -22.5t-55.5 22.5zM105 673.5q23 22.5 55 22.5q33 0 55.5 -22.5t22.5 -55.5t-22.5 -55.5t-55.5 -22.5
q-32 0 -55 22.5t-23 55.5t23 55.5z" />
    <glyph glyph-name="Amacron" unicode="&#x100;" horiz-adv-x="695" 
d="M312 750h71l314 -750h-135l-54 135h-320l-54 -135h-137zM462 249l-115 288l-114 -288h229zM207 907h282v-92h-282v92z" />
    <glyph glyph-name="amacron" unicode="&#x101;" horiz-adv-x="619" 
d="M146 20q-54 33 -85 90t-31 125t31 125t85 90t121 33q47 0 89 -18t68 -56v61h124v-470h-117l-6 61q-27 -38 -68.5 -56t-89.5 -18q-67 0 -121 33zM170.5 167q18.5 -31 49.5 -49.5t68 -18.5t68 18.5t49.5 49.5t18.5 68t-18.5 68t-49.5 49.5t-68 18.5t-68 -18.5t-49.5 -49.5
t-18.5 -68t18.5 -68zM171 627h282v-92h-282v92z" />
    <glyph glyph-name="Abreve" unicode="&#x102;" horiz-adv-x="695" 
d="M312 750h71l314 -750h-135l-54 135h-320l-54 -135h-137zM462 249l-115 288l-114 -288h229zM230 838q-51 33 -51 114h95q0 -39 20 -57t53 -18q34 0 53.5 18t19.5 57h96q0 -81 -51 -114t-118 -33q-66 0 -117 33z" />
    <glyph glyph-name="abreve" unicode="&#x103;" horiz-adv-x="619" 
d="M146 20q-54 33 -85 90t-31 125t31 125t85 90t121 33q47 0 89 -18t68 -56v61h124v-470h-117l-6 61q-27 -38 -68.5 -56t-89.5 -18q-67 0 -121 33zM170.5 167q18.5 -31 49.5 -49.5t68 -18.5t68 18.5t49.5 49.5t18.5 68t-18.5 68t-49.5 49.5t-68 18.5t-68 -18.5t-49.5 -49.5
t-18.5 -68t18.5 -68zM194 567q-51 34 -51 120h96q0 -46 19 -63.5t54 -17.5q34 0 53.5 18t19.5 63h95q0 -86 -50.5 -120t-117.5 -34t-118 34z" />
    <glyph glyph-name="Aogonek" unicode="&#x104;" horiz-adv-x="695" 
d="M312 750h71l314 -750q-37 -15 -58.5 -35t-21.5 -38t20 -29t60 -11v-81q-84 0 -123.5 27t-39.5 71q0 59 71 96h-43l-54 135h-320l-54 -135h-137zM462 249l-115 288l-114 -288h229z" />
    <glyph glyph-name="aogonek" unicode="&#x105;" horiz-adv-x="619" 
d="M146 20q-54 33 -85 90t-31 125t31 125t85 90t121 33q47 0 89 -18t68 -56v61h124v-470q-37 -15 -58.5 -35t-21.5 -38t20 -29t60 -11v-81q-84 0 -123.5 27t-39.5 71q0 59 71 96h-25l-6 61q-27 -38 -68.5 -56t-89.5 -18q-67 0 -121 33zM170.5 167q18.5 -31 49.5 -49.5
t68 -18.5t68 18.5t49.5 49.5t18.5 68t-18.5 68t-49.5 49.5t-68 18.5t-68 -18.5t-49.5 -49.5t-18.5 -68t18.5 -68z" />
    <glyph glyph-name="Cacute" unicode="&#x106;" horiz-adv-x="722" 
d="M225 39q-89 52 -141.5 141t-52.5 195t52.5 195t141.5 141t193 52q86 0 162 -35.5t129 -97.5l-91 -86q-36 44 -88.5 69t-111.5 25q-71 0 -131 -35.5t-95.5 -95.5t-35.5 -132q0 -71 35.5 -131.5t95.5 -96t129 -35.5q60 0 113 25.5t91 69.5l92 -85q-54 -63 -130.5 -99
t-163.5 -36q-104 0 -193 52zM447 952h125l-113 -139h-95z" />
    <glyph glyph-name="cacute" unicode="&#x107;" horiz-adv-x="514" 
d="M153 20q-59 33 -92.5 90t-33.5 125t33.5 125t92.5 90t132 33q70 0 124.5 -31t88.5 -86l-94 -64q-18 32 -50 50.5t-69 18.5t-68 -18.5t-49.5 -49.5t-18.5 -68t18.5 -68t49.5 -49.5t68 -18.5q38 0 70 19t49 51l93 -66q-33 -54 -88 -85t-124 -31q-73 0 -132 33zM333 708h125
l-124 -168h-101z" />
    <glyph glyph-name="Cdotaccent" unicode="&#x10a;" horiz-adv-x="722" 
d="M225 39q-89 52 -141.5 141t-52.5 195t52.5 195t141.5 141t193 52q86 0 162 -35.5t129 -97.5l-91 -86q-36 44 -88.5 69t-111.5 25q-71 0 -131 -35.5t-95.5 -95.5t-35.5 -132q0 -71 35.5 -131.5t95.5 -96t129 -35.5q60 0 113 25.5t91 69.5l92 -85q-54 -63 -130.5 -99
t-163.5 -36q-104 0 -193 52zM361 829q-20 20 -20 50q0 31 20 51.5t51 20.5t50.5 -20.5t19.5 -51.5q0 -30 -19.5 -50t-50.5 -20t-51 20z" />
    <glyph glyph-name="cdotaccent" unicode="&#x10b;" horiz-adv-x="514" 
d="M153 20q-59 33 -92.5 90t-33.5 125t33.5 125t92.5 90t132 33q70 0 124.5 -31t88.5 -86l-94 -64q-18 32 -50 50.5t-69 18.5t-68 -18.5t-49.5 -49.5t-18.5 -68t18.5 -68t49.5 -49.5t68 -18.5q38 0 70 19t49 51l93 -66q-33 -54 -88 -85t-124 -31q-73 0 -132 33zM228.5 562.5
q-22.5 22.5 -22.5 55.5t22.5 55.5t55.5 22.5t55.5 -22.5t22.5 -55.5t-22.5 -55.5t-55.5 -22.5t-55.5 22.5z" />
    <glyph glyph-name="Ccaron" unicode="&#x10c;" horiz-adv-x="722" 
d="M225 39q-89 52 -141.5 141t-52.5 195t52.5 195t141.5 141t193 52q86 0 162 -35.5t129 -97.5l-91 -86q-36 44 -88.5 69t-111.5 25q-71 0 -131 -35.5t-95.5 -95.5t-35.5 -132q0 -71 35.5 -131.5t95.5 -96t129 -35.5q60 0 113 25.5t91 69.5l92 -85q-54 -63 -130.5 -99
t-163.5 -36q-104 0 -193 52zM240 952h106l66 -79l66 79h106l-111 -139h-122z" />
    <glyph glyph-name="ccaron" unicode="&#x10d;" horiz-adv-x="514" 
d="M153 20q-59 33 -92.5 90t-33.5 125t33.5 125t92.5 90t132 33q70 0 124.5 -31t88.5 -86l-94 -64q-18 32 -50 50.5t-69 18.5t-68 -18.5t-49.5 -49.5t-18.5 -68t18.5 -68t49.5 -49.5t68 -18.5q38 0 70 19t49 51l93 -66q-33 -54 -88 -85t-124 -31q-73 0 -132 33zM125 686h100
l59 -67l60 67h99l-114 -146h-89z" />
    <glyph glyph-name="Dcaron" unicode="&#x10e;" horiz-adv-x="727" 
d="M89 750h194q122 0 215 -44.5t144.5 -129t51.5 -199.5q0 -116 -51.5 -201t-144.5 -130.5t-215 -45.5h-194v750zM282 118q136 0 211.5 67t75.5 192t-75.5 190t-211.5 65h-67v-514h67zM110 951h106l66 -79l66 79h106l-111 -139h-122z" />
    <glyph glyph-name="dcaron" unicode="&#x10f;" horiz-adv-x="618" 
d="M146 20q-54 33 -85.5 90t-31.5 125q0 67 31 124t85 90.5t121 33.5q47 0 89 -18.5t69 -55.5v341h123v-750h-117l-6 63q-27 -38 -69 -57t-90 -19q-65 0 -119 33zM169.5 167q18.5 -31 49.5 -49.5t68 -18.5t68.5 18.5t50 49.5t18.5 68t-18.5 68t-50 49.5t-68.5 18.5
t-68 -18.5t-49.5 -49.5t-18.5 -68t18.5 -68zM627 750h118l-80 -218h-82z" />
    <glyph glyph-name="Dcroat" unicode="&#x110;" horiz-adv-x="727" 
d="M89 320h-67v110h67v320h194q122 0 215 -44.5t144.5 -129t51.5 -199.5q0 -116 -51.5 -201t-144.5 -130.5t-215 -45.5h-194v320zM282 118q136 0 211.5 67t75.5 192t-75.5 190t-211.5 65h-67v-202h112v-110h-112v-202h67z" />
    <glyph glyph-name="dcroat" unicode="&#x111;" horiz-adv-x="618" 
d="M146 20q-54 33 -85.5 90t-31.5 125q0 67 31 124t85 90.5t121 33.5q47 0 89 -18.5t69 -55.5v179h-113v84h113v78h123v-78h69v-84h-69v-588h-117l-6 63q-27 -38 -69 -57t-90 -19q-65 0 -119 33zM169.5 167q18.5 -31 49.5 -49.5t68 -18.5t68.5 18.5t50 49.5t18.5 68
t-18.5 68t-50 49.5t-68.5 18.5t-68 -18.5t-49.5 -49.5t-18.5 -68t18.5 -68z" />
    <glyph glyph-name="Emacron" unicode="&#x112;" horiz-adv-x="568" 
d="M89 750h432v-118h-307v-197h268v-117h-268v-200h307v-118h-432v750zM165 907h282v-92h-282v92z" />
    <glyph glyph-name="emacron" unicode="&#x113;" horiz-adv-x="543" 
d="M155 17.5q-59 30.5 -93 87t-34 130.5q0 68 33 125t89.5 90t122.5 33q77 0 132 -33.5t84 -93t29 -134.5h-365q2 -57 36.5 -89.5t93.5 -32.5q40 0 72 18.5t54 53.5l88 -61q-32 -58 -88 -91t-122 -33q-73 0 -132 30.5zM392 298q-10 39 -42 62.5t-71 23.5q-45 0 -74.5 -22.5
t-42.5 -63.5h230zM134 627h282v-92h-282v92z" />
    <glyph glyph-name="Edotaccent" unicode="&#x116;" horiz-adv-x="568" 
d="M89 750h432v-118h-307v-197h268v-117h-268v-200h307v-118h-432v750zM254 829q-20 20 -20 50q0 31 20 51.5t51 20.5t50.5 -20.5t19.5 -51.5q0 -30 -19.5 -50t-50.5 -20t-51 20z" />
    <glyph glyph-name="edotaccent" unicode="&#x117;" horiz-adv-x="543" 
d="M155 17.5q-59 30.5 -93 87t-34 130.5q0 68 33 125t89.5 90t122.5 33q77 0 132 -33.5t84 -93t29 -134.5h-365q2 -57 36.5 -89.5t93.5 -32.5q40 0 72 18.5t54 53.5l88 -61q-32 -58 -88 -91t-122 -33q-73 0 -132 30.5zM392 298q-10 39 -42 62.5t-71 23.5q-45 0 -74.5 -22.5
t-42.5 -63.5h230zM218.5 562.5q-22.5 22.5 -22.5 55.5t22.5 55.5t55.5 22.5t55.5 -22.5t22.5 -55.5t-22.5 -55.5t-55.5 -22.5t-55.5 22.5z" />
    <glyph glyph-name="Eogonek" unicode="&#x118;" horiz-adv-x="568" 
d="M89 750h432v-118h-307v-197h268v-117h-268v-200h307v-118q-37 -15 -58.5 -35t-21.5 -38t20 -29t60 -11v-81q-84 0 -123.5 27t-39.5 71q0 59 71 96h-340v750z" />
    <glyph glyph-name="eogonek" unicode="&#x119;" horiz-adv-x="543" 
d="M274.5 -148q-39.5 27 -39.5 71q0 37 28 65q-67 5 -120.5 37t-84 86t-30.5 124q0 68 33 125t89.5 90t122.5 33q77 0 132 -33.5t84 -93t29 -134.5h-365q2 -57 36.5 -89.5t93.5 -32.5q40 0 72 18.5t54 53.5l88 -61q-24 -42 -60.5 -71.5t-81.5 -42.5q-37 -26 -37 -51
q0 -18 20 -29t60 -11v-81q-84 0 -123.5 27zM392 298q-10 39 -42 62.5t-71 23.5q-45 0 -74.5 -22.5t-42.5 -63.5h230z" />
    <glyph glyph-name="Ecaron" unicode="&#x11a;" horiz-adv-x="568" 
d="M89 750h432v-118h-307v-197h268v-117h-268v-200h307v-118h-432v750zM133 952h106l66 -79l66 79h106l-111 -139h-122z" />
    <glyph glyph-name="ecaron" unicode="&#x11b;" horiz-adv-x="543" 
d="M155 17.5q-59 30.5 -93 87t-34 130.5q0 68 33 125t89.5 90t122.5 33q77 0 132 -33.5t84 -93t29 -134.5h-365q2 -57 36.5 -89.5t93.5 -32.5q40 0 72 18.5t54 53.5l88 -61q-32 -58 -88 -91t-122 -33q-73 0 -132 30.5zM392 298q-10 39 -42 62.5t-71 23.5q-45 0 -74.5 -22.5
t-42.5 -63.5h230zM115 686h100l59 -67l60 67h99l-114 -146h-89z" />
    <glyph glyph-name="Gbreve" unicode="&#x11e;" horiz-adv-x="781" 
d="M226 39q-89 52 -141.5 141t-52.5 195t52.5 195t141.5 141t193 52q86 0 161.5 -35t129.5 -98l-91 -86q-37 44 -89 69t-111 25q-71 0 -131 -35.5t-95.5 -95.5t-35.5 -132q0 -71 35.5 -131.5t95 -96t129.5 -35.5q50 0 96 17.5t82 50.5v123h-181v118h305v-421h-117l-5 52
q-32 -32 -77.5 -48.5t-100.5 -16.5q-104 0 -193 52zM284 838q-51 33 -51 114h95q0 -39 20 -57t53 -18q34 0 53.5 18t19.5 57h96q0 -81 -51 -114t-118 -33q-66 0 -117 33z" />
    <glyph glyph-name="gbreve" unicode="&#x11f;" horiz-adv-x="618" 
d="M138 -212q-64 32 -99 92l96 63q22 -38 61 -59t84 -21q62 0 103 39t41 100v59q-27 -37 -68.5 -55.5t-89.5 -18.5q-67 0 -121 33t-85 90t-31 125t31 125t85 90t121 33q48 0 89.5 -18.5t68.5 -55.5v61h123v-461q0 -75 -36.5 -132.5t-98.5 -89t-137 -31.5q-73 0 -137 32z
M169.5 167q18.5 -31 49.5 -49.5t68 -18.5t68.5 18.5t50 49.5t18.5 68t-18.5 68t-50 49.5t-68.5 18.5t-68 -18.5t-49.5 -49.5t-18.5 -68t18.5 -68zM193 567q-51 34 -51 120h96q0 -46 19 -63.5t54 -17.5q34 0 53.5 18t19.5 63h95q0 -86 -50.5 -120t-117.5 -34t-118 34z" />
    <glyph glyph-name="Gdotaccent" unicode="&#x120;" horiz-adv-x="781" 
d="M226 39q-89 52 -141.5 141t-52.5 195t52.5 195t141.5 141t193 52q86 0 161.5 -35t129.5 -98l-91 -86q-37 44 -89 69t-111 25q-71 0 -131 -35.5t-95.5 -95.5t-35.5 -132q0 -71 35.5 -131.5t95 -96t129.5 -35.5q50 0 96 17.5t82 50.5v123h-181v118h305v-421h-117l-5 52
q-32 -32 -77.5 -48.5t-100.5 -16.5q-104 0 -193 52zM350 829q-20 20 -20 50q0 31 20 51.5t51 20.5t50.5 -20.5t19.5 -51.5q0 -30 -19.5 -50t-50.5 -20t-51 20z" />
    <glyph glyph-name="gdotaccent" unicode="&#x121;" horiz-adv-x="618" 
d="M138 -212q-64 32 -99 92l96 63q22 -38 61 -59t84 -21q62 0 103 39t41 100v59q-27 -37 -68.5 -55.5t-89.5 -18.5q-67 0 -121 33t-85 90t-31 125t31 125t85 90t121 33q48 0 89.5 -18.5t68.5 -55.5v61h123v-461q0 -75 -36.5 -132.5t-98.5 -89t-137 -31.5q-73 0 -137 32z
M169.5 167q18.5 -31 49.5 -49.5t68 -18.5t68.5 18.5t50 49.5t18.5 68t-18.5 68t-50 49.5t-68.5 18.5t-68 -18.5t-49.5 -49.5t-18.5 -68t18.5 -68zM254.5 562.5q-22.5 22.5 -22.5 55.5t22.5 55.5t55.5 22.5t55.5 -22.5t22.5 -55.5t-22.5 -55.5t-55.5 -22.5t-55.5 22.5z" />
    <glyph glyph-name="uni0122" unicode="&#x122;" horiz-adv-x="781" 
d="M226 39q-89 52 -141.5 141t-52.5 195t52.5 195t141.5 141t193 52q86 0 161.5 -35t129.5 -98l-91 -86q-37 44 -89 69t-111 25q-71 0 -131 -35.5t-95.5 -95.5t-35.5 -132q0 -71 35.5 -131.5t95 -96t129.5 -35.5q50 0 96 17.5t82 50.5v123h-181v118h305v-421h-117l-5 52
q-32 -32 -77.5 -48.5t-100.5 -16.5q-104 0 -193 52zM339 -63h126l-108 -147h-92z" />
    <glyph glyph-name="uni0123" unicode="&#x123;" horiz-adv-x="618" 
d="M138 -212q-64 32 -99 92l96 63q22 -38 61 -59t84 -21q62 0 103 39t41 100v59q-27 -37 -68.5 -55.5t-89.5 -18.5q-67 0 -121 33t-85 90t-31 125t31 125t85 90t121 33q48 0 89.5 -18.5t68.5 -55.5v61h123v-461q0 -75 -36.5 -132.5t-98.5 -89t-137 -31.5q-73 0 -137 32z
M169.5 167q18.5 -31 49.5 -49.5t68 -18.5t68.5 18.5t50 49.5t18.5 68t-18.5 68t-50 49.5t-68.5 18.5t-68 -18.5t-49.5 -49.5t-18.5 -68t18.5 -68zM373 561h-125l108 147h91z" />
    <glyph glyph-name="Hbar" unicode="&#x126;" horiz-adv-x="765" 
d="M89 561h-55v84h55v105h125v-105h337v105h125v-105h55v-84h-55v-561h-125v318h-337v-318h-125v561zM551 436v125h-337v-125h337z" />
    <glyph glyph-name="hbar" unicode="&#x127;" horiz-adv-x="572" 
d="M71 569h-65v84h65v97h124v-97h116v-84h-116v-145q57 59 141 59q86 0 131 -55.5t45 -154.5v-273h-124v273q0 41 -18.5 72t-66.5 31t-78 -36.5t-30 -111.5v-228h-124v569z" />
    <glyph glyph-name="Imacron" unicode="&#x12a;" horiz-adv-x="303" 
d="M89 750h125v-750h-125v750zM11 907h282v-92h-282v92z" />
    <glyph glyph-name="imacron" unicode="&#x12b;" horiz-adv-x="266" 
d="M71 470h124v-470h-124v470zM-8 627h282v-92h-282v92z" />
    <glyph glyph-name="Iogonek" unicode="&#x12e;" horiz-adv-x="303" 
d="M89 750h125v-750q-37 -15 -58.5 -35t-21.5 -38t20 -29t60 -11v-81q-84 0 -123.5 27t-39.5 71q0 59 71 96h-33v750z" />
    <glyph glyph-name="iogonek" unicode="&#x12f;" horiz-adv-x="266" 
d="M71 470h124v-470q-37 -15 -58.5 -35t-21.5 -38t20 -29t60 -11v-81q-84 0 -123.5 27t-39.5 71q0 59 71 96h-32v470zM77.5 673.5q22.5 22.5 55.5 22.5t55.5 -22.5t22.5 -55.5t-22.5 -55.5t-55.5 -22.5t-55.5 22.5t-22.5 55.5t22.5 55.5z" />
    <glyph glyph-name="Idotaccent" unicode="&#x130;" horiz-adv-x="303" 
d="M89 750h125v-750h-125v750zM100 829q-20 20 -20 50q0 31 20 51.5t51 20.5t50.5 -20.5t19.5 -51.5q0 -30 -19.5 -50t-50.5 -20t-51 20z" />
    <glyph glyph-name="dotlessi" unicode="&#x131;" horiz-adv-x="266" 
d="M71 470h124v-470h-124v470z" />
    <glyph glyph-name="uni0136" unicode="&#x136;" horiz-adv-x="665" 
d="M213 317v-317h-124v750h124v-334l301 334h155l-350 -381l347 -369h-161zM297 -63h126l-108 -147h-92z" />
    <glyph glyph-name="uni0137" unicode="&#x137;" horiz-adv-x="514" 
d="M195 206v-206h-124v750h124v-477l165 197h156l-208 -231l215 -239h-155zM219 -63h126l-108 -147h-92z" />
    <glyph glyph-name="Lacute" unicode="&#x139;" horiz-adv-x="488" 
d="M89 750h125v-632h271v-118h-396v750zM187 952h125l-113 -139h-95z" />
    <glyph glyph-name="lacute" unicode="&#x13a;" horiz-adv-x="266" 
d="M71 750h124v-750h-124v750zM168 952h125l-113 -139h-95z" />
    <glyph glyph-name="uni013B" unicode="&#x13b;" horiz-adv-x="488" 
d="M89 750h125v-632h271v-118h-396v750zM224 -63h126l-108 -147h-92z" />
    <glyph glyph-name="uni013C" unicode="&#x13c;" horiz-adv-x="266" 
d="M71 750h124v-750h-124v750zM70 -63h126l-108 -147h-92z" />
    <glyph glyph-name="Lcaron" unicode="&#x13d;" horiz-adv-x="488" 
d="M89 750h125v-632h271v-118h-396v750zM357 750h118l-80 -218h-82z" />
    <glyph glyph-name="lcaron" unicode="&#x13e;" horiz-adv-x="266" 
d="M71 750h124v-750h-124v750zM278 750h118l-80 -218h-82z" />
    <glyph glyph-name="Lslash" unicode="&#x141;" horiz-adv-x="488" 
d="M89 230l-64 -38v101l64 38v419h125v-345l161 95v-102l-161 -95v-185h271v-118h-396v230z" />
    <glyph glyph-name="lslash" unicode="&#x142;" horiz-adv-x="266" 
d="M71 278l-47 -27l-48 85l95 56v358h124v-284l59 35l49 -87l-108 -63v-351h-124v278z" />
    <glyph glyph-name="Nacute" unicode="&#x143;" horiz-adv-x="788" 
d="M89 750h61l427 -503v503h122v-750h-67l-421 490v-490h-122v750zM429 952h125l-113 -139h-95z" />
    <glyph glyph-name="nacute" unicode="&#x144;" horiz-adv-x="571" 
d="M71 470h124v-50q55 60 141 60t131 -56t45 -155v-269h-124v269q0 41 -18.5 72.5t-66.5 31.5t-78 -36.5t-30 -111.5v-225h-124v470zM335 708h125l-124 -168h-101z" />
    <glyph glyph-name="uni0145" unicode="&#x145;" horiz-adv-x="788" 
d="M89 750h61l427 -503v503h122v-750h-67l-421 490v-490h-122v750zM331 -63h126l-108 -147h-92z" />
    <glyph glyph-name="uni0146" unicode="&#x146;" horiz-adv-x="571" 
d="M71 470h124v-50q55 60 141 60t131 -56t45 -155v-269h-124v269q0 41 -18.5 72.5t-66.5 31.5t-78 -36.5t-30 -111.5v-225h-124v470zM229 -63h126l-108 -147h-92z" />
    <glyph glyph-name="Ncaron" unicode="&#x147;" horiz-adv-x="788" 
d="M89 750h61l427 -503v503h122v-750h-67l-421 490v-490h-122v750zM222 952h106l66 -79l66 79h106l-111 -139h-122z" />
    <glyph glyph-name="ncaron" unicode="&#x148;" horiz-adv-x="571" 
d="M71 470h124v-50q55 60 141 60t131 -56t45 -155v-269h-124v269q0 41 -18.5 72.5t-66.5 31.5t-78 -36.5t-30 -111.5v-225h-124v470zM127 686h100l59 -67l60 67h99l-114 -146h-89z" />
    <glyph glyph-name="Eng" unicode="&#x14a;" horiz-adv-x="788" 
d="M489 -243v127l5 -9q18 -15 41 -15q19 0 30 12.5t11 35.5v157l-365 425v-490h-122v750h61l427 -503v503h122v-845q0 -76 -41 -116t-110 -40q-25 0 -59 8z" />
    <glyph glyph-name="eng" unicode="&#x14b;" horiz-adv-x="571" 
d="M71 470h124v-50q26 29 61 44.5t74 15.5q91 0 136.5 -54.5t45.5 -156.5v-365q0 -75 -40 -114.5t-109 -39.5h-59v111h39q24 0 34.5 11.5t10.5 35.5v361q0 49 -21 76.5t-64 27.5q-44 0 -76 -34t-32 -82v-257h-124v470z" />
    <glyph glyph-name="Omacron" unicode="&#x14c;" horiz-adv-x="842" 
d="M226 38.5q-89 51.5 -141.5 140.5t-52.5 196t52.5 196t141.5 140.5t195 51.5t195 -51.5t141.5 -140.5t52.5 -196t-52.5 -196t-141.5 -140.5t-195 -51.5t-195 51.5zM192.5 242q35.5 -60 95.5 -95t131 -35q72 0 133 34.5t97 95t36 133.5t-35.5 133.5t-96 95t-132.5 34.5
t-132.5 -34.5t-96 -95t-35.5 -133.5t35.5 -133zM280 907h282v-92h-282v92z" />
    <glyph glyph-name="omacron" unicode="&#x14d;" horiz-adv-x="571" 
d="M153 20q-59 33 -92.5 90t-33.5 125t33.5 125t92.5 90t132 33t132.5 -33t93 -90t33.5 -125t-33.5 -125t-93 -90t-132.5 -33t-132 33zM167.5 167q18.5 -31 49.5 -49.5t68 -18.5t68.5 18.5t50 49.5t18.5 68t-18.5 68t-50 49.5t-68.5 18.5t-68 -18.5t-49.5 -49.5t-18.5 -68
t18.5 -68zM145 627h282v-92h-282v92z" />
    <glyph glyph-name="Ohungarumlaut" unicode="&#x150;" horiz-adv-x="842" 
d="M226 38.5q-89 51.5 -141.5 140.5t-52.5 196t52.5 196t141.5 140.5t195 51.5t195 -51.5t141.5 -140.5t52.5 -196t-52.5 -196t-141.5 -140.5t-195 -51.5t-195 51.5zM192.5 242q35.5 -60 95.5 -95t131 -35q72 0 133 34.5t97 95t36 133.5t-35.5 133.5t-96 95t-132.5 34.5
t-132.5 -34.5t-96 -95t-35.5 -133.5t35.5 -133zM553 952h125l-113 -139h-94zM360 952h125l-113 -139h-95z" />
    <glyph glyph-name="ohungarumlaut" unicode="&#x151;" horiz-adv-x="571" 
d="M153 20q-59 33 -92.5 90t-33.5 125t33.5 125t92.5 90t132 33t132.5 -33t93 -90t33.5 -125t-33.5 -125t-93 -90t-132.5 -33t-132 33zM167.5 167q18.5 -31 49.5 -49.5t68 -18.5t68.5 18.5t50 49.5t18.5 68t-18.5 68t-50 49.5t-68.5 18.5t-68 -18.5t-49.5 -49.5t-18.5 -68
t18.5 -68zM435 708h131l-136 -168h-94zM242 708h131l-136 -168h-95z" />
    <glyph glyph-name="OE" unicode="&#x152;" horiz-adv-x="1162" 
d="M226 38.5q-89 51.5 -141.5 140.5t-52.5 196t52.5 196t141.5 140.5t195 51.5q75 0 142 -26.5t120 -74.5v88h432v-118h-307v-197h268v-117h-268v-200h307v-118h-432v87q-53 -47 -120.5 -73.5t-141.5 -26.5q-106 0 -195 51.5zM192.5 242q35.5 -60 95.5 -95t131 -35
q66 0 124 29.5t95 82t45 118.5v66q-8 66 -45 118.5t-94 82t-123 29.5q-72 0 -132.5 -34.5t-96 -95t-35.5 -133.5t35.5 -133z" />
    <glyph glyph-name="oe" unicode="&#x153;" horiz-adv-x="939" 
d="M569.5 9q-52.5 22 -87.5 62q-35 -39 -86.5 -61.5t-110.5 -22.5q-73 0 -132 33t-92.5 90t-33.5 125t33.5 125t92.5 90t132 33q60 0 111.5 -22.5t86.5 -63.5q34 40 82.5 63t103.5 23q77 0 132 -33.5t84 -93t29 -134.5h-365q2 -57 36.5 -89.5t93.5 -32.5q40 0 72 18.5
t54 53.5l88 -61q-32 -58 -88 -91t-122 -33q-61 0 -113.5 22zM167.5 167q18.5 -31 49.5 -49.5t68 -18.5t68.5 18.5t50 49.5t18.5 68t-18.5 68t-50 49.5t-68.5 18.5t-68 -18.5t-49.5 -49.5t-18.5 -68t18.5 -68zM788 298q-10 39 -42 62.5t-71 23.5q-45 0 -74.5 -22.5
t-42.5 -63.5h230z" />
    <glyph glyph-name="Racute" unicode="&#x154;" horiz-adv-x="641" 
d="M89 750h284q65 0 114.5 -31t76 -82.5t26.5 -111.5q0 -70 -35.5 -127t-97.5 -81l164 -317h-141l-150 301h-116v-301h-125v750zM355 419q50 0 80.5 31.5t30.5 77.5t-30 75t-81 29h-141v-213h141zM382 952h125l-113 -139h-95z" />
    <glyph glyph-name="racute" unicode="&#x155;" horiz-adv-x="366" 
d="M71 470h124v-55q19 32 48 48.5t66 16.5q27 0 47 -10v-115q-29 14 -60 14q-46 0 -73.5 -35t-27.5 -101v-230l-124 -3v470zM263 708h125l-124 -168h-101z" />
    <glyph glyph-name="uni0156" unicode="&#x156;" horiz-adv-x="641" 
d="M89 750h284q65 0 114.5 -31t76 -82.5t26.5 -111.5q0 -70 -35.5 -127t-97.5 -81l164 -317h-141l-150 301h-116v-301h-125v750zM355 419q50 0 80.5 31.5t30.5 77.5t-30 75t-81 29h-141v-213h141zM294 -63h126l-108 -147h-92z" />
    <glyph glyph-name="uni0157" unicode="&#x157;" horiz-adv-x="366" 
d="M71 470h124v-55q19 32 48 48.5t66 16.5q27 0 47 -10v-115q-29 14 -60 14q-46 0 -73.5 -35t-27.5 -101v-230l-124 -3v470zM151 -63h126l-108 -147h-92z" />
    <glyph glyph-name="Rcaron" unicode="&#x158;" horiz-adv-x="641" 
d="M89 750h284q65 0 114.5 -31t76 -82.5t26.5 -111.5q0 -70 -35.5 -127t-97.5 -81l164 -317h-141l-150 301h-116v-301h-125v750zM355 419q50 0 80.5 31.5t30.5 77.5t-30 75t-81 29h-141v-213h141zM175 952h106l66 -79l66 79h106l-111 -139h-122z" />
    <glyph glyph-name="rcaron" unicode="&#x159;" horiz-adv-x="366" 
d="M71 470h124v-55q19 32 48 48.5t66 16.5q27 0 47 -10v-115q-29 14 -60 14q-46 0 -73.5 -35t-27.5 -101v-230l-124 -3v470zM55 686h100l59 -67l60 67h99l-114 -146h-89z" />
    <glyph glyph-name="Sacute" unicode="&#x15a;" horiz-adv-x="555" 
d="M118 30.5q-70 43.5 -96 121.5l113 51q15 -49 55.5 -76.5t92.5 -27.5q53 0 85 26t32 71q0 33 -15 54.5t-41.5 36.5t-76.5 35q-63 25 -106 49.5t-74.5 70t-31.5 114.5q0 62 30.5 109t83 72.5t116.5 25.5q70 0 130 -32.5t92 -102.5l-112 -51q-15 35 -45 54t-66 19
q-45 0 -75.5 -25t-30.5 -66q0 -43 37.5 -73t112.5 -61q60 -25 100 -49t68.5 -66.5t28.5 -107.5q0 -69 -33 -117.5t-88.5 -73t-123.5 -24.5q-92 0 -162 43.5zM312 952h125l-113 -139h-95z" />
    <glyph glyph-name="sacute" unicode="&#x15b;" horiz-adv-x="460" 
d="M109 18q-60 31 -86 94l114 41q14 -32 40.5 -47t57.5 -15q28 0 46 11.5t18 32.5q0 24 -21.5 35.5t-68.5 24.5q-50 13 -82.5 27t-56 42.5t-23.5 75.5q0 70 51.5 106.5t129.5 36.5q64 0 115 -27.5t74 -84.5l-120 -34q-8 24 -28 37.5t-47 13.5q-24 0 -40.5 -11.5t-16.5 -30.5
q0 -21 22 -31t76 -24q48 -13 81.5 -28.5t57 -46t23.5 -79.5q0 -74 -52.5 -112t-131.5 -38q-72 0 -132 31zM273 708h125l-124 -168h-101z" />
    <glyph glyph-name="Scedilla" unicode="&#x15e;" horiz-adv-x="555" 
d="M291 -116q0 21 -15.5 30.5t-46.5 11.5l16 63q-80 8 -139.5 50t-83.5 113l113 51q15 -49 55.5 -76.5t92.5 -27.5q53 0 85 26t32 71q0 33 -15 54.5t-41.5 36.5t-76.5 35q-63 25 -106 49.5t-74.5 70t-31.5 114.5q0 62 30.5 109t83 72.5t116.5 25.5q70 0 130 -32.5t92 -102.5
l-112 -51q-15 35 -45 54t-66 19q-45 0 -75.5 -25t-30.5 -66q0 -43 37.5 -73t112.5 -61q60 -25 100 -49t68.5 -66.5t28.5 -107.5q0 -96 -62.5 -152t-159.5 -62l-8 -32q36 -5 60 -25t24 -56q0 -49 -45.5 -78t-137.5 -29l17 73q78 0 78 43z" />
    <glyph glyph-name="scedilla" unicode="&#x15f;" horiz-adv-x="460" 
d="M241 -116q0 21 -15.5 30.5t-46.5 11.5l16 64q-59 9 -104.5 39t-67.5 83l114 41q14 -32 40.5 -47t57.5 -15q28 0 46 11.5t18 32.5q0 24 -21.5 35.5t-68.5 24.5q-50 13 -82.5 27t-56 42.5t-23.5 75.5q0 70 51.5 106.5t129.5 36.5q64 0 115 -27.5t74 -84.5l-120 -34
q-8 24 -28 37.5t-47 13.5q-24 0 -40.5 -11.5t-16.5 -30.5q0 -21 22 -31t76 -24q48 -13 81.5 -28.5t57 -46t23.5 -79.5q0 -71 -48.5 -109t-123.5 -41l-8 -31q36 -5 60 -25t24 -56q0 -49 -45.5 -78t-137.5 -29l17 73q78 0 78 43z" />
    <glyph glyph-name="Scaron" unicode="&#x160;" horiz-adv-x="555" 
d="M118 30.5q-70 43.5 -96 121.5l113 51q15 -49 55.5 -76.5t92.5 -27.5q53 0 85 26t32 71q0 33 -15 54.5t-41.5 36.5t-76.5 35q-63 25 -106 49.5t-74.5 70t-31.5 114.5q0 62 30.5 109t83 72.5t116.5 25.5q70 0 130 -32.5t92 -102.5l-112 -51q-15 35 -45 54t-66 19
q-45 0 -75.5 -25t-30.5 -66q0 -43 37.5 -73t112.5 -61q60 -25 100 -49t68.5 -66.5t28.5 -107.5q0 -69 -33 -117.5t-88.5 -73t-123.5 -24.5q-92 0 -162 43.5zM105 952h106l66 -79l66 79h106l-111 -139h-122z" />
    <glyph glyph-name="scaron" unicode="&#x161;" horiz-adv-x="460" 
d="M109 18q-60 31 -86 94l114 41q14 -32 40.5 -47t57.5 -15q28 0 46 11.5t18 32.5q0 24 -21.5 35.5t-68.5 24.5q-50 13 -82.5 27t-56 42.5t-23.5 75.5q0 70 51.5 106.5t129.5 36.5q64 0 115 -27.5t74 -84.5l-120 -34q-8 24 -28 37.5t-47 13.5q-24 0 -40.5 -11.5t-16.5 -30.5
q0 -21 22 -31t76 -24q48 -13 81.5 -28.5t57 -46t23.5 -79.5q0 -74 -52.5 -112t-131.5 -38q-72 0 -132 31zM65 686h100l59 -67l60 67h99l-114 -146h-89z" />
    <glyph glyph-name="uni0162" unicode="&#x162;" horiz-adv-x="548" 
d="M211 633h-209v117h543v-117h-208v-633h-35l-11 -44q36 -5 60 -25t24 -56q0 -49 -45.5 -78t-137.5 -29l17 73q78 0 78 43q0 21 -15.5 30.5t-46.5 11.5l19 74h-33v633z" />
    <glyph glyph-name="uni0163" unicode="&#x163;" horiz-adv-x="323" 
d="M100 366h-87v104h87v169h123v-169h89v-104h-89v-366h-33l-11 -44q36 -5 60 -25t24 -56q0 -49 -45.5 -78t-137.5 -29l17 73q78 0 78 43q0 21 -15.5 30.5t-46.5 11.5l19 74h-32v366z" />
    <glyph glyph-name="Tcaron" unicode="&#x164;" horiz-adv-x="548" 
d="M211 633h-209v117h543v-117h-208v-633h-126v633zM102 952h106l66 -79l66 79h106l-111 -139h-122z" />
    <glyph glyph-name="tcaron" unicode="&#x165;" horiz-adv-x="323" 
d="M100 366h-87v104h87v169h123v-169h89v-104h-89v-366h-123v366zM320 750h118l-80 -218h-82z" />
    <glyph glyph-name="Tbar" unicode="&#x166;" horiz-adv-x="548" 
d="M211 320h-89v110h89v203h-209v117h543v-117h-208v-203h90v-110h-90v-320h-126v320z" />
    <glyph glyph-name="tbar" unicode="&#x167;" horiz-adv-x="323" 
d="M100 168h-79v84h79v114h-87v104h87v169h123v-169h89v-104h-89v-114h80v-84h-80v-168h-123v168z" />
    <glyph glyph-name="Umacron" unicode="&#x16a;" horiz-adv-x="711" 
d="M213 14.5q-63 27.5 -100.5 85.5t-37.5 146v504h127v-490q0 -80 39.5 -115.5t113.5 -35.5q75 0 114.5 35.5t39.5 115.5v490h127v-504q0 -130 -78.5 -194.5t-202.5 -64.5q-79 0 -142 27.5zM215 907h282v-92h-282v92z" />
    <glyph glyph-name="umacron" unicode="&#x16b;" horiz-adv-x="536" 
d="M114 44q-58 54 -58 150v276h124v-272q0 -46 23 -73.5t64 -27.5t64.5 27.5t23.5 73.5v272h124v-276q0 -96 -58 -150t-154 -54q-95 0 -153 54zM127 627h282v-92h-282v92z" />
    <glyph glyph-name="Uring" unicode="&#x16e;" horiz-adv-x="711" 
d="M213 14.5q-63 27.5 -100.5 85.5t-37.5 146v504h127v-490q0 -80 39.5 -115.5t113.5 -35.5q75 0 114.5 35.5t39.5 115.5v490h127v-504q0 -130 -78.5 -194.5t-202.5 -64.5q-79 0 -142 27.5zM284 764.5q-29 29.5 -29 71.5t29.5 71.5t71.5 29.5t71.5 -30t29.5 -71
q0 -42 -29.5 -71.5t-71.5 -29.5q-43 0 -72 29.5zM330 810q11 -11 26 -11t26 11t11 26t-11 26t-26 11t-26 -11t-11 -26t11 -26z" />
    <glyph glyph-name="uring" unicode="&#x16f;" horiz-adv-x="536" 
d="M114 44q-58 54 -58 150v276h124v-272q0 -46 23 -73.5t64 -27.5t64.5 27.5t23.5 73.5v272h124v-276q0 -96 -58 -150t-154 -54q-95 0 -153 54zM190 556.5q-32 31.5 -32 76.5q0 47 32 79t78 32t78 -32.5t32 -78.5q0 -45 -32 -76.5t-78 -31.5t-78 31.5zM237.5 603.5
q12.5 -12.5 30.5 -12.5q17 0 30 12.5t13 29.5q0 19 -12.5 31.5t-30.5 12.5t-30.5 -12.5t-12.5 -31.5q0 -17 12.5 -29.5z" />
    <glyph glyph-name="Uhungarumlaut" unicode="&#x170;" horiz-adv-x="711" 
d="M213 14.5q-63 27.5 -100.5 85.5t-37.5 146v504h127v-490q0 -80 39.5 -115.5t113.5 -35.5q75 0 114.5 35.5t39.5 115.5v490h127v-504q0 -130 -78.5 -194.5t-202.5 -64.5q-79 0 -142 27.5zM487 952h125l-113 -139h-94zM294 952h125l-113 -139h-95z" />
    <glyph glyph-name="uhungarumlaut" unicode="&#x171;" horiz-adv-x="536" 
d="M114 44q-58 54 -58 150v276h124v-272q0 -46 23 -73.5t64 -27.5t64.5 27.5t23.5 73.5v272h124v-276q0 -96 -58 -150t-154 -54q-95 0 -153 54zM416 708h131l-136 -168h-94zM223 708h131l-136 -168h-95z" />
    <glyph glyph-name="Uogonek" unicode="&#x172;" horiz-adv-x="711" 
d="M289.5 -167q-39.5 27 -39.5 71q0 51 54 86q-103 13 -166 77t-63 179v504h127v-490q0 -80 39.5 -115.5t113.5 -35.5q75 0 114.5 35.5t39.5 115.5v490h127v-504q0 -121 -69 -185.5t-180 -72.5q-26 -13 -40 -29.5t-14 -31.5q0 -18 20 -29t60 -11v-81q-84 0 -123.5 27z" />
    <glyph glyph-name="uogonek" unicode="&#x173;" horiz-adv-x="536" 
d="M210.5 -167q-39.5 27 -39.5 71q0 53 58 88q-80 11 -126.5 64t-46.5 138v276h124v-272q0 -46 23 -73.5t64 -27.5t64.5 27.5t23.5 73.5v272h124v-276q0 -80 -42 -132t-114 -67q-32 -14 -50.5 -32.5t-18.5 -35.5q0 -18 20 -29t60 -11v-81q-84 0 -123.5 27z" />
    <glyph glyph-name="Wcircumflex" unicode="&#x174;" horiz-adv-x="1015" 
d="M-3 750h133l238 -540l79 182l-157 358h127l91 -218l91 218h126l-156 -357l79 -184l237 541h133l-328 -750h-71l-111 252l-111 -252h-71zM447 952h121l112 -139h-107l-66 80l-66 -80h-106z" />
    <glyph glyph-name="wcircumflex" unicode="&#x175;" horiz-adv-x="762" 
d="M-5 470h129l106 -308l103 308h95l103 -308l107 308h130l-185 -470h-104l-99 295l-98 -295h-104zM337 686h89l114 -146h-99l-60 68l-59 -68h-100z" />
    <glyph glyph-name="Ycircumflex" unicode="&#x176;" horiz-adv-x="650" 
d="M262 360l-272 390h146l188 -275l191 275h146l-274 -389v-361h-125v360zM265 952h121l112 -139h-107l-66 80l-66 -80h-106z" />
    <glyph glyph-name="ycircumflex" unicode="&#x177;" horiz-adv-x="526" 
d="M204 36l-216 434h144l133 -299l137 299h135l-326 -714h-135zM219 686h89l114 -146h-99l-60 68l-59 -68h-100z" />
    <glyph glyph-name="Ydieresis" unicode="&#x178;" horiz-adv-x="650" 
d="M262 360l-272 390h146l188 -275l191 275h146l-274 -389v-361h-125v360zM369 829q-20 20 -20 50q0 31 20 51.5t51 20.5t50.5 -20.5t19.5 -51.5q0 -30 -19.5 -50t-50.5 -20t-51 20zM179 930.5q20 20.5 51 20.5t50.5 -20.5t19.5 -51.5q0 -30 -19.5 -50t-50.5 -20t-51 20
t-20 50q0 31 20 51.5z" />
    <glyph glyph-name="Zacute" unicode="&#x179;" horiz-adv-x="630" 
d="M394 632h-351v118h569l-387 -632h388v-118h-606zM350 952h125l-113 -139h-95z" />
    <glyph glyph-name="zacute" unicode="&#x17a;" horiz-adv-x="481" 
d="M264 366h-232v104h430l-243 -363h244v-107h-456zM290 708h125l-124 -168h-101z" />
    <glyph glyph-name="Zdotaccent" unicode="&#x17b;" horiz-adv-x="630" 
d="M394 632h-351v118h569l-387 -632h388v-118h-606zM264 829q-20 20 -20 50q0 31 20 51.5t51 20.5t50.5 -20.5t19.5 -51.5q0 -30 -19.5 -50t-50.5 -20t-51 20z" />
    <glyph glyph-name="zdotaccent" unicode="&#x17c;" horiz-adv-x="481" 
d="M264 366h-232v104h430l-243 -363h244v-107h-456zM185.5 562.5q-22.5 22.5 -22.5 55.5t22.5 55.5t55.5 22.5t55.5 -22.5t22.5 -55.5t-22.5 -55.5t-55.5 -22.5t-55.5 22.5z" />
    <glyph glyph-name="Zcaron" unicode="&#x17d;" horiz-adv-x="630" 
d="M394 632h-351v118h569l-387 -632h388v-118h-606zM143 952h106l66 -79l66 79h106l-111 -139h-122z" />
    <glyph glyph-name="zcaron" unicode="&#x17e;" horiz-adv-x="481" 
d="M264 366h-232v104h430l-243 -363h244v-107h-456zM82 686h100l59 -67l60 67h99l-114 -146h-89z" />
    <glyph glyph-name="florin" unicode="&#x192;" horiz-adv-x="577" 
d="M147.5 -50q45.5 35 54.5 89l40 210h-103v103h122l14 75q11 60 58 98.5t108 38.5h100v-103h-100q-24 0 -42.5 -15t-23.5 -38l-9 -56h121v-103h-141l-42 -229q-17 -91 -90 -148.5t-188 -64.5v103q76 5 121.5 40z" />
    <glyph glyph-name="uni01D0" unicode="&#x1d0;" horiz-adv-x="266" 
d="M71 470h124v-470h-124v470zM-26 686h100l59 -67l60 67h99l-114 -146h-89z" />
    <glyph glyph-name="uni0218" unicode="&#x218;" horiz-adv-x="555" 
d="M118 30.5q-70 43.5 -96 121.5l113 51q15 -49 55.5 -76.5t92.5 -27.5q53 0 85 26t32 71q0 33 -15 54.5t-41.5 36.5t-76.5 35q-63 25 -106 49.5t-74.5 70t-31.5 114.5q0 62 30.5 109t83 72.5t116.5 25.5q70 0 130 -32.5t92 -102.5l-112 -51q-15 35 -45 54t-66 19
q-45 0 -75.5 -25t-30.5 -66q0 -43 37.5 -73t112.5 -61q60 -25 100 -49t68.5 -66.5t28.5 -107.5q0 -69 -33 -117.5t-88.5 -73t-123.5 -24.5q-92 0 -162 43.5zM216 -63h126l-108 -147h-92z" />
    <glyph glyph-name="uni0219" unicode="&#x219;" horiz-adv-x="460" 
d="M109 18q-60 31 -86 94l114 41q14 -32 40.5 -47t57.5 -15q28 0 46 11.5t18 32.5q0 24 -21.5 35.5t-68.5 24.5q-50 13 -82.5 27t-56 42.5t-23.5 75.5q0 70 51.5 106.5t129.5 36.5q64 0 115 -27.5t74 -84.5l-120 -34q-8 24 -28 37.5t-47 13.5q-24 0 -40.5 -11.5t-16.5 -30.5
q0 -21 22 -31t76 -24q48 -13 81.5 -28.5t57 -46t23.5 -79.5q0 -74 -52.5 -112t-131.5 -38q-72 0 -132 31zM166 -63h126l-108 -147h-92z" />
    <glyph glyph-name="uni021A" unicode="&#x21a;" horiz-adv-x="548" 
d="M211 633h-209v117h543v-117h-208v-633h-126v633zM211 -63h126l-108 -147h-92z" />
    <glyph glyph-name="uni021B" unicode="&#x21b;" horiz-adv-x="323" 
d="M100 366h-87v104h87v169h123v-169h89v-104h-89v-366h-123v366zM99 -63h126l-108 -147h-92z" />
    <glyph glyph-name="uni0237" unicode="&#x237;" horiz-adv-x="266" 
d="M71 470h124v-714h-124v714z" />
    <glyph glyph-name="circumflex" unicode="&#x2c6;" horiz-adv-x="349" 
d="M130 686h89l114 -146h-99l-60 68l-59 -68h-100z" />
    <glyph glyph-name="caron" unicode="&#x2c7;" horiz-adv-x="353" 
d="M17 686h100l59 -67l60 67h99l-114 -146h-89z" />
    <glyph glyph-name="breve" unicode="&#x2d8;" horiz-adv-x="424" 
d="M94 567q-51 34 -51 120h96q0 -46 19 -63.5t54 -17.5q34 0 53.5 18t19.5 63h95q0 -86 -50.5 -120t-117.5 -34t-118 34z" />
    <glyph glyph-name="dotaccent" unicode="&#x2d9;" horiz-adv-x="248" 
d="M76.5 562.5q-22.5 22.5 -22.5 55.5t22.5 55.5t55.5 22.5t55.5 -22.5t22.5 -55.5t-22.5 -55.5t-55.5 -22.5t-55.5 22.5z" />
    <glyph glyph-name="ring" unicode="&#x2da;" horiz-adv-x="315" 
d="M79 556.5q-32 31.5 -32 76.5q0 47 32 79t78 32t78 -32.5t32 -78.5q0 -45 -32 -76.5t-78 -31.5t-78 31.5zM126.5 603.5q12.5 -12.5 30.5 -12.5q17 0 30 12.5t13 29.5q0 19 -12.5 31.5t-30.5 12.5t-30.5 -12.5t-12.5 -31.5q0 -17 12.5 -29.5z" />
    <glyph glyph-name="ogonek" unicode="&#x2db;" horiz-adv-x="260" 
d="M83.5 -167q-39.5 27 -39.5 71q0 70 100 109l63 -13q-37 -15 -58.5 -35t-21.5 -38t20 -29t60 -11v-81q-84 0 -123.5 27z" />
    <glyph glyph-name="tilde" unicode="&#x2dc;" horiz-adv-x="461" 
d="M260.5 540.5q-18.5 8.5 -40.5 25.5q-18 14 -29.5 21t-23.5 7q-16 0 -26 -11t-30 -45l-74 44q34 55 60 76t65 21q45 0 95 -39q16 -13 24 -18t17 -5q13 0 20.5 8t17 24.5t13.5 23.5l75 -42q-32 -56 -58.5 -77.5t-66.5 -21.5q-20 0 -38.5 8.5z" />
    <glyph glyph-name="hungarumlaut" unicode="&#x2dd;" horiz-adv-x="454" 
d="M314 708h131l-136 -168h-94zM121 708h131l-136 -168h-95z" />
    <glyph glyph-name="gravecomb" unicode="&#x300;" 
d="M13 708h125l100 -168h-102z" />
    <glyph glyph-name="acutecomb" unicode="&#x301;" 
d="M121 708h125l-124 -168h-101z" />
    <glyph glyph-name="uni0302" unicode="&#x302;" 
d="M130 686h89l114 -146h-99l-60 68l-59 -68h-100z" />
    <glyph glyph-name="tildecomb" unicode="&#x303;" 
d="M260.5 540.5q-18.5 8.5 -40.5 25.5q-18 14 -29.5 21t-23.5 7q-16 0 -26 -11t-30 -45l-74 44q34 55 60 76t65 21q45 0 95 -39q16 -13 24 -18t17 -5q13 0 20.5 8t17 24.5t13.5 23.5l75 -42q-32 -56 -58.5 -77.5t-66.5 -21.5q-20 0 -38.5 8.5z" />
    <glyph glyph-name="uni0304" unicode="&#x304;" 
d="M71 627h282v-92h-282v92z" />
    <glyph glyph-name="uni0306" unicode="&#x306;" 
d="M94 567q-51 34 -51 120h96q0 -46 19 -63.5t54 -17.5q34 0 53.5 18t19.5 63h95q0 -86 -50.5 -120t-117.5 -34t-118 34z" />
    <glyph glyph-name="uni0307" unicode="&#x307;" 
d="M76.5 562.5q-22.5 22.5 -22.5 55.5t22.5 55.5t55.5 22.5t55.5 -22.5t22.5 -55.5t-22.5 -55.5t-55.5 -22.5t-55.5 22.5z" />
    <glyph glyph-name="uni0308" unicode="&#x308;" 
d="M281.5 562.5q-22.5 22.5 -22.5 55.5t22.5 55.5t55.5 22.5t55.5 -22.5t22.5 -55.5t-22.5 -55.5t-55.5 -22.5t-55.5 22.5zM76 673.5q23 22.5 55 22.5q33 0 55.5 -22.5t22.5 -55.5t-22.5 -55.5t-55.5 -22.5q-32 0 -55 22.5t-23 55.5t23 55.5z" />
    <glyph glyph-name="uni030A" unicode="&#x30a;" 
d="M79 556.5q-32 31.5 -32 76.5q0 47 32 79t78 32t78 -32.5t32 -78.5q0 -45 -32 -76.5t-78 -31.5t-78 31.5zM126.5 603.5q12.5 -12.5 30.5 -12.5q17 0 30 12.5t13 29.5q0 19 -12.5 31.5t-30.5 12.5t-30.5 -12.5t-12.5 -31.5q0 -17 12.5 -29.5z" />
    <glyph glyph-name="uni030B" unicode="&#x30b;" 
d="M314 708h131l-136 -168h-94zM121 708h131l-136 -168h-95z" />
    <glyph glyph-name="uni030C" unicode="&#x30c;" 
d="M17 686h100l59 -67l60 67h99l-114 -146h-89z" />
    <glyph glyph-name="uni0312" unicode="&#x312;" 
d="M142 561h-125l108 147h91z" />
    <glyph glyph-name="uni0326" unicode="&#x326;" 
d="M108 -63h126l-108 -147h-92z" />
    <glyph glyph-name="uni0327" unicode="&#x327;" 
d="M133 -116q0 21 -15.5 30.5t-46.5 11.5l20 80h59l-13 -50q36 -5 60 -25t24 -56q0 -49 -45.5 -78t-137.5 -29l17 73q78 0 78 43z" />
    <glyph glyph-name="uni0328" unicode="&#x328;" 
d="M83.5 -167q-39.5 27 -39.5 71q0 70 100 109l63 -13q-37 -15 -58.5 -35t-21.5 -38t20 -29t60 -11v-81q-84 0 -123.5 27z" />
    <glyph glyph-name="uni0335" unicode="&#x335;" 
d="M71 411h305v-84h-305v84z" />
    <glyph glyph-name="uni0336" unicode="&#x336;" 
d="M71 411h697v-84h-697v84z" />
    <glyph glyph-name="uni0337" unicode="&#x337;" 
d="M15 308l278 165l49 -87l-279 -163z" />
    <glyph glyph-name="uni0338" unicode="&#x338;" 
d="M289 532h73l-308 -606h-73z" />
    <glyph glyph-name="uni0394" unicode="&#x394;" horiz-adv-x="708" 
d="M354 625l361 -625h-723zM513 117l-159 275l-159 -275h318z" />
    <glyph glyph-name="uni03A9" unicode="&#x3a9;" horiz-adv-x="873" 
d="M53 116h121q-58 54 -89.5 122t-31.5 146q0 102 52 188.5t140 137t191 50.5q104 0 192 -50.5t140 -137t52 -188.5q0 -78 -31.5 -145.5t-89.5 -122.5h121v-116h-298l-5 114q56 21 97 63.5t62 95.5t21 107q0 72 -35 130.5t-95 92.5t-131 34t-130.5 -34t-94.5 -92.5
t-35 -130.5q0 -54 21 -107t62 -95.5t97 -63.5l-5 -114h-298v116z" />
    <glyph glyph-name="uni03BC" unicode="&#x3bc;" horiz-adv-x="551" 
d="M71 470h124v-272q0 -46 23 -73.5t64 -27.5t64.5 27.5t23.5 73.5v272h124v-470h-73l-11 24q-53 -34 -128 -34q-52 0 -91 19v-214h-120v675z" />
    <glyph glyph-name="pi" unicode="&#x3c0;" horiz-adv-x="589" 
d="M430 3q-42 12 -63.5 45.5t-21.5 99.5v205h-132v-353h-122v353h-63v117h519v-117h-79v-189q0 -35 17.5 -49.5t61.5 -16.5v-109q-75 2 -117 14z" />
    <glyph glyph-name="Wgrave" unicode="&#x1e80;" horiz-adv-x="1015" 
d="M-3 750h133l238 -540l79 182l-157 358h127l91 -218l91 218h126l-156 -357l79 -184l237 541h133l-328 -750h-71l-111 252l-111 -252h-71zM347 952h126l82 -139h-95z" />
    <glyph glyph-name="wgrave" unicode="&#x1e81;" horiz-adv-x="762" 
d="M-5 470h129l106 -308l103 308h95l103 -308l107 308h130l-185 -470h-104l-99 295l-98 -295h-104zM207 708h125l100 -168h-102z" />
    <glyph glyph-name="Wacute" unicode="&#x1e82;" horiz-adv-x="1015" 
d="M-3 750h133l238 -540l79 182l-157 358h127l91 -218l91 218h126l-156 -357l79 -184l237 541h133l-328 -750h-71l-111 252l-111 -252h-71zM543 952h125l-113 -139h-95z" />
    <glyph glyph-name="wacute" unicode="&#x1e83;" horiz-adv-x="762" 
d="M-5 470h129l106 -308l103 308h95l103 -308l107 308h130l-185 -470h-104l-99 295l-98 -295h-104zM430 708h125l-124 -168h-101z" />
    <glyph glyph-name="Wdieresis" unicode="&#x1e84;" horiz-adv-x="1015" 
d="M-3 750h133l238 -540l79 182l-157 358h127l91 -218l91 218h126l-156 -357l79 -184l237 541h133l-328 -750h-71l-111 252l-111 -252h-71zM552 829q-20 20 -20 50q0 31 20 51.5t51 20.5t50.5 -20.5t19.5 -51.5q0 -30 -19.5 -50t-50.5 -20t-51 20zM362 930.5
q20 20.5 51 20.5t50.5 -20.5t19.5 -51.5q0 -30 -19.5 -50t-50.5 -20t-51 20t-20 50q0 31 20 51.5z" />
    <glyph glyph-name="wdieresis" unicode="&#x1e85;" horiz-adv-x="762" 
d="M-5 470h129l106 -308l103 308h95l103 -308l107 308h130l-185 -470h-104l-99 295l-98 -295h-104zM428.5 562.5q-22.5 22.5 -22.5 55.5t22.5 55.5t55.5 22.5t55.5 -22.5t22.5 -55.5t-22.5 -55.5t-55.5 -22.5t-55.5 22.5zM223 673.5q23 22.5 55 22.5q33 0 55.5 -22.5
t22.5 -55.5t-22.5 -55.5t-55.5 -22.5q-32 0 -55 22.5t-23 55.5t23 55.5z" />
    <glyph glyph-name="Ygrave" unicode="&#x1ef2;" horiz-adv-x="650" 
d="M262 360l-272 390h146l188 -275l191 275h146l-274 -389v-361h-125v360zM164 952h126l82 -139h-95z" />
    <glyph glyph-name="ygrave" unicode="&#x1ef3;" horiz-adv-x="526" 
d="M204 36l-216 434h144l133 -299l137 299h135l-326 -714h-135zM89 708h125l100 -168h-102z" />
    <glyph glyph-name="uni2000" unicode="&#x2000;" horiz-adv-x="500" 
 />
    <glyph glyph-name="uni2001" unicode="&#x2001;" horiz-adv-x="1000" 
 />
    <glyph glyph-name="uni2002" unicode="&#x2002;" horiz-adv-x="500" 
 />
    <glyph glyph-name="uni2003" unicode="&#x2003;" horiz-adv-x="1000" 
 />
    <glyph glyph-name="endash" unicode="&#x2013;" horiz-adv-x="675" 
d="M71 289h534v-101h-534v101z" />
    <glyph glyph-name="emdash" unicode="&#x2014;" horiz-adv-x="1000" 
d="M0 289h1000v-101h-1000v101z" />
    <glyph glyph-name="quoteleft" unicode="&#x2018;" horiz-adv-x="245" 
d="M157 410h-129l100 340h90z" />
    <glyph glyph-name="quoteright" unicode="&#x2019;" horiz-adv-x="245" 
d="M88 750h129l-100 -340h-90z" />
    <glyph glyph-name="quotesinglbase" unicode="&#x201a;" horiz-adv-x="228" 
d="M78 101h117l-87 -264h-91z" />
    <glyph glyph-name="quotedblleft" unicode="&#x201c;" horiz-adv-x="437" 
d="M158 410h-131l101 340h91zM319 750h91l-61 -340h-131z" />
    <glyph glyph-name="quotedblright" unicode="&#x201d;" horiz-adv-x="437" 
d="M279 750h131l-101 -340h-91zM88 750h131l-101 -340h-91z" />
    <glyph glyph-name="quotedblbase" unicode="&#x201e;" horiz-adv-x="437" 
d="M273 101h131l-114 -264h-91zM91 101h131l-114 -264h-91z" />
    <glyph glyph-name="dagger" unicode="&#x2020;" horiz-adv-x="405" 
d="M138 405h-114v109h114v236h125v-236h119v-109h-119v-485h-125v485z" />
    <glyph glyph-name="daggerdbl" unicode="&#x2021;" horiz-adv-x="461" 
d="M166 140h-115v109h115v172h-115v109h115v220h125v-220h118v-109h-118v-172h118v-109h-118v-220h-125v220z" />
    <glyph glyph-name="bullet" unicode="&#x2022;" horiz-adv-x="436" 
d="M142 109.5q-34 19.5 -54 53.5t-20 76q0 40 20 74t54.5 54t74.5 20q42 0 76 -20t53.5 -53.5t19.5 -74.5q0 -64 -42 -106.5t-107 -42.5q-41 0 -75 19.5z" />
    <glyph glyph-name="ellipsis" unicode="&#x2026;" horiz-adv-x="797" 
d="M572 14.5q-25 24.5 -25 59.5t24.5 60t60.5 25q35 0 59.5 -25t24.5 -60t-24.5 -59.5t-59.5 -24.5t-60 24.5zM105 134q25 25 60 25t59.5 -25t24.5 -60t-24.5 -59.5t-59.5 -24.5t-60 24.5t-25 59.5t25 60zM338.5 134q24.5 25 59.5 25t60 -25t25 -60t-25 -59.5t-60 -24.5
t-59.5 24.5t-24.5 59.5t24.5 60z" />
    <glyph glyph-name="perthousand" unicode="&#x2030;" horiz-adv-x="1080" 
d="M534 750h138l-467 -750h-138zM55.5 680q21.5 37 58.5 58.5t80 21.5t80 -21.5t58.5 -58.5t21.5 -80q0 -44 -21.5 -80.5t-58.5 -58t-80 -21.5t-80 21.5t-58.5 58t-21.5 80.5q0 43 21.5 80zM152 557.5q17 -17.5 42 -17.5q24 0 41.5 17.5t17.5 42.5t-17.5 42.5t-41.5 17.5
q-25 0 -42 -17.5t-17 -42.5t17 -42.5zM408 230.5q22 36.5 58.5 58t79.5 21.5t79.5 -21.5t58.5 -58t22 -80.5q0 -43 -22 -80t-58.5 -58.5t-79.5 -21.5t-79.5 21.5t-58.5 58.5t-22 80q0 44 22 80.5zM503.5 107.5q17.5 -17.5 42.5 -17.5q24 0 41.5 17.5t17.5 42.5t-17.5 42.5
t-41.5 17.5q-25 0 -42.5 -17.5t-17.5 -42.5t17.5 -42.5zM757 230.5q22 36.5 59 58t80 21.5t79.5 -21.5t58 -58t21.5 -80.5q0 -43 -21.5 -80t-58 -58.5t-79.5 -21.5t-80 21.5t-59 58.5t-22 80q0 44 22 80.5zM853.5 107.5q17.5 -17.5 42.5 -17.5q24 0 41.5 18t17.5 42
q0 25 -17.5 42.5t-41.5 17.5q-25 0 -42.5 -17.5t-17.5 -42.5t17.5 -42.5z" />
    <glyph glyph-name="guilsinglleft" unicode="&#x2039;" horiz-adv-x="283" 
d="M9 241l185 177l51 -61l-123 -118l124 -128l-52 -58z" />
    <glyph glyph-name="guilsinglright" unicode="&#x203a;" horiz-adv-x="283" 
d="M36 111l125 128l-124 118l52 61l184 -177l-184 -188z" />
    <glyph glyph-name="fraction" unicode="&#x2044;" horiz-adv-x="267" 
d="M272 760h80l-357 -770h-80z" />
    <glyph glyph-name="Euro" unicode="&#x20ac;" horiz-adv-x="686" 
d="M266 67.5q-104 67.5 -144 185.5h-70v90h52q-2 14 -2 35q0 22 2 35h-52v90h70q40 116 144 181.5t245 65.5h103v-113h-103q-89 0 -155 -34.5t-102 -99.5h302v-90h-329q-1 -13 -1 -35t1 -35h329v-90h-302q35 -67 101.5 -103.5t155.5 -36.5h103v-113h-103q-141 0 -245 67.5z
" />
    <glyph glyph-name="trademark" unicode="&#x2122;" horiz-adv-x="670" 
d="M307 750h48l119 -166l118 166h46v-323h-70v177l-94 -133l-96 134v-178h-71v323zM32 750h231v-67h-80v-256h-71v256h-80v67z" />
    <glyph glyph-name="partialdiff" unicode="&#x2202;" horiz-adv-x="620" 
d="M165 17q-58 31 -90.5 88.5t-32.5 135.5q0 76 27.5 132t78.5 86t118 30q44 0 87 -18.5t80 -52.5q-14 69 -54 124.5t-120 122.5l41 81q139 -76 201.5 -176.5t62.5 -235.5q0 -106 -32.5 -184.5t-92.5 -121t-142 -42.5q-74 0 -132 31zM199.5 147.5q35.5 -37.5 97.5 -37.5
q57 0 95 39.5t48 106.5q-30 54 -78 86t-94 32q-47 0 -75.5 -32.5t-28.5 -92.5q0 -64 35.5 -101.5z" />
    <glyph glyph-name="product" unicode="&#x220f;" horiz-adv-x="650" 
d="M107 750h436v-750h-123v626h-190v-626h-123v750z" />
    <glyph glyph-name="summation" unicode="&#x2211;" horiz-adv-x="642" 
d="M402 379l-389 371h570v-116h-283l268 -254l-270 -264h285v-116h-569z" />
    <glyph glyph-name="minus" unicode="&#x2212;" horiz-adv-x="606" 
d="M106 319h394v-110h-394v110z" />
    <glyph glyph-name="radical" unicode="&#x221a;" horiz-adv-x="814" 
d="M113 272h-90v129h181l124 -378l333 727h143l-436 -906h-101z" />
    <glyph glyph-name="infinity" unicode="&#x221e;" horiz-adv-x="1180" 
d="M186.5 23q-59.5 33 -94 89t-34.5 122t34.5 122t94 89t130.5 33q145 0 273 -155q128 155 273 155q71 0 130.5 -33t94 -89t34.5 -122t-34.5 -122t-94 -89t-130.5 -33q-145 0 -273 155q-128 -155 -273 -155q-71 0 -130.5 33zM186.5 162q20.5 -33 55.5 -52.5t75 -19.5
q54 0 108.5 40.5t100.5 103.5q-46 63 -100.5 103.5t-108.5 40.5q-40 0 -75 -19.5t-55.5 -52.5t-20.5 -72t20.5 -72zM754.5 130.5q54.5 -40.5 108.5 -40.5q41 0 75.5 19.5t55 52.5t20.5 72t-20.5 72t-55 52.5t-75.5 19.5q-54 0 -108.5 -40.5t-100.5 -103.5
q46 -63 100.5 -103.5z" />
    <glyph glyph-name="integral" unicode="&#x222b;" horiz-adv-x="519" 
d="M114.5 -44.5q35.5 27.5 46.5 84.5l98 540q15 83 60 126.5t107 43.5h79v-109h-64q-34 0 -51.5 -20t-26.5 -74l-97 -527q-34 -192 -249 -207l-3 110q65 5 100.5 32.5z" />
    <glyph glyph-name="approxequal" unicode="&#x2248;" horiz-adv-x="590" 
d="M334 288q-21 10 -47 29q-25 17 -37.5 24t-28.5 7q-17 0 -27.5 -10t-25.5 -34l-12 -18l-89 48l17 32q21 41 53.5 61.5t71.5 20.5q54 0 112 -42q20 -14 29.5 -20t20.5 -6q23 0 41 34l18 35l91 -44l-22 -42q-23 -43 -52 -64t-67 -21q-25 0 -46 10zM84 160q21 41 53.5 61.5
t71.5 20.5q54 0 112 -42q18 -13 28.5 -19t21.5 -6q24 0 41 34l18 35l91 -45l-22 -41q-23 -43 -51.5 -64t-67.5 -21q-26 0 -47 9.5t-46 28.5q-22 16 -36 23.5t-30 7.5q-17 0 -27.5 -10t-25.5 -34l-12 -18l-89 48z" />
    <glyph glyph-name="notequal" unicode="&#x2260;" horiz-adv-x="638" 
d="M191 121h-109v103h162l42 81h-204v103h257l51 99h112l-51 -99h106v-103h-159l-42 -81h201v-103h-254l-54 -104h-112z" />
    <glyph glyph-name="uniF8FF" unicode="&#xf8ff;" horiz-adv-x="853" 
d="M236.5 51q-86.5 51 -137.5 137.5t-51 189.5t51 189.5t137.5 137.5t189.5 51t189.5 -51t137.5 -137.5t51 -189.5t-51 -189.5t-137.5 -137.5t-189.5 -51t-189.5 51zM129 206q46 -79 125 -125t172 -46t172 46t125 125t46 172t-46 172t-125 125t-172 46t-172 -46t-125 -125
t-46 -172t46 -172zM212 509q0 7 5 12.5t12 5.5q8 0 13 -5t5 -13v-262q0 -7 -5 -12t-13 -5q-7 0 -12 5t-5 12v262zM283 390.5q5 4.5 12 4.5h65q8 0 13 -5t5 -12t-5 -12t-13 -5h-65q-7 0 -12 5t-5 12q0 8 5 12.5zM409 509q0 8 5 13t12 5t12 -5t5 -13v-262q0 -7 -4.5 -12
t-12.5 -5q-7 0 -12 5t-5 12v262zM475 378q0 8 4 12l132 131q5 5 12 5t12 -5q5 -4 5 -12q0 -7 -5 -12l-119 -119l119 -119q5 -4 5 -12t-5 -12q-5 -5 -12 -5t-12 5l-132 131q-4 5 -4 12z" />
    <glyph glyph-name="uni004A0301" horiz-adv-x="354" 
d="M5 3v126q49 -20 81 -20q27 0 43 16.5t16 45.5v579h126v-581q0 -182 -150 -182q-51 0 -116 16zM218 952h125l-113 -139h-95z" />
    <glyph glyph-name="I.ss01" horiz-adv-x="346" 
d="M56 118h55v514h-55v118h235v-118h-55v-514h55v-118h-235v118z" />
    <glyph glyph-name="Iacute.ss01" horiz-adv-x="346" 
d="M56 118h55v514h-55v118h235v-118h-55v-514h55v-118h-235v118zM209 952h125l-113 -139h-95z" />
    <glyph glyph-name="Icircumflex.ss01" horiz-adv-x="346" 
d="M56 118h55v514h-55v118h235v-118h-55v-514h55v-118h-235v118zM113 952h121l112 -139h-107l-66 80l-66 -80h-106z" />
    <glyph glyph-name="Idieresis.ss01" horiz-adv-x="346" 
d="M56 118h55v514h-55v118h235v-118h-55v-514h55v-118h-235v118zM218 829q-20 20 -20 50q0 31 20 51.5t51 20.5t50.5 -20.5t19.5 -51.5q0 -30 -19.5 -50t-50.5 -20t-51 20zM28 930.5q20 20.5 51 20.5t50.5 -20.5t19.5 -51.5q0 -30 -19.5 -50t-50.5 -20t-51 20t-20 50
q0 31 20 51.5z" />
    <glyph glyph-name="Idotaccent.ss01" horiz-adv-x="346" 
d="M56 118h55v514h-55v118h235v-118h-55v-514h55v-118h-235v118zM122 829q-20 20 -20 50q0 31 20 51.5t51 20.5t50.5 -20.5t19.5 -51.5q0 -30 -19.5 -50t-50.5 -20t-51 20z" />
    <glyph glyph-name="Igrave.ss01" horiz-adv-x="346" 
d="M56 118h55v514h-55v118h235v-118h-55v-514h55v-118h-235v118zM13 952h126l82 -139h-95z" />
    <glyph glyph-name="Imacron.ss01" horiz-adv-x="346" 
d="M56 118h55v514h-55v118h235v-118h-55v-514h55v-118h-235v118zM33 907h282v-92h-282v92z" />
    <glyph glyph-name="Iogonek.ss01" horiz-adv-x="346" 
d="M56 118h55v514h-55v118h235v-118h-55v-514h55v-118q-37 -15 -58.5 -35t-21.5 -38t20 -29t60 -11v-81q-84 0 -123.5 27t-39.5 71q0 59 71 96h-143v118z" />
    <glyph glyph-name="i.loclTRK" horiz-adv-x="266" 
d="M71 470h124v-470h-124v470zM77.5 562.5q-22.5 22.5 -22.5 55.5t22.5 55.5t55.5 22.5t55.5 -22.5t22.5 -55.5t-22.5 -55.5t-55.5 -22.5t-55.5 22.5z" />
    <glyph glyph-name="uni006A0301" horiz-adv-x="266" 
d="M71 470h124v-714h-124v714zM182 708h125l-124 -168h-101z" />
    <glyph glyph-name="j.ss01" horiz-adv-x="266" 
d="M-13 -139h39q24 0 34.5 11.5t10.5 35.5v562h124v-566q0 -75 -40 -114.5t-109 -39.5h-59v111zM77.5 562.5q-22.5 22.5 -22.5 55.5t22.5 55.5t55.5 22.5t55.5 -22.5t22.5 -55.5t-22.5 -55.5t-55.5 -22.5t-55.5 22.5z" />
    <glyph glyph-name="uni0237.ss01" horiz-adv-x="266" 
d="M-13 -139h39q24 0 34.5 11.5t10.5 35.5v562h124v-566q0 -75 -40 -114.5t-109 -39.5h-59v111z" />
    <glyph glyph-name="l.ss01" horiz-adv-x="290" 
d="M103 39.5q-40 39.5 -40 114.5v596h124v-592q0 -24 10.5 -35.5t34.5 -11.5h39v-111h-59q-69 0 -109 39.5z" />
    <glyph glyph-name="lacute.ss01" horiz-adv-x="290" 
d="M103 39.5q-40 39.5 -40 114.5v596h124v-592q0 -24 10.5 -35.5t34.5 -11.5h39v-111h-59q-69 0 -109 39.5zM157 952h125l-113 -139h-95z" />
    <glyph glyph-name="lcaron.ss01" horiz-adv-x="290" 
d="M103 39.5q-40 39.5 -40 114.5v596h124v-592q0 -24 10.5 -35.5t34.5 -11.5h39v-111h-59q-69 0 -109 39.5zM262 750h118l-80 -218h-82z" />
    <glyph glyph-name="lslash.ss01" horiz-adv-x="290" 
d="M103 39.5q-40 39.5 -40 114.5v113l-47 -27l-48 85l95 56v369h124v-295l59 35l49 -87l-108 -63v-182q0 -24 10.5 -35.5t34.5 -11.5h39v-111h-59q-69 0 -109 39.5z" />
    <glyph glyph-name="a.ss02" horiz-adv-x="529" 
d="M74 30q-45 40 -45 104q0 45 24.5 82.5t71.5 57.5h222v37q0 34 -26.5 53.5t-63.5 19.5q-30 0 -56.5 -14t-39.5 -39l-110 34q55 115 207 115q94 0 153 -44.5t59 -137.5v-298h-116l-7 46q-81 -56 -160 -56q-68 0 -113 40zM172 92q20 -16 52 -16q31 0 65 14.5t57 37.5l1 66
h-156q-19 -11 -29 -27t-10 -33q0 -26 20 -42z" />
    <glyph glyph-name="aacute.ss02" horiz-adv-x="529" 
d="M74 30q-45 40 -45 104q0 45 24.5 82.5t71.5 57.5h222v37q0 34 -26.5 53.5t-63.5 19.5q-30 0 -56.5 -14t-39.5 -39l-110 34q55 115 207 115q94 0 153 -44.5t59 -137.5v-298h-116l-7 46q-81 -56 -160 -56q-68 0 -113 40zM172 92q20 -16 52 -16q31 0 65 14.5t57 37.5l1 66
h-156q-19 -11 -29 -27t-10 -33q0 -26 20 -42zM313 708h125l-124 -168h-101z" />
    <glyph glyph-name="acircumflex.ss02" horiz-adv-x="529" 
d="M74 30q-45 40 -45 104q0 45 24.5 82.5t71.5 57.5h222v37q0 34 -26.5 53.5t-63.5 19.5q-30 0 -56.5 -14t-39.5 -39l-110 34q55 115 207 115q94 0 153 -44.5t59 -137.5v-298h-116l-7 46q-81 -56 -160 -56q-68 0 -113 40zM172 92q20 -16 52 -16q31 0 65 14.5t57 37.5l1 66
h-156q-19 -11 -29 -27t-10 -33q0 -26 20 -42zM220 686h89l114 -146h-99l-60 68l-59 -68h-100z" />
    <glyph glyph-name="adieresis.ss02" horiz-adv-x="529" 
d="M74 30q-45 40 -45 104q0 45 24.5 82.5t71.5 57.5h222v37q0 34 -26.5 53.5t-63.5 19.5q-30 0 -56.5 -14t-39.5 -39l-110 34q55 115 207 115q94 0 153 -44.5t59 -137.5v-298h-116l-7 46q-81 -56 -160 -56q-68 0 -113 40zM172 92q20 -16 52 -16q31 0 65 14.5t57 37.5l1 66
h-156q-19 -11 -29 -27t-10 -33q0 -26 20 -42zM312.5 562.5q-22.5 22.5 -22.5 55.5t22.5 55.5t55.5 22.5t55.5 -22.5t22.5 -55.5t-22.5 -55.5t-55.5 -22.5t-55.5 22.5zM107 673.5q23 22.5 55 22.5q33 0 55.5 -22.5t22.5 -55.5t-22.5 -55.5t-55.5 -22.5q-32 0 -55 22.5
t-23 55.5t23 55.5z" />
    <glyph glyph-name="agrave.ss02" horiz-adv-x="529" 
d="M74 30q-45 40 -45 104q0 45 24.5 82.5t71.5 57.5h222v37q0 34 -26.5 53.5t-63.5 19.5q-30 0 -56.5 -14t-39.5 -39l-110 34q55 115 207 115q94 0 153 -44.5t59 -137.5v-298h-116l-7 46q-81 -56 -160 -56q-68 0 -113 40zM172 92q20 -16 52 -16q31 0 65 14.5t57 37.5l1 66
h-156q-19 -11 -29 -27t-10 -33q0 -26 20 -42zM90 708h125l100 -168h-102z" />
    <glyph glyph-name="amacron.ss02" horiz-adv-x="529" 
d="M74 30q-45 40 -45 104q0 45 24.5 82.5t71.5 57.5h222v37q0 34 -26.5 53.5t-63.5 19.5q-30 0 -56.5 -14t-39.5 -39l-110 34q55 115 207 115q94 0 153 -44.5t59 -137.5v-298h-116l-7 46q-81 -56 -160 -56q-68 0 -113 40zM172 92q20 -16 52 -16q31 0 65 14.5t57 37.5l1 66
h-156q-19 -11 -29 -27t-10 -33q0 -26 20 -42zM124 627h282v-92h-282v92z" />
    <glyph glyph-name="aogonek.ss02" horiz-adv-x="529" 
d="M74 30q-45 40 -45 104q0 45 24.5 82.5t71.5 57.5h222v37q0 34 -26.5 53.5t-63.5 19.5q-30 0 -56.5 -14t-39.5 -39l-110 34q55 115 207 115q94 0 153 -44.5t59 -137.5v-298h-1q-37 -15 -58.5 -35t-21.5 -38t20 -29t60 -11v-81q-84 0 -123.5 27t-39.5 71q0 59 71 96h-23
l-7 46q-81 -56 -160 -56q-68 0 -113 40zM172 92q20 -16 52 -16q31 0 65 14.5t57 37.5l1 66h-156q-19 -11 -29 -27t-10 -33q0 -26 20 -42z" />
    <glyph glyph-name="aring.ss02" horiz-adv-x="529" 
d="M74 30q-45 40 -45 104q0 45 24.5 82.5t71.5 57.5h222v37q0 34 -26.5 53.5t-63.5 19.5q-30 0 -56.5 -14t-39.5 -39l-110 34q55 115 207 115q94 0 153 -44.5t59 -137.5v-298h-116l-7 46q-81 -56 -160 -56q-68 0 -113 40zM172 92q20 -16 52 -16q31 0 65 14.5t57 37.5l1 66
h-156q-19 -11 -29 -27t-10 -33q0 -26 20 -42zM187 556.5q-32 31.5 -32 76.5q0 47 32 79t78 32t78 -32.5t32 -78.5q0 -45 -32 -76.5t-78 -31.5t-78 31.5zM234.5 603.5q12.5 -12.5 30.5 -12.5q17 0 30 12.5t13 29.5q0 19 -12.5 31.5t-30.5 12.5t-30.5 -12.5t-12.5 -31.5
q0 -17 12.5 -29.5z" />
    <glyph glyph-name="atilde.ss02" horiz-adv-x="529" 
d="M74 30q-45 40 -45 104q0 45 24.5 82.5t71.5 57.5h222v37q0 34 -26.5 53.5t-63.5 19.5q-30 0 -56.5 -14t-39.5 -39l-110 34q55 115 207 115q94 0 153 -44.5t59 -137.5v-298h-116l-7 46q-81 -56 -160 -56q-68 0 -113 40zM172 92q20 -16 52 -16q31 0 65 14.5t57 37.5l1 66
h-156q-19 -11 -29 -27t-10 -33q0 -26 20 -42zM294.5 540.5q-18.5 8.5 -40.5 25.5q-18 14 -29.5 21t-23.5 7q-16 0 -26 -11t-30 -45l-74 44q34 55 60 76t65 21q45 0 95 -39q16 -13 24 -18t17 -5q13 0 20.5 8t17 24.5t13.5 23.5l75 -42q-32 -56 -58.5 -77.5t-66.5 -21.5
q-20 0 -38.5 8.5z" />
    <glyph glyph-name="fl.ss01" horiz-adv-x="616" 
d="M93 365h-71v105h71v99q0 91 46 139.5t122 48.5q33 0 66 -10v-115h-6q-30 14 -52 14q-25 0 -38.5 -17.5t-13.5 -63.5v-95h110v-105h-110v-365h-124v365zM429 39.5q-40 39.5 -40 114.5v596h124v-592q0 -24 10.5 -35.5t34.5 -11.5h39v-111h-59q-69 0 -109 39.5z" />
    <glyph glyph-name="zero.lf" horiz-adv-x="639" 
d="M128.5 91.5q-67.5 101.5 -67.5 283.5q0 183 67.5 284t190.5 101t190.5 -101t67.5 -283q0 -183 -67.5 -284.5t-190.5 -101.5t-190.5 101.5zM221 174.5q35 -68.5 97 -68.5q63 0 98.5 70.5t35.5 197.5q0 128 -35 199.5t-98 71.5t-98 -73.5t-35 -205.5q0 -123 35 -191.5z" />
    <glyph glyph-name="one.lf" horiz-adv-x="342" 
d="M132 633h-132v117h257v-750h-125v633z" />
    <glyph glyph-name="two.lf" horiz-adv-x="569" 
d="M356.5 424q16.5 22 29 50.5t12.5 57.5q0 49 -34.5 80.5t-85.5 31.5q-62 0 -95 -37t-35 -108h-127q3 76 33 135t87 92.5t135 33.5q71 0 127.5 -29.5t88.5 -81.5t32 -117q0 -48 -15.5 -89t-39 -74.5t-66.5 -85.5l-19 -23l-118 -144h264v-116h-517l295 362q32 40 48.5 62z
" />
    <glyph glyph-name="three.lf" horiz-adv-x="574" 
d="M98.5 45q-73.5 56 -79.5 168h122q9 -58 48 -84.5t97 -26.5q54 0 91.5 36.5t37.5 90.5q0 58 -42 93.5t-114 35.5h-25v102h28q55 0 85.5 28t30.5 70q0 43 -27 67t-73 24q-49 0 -78.5 -25.5t-30.5 -75.5h-123q1 65 32.5 113t84 73.5t114.5 25.5q100 0 163 -52t63 -148
q0 -42 -20 -80.5t-54 -63.5q53 -32 81.5 -81t28.5 -106q0 -71 -34 -125.5t-92.5 -84.5t-128.5 -30q-112 0 -185.5 56z" />
    <glyph glyph-name="four.lf" horiz-adv-x="612" 
d="M380 138h-388l450 612h63v-498h85v-114h-85v-138h-125v138zM380 252v254l-181 -254h181z" />
    <glyph glyph-name="five.lf" horiz-adv-x="559" 
d="M101 25.5q-68 36.5 -110 107.5l100 67q29 -50 72 -74.5t90 -24.5q38 0 71 17t52.5 49.5t19.5 76.5q0 66 -43.5 105.5t-107.5 39.5q-43 0 -87 -19l-67 50l87 330h324v-117h-228l-36 -144q13 1 35 1q76 0 132 -32.5t86 -89t30 -126.5q0 -77 -38 -134.5t-101 -88t-136 -30.5
q-77 0 -145 36.5z" />
    <glyph glyph-name="six.lf" horiz-adv-x="575" 
d="M152 23q-62 34 -98 93.5t-36 131.5q0 82 66 174l234 328h143l-178 -246l16 1q71 0 130.5 -35t94 -94t34.5 -128q0 -72 -37 -131.5t-99 -93.5t-134 -34q-74 0 -136 34zM160 176q20 -33 54 -52.5t74 -19.5t74 19.5t53.5 52.5t19.5 72t-19.5 72t-53.5 52t-74 19t-74 -19
t-54 -52t-20 -72t20 -72z" />
    <glyph glyph-name="seven.lf" horiz-adv-x="557" 
d="M368 633h-348v117h547l-405 -750h-144z" />
    <glyph glyph-name="eight.lf" horiz-adv-x="587" 
d="M166.5 21q-59.5 31 -96 86t-36.5 122q0 55 27 103t76 84q-67 62 -67 144q0 57 31.5 103t83 71.5t108.5 25.5t108.5 -25.5t83 -71.5t31.5 -103q0 -80 -67 -144q50 -31 76.5 -77.5t26.5 -102.5q0 -69 -36 -125t-95.5 -88.5t-127.5 -32.5q-67 0 -126.5 31zM196 140.5
q40 -38.5 97 -38.5t97 38.5t40 95.5t-40 94.5t-97 37.5t-97 -37.5t-40 -94.5t40 -95.5zM222.5 485.5q29.5 -28.5 70.5 -28.5t70.5 28.5t29.5 69.5q0 40 -29.5 66.5t-70.5 26.5t-70.5 -26.5t-29.5 -66.5q0 -41 29.5 -69.5z" />
    <glyph glyph-name="nine.lf" horiz-adv-x="575" 
d="M292 246l-16 -1q-71 0 -130.5 35.5t-94 94.5t-34.5 128q0 72 37 131t99 92.5t134 33.5q74 0 136 -34t98 -92.5t36 -130.5q0 -81 -66 -175l-234 -328h-143zM159 431q20 -33 54 -52.5t74 -19.5t74 19.5t53.5 52.5t19.5 72t-19.5 72t-53.5 52t-74 19t-74 -19t-54 -52
t-20 -72t20 -72z" />
    <glyph glyph-name="uni030C.alt" 
d="M93 750h118l-80 -218h-82z" />
    <glyph glyph-name="uni0308.case" 
d="M265 829q-20 20 -20 50q0 31 20 51.5t51 20.5t50.5 -20.5t19.5 -51.5q0 -30 -19.5 -50t-50.5 -20t-51 20zM75 930.5q20 20.5 51 20.5t50.5 -20.5t19.5 -51.5q0 -30 -19.5 -50t-50.5 -20t-51 20t-20 50q0 31 20 51.5z" />
    <glyph glyph-name="uni0307.case" 
d="M75 829q-20 20 -20 50q0 31 20 51.5t51 20.5t50.5 -20.5t19.5 -51.5q0 -30 -19.5 -50t-50.5 -20t-51 20z" />
    <glyph glyph-name="gravecomb.case" 
d="M17 952h126l82 -139h-95z" />
    <glyph glyph-name="acutecomb.case" 
d="M113 952h125l-113 -139h-95z" />
    <glyph glyph-name="uni030B.case" 
d="M306 952h125l-113 -139h-94zM113 952h125l-113 -139h-95z" />
    <glyph glyph-name="uni0302.case" 
d="M128 952h121l112 -139h-107l-66 80l-66 -80h-106z" />
    <glyph glyph-name="uni030C.case" 
d="M18 952h106l66 -79l66 79h106l-111 -139h-122z" />
    <glyph glyph-name="uni0306.case" 
d="M94 838q-51 33 -51 114h95q0 -39 20 -57t53 -18q34 0 53.5 18t19.5 57h96q0 -81 -51 -114t-118 -33q-66 0 -117 33z" />
    <glyph glyph-name="uni030A.case" 
d="M78 764.5q-29 29.5 -29 71.5t29.5 71.5t71.5 29.5t71.5 -30t29.5 -71q0 -42 -29.5 -71.5t-71.5 -29.5q-43 0 -72 29.5zM124 810q11 -11 26 -11t26 11t11 26t-11 26t-26 11t-26 -11t-11 -26t11 -26z" />
    <glyph glyph-name="tildecomb.case" 
d="M253.5 813q-17.5 8 -37.5 24q-17 13 -28 19t-24 6q-14 0 -23 -8t-20 -26l-12 -18l-70 38l16 28q37 64 100 64q42 0 89 -34q3 -2 12 -8.5t16.5 -9.5t13.5 -3q17 0 34 28l15 28l71 -35l-18 -34q-37 -67 -96 -67q-21 0 -38.5 8z" />
    <glyph glyph-name="uni0335.case" 
d="M71 424h305v-110h-305v110z" />
    <glyph glyph-name="uni0337.case" 
d="M16 291l350 207v-102l-350 -206v101z" />
    <glyph glyph-name="uni0338.case" 
d="M483 760h115l-507 -770h-119z" />
    </font>
</defs>
</svg>
